<svg xmlns="http://www.w3.org/2000/svg" xmlns:xlink="http://www.w3.org/1999/xlink" contentStyleType="text/css" data-diagram-type="SEQUENCE" height="2047px" preserveAspectRatio="none" style="width:1387px;height:2047px;background:#FFFFFF;" version="1.1" viewBox="0 0 1387 2047" width="1387px" zoomAndPan="magnify"><title>PeiDocker WebGUI - Reactive Data Flow</title><defs/><g><text fill="#000000" font-family="Verdana" font-size="22" font-weight="bold" lengthAdjust="spacing" textLength="497.6211" x="443.6567" y="37.1182">PeiDocker WebGUI - Reactive Data Flow</text><g><title>UI Widget</title><rect fill="#FFFFFF" height="248.3945" style="stroke:#000000;stroke-width:1;" width="10" x="246.1841" y="206.3506"/></g><g><title>UI Widget</title><rect fill="#FFFFFF" height="675.9243" style="stroke:#000000;stroke-width:1;" width="10" x="246.1841" y="528.3438"/></g><g><title>UI Widget</title><rect fill="#FFFFFF" height="398.5918" style="stroke:#000000;stroke-width:1;" width="10" x="246.1841" y="1269.8667"/></g><g><title>Bindable Property</title><rect fill="#FFFFFF" height="207.6956" style="stroke:#000000;stroke-width:1;" width="10" x="406.2949" y="247.0496"/></g><g><title>Bindable Property</title><rect fill="#FFFFFF" height="65.5986" style="stroke:#000000;stroke-width:1;" width="10" x="406.2949" y="1486.4619"/></g><g><title>UI State</title><rect fill="#FFFFFF" height="166.9966" style="stroke:#000000;stroke-width:1;" width="10" x="559.4102" y="287.7485"/></g><g><title>UI State</title><rect fill="#FFFFFF" height="169.9966" style="stroke:#000000;stroke-width:1;" width="10" x="559.4102" y="1431.8633"/></g><g><title>Other Widgets</title><rect fill="#FFFFFF" height="46.699" style="stroke:#000000;stroke-width:1;" width="10" x="737.6963" y="371.2468"/></g><g><title>Other Widgets</title><rect fill="#FFFFFF" height="35.7993" style="stroke:#000000;stroke-width:1;" width="10" x="737.6963" y="1516.2612"/></g><g><title>Other Widgets</title><rect fill="#FFFFFF" height="99.2976" style="stroke:#000000;stroke-width:1;" width="10" x="737.6963" y="1837.4551"/></g><g><title>ConfigBridge</title><rect fill="#FFFFFF" height="646.125" style="stroke:#000000;stroke-width:1;" width="10" x="929.8101" y="558.1431"/></g><g><title>ConfigBridge</title><rect fill="#ADD8E6" height="209.1646" style="stroke:#000000;stroke-width:1;" width="10" x="934.8101" y="595.9424"/></g><g><title>ConfigBridge</title><rect fill="#FFFFFF" height="279.3945" style="stroke:#000000;stroke-width:1;" width="10" x="929.8101" y="1359.2646"/></g><g><title>Pydantic</title><rect fill="#FFFFFF" height="114.7666" style="stroke:#000000;stroke-width:1;" width="10" x="1157.2065" y="655.541"/></g><g><title>YAML File</title><rect fill="#FFFFFF" height="29.7993" style="stroke:#000000;stroke-width:1;" width="10" x="1269.3438" y="909.5049"/></g><g><title>YAML File</title><rect fill="#FFFFFF" height="29.7993" style="stroke:#000000;stroke-width:1;" width="10" x="1269.3438" y="1299.666"/></g><rect fill="#FFFFFF" height="154.3652" style="stroke:#000000;stroke-width:1;" width="381.0591" x="852.9014" y="615.9424"/><rect fill="#FFFFFF" height="92.7666" style="stroke:#000000;stroke-width:1;" width="361.0591" x="862.9014" y="670.541"/><rect fill="#FFFFFF" height="45.168" style="stroke:none;stroke-width:1;" width="361.0591" x="862.9014" y="718.1396"/><rect fill="#FFFFFF" height="370.1611" style="stroke:#000000;stroke-width:1;" width="1349.9346" x="21" y="827.1069"/><rect fill="#FFFFFF" height="74.9673" style="stroke:none;stroke-width:1;" width="1349.9346" x="21" y="1122.3008"/><rect fill="#FFFFFF" height="120.1973" style="stroke:#000000;stroke-width:1;" width="613.0195" x="321.7905" y="1446.8633"/><g><title>User</title><rect fill="#000000" fill-opacity="0.00000" height="1834.9004" width="8" x="45.9277" y="130.752"/><line style="stroke:#000000;stroke-width:1;" x1="49" x2="49" y1="130.752" y2="1965.6523"/></g><g><title>UI Widget</title><rect fill="#000000" fill-opacity="0.00000" height="1834.9004" width="8" x="247.1841" y="130.752"/><line style="stroke:#000000;stroke-width:1;" x1="251.1602" x2="251.1602" y1="130.752" y2="1965.6523"/></g><g><title>Bindable Property</title><rect fill="#000000" fill-opacity="0.00000" height="1834.9004" width="8" x="407.2949" y="130.752"/><line style="stroke:#000000;stroke-width:1;" x1="410.7905" x2="410.7905" y1="130.752" y2="1965.6523"/></g><g><title>UI State</title><rect fill="#000000" fill-opacity="0.00000" height="1834.9004" width="8" x="560.4102" y="130.752"/><line style="stroke:#000000;stroke-width:1;" x1="563.7993" x2="563.7993" y1="130.752" y2="1965.6523"/></g><g><title>Other Widgets</title><rect fill="#000000" fill-opacity="0.00000" height="1834.9004" width="8" x="738.6963" y="130.752"/><line style="stroke:#000000;stroke-width:1;" x1="742.2402" x2="742.2402" y1="130.752" y2="1965.6523"/></g><g><title>ConfigBridge</title><rect fill="#000000" fill-opacity="0.00000" height="1834.9004" width="8" x="930.8101" y="130.752"/><line style="stroke:#000000;stroke-width:1;" x1="933.9014" x2="933.9014" y1="130.752" y2="1965.6523"/></g><g><title>Pydantic</title><rect fill="#000000" fill-opacity="0.00000" height="1834.9004" width="8" x="1158.2065" y="130.752"/><line style="stroke:#000000;stroke-width:1;" x1="1161.4526" x2="1161.4526" y1="130.752" y2="1965.6523"/></g><g><title>YAML File</title><rect fill="#000000" fill-opacity="0.00000" height="1834.9004" width="8" x="1270.3438" y="130.752"/><line style="stroke:#000000;stroke-width:1;" x1="1273.9604" x2="1273.9604" y1="130.752" y2="1965.6523"/></g><g class="participant participant-head" data-participant="User"><text fill="#000000" font-family="Verdana" font-size="14" lengthAdjust="spacing" textLength="31.8555" x="31" y="127.8125">User</text><ellipse cx="49.9277" cy="61.7373" fill="#FFFFFF" rx="8" ry="8" style="stroke:#000000;stroke-width:1;"/><path d="M49.9277,69.7373 L49.9277,96.7373 M36.9277,77.7373 L62.9277,77.7373 M49.9277,96.7373 L36.9277,111.7373 M49.9277,96.7373 L62.9277,111.7373" fill="none" style="stroke:#000000;stroke-width:1;"/></g><g class="participant participant-tail" data-participant="User"><text fill="#000000" font-family="Verdana" font-size="14" lengthAdjust="spacing" textLength="31.8555" x="31" y="1978.7275">User</text><ellipse cx="49.9277" cy="1990.667" fill="#FFFFFF" rx="8" ry="8" style="stroke:#000000;stroke-width:1;"/><path d="M49.9277,1998.667 L49.9277,2025.667 M36.9277,2006.667 L62.9277,2006.667 M49.9277,2025.667 L36.9277,2040.667 M49.9277,2025.667 L62.9277,2040.667" fill="none" style="stroke:#000000;stroke-width:1;"/></g><g class="participant participant-head" data-participant="Widget"><rect fill="#FFFFFF" height="31.0146" rx="2.5" ry="2.5" style="stroke:#000000;stroke-width:1;" width="84.0479" x="209.1602" y="98.7373"/><text fill="#000000" font-family="Verdana" font-size="14" lengthAdjust="spacing" textLength="70.0479" x="216.1602" y="119.8125">UI Widget</text></g><g class="participant participant-tail" data-participant="Widget"><rect fill="#FFFFFF" height="31.0146" rx="2.5" ry="2.5" style="stroke:#000000;stroke-width:1;" width="84.0479" x="209.1602" y="1964.6523"/><text fill="#000000" font-family="Verdana" font-size="14" lengthAdjust="spacing" textLength="70.0479" x="216.1602" y="1985.7275">UI Widget</text></g><g class="participant participant-head" data-participant="Binding"><rect fill="#FFFFFF" height="31.0146" rx="2.5" ry="2.5" style="stroke:#000000;stroke-width:1;" width="139.0088" x="341.7905" y="98.7373"/><text fill="#000000" font-family="Verdana" font-size="14" lengthAdjust="spacing" textLength="125.0088" x="348.7905" y="119.8125">Bindable Property</text></g><g class="participant participant-tail" data-participant="Binding"><rect fill="#FFFFFF" height="31.0146" rx="2.5" ry="2.5" style="stroke:#000000;stroke-width:1;" width="139.0088" x="341.7905" y="1964.6523"/><text fill="#000000" font-family="Verdana" font-size="14" lengthAdjust="spacing" textLength="125.0088" x="348.7905" y="1985.7275">Bindable Property</text></g><g class="participant participant-head" data-participant="State"><rect fill="#FFFFFF" height="48.0293" rx="2.5" ry="2.5" style="stroke:#000000;stroke-width:1;" width="107.2217" x="510.7993" y="81.7227"/><text fill="#000000" font-family="Verdana" font-size="14" lengthAdjust="spacing" textLength="58.4131" x="535.2036" y="102.7979">UI State</text><text fill="#000000" font-family="Verdana" font-size="14" lengthAdjust="spacing" textLength="93.2217" x="517.7993" y="119.8125">(AppUIState)</text></g><g class="participant participant-tail" data-participant="State"><rect fill="#FFFFFF" height="48.0293" rx="2.5" ry="2.5" style="stroke:#000000;stroke-width:1;" width="107.2217" x="510.7993" y="1964.6523"/><text fill="#000000" font-family="Verdana" font-size="14" lengthAdjust="spacing" textLength="58.4131" x="535.2036" y="1985.7275">UI State</text><text fill="#000000" font-family="Verdana" font-size="14" lengthAdjust="spacing" textLength="93.2217" x="517.7993" y="2002.7422">(AppUIState)</text></g><g class="participant participant-head" data-participant="Others"><rect fill="#FFFFFF" height="31.0146" rx="2.5" ry="2.5" style="stroke:#000000;stroke-width:1;" width="114.9121" x="685.2402" y="98.7373"/><text fill="#000000" font-family="Verdana" font-size="14" lengthAdjust="spacing" textLength="100.9121" x="692.2402" y="119.8125">Other Widgets</text></g><g class="participant participant-tail" data-participant="Others"><rect fill="#FFFFFF" height="31.0146" rx="2.5" ry="2.5" style="stroke:#000000;stroke-width:1;" width="114.9121" x="685.2402" y="1964.6523"/><text fill="#000000" font-family="Verdana" font-size="14" lengthAdjust="spacing" textLength="100.9121" x="692.2402" y="1985.7275">Other Widgets</text></g><g class="participant participant-head" data-participant="Bridge"><rect fill="#FFFFFF" height="31.0146" rx="2.5" ry="2.5" style="stroke:#000000;stroke-width:1;" width="103.8174" x="882.9014" y="98.7373"/><text fill="#000000" font-family="Verdana" font-size="14" lengthAdjust="spacing" textLength="89.8174" x="889.9014" y="119.8125">ConfigBridge</text></g><g class="participant participant-tail" data-participant="Bridge"><rect fill="#FFFFFF" height="31.0146" rx="2.5" ry="2.5" style="stroke:#000000;stroke-width:1;" width="103.8174" x="882.9014" y="1964.6523"/><text fill="#000000" font-family="Verdana" font-size="14" lengthAdjust="spacing" textLength="89.8174" x="889.9014" y="1985.7275">ConfigBridge</text></g><g class="participant participant-head" data-participant="Pydantic"><rect fill="#FFFFFF" height="48.0293" rx="2.5" ry="2.5" style="stroke:#000000;stroke-width:1;" width="83.5078" x="1120.4526" y="81.7227"/><text fill="#000000" font-family="Verdana" font-size="14" lengthAdjust="spacing" textLength="59.3701" x="1132.5215" y="102.7979">Pydantic</text><text fill="#000000" font-family="Verdana" font-size="14" lengthAdjust="spacing" textLength="69.5078" x="1127.4526" y="119.8125">Validation</text></g><g class="participant participant-tail" data-participant="Pydantic"><rect fill="#FFFFFF" height="48.0293" rx="2.5" ry="2.5" style="stroke:#000000;stroke-width:1;" width="83.5078" x="1120.4526" y="1964.6523"/><text fill="#000000" font-family="Verdana" font-size="14" lengthAdjust="spacing" textLength="59.3701" x="1132.5215" y="1985.7275">Pydantic</text><text fill="#000000" font-family="Verdana" font-size="14" lengthAdjust="spacing" textLength="69.5078" x="1127.4526" y="2002.7422">Validation</text></g><g class="participant participant-head" data-participant="File"><rect fill="#FFFFFF" height="31.0146" rx="2.5" ry="2.5" style="stroke:#000000;stroke-width:1;" width="80.7666" x="1233.9604" y="98.7373"/><text fill="#000000" font-family="Verdana" font-size="14" lengthAdjust="spacing" textLength="66.7666" x="1240.9604" y="119.8125">YAML File</text></g><g class="participant participant-tail" data-participant="File"><rect fill="#FFFFFF" height="31.0146" rx="2.5" ry="2.5" style="stroke:#000000;stroke-width:1;" width="80.7666" x="1233.9604" y="1964.6523"/><text fill="#000000" font-family="Verdana" font-size="14" lengthAdjust="spacing" textLength="66.7666" x="1240.9604" y="1985.7275">YAML File</text></g><g><title>UI Widget</title><rect fill="#FFFFFF" height="248.3945" style="stroke:#000000;stroke-width:1;" width="10" x="246.1841" y="206.3506"/></g><g><title>UI Widget</title><rect fill="#FFFFFF" height="675.9243" style="stroke:#000000;stroke-width:1;" width="10" x="246.1841" y="528.3438"/></g><g><title>UI Widget</title><rect fill="#FFFFFF" height="398.5918" style="stroke:#000000;stroke-width:1;" width="10" x="246.1841" y="1269.8667"/></g><g><title>Bindable Property</title><rect fill="#FFFFFF" height="207.6956" style="stroke:#000000;stroke-width:1;" width="10" x="406.2949" y="247.0496"/></g><g><title>Bindable Property</title><rect fill="#FFFFFF" height="65.5986" style="stroke:#000000;stroke-width:1;" width="10" x="406.2949" y="1486.4619"/></g><g><title>UI State</title><rect fill="#FFFFFF" height="166.9966" style="stroke:#000000;stroke-width:1;" width="10" x="559.4102" y="287.7485"/></g><g><title>UI State</title><rect fill="#FFFFFF" height="169.9966" style="stroke:#000000;stroke-width:1;" width="10" x="559.4102" y="1431.8633"/></g><g><title>Other Widgets</title><rect fill="#FFFFFF" height="46.699" style="stroke:#000000;stroke-width:1;" width="10" x="737.6963" y="371.2468"/></g><g><title>Other Widgets</title><rect fill="#FFFFFF" height="35.7993" style="stroke:#000000;stroke-width:1;" width="10" x="737.6963" y="1516.2612"/></g><g><title>Other Widgets</title><rect fill="#FFFFFF" height="99.2976" style="stroke:#000000;stroke-width:1;" width="10" x="737.6963" y="1837.4551"/></g><g><title>ConfigBridge</title><rect fill="#FFFFFF" height="646.125" style="stroke:#000000;stroke-width:1;" width="10" x="929.8101" y="558.1431"/></g><g><title>ConfigBridge</title><rect fill="#ADD8E6" height="209.1646" style="stroke:#000000;stroke-width:1;" width="10" x="934.8101" y="595.9424"/></g><g><title>ConfigBridge</title><rect fill="#FFFFFF" height="279.3945" style="stroke:#000000;stroke-width:1;" width="10" x="929.8101" y="1359.2646"/></g><g><title>Pydantic</title><rect fill="#FFFFFF" height="114.7666" style="stroke:#000000;stroke-width:1;" width="10" x="1157.2065" y="655.541"/></g><g><title>YAML File</title><rect fill="#FFFFFF" height="29.7993" style="stroke:#000000;stroke-width:1;" width="10" x="1269.3438" y="909.5049"/></g><g><title>YAML File</title><rect fill="#FFFFFF" height="29.7993" style="stroke:#000000;stroke-width:1;" width="10" x="1269.3438" y="1299.666"/></g><rect fill="#FFFFFF" height="3" style="stroke:#FFFFFF;stroke-width:1;" width="1375.9346" x="5" y="161.6516"/><line style="stroke:#000000;stroke-width:0.5;" x1="5" x2="1380.9346" y1="161.6516" y2="161.6516"/><line style="stroke:#000000;stroke-width:0.5;" x1="5" x2="1380.9346" y1="164.6516" y2="164.6516"/><rect fill="#FFFFFF" height="23.7993" style="stroke:#000000;stroke-width:1;" width="260.4795" x="562.7275" y="150.752"/><text fill="#000000" font-family="Verdana" font-size="13" font-weight="bold" lengthAdjust="spacing" textLength="242.0361" x="568.7275" y="167.8218">Reactive UI Updates (Automatic)</text><g class="message" data-participant-1="User" data-participant-2="Widget"><polygon fill="#000000" points="234.1841,202.3506,244.1841,206.3506,234.1841,210.3506,238.1841,206.3506" style="stroke:#000000;stroke-width:1;"/><line style="stroke:#000000;stroke-width:1;" x1="49.9277" x2="240.1841" y1="206.3506" y2="206.3506"/><text fill="#000000" font-family="Verdana" font-size="13" lengthAdjust="spacing" textLength="80.5898" x="56.9277" y="201.6211">Modify input</text></g><g class="message" data-participant-1="Widget" data-participant-2="Binding"><polygon fill="#000000" points="394.2949,243.0496,404.2949,247.0496,394.2949,251.0496,398.2949,247.0496" style="stroke:#000000;stroke-width:1;"/><line style="stroke:#000000;stroke-width:1;" x1="256.1841" x2="400.2949" y1="247.0496" y2="247.0496"/><text fill="#000000" font-family="Verdana" font-size="13" lengthAdjust="spacing" textLength="131.1108" x="263.1841" y="242.3201">Update bound value</text></g><path d="M421,219.3506 L421,260.3506 L582,260.3506 L582,229.3506 L572,219.3506 L421,219.3506" fill="#FFFFFF" style="stroke:#000000;stroke-width:1;"/><path d="M572,219.3506 L572,229.3506 L582,229.3506 L572,219.3506" fill="#FFFFFF" style="stroke:#000000;stroke-width:1;"/><text fill="#000000" font-family="Verdana" font-size="13" lengthAdjust="spacing" textLength="107.8911" x="427" y="237.4204">NiceGUI handles</text><text fill="#000000" font-family="Verdana" font-size="13" lengthAdjust="spacing" textLength="140.0547" x="427" y="253.2197">binding automatically</text><g class="message" data-participant-1="Binding" data-participant-2="State"><polygon fill="#000000" points="547.4102,283.7485,557.4102,287.7485,547.4102,291.7485,551.4102,287.7485" style="stroke:#000000;stroke-width:1;"/><line style="stroke:#000000;stroke-width:1;" x1="416.2949" x2="553.4102" y1="287.7485" y2="287.7485"/><text fill="#000000" font-family="Verdana" font-size="13" lengthAdjust="spacing" textLength="106.7041" x="423.2949" y="283.019">Update property</text></g><g class="message" data-participant-1="State" data-participant-2="State"><line style="stroke:#000000;stroke-width:1;" x1="569.4102" x2="611.4102" y1="317.5479" y2="317.5479"/><line style="stroke:#000000;stroke-width:1;" x1="611.4102" x2="611.4102" y1="317.5479" y2="330.5479"/><line style="stroke:#000000;stroke-width:1;" x1="570.4102" x2="611.4102" y1="330.5479" y2="330.5479"/><polygon fill="#000000" points="580.4102,326.5479,570.4102,330.5479,580.4102,334.5479,576.4102,330.5479" style="stroke:#000000;stroke-width:1;"/><text fill="#000000" font-family="Verdana" font-size="13" lengthAdjust="spacing" textLength="142.0669" x="576.4102" y="312.8184">Mark modified = True</text></g><g class="message" data-participant-1="State" data-participant-2="Others"><polygon fill="#000000" points="725.6963,367.2468,735.6963,371.2468,725.6963,375.2468,729.6963,371.2468" style="stroke:#000000;stroke-width:1;"/><line style="stroke:#000000;stroke-width:1;stroke-dasharray:2.0,2.0;" x1="569.4102" x2="731.6963" y1="371.2468" y2="371.2468"/><text fill="#000000" font-family="Verdana" font-size="13" lengthAdjust="spacing" textLength="106.9517" x="576.4102" y="366.5173">Notify observers</text></g><path d="M752,343.5479 L752,384.5479 L910,384.5479 L910,353.5479 L900,343.5479 L752,343.5479" fill="#FFFFFF" style="stroke:#000000;stroke-width:1;"/><path d="M900,343.5479 L900,353.5479 L910,353.5479 L900,343.5479" fill="#FFFFFF" style="stroke:#000000;stroke-width:1;"/><text fill="#000000" font-family="Verdana" font-size="13" lengthAdjust="spacing" textLength="115.7495" x="758" y="361.6177">All bound widgets</text><text fill="#000000" font-family="Verdana" font-size="13" lengthAdjust="spacing" textLength="137.2681" x="758" y="377.417">update automatically</text><g class="message" data-participant-1="Others" data-participant-2="Others"><line style="stroke:#000000;stroke-width:1;" x1="747.6963" x2="789.6963" y1="416.9458" y2="416.9458"/><line style="stroke:#000000;stroke-width:1;" x1="789.6963" x2="789.6963" y1="416.9458" y2="429.9458"/><line style="stroke:#000000;stroke-width:1;" x1="742.6963" x2="789.6963" y1="429.9458" y2="429.9458"/><polygon fill="#000000" points="752.6963,425.9458,742.6963,429.9458,752.6963,433.9458,748.6963,429.9458" style="stroke:#000000;stroke-width:1;"/><text fill="#000000" font-family="Verdana" font-size="13" lengthAdjust="spacing" textLength="130.5332" x="754.6963" y="412.2163">Re-render if needed</text></g><g class="message" data-participant-1="Widget" data-participant-2="User"><polygon fill="#000000" points="60.9277,450.7451,50.9277,454.7451,60.9277,458.7451,56.9277,454.7451" style="stroke:#000000;stroke-width:1;"/><line style="stroke:#000000;stroke-width:1;stroke-dasharray:2.0,2.0;" x1="54.9277" x2="250.1841" y1="454.7451" y2="454.7451"/><text fill="#000000" font-family="Verdana" font-size="13" lengthAdjust="spacing" textLength="172.2563" x="66.9277" y="450.0156">Show immediate feedback</text></g><rect fill="#FFFFFF" height="3" style="stroke:#FFFFFF;stroke-width:1;" width="1375.9346" x="5" y="483.6448"/><line style="stroke:#000000;stroke-width:0.5;" x1="5" x2="1380.9346" y1="483.6448" y2="483.6448"/><line style="stroke:#000000;stroke-width:0.5;" x1="5" x2="1380.9346" y1="486.6448" y2="486.6448"/><rect fill="#FFFFFF" height="23.7993" style="stroke:#000000;stroke-width:1;" width="196.4634" x="594.7356" y="472.7451"/><text fill="#000000" font-family="Verdana" font-size="13" font-weight="bold" lengthAdjust="spacing" textLength="178.02" x="600.7356" y="489.8149">Configuration Save Flow</text><g class="message" data-participant-1="User" data-participant-2="Widget"><polygon fill="#000000" points="234.1841,524.3438,244.1841,528.3438,234.1841,532.3438,238.1841,528.3438" style="stroke:#000000;stroke-width:1;"/><line style="stroke:#000000;stroke-width:1;" x1="49.9277" x2="240.1841" y1="528.3438" y2="528.3438"/><text fill="#000000" font-family="Verdana" font-size="13" lengthAdjust="spacing" textLength="67.3804" x="56.9277" y="523.6143">Click Save</text></g><g class="message" data-participant-1="Widget" data-participant-2="Bridge"><polygon fill="#000000" points="917.8101,554.1431,927.8101,558.1431,917.8101,562.1431,921.8101,558.1431" style="stroke:#000000;stroke-width:1;"/><line style="stroke:#000000;stroke-width:1;" x1="256.1841" x2="923.8101" y1="558.1431" y2="558.1431"/><text fill="#000000" font-family="Verdana" font-size="13" lengthAdjust="spacing" textLength="194.2637" x="263.1841" y="553.4136">save_to_yaml(ui_state, path)</text></g><g class="message" data-participant-1="Bridge" data-participant-2="Bridge"><line style="stroke:#000000;stroke-width:1;" x1="939.8101" x2="986.8101" y1="582.9424" y2="582.9424"/><line style="stroke:#000000;stroke-width:1;" x1="986.8101" x2="986.8101" y1="582.9424" y2="595.9424"/><line style="stroke:#000000;stroke-width:1;" x1="945.8101" x2="986.8101" y1="595.9424" y2="595.9424"/><polygon fill="#000000" points="955.8101,591.9424,945.8101,595.9424,955.8101,599.9424,951.8101,595.9424" style="stroke:#000000;stroke-width:1;"/><text fill="#000000" font-family="Verdana" font-size="13" lengthAdjust="spacing" textLength="176.7378" x="951.8101" y="578.2129">validate_ui_state(ui_state)</text></g><path d="M852.9014,615.9424 L929.2842,615.9424 L929.2842,623.7417 L919.2842,633.7417 L852.9014,633.7417 L852.9014,615.9424" fill="#FFFFFF" style="stroke:#000000;stroke-width:1;"/><rect fill="none" height="154.3652" style="stroke:#000000;stroke-width:1;" width="381.0591" x="852.9014" y="615.9424"/><text fill="#000000" font-family="Verdana" font-size="13" font-weight="bold" lengthAdjust="spacing" textLength="31.3828" x="867.9014" y="630.0122">loop</text><text fill="#000000" font-family="Verdana" font-size="11" font-weight="bold" lengthAdjust="spacing" textLength="137.5054" x="944.2842" y="629.0015">[For each component]</text><g class="message" data-participant-1="Bridge" data-participant-2="Pydantic"><polygon fill="#000000" points="1145.2065,651.541,1155.2065,655.541,1145.2065,659.541,1149.2065,655.541" style="stroke:#000000;stroke-width:1;"/><line style="stroke:#000000;stroke-width:1;" x1="944.8101" x2="1151.2065" y1="655.541" y2="655.541"/><text fill="#000000" font-family="Verdana" font-size="13" lengthAdjust="spacing" textLength="155.4795" x="951.8101" y="650.8115">Create validation model</text></g><path d="M862.9014,670.541 L926.9507,670.541 L926.9507,678.3403 L916.9507,688.3403 L862.9014,688.3403 L862.9014,670.541" fill="#FFFFFF" style="stroke:#000000;stroke-width:1;"/><rect fill="none" height="92.7666" style="stroke:#000000;stroke-width:1;" width="361.0591" x="862.9014" y="670.541"/><text fill="#000000" font-family="Verdana" font-size="13" font-weight="bold" lengthAdjust="spacing" textLength="19.0493" x="877.9014" y="684.6108">alt</text><text fill="#000000" font-family="Verdana" font-size="11" font-weight="bold" lengthAdjust="spacing" textLength="74.0728" x="941.9507" y="683.6001">[Valid data]</text><g class="message" data-participant-1="Pydantic" data-participant-2="Bridge"><polygon fill="#000000" points="955.8101,706.1396,945.8101,710.1396,955.8101,714.1396,951.8101,710.1396" style="stroke:#000000;stroke-width:1;"/><line style="stroke:#000000;stroke-width:1;stroke-dasharray:2.0,2.0;" x1="949.8101" x2="1156.2065" y1="710.1396" y2="710.1396"/><text fill="#000000" font-family="Verdana" font-size="13" lengthAdjust="spacing" textLength="152.5024" x="961.8101" y="705.4102">Return validated model</text></g><line style="stroke:#000000;stroke-width:1;stroke-dasharray:2.0,2.0;" x1="862.9014" x2="1223.9604" y1="719.1396" y2="719.1396"/><text fill="#000000" font-family="Verdana" font-size="11" font-weight="bold" lengthAdjust="spacing" textLength="109.4414" x="867.9014" y="730.1987">[Validation error]</text><g class="message" data-participant-1="Pydantic" data-participant-2="Bridge"><polygon fill="#000000" points="955.8101,751.3076,945.8101,755.3076,955.8101,759.3076,951.8101,755.3076" style="stroke:#000000;stroke-width:1;"/><line style="stroke:#000000;stroke-width:1;stroke-dasharray:2.0,2.0;" x1="949.8101" x2="1156.2065" y1="755.3076" y2="755.3076"/><text fill="#000000" font-family="Verdana" font-size="13" lengthAdjust="spacing" textLength="136.7983" x="961.8101" y="750.5781">Raise ValidationError</text></g><g class="message" data-participant-1="Bridge" data-participant-2="Bridge"><line style="stroke:#000000;stroke-width:1;stroke-dasharray:2.0,2.0;" x1="944.8101" x2="986.8101" y1="804.1069" y2="804.1069"/><line style="stroke:#000000;stroke-width:1;stroke-dasharray:2.0,2.0;" x1="986.8101" x2="986.8101" y1="804.1069" y2="817.1069"/><line style="stroke:#000000;stroke-width:1;stroke-dasharray:2.0,2.0;" x1="939.8101" x2="986.8101" y1="817.1069" y2="817.1069"/><polygon fill="#000000" points="949.8101,813.1069,939.8101,817.1069,949.8101,821.1069,945.8101,817.1069" style="stroke:#000000;stroke-width:1;"/><text fill="#000000" font-family="Verdana" font-size="13" lengthAdjust="spacing" textLength="183.3965" x="951.8101" y="799.3774">Aggregate validation results</text></g><path d="M21,827.1069 L85.0493,827.1069 L85.0493,834.9063 L75.0493,844.9063 L21,844.9063 L21,827.1069" fill="#FFFFFF" style="stroke:#000000;stroke-width:1;"/><rect fill="none" height="370.1611" style="stroke:#000000;stroke-width:1;" width="1349.9346" x="21" y="827.1069"/><text fill="#000000" font-family="Verdana" font-size="13" font-weight="bold" lengthAdjust="spacing" textLength="19.0493" x="36" y="841.1768">alt</text><text fill="#000000" font-family="Verdana" font-size="11" font-weight="bold" lengthAdjust="spacing" textLength="61.4829" x="100.0493" y="840.166">[All valid]</text><g class="message" data-participant-1="Bridge" data-participant-2="Bridge"><line style="stroke:#000000;stroke-width:1;" x1="939.8101" x2="981.8101" y1="866.7056" y2="866.7056"/><line style="stroke:#000000;stroke-width:1;" x1="981.8101" x2="981.8101" y1="866.7056" y2="879.7056"/><line style="stroke:#000000;stroke-width:1;" x1="940.8101" x2="981.8101" y1="879.7056" y2="879.7056"/><polygon fill="#000000" points="950.8101,875.7056,940.8101,879.7056,950.8101,883.7056,946.8101,879.7056" style="stroke:#000000;stroke-width:1;"/><text fill="#000000" font-family="Verdana" font-size="13" lengthAdjust="spacing" textLength="188.938" x="946.8101" y="861.9761">_ui_to_user_config_format()</text></g><path d="M1156.938,853.4063 L1156.938,878.4063 L1349.938,878.4063 L1349.938,863.4063 L1339.938,853.4063 L1156.938,853.4063" fill="#FFFFFF" style="stroke:#000000;stroke-width:1;"/><path d="M1339.938,853.4063 L1339.938,863.4063 L1349.938,863.4063 L1339.938,853.4063" fill="#FFFFFF" style="stroke:#000000;stroke-width:1;"/><text fill="#000000" font-family="Verdana" font-size="13" lengthAdjust="spacing" textLength="172.1865" x="1162.938" y="871.4761">Convert to YAML structure</text><g class="message" data-participant-1="Bridge" data-participant-2="File"><polygon fill="#000000" points="1257.3438,905.5049,1267.3438,909.5049,1257.3438,913.5049,1261.3438,909.5049" style="stroke:#000000;stroke-width:1;"/><line style="stroke:#000000;stroke-width:1;" x1="939.8101" x2="1263.3438" y1="909.5049" y2="909.5049"/><text fill="#000000" font-family="Verdana" font-size="13" lengthAdjust="spacing" textLength="74.4834" x="946.8101" y="904.7754">Write YAML</text></g><g class="message" data-participant-1="File" data-participant-2="Bridge"><polygon fill="#000000" points="950.8101,935.3042,940.8101,939.3042,950.8101,943.3042,946.8101,939.3042" style="stroke:#000000;stroke-width:1;"/><line style="stroke:#000000;stroke-width:1;stroke-dasharray:2.0,2.0;" x1="944.8101" x2="1273.3438" y1="939.3042" y2="939.3042"/><text fill="#000000" font-family="Verdana" font-size="13" lengthAdjust="spacing" textLength="51.9492" x="956.8101" y="934.5747">Success</text></g><g class="message" data-participant-1="Bridge" data-participant-2="State"><polygon fill="#000000" points="575.4102,965.1035,565.4102,969.1035,575.4102,973.1035,571.4102,969.1035" style="stroke:#000000;stroke-width:1;"/><line style="stroke:#000000;stroke-width:1;" x1="569.4102" x2="928.8101" y1="969.1035" y2="969.1035"/><text fill="#000000" font-family="Verdana" font-size="13" lengthAdjust="spacing" textLength="91.8823" x="581.4102" y="964.374">mark_saved()</text></g><g class="message" data-participant-1="State" data-participant-2="State"><line style="stroke:#000000;stroke-width:1;" x1="564.4102" x2="606.4102" y1="998.9028" y2="998.9028"/><line style="stroke:#000000;stroke-width:1;" x1="606.4102" x2="606.4102" y1="998.9028" y2="1011.9028"/><line style="stroke:#000000;stroke-width:1;" x1="565.4102" x2="606.4102" y1="1011.9028" y2="1011.9028"/><polygon fill="#000000" points="575.4102,1007.9028,565.4102,1011.9028,575.4102,1015.9028,571.4102,1011.9028" style="stroke:#000000;stroke-width:1;"/><text fill="#000000" font-family="Verdana" font-size="13" lengthAdjust="spacing" textLength="109.3257" x="571.4102" y="994.1733">modified = False</text></g><g class="message" data-participant-1="State" data-participant-2="State"><line style="stroke:#000000;stroke-width:1;" x1="564.4102" x2="606.4102" y1="1041.7021" y2="1041.7021"/><line style="stroke:#000000;stroke-width:1;" x1="606.4102" x2="606.4102" y1="1041.7021" y2="1054.7021"/><line style="stroke:#000000;stroke-width:1;" x1="565.4102" x2="606.4102" y1="1054.7021" y2="1054.7021"/><polygon fill="#000000" points="575.4102,1050.7021,565.4102,1054.7021,575.4102,1058.7021,571.4102,1054.7021" style="stroke:#000000;stroke-width:1;"/><text fill="#000000" font-family="Verdana" font-size="13" lengthAdjust="spacing" textLength="127.9941" x="571.4102" y="1036.9727">last_saved = now()</text></g><g class="message" data-participant-1="Bridge" data-participant-2="Widget"><polygon fill="#000000" points="267.1841,1080.5015,257.1841,1084.5015,267.1841,1088.5015,263.1841,1084.5015" style="stroke:#000000;stroke-width:1;"/><line style="stroke:#000000;stroke-width:1;stroke-dasharray:2.0,2.0;" x1="261.1841" x2="928.8101" y1="1084.5015" y2="1084.5015"/><text fill="#000000" font-family="Verdana" font-size="13" lengthAdjust="spacing" textLength="98.3125" x="273.1841" y="1079.772">Return success</text></g><g class="message" data-participant-1="Widget" data-participant-2="User"><polygon fill="#000000" points="60.9277,1110.3008,50.9277,1114.3008,60.9277,1118.3008,56.9277,1114.3008" style="stroke:#000000;stroke-width:1;"/><line style="stroke:#000000;stroke-width:1;" x1="54.9277" x2="245.1841" y1="1114.3008" y2="1114.3008"/><text fill="#000000" font-family="Verdana" font-size="13" lengthAdjust="spacing" textLength="166.9497" x="66.9277" y="1109.5713">Show success notification</text></g><line style="stroke:#000000;stroke-width:1;stroke-dasharray:2.0,2.0;" x1="21" x2="1370.9346" y1="1123.3008" y2="1123.3008"/><text fill="#000000" font-family="Verdana" font-size="11" font-weight="bold" lengthAdjust="spacing" textLength="112.6909" x="26" y="1134.3599">[Validation failed]</text><g class="message" data-participant-1="Bridge" data-participant-2="Widget"><polygon fill="#000000" points="267.1841,1155.4688,257.1841,1159.4688,267.1841,1163.4688,263.1841,1159.4688" style="stroke:#000000;stroke-width:1;"/><line style="stroke:#000000;stroke-width:1;stroke-dasharray:2.0,2.0;" x1="261.1841" x2="928.8101" y1="1159.4688" y2="1159.4688"/><text fill="#000000" font-family="Verdana" font-size="13" lengthAdjust="spacing" textLength="87.5278" x="273.1841" y="1154.7393">Return errors</text></g><g class="message" data-participant-1="Widget" data-participant-2="User"><polygon fill="#000000" points="60.9277,1185.2681,50.9277,1189.2681,60.9277,1193.2681,56.9277,1189.2681" style="stroke:#000000;stroke-width:1;"/><line style="stroke:#000000;stroke-width:1;" x1="54.9277" x2="245.1841" y1="1189.2681" y2="1189.2681"/><text fill="#000000" font-family="Verdana" font-size="13" lengthAdjust="spacing" textLength="141.4194" x="66.9277" y="1184.5386">Show error messages</text></g><rect fill="#FFFFFF" height="3" style="stroke:#FFFFFF;stroke-width:1;" width="1375.9346" x="5" y="1225.1677"/><line style="stroke:#000000;stroke-width:0.5;" x1="5" x2="1380.9346" y1="1225.1677" y2="1225.1677"/><line style="stroke:#000000;stroke-width:0.5;" x1="5" x2="1380.9346" y1="1228.1677" y2="1228.1677"/><rect fill="#FFFFFF" height="23.7993" style="stroke:#000000;stroke-width:1;" width="196.4443" x="594.7451" y="1214.2681"/><text fill="#000000" font-family="Verdana" font-size="13" font-weight="bold" lengthAdjust="spacing" textLength="178.001" x="600.7451" y="1231.3379">Configuration Load Flow</text><g class="message" data-participant-1="User" data-participant-2="Widget"><polygon fill="#000000" points="234.1841,1265.8667,244.1841,1269.8667,234.1841,1273.8667,238.1841,1269.8667" style="stroke:#000000;stroke-width:1;"/><line style="stroke:#000000;stroke-width:1;" x1="49.9277" x2="240.1841" y1="1269.8667" y2="1269.8667"/><text fill="#000000" font-family="Verdana" font-size="13" lengthAdjust="spacing" textLength="81.2563" x="56.9277" y="1265.1372">Load project</text></g><g class="message" data-participant-1="Widget" data-participant-2="File"><polygon fill="#000000" points="1257.3438,1295.666,1267.3438,1299.666,1257.3438,1303.666,1261.3438,1299.666" style="stroke:#000000;stroke-width:1;"/><line style="stroke:#000000;stroke-width:1;" x1="256.1841" x2="1263.3438" y1="1299.666" y2="1299.666"/><text fill="#000000" font-family="Verdana" font-size="13" lengthAdjust="spacing" textLength="141.5781" x="263.1841" y="1294.9365">Read user_config.yml</text></g><g class="message" data-participant-1="File" data-participant-2="Widget"><polygon fill="#000000" points="267.1841,1325.4653,257.1841,1329.4653,267.1841,1333.4653,263.1841,1329.4653" style="stroke:#000000;stroke-width:1;"/><line style="stroke:#000000;stroke-width:1;stroke-dasharray:2.0,2.0;" x1="261.1841" x2="1273.3438" y1="1329.4653" y2="1329.4653"/><text fill="#000000" font-family="Verdana" font-size="13" lengthAdjust="spacing" textLength="68.4849" x="273.1841" y="1324.7358">YAML data</text></g><g class="message" data-participant-1="Widget" data-participant-2="Bridge"><polygon fill="#000000" points="917.8101,1355.2646,927.8101,1359.2646,917.8101,1363.2646,921.8101,1359.2646" style="stroke:#000000;stroke-width:1;"/><line style="stroke:#000000;stroke-width:1;" x1="256.1841" x2="923.8101" y1="1359.2646" y2="1359.2646"/><text fill="#000000" font-family="Verdana" font-size="13" lengthAdjust="spacing" textLength="223.0439" x="263.1841" y="1354.5352">load_into_ui(yaml_data, ui_state)</text></g><g class="message" data-participant-1="Bridge" data-participant-2="Bridge"><line style="stroke:#000000;stroke-width:1;" x1="939.8101" x2="981.8101" y1="1389.064" y2="1389.064"/><line style="stroke:#000000;stroke-width:1;" x1="981.8101" x2="981.8101" y1="1389.064" y2="1402.064"/><line style="stroke:#000000;stroke-width:1;" x1="940.8101" x2="981.8101" y1="1402.064" y2="1402.064"/><polygon fill="#000000" points="950.8101,1398.064,940.8101,1402.064,950.8101,1406.064,946.8101,1402.064" style="stroke:#000000;stroke-width:1;"/><text fill="#000000" font-family="Verdana" font-size="13" lengthAdjust="spacing" textLength="139.0137" x="946.8101" y="1384.3345">Parse YAML structure</text></g><g class="message" data-participant-1="Bridge" data-participant-2="State"><polygon fill="#000000" points="580.4102,1427.8633,570.4102,1431.8633,580.4102,1435.8633,576.4102,1431.8633" style="stroke:#000000;stroke-width:1;"/><line style="stroke:#000000;stroke-width:1;" x1="574.4102" x2="928.8101" y1="1431.8633" y2="1431.8633"/><text fill="#000000" font-family="Verdana" font-size="13" lengthAdjust="spacing" textLength="136.6523" x="586.4102" y="1427.1338">Update UI properties</text></g><path d="M321.7905,1446.8633 L398.1733,1446.8633 L398.1733,1454.6626 L388.1733,1464.6626 L321.7905,1464.6626 L321.7905,1446.8633" fill="#FFFFFF" style="stroke:#000000;stroke-width:1;"/><rect fill="none" height="120.1973" style="stroke:#000000;stroke-width:1;" width="613.0195" x="321.7905" y="1446.8633"/><text fill="#000000" font-family="Verdana" font-size="13" font-weight="bold" lengthAdjust="spacing" textLength="31.3828" x="336.7905" y="1460.9331">loop</text><text fill="#000000" font-family="Verdana" font-size="11" font-weight="bold" lengthAdjust="spacing" textLength="121.9561" x="413.1733" y="1459.9224">[For each property]</text><g class="message" data-participant-1="State" data-participant-2="Binding"><polygon fill="#000000" points="427.2949,1482.4619,417.2949,1486.4619,427.2949,1490.4619,423.2949,1486.4619" style="stroke:#000000;stroke-width:1;"/><line style="stroke:#000000;stroke-width:1;" x1="421.2949" x2="558.4102" y1="1486.4619" y2="1486.4619"/><text fill="#000000" font-family="Verdana" font-size="13" lengthAdjust="spacing" textLength="115.0322" x="433.2949" y="1481.7324">Property changed</text></g><g class="message" data-participant-1="Binding" data-participant-2="Others"><polygon fill="#000000" points="725.6963,1512.2612,735.6963,1516.2612,725.6963,1520.2612,729.6963,1516.2612" style="stroke:#000000;stroke-width:1;"/><line style="stroke:#000000;stroke-width:1;stroke-dasharray:2.0,2.0;" x1="416.2949" x2="731.6963" y1="1516.2612" y2="1516.2612"/><text fill="#000000" font-family="Verdana" font-size="13" lengthAdjust="spacing" textLength="106.9517" x="423.2949" y="1511.5317">Notify observers</text></g><g class="message" data-participant-1="Others" data-participant-2="Others"><line style="stroke:#000000;stroke-width:1;" x1="747.6963" x2="789.6963" y1="1551.0605" y2="1551.0605"/><line style="stroke:#000000;stroke-width:1;" x1="789.6963" x2="789.6963" y1="1551.0605" y2="1564.0605"/><line style="stroke:#000000;stroke-width:1;" x1="742.6963" x2="789.6963" y1="1564.0605" y2="1564.0605"/><polygon fill="#000000" points="752.6963,1560.0605,742.6963,1564.0605,752.6963,1568.0605,748.6963,1564.0605" style="stroke:#000000;stroke-width:1;"/><text fill="#000000" font-family="Verdana" font-size="13" lengthAdjust="spacing" textLength="158.1138" x="754.6963" y="1546.3311">Update UI automatically</text></g><g class="message" data-participant-1="State" data-participant-2="State"><line style="stroke:#000000;stroke-width:1;" x1="569.4102" x2="611.4102" y1="1600.8599" y2="1600.8599"/><line style="stroke:#000000;stroke-width:1;" x1="611.4102" x2="611.4102" y1="1600.8599" y2="1613.8599"/><line style="stroke:#000000;stroke-width:1;" x1="564.4102" x2="611.4102" y1="1613.8599" y2="1613.8599"/><polygon fill="#000000" points="574.4102,1609.8599,564.4102,1613.8599,574.4102,1617.8599,570.4102,1613.8599" style="stroke:#000000;stroke-width:1;"/><text fill="#000000" font-family="Verdana" font-size="13" lengthAdjust="spacing" textLength="109.3257" x="576.4102" y="1596.1304">modified = False</text></g><g class="message" data-participant-1="Bridge" data-participant-2="Widget"><polygon fill="#000000" points="267.1841,1634.6592,257.1841,1638.6592,267.1841,1642.6592,263.1841,1638.6592" style="stroke:#000000;stroke-width:1;"/><line style="stroke:#000000;stroke-width:1;stroke-dasharray:2.0,2.0;" x1="261.1841" x2="933.8101" y1="1638.6592" y2="1638.6592"/><text fill="#000000" font-family="Verdana" font-size="13" lengthAdjust="spacing" textLength="95.1895" x="273.1841" y="1633.9297">Load complete</text></g><g class="message" data-participant-1="Widget" data-participant-2="User"><polygon fill="#000000" points="60.9277,1664.4585,50.9277,1668.4585,60.9277,1672.4585,56.9277,1668.4585" style="stroke:#000000;stroke-width:1;"/><line style="stroke:#000000;stroke-width:1;stroke-dasharray:2.0,2.0;" x1="54.9277" x2="250.1841" y1="1668.4585" y2="1668.4585"/><text fill="#000000" font-family="Verdana" font-size="13" lengthAdjust="spacing" textLength="133.6436" x="66.9277" y="1663.729">Show loaded project</text></g><rect fill="#FFFFFF" height="3" style="stroke:#FFFFFF;stroke-width:1;" width="1375.9346" x="5" y="1697.3582"/><line style="stroke:#000000;stroke-width:0.5;" x1="5" x2="1380.9346" y1="1697.3582" y2="1697.3582"/><line style="stroke:#000000;stroke-width:0.5;" x1="5" x2="1380.9346" y1="1700.3582" y2="1700.3582"/><rect fill="#FFFFFF" height="23.7993" style="stroke:#000000;stroke-width:1;" width="215.9253" x="585.0046" y="1686.4585"/><text fill="#000000" font-family="Verdana" font-size="13" font-weight="bold" lengthAdjust="spacing" textLength="197.4819" x="591.0046" y="1703.5283">Real-time Binding Example</text><path d="M10,1725.2578 L10,1750.2578 L784,1750.2578 L784,1735.2578 L774,1725.2578 L10,1725.2578" fill="#FFFFFF" style="stroke:#000000;stroke-width:1;"/><path d="M774,1725.2578 L774,1735.2578 L784,1735.2578 L774,1725.2578" fill="#FFFFFF" style="stroke:#000000;stroke-width:1;"/><text fill="#000000" font-family="Verdana" font-size="13" lengthAdjust="spacing" textLength="209.6885" x="287.7319" y="1743.3276">Example: GPU Enable Checkbox</text><g class="message" data-participant-1="User" data-participant-2="Widget"><polygon fill="#000000" points="239.1841,1773.8564,249.1841,1777.8564,239.1841,1781.8564,243.1841,1777.8564" style="stroke:#000000;stroke-width:1;"/><line style="stroke:#000000;stroke-width:1;" x1="49.9277" x2="245.1841" y1="1777.8564" y2="1777.8564"/><text fill="#000000" font-family="Verdana" font-size="13" lengthAdjust="spacing" textLength="131.6885" x="56.9277" y="1773.127">Check "Enable GPU"</text></g><g class="message" data-participant-1="Widget" data-participant-2="State"><polygon fill="#000000" points="552.4102,1803.6558,562.4102,1807.6558,552.4102,1811.6558,556.4102,1807.6558" style="stroke:#000000;stroke-width:1;"/><line style="stroke:#000000;stroke-width:1;" x1="251.1841" x2="558.4102" y1="1807.6558" y2="1807.6558"/><text fill="#000000" font-family="Verdana" font-size="13" lengthAdjust="spacing" textLength="133.2881" x="258.1841" y="1802.9263">gpu_enabled = True</text></g><g class="message" data-participant-1="State" data-participant-2="Others"><polygon fill="#000000" points="725.6963,1833.4551,735.6963,1837.4551,725.6963,1841.4551,729.6963,1837.4551" style="stroke:#000000;stroke-width:1;"/><line style="stroke:#000000;stroke-width:1;stroke-dasharray:2.0,2.0;" x1="564.4102" x2="731.6963" y1="1837.4551" y2="1837.4551"/><text fill="#000000" font-family="Verdana" font-size="13" lengthAdjust="spacing" textLength="154.2861" x="571.4102" y="1832.7256">Notify GPU config panel</text></g><g class="message" data-participant-1="Others" data-participant-2="Others"><line style="stroke:#000000;stroke-width:1;" x1="747.6963" x2="789.6963" y1="1883.0537" y2="1883.0537"/><line style="stroke:#000000;stroke-width:1;" x1="789.6963" x2="789.6963" y1="1883.0537" y2="1896.0537"/><line style="stroke:#000000;stroke-width:1;" x1="748.6963" x2="789.6963" y1="1896.0537" y2="1896.0537"/><polygon fill="#000000" points="758.6963,1892.0537,748.6963,1896.0537,758.6963,1900.0537,754.6963,1896.0537" style="stroke:#000000;stroke-width:1;"/><text fill="#000000" font-family="Verdana" font-size="13" lengthAdjust="spacing" textLength="140.2007" x="754.6963" y="1862.5249">bind_visibility_from()</text><text fill="#000000" font-family="Verdana" font-size="13" lengthAdjust="spacing" textLength="128.2607" x="754.6963" y="1878.3242">makes panel visible</text></g><g class="message" data-participant-1="Others" data-participant-2="User"><polygon fill="#000000" points="60.9277,1932.7527,50.9277,1936.7527,60.9277,1940.7527,56.9277,1936.7527" style="stroke:#000000;stroke-width:1;"/><line style="stroke:#000000;stroke-width:1;stroke-dasharray:2.0,2.0;" x1="54.9277" x2="741.6963" y1="1936.7527" y2="1936.7527"/><text fill="#000000" font-family="Verdana" font-size="13" lengthAdjust="spacing" textLength="129.251" x="66.9277" y="1932.0232">GPU options appear</text></g><path d="M752,1909.0537 L752,1950.0537 L950,1950.0537 L950,1919.0537 L940,1909.0537 L752,1909.0537" fill="#FFFFFF" style="stroke:#000000;stroke-width:1;"/><path d="M940,1909.0537 L940,1919.0537 L950,1919.0537 L940,1909.0537" fill="#FFFFFF" style="stroke:#000000;stroke-width:1;"/><text fill="#000000" font-family="Verdana" font-size="13" lengthAdjust="spacing" textLength="162.8872" x="758" y="1927.1235">No manual code needed!</text><text fill="#000000" font-family="Verdana" font-size="13" lengthAdjust="spacing" textLength="177.9502" x="758" y="1942.9229">Binding handles everything</text><!--SRC=[ZLRRRkCs47tNLyocBpQGz0CCk82JJHOB96sGr0qMC23GqjXcJP42IJdhl-yCHScwRT8yH39rvdvcXb_y0Gk4KWcf4o-zGdX6-TLaHxJmXjjlw-zm0oyeCYzF25-55_2Wp7kIq8cni7Pear9OBpDP2ktXYWJUPBv7VmN2nTS-ubRgN6pPaZKbMdyEI3wLUZzIzkg5nusUhSfo_Jtyc0TyUEsZ_w9WR3Jf0YYSk3xgpkYTtDzQXjMMmsiVz7pEwIcpZVv7A9aBBuqEuEP37_vZzVG83rBL2labIPRBIzueZdL9Mj31R5LvKv32R0xBPS89X9i_ejSBU3Avt9r1whBoIP0cgIQDIVraV4pN8kg5hQbq3YUXAho8DJdLXdvOkJ-GWJzbXbpLWz2vGhVHsne4el5BA7LEaYZBjaAgMqjbhDh5J5sAyBy3VnBs20M78p679VnjoRK6HR2wDkIGyHonsL8cJbojLc-iNjVxbL8nrFUwp1jTrMuDtAzbeMFd1MyiwfpIBNUW4NFCano7njeKaoJNPW6l1_CEiYWmbupRaUHMPCUkR2nFvwJ9VEUepXBJecPWPGEhu5KGGRYdfkXmfsHs390FoH0Ol017kDIRz2mADQjawjZaDPJ27-OTLjHyJ-fdL_vKSntJHhPLCXA7tnwv8hVCjqGPKy83ZGEAzW2PAKgZKVi4wEzYfMaTYieYQpgrhSKyGHNmhPssq_Yq_gGyX7O4aXBXYFyQOAXP4yeB-ihgDgAyOm6LGxYqDQ2rndwYJSYUp7qhGemApqwXMyVvMvlbZhRLVcznFyY0HLSfxteaYeNYk9du0Jr8QgEJIqQLhuW_QHRubUwCfOQOpOD4juc8VzHe7ho1CBYSjrL6wS9BgYy6U9WjuCrAacTqlqXXrF49l_I2VAso39qR9gSL69Y9GwEWeP4oZVFezt2gT0RAWw12JeAKSBxMGZ1jtgEkdibEaqMkk8x7bzxg3848u5oI3rceMp9aqqvGXFadfWBbFh0KlaD1niGUNKsaCJ764sWyNHwDo7yvNS97ckV_OlRXigavGDiiXmx1VZyNAkaNjcL1Oo7mAtJha0CJuqkHEwdKJ6CvuncMikGr_788JSsmPs4T3dazubdSPRG7upgJw8OBRJ3MshtNOroxXvlB36IqMVUH0QDz46ZHRDQFbc1FEkucFXlljKie_HKuQBoEZeaz5HZsQQ-Djza4nGEfU0Sez3WrpgOtB1SVBsoSvZPHKDruMRIEm_rFmPQOtM746SfUK7lT9YX25l3jUGttEbmzxmwO7RVcPpBUkFm5hYAEHAuwJ8s9sPTLYW7mFousRBLk65h46jNeVZCkAL_9qfDqSYkLzETqPqqncszq8OvqWmnQ87ocFcgassooFLDoypiGPOd2JbrpUbT2GtDNLqAHdpd6kz6NZMvo7A-AW9JRipymN_u3]--></g></svg>