<svg xmlns="http://www.w3.org/2000/svg" xmlns:xlink="http://www.w3.org/1999/xlink" contentStyleType="text/css" data-diagram-type="DESCRIPTION" height="941px" preserveAspectRatio="none" style="width:2700px;height:941px;background:#FFFFFF;" version="1.1" viewBox="0 0 2700 941" width="2700px" zoomAndPan="magnify"><title>PeiDocker WebGUI - Refactored Package Architecture</title><defs/><g><text fill="#000000" font-family="Verdana" font-size="22" font-weight="bold" lengthAdjust="spacing" textLength="666.542" x="1012.6902" y="37.1182">PeiDocker WebGUI - Refactored Package Architecture</text><!--cluster PeiDocker WebGUI--><g class="cluster" data-entity="PeiDocker WebGUI" data-source-line="5" data-uid="ent0002" id="cluster_PeiDocker WebGUI"><path d="M13.5,58.7373 L163.9951,58.7373 A3.75,3.75 0 0 1 166.4951,61.2373 L173.4951,81.752 L1576.5,81.752 A2.5,2.5 0 0 1 1579,84.252 L1579,931.7373 A2.5,2.5 0 0 1 1576.5,934.2373 L13.5,934.2373 A2.5,2.5 0 0 1 11,931.7373 L11,61.2373 A2.5,2.5 0 0 1 13.5,58.7373" fill="#FFFFFF" style="stroke:#000000;stroke-width:1;"/><line style="stroke:#000000;stroke-width:1;" x1="11" x2="173.4951" y1="81.752" y2="81.752"/><text fill="#000000" font-family="Verdana" font-size="14" font-weight="bold" lengthAdjust="spacing" textLength="149.4951" x="15" y="74.8125">PeiDocker WebGUI</text></g><!--cluster Main Application--><g class="cluster" data-entity="Main Application" data-source-line="7" data-uid="ent0003" id="cluster_Main Application"><path d="M840.5,146.7373 L972.0186,146.7373 A3.75,3.75 0 0 1 974.5186,149.2373 L981.5186,169.752 L1035.5,169.752 A2.5,2.5 0 0 1 1038,172.252 L1038,544.7373 A2.5,2.5 0 0 1 1035.5,547.2373 L840.5,547.2373 A2.5,2.5 0 0 1 838,544.7373 L838,149.2373 A2.5,2.5 0 0 1 840.5,146.7373" fill="#FFFFFF" style="stroke:#000000;stroke-width:1;"/><line style="stroke:#000000;stroke-width:1;" x1="838" x2="981.5186" y1="169.752" y2="169.752"/><text fill="#000000" font-family="Verdana" font-size="14" font-weight="bold" lengthAdjust="spacing" textLength="130.5186" x="842" y="162.8125">Main Application</text></g><!--cluster Models Layer--><g class="cluster" data-entity="Models Layer" data-source-line="12" data-uid="ent0006" id="cluster_Models Layer"><path d="M1064.5,387.2373 L1168.9824,387.2373 A3.75,3.75 0 0 1 1171.4824,389.7373 L1178.4824,410.252 L1552.5,410.252 A2.5,2.5 0 0 1 1555,412.752 L1555,568.7373 A2.5,2.5 0 0 1 1552.5,571.2373 L1064.5,571.2373 A2.5,2.5 0 0 1 1062,568.7373 L1062,389.7373 A2.5,2.5 0 0 1 1064.5,387.2373" fill="#FFFFFF" style="stroke:#000000;stroke-width:1;"/><line style="stroke:#000000;stroke-width:1;" x1="1062" x2="1178.4824" y1="410.252" y2="410.252"/><text fill="#000000" font-family="Verdana" font-size="14" font-weight="bold" lengthAdjust="spacing" textLength="103.4824" x="1066" y="403.3125">Models Layer</text></g><!--cluster models/--><g class="cluster" data-entity="models/" data-source-line="13" data-uid="ent0007" id="cluster_models/"><path d="M1088.5,431.2373 L1155.7539,431.2373 A3.75,3.75 0 0 1 1158.2539,433.7373 L1165.2539,454.252 L1528.5,454.252 A2.5,2.5 0 0 1 1531,456.752 L1531,544.7373 A2.5,2.5 0 0 1 1528.5,547.2373 L1088.5,547.2373 A2.5,2.5 0 0 1 1086,544.7373 L1086,433.7373 A2.5,2.5 0 0 1 1088.5,431.2373" fill="#FFFFFF" style="stroke:#000000;stroke-width:1;"/><line style="stroke:#000000;stroke-width:1;" x1="1086" x2="1165.2539" y1="454.252" y2="454.252"/><text fill="#000000" font-family="Verdana" font-size="14" font-weight="bold" lengthAdjust="spacing" textLength="66.2539" x="1090" y="447.3125">models/</text></g><!--cluster Utils Layer--><g class="cluster" data-entity="Utils Layer" data-source-line="19" data-uid="ent0010" id="cluster_Utils Layer"><path d="M1279.5,102.7373 L1364.5479,102.7373 A3.75,3.75 0 0 1 1367.0479,105.2373 L1374.0479,125.752 L1552.5,125.752 A2.5,2.5 0 0 1 1555,128.252 L1555,284.2373 A2.5,2.5 0 0 1 1552.5,286.7373 L1279.5,286.7373 A2.5,2.5 0 0 1 1277,284.2373 L1277,105.2373 A2.5,2.5 0 0 1 1279.5,102.7373" fill="#FFFFFF" style="stroke:#000000;stroke-width:1;"/><line style="stroke:#000000;stroke-width:1;" x1="1277" x2="1374.0479" y1="125.752" y2="125.752"/><text fill="#000000" font-family="Verdana" font-size="14" font-weight="bold" lengthAdjust="spacing" textLength="84.0479" x="1281" y="118.8125">Utils Layer</text></g><!--cluster utils/--><g class="cluster" data-entity="utils/" data-source-line="20" data-uid="ent0011" id="cluster_utils/"><path d="M1303.5,146.7373 L1348.3799,146.7373 A3.75,3.75 0 0 1 1350.8799,149.2373 L1357.8799,169.752 L1528.5,169.752 A2.5,2.5 0 0 1 1531,172.252 L1531,260.2373 A2.5,2.5 0 0 1 1528.5,262.7373 L1303.5,262.7373 A2.5,2.5 0 0 1 1301,260.2373 L1301,149.2373 A2.5,2.5 0 0 1 1303.5,146.7373" fill="#FFFFFF" style="stroke:#000000;stroke-width:1;"/><line style="stroke:#000000;stroke-width:1;" x1="1301" x2="1357.8799" y1="169.752" y2="169.752"/><text fill="#000000" font-family="Verdana" font-size="14" font-weight="bold" lengthAdjust="spacing" textLength="43.8799" x="1305" y="162.8125">utils/</text></g><!--cluster Legacy Support--><g class="cluster" data-entity="Legacy Support" data-source-line="25" data-uid="ent0013" id="cluster_Legacy Support"><path d="M840.5,620.2373 L963.4395,620.2373 A3.75,3.75 0 0 1 965.9395,622.7373 L972.9395,643.252 L1268.5,643.252 A2.5,2.5 0 0 1 1271,645.752 L1271,733.7373 A2.5,2.5 0 0 1 1268.5,736.2373 L840.5,736.2373 A2.5,2.5 0 0 1 838,733.7373 L838,622.7373 A2.5,2.5 0 0 1 840.5,620.2373" fill="#FFFFFF" style="stroke:#000000;stroke-width:1;"/><line style="stroke:#000000;stroke-width:1;" x1="838" x2="972.9395" y1="643.252" y2="643.252"/><text fill="#000000" font-family="Verdana" font-size="14" font-weight="bold" lengthAdjust="spacing" textLength="121.9395" x="842" y="636.3125">Legacy Support</text></g><!--cluster Tab Components--><g class="cluster" data-entity="Tab Components" data-source-line="30" data-uid="ent0016" id="cluster_Tab Components"><path d="M37.5,335.7373 L169.8525,335.7373 A3.75,3.75 0 0 1 172.3525,338.2373 L179.3525,358.752 L811.5,358.752 A2.5,2.5 0 0 1 814,361.252 L814,907.7373 A2.5,2.5 0 0 1 811.5,910.2373 L37.5,910.2373 A2.5,2.5 0 0 1 35,907.7373 L35,338.2373 A2.5,2.5 0 0 1 37.5,335.7373" fill="#FFFFFF" style="stroke:#000000;stroke-width:1;"/><line style="stroke:#000000;stroke-width:1;" x1="35" x2="179.3525" y1="358.752" y2="358.752"/><text fill="#000000" font-family="Verdana" font-size="14" font-weight="bold" lengthAdjust="spacing" textLength="131.3525" x="39" y="351.8125">Tab Components</text></g><!--cluster tabs/--><g class="cluster" data-entity="tabs/" data-source-line="31" data-uid="ent0017" id="cluster_tabs/"><path d="M61.5,379.7373 L105.9766,379.7373 A3.75,3.75 0 0 1 108.4766,382.2373 L115.4766,402.752 L787.5,402.752 A2.5,2.5 0 0 1 790,405.252 L790,883.7373 A2.5,2.5 0 0 1 787.5,886.2373 L61.5,886.2373 A2.5,2.5 0 0 1 59,883.7373 L59,382.2373 A2.5,2.5 0 0 1 61.5,379.7373" fill="#FFFFFF" style="stroke:#000000;stroke-width:1;"/><line style="stroke:#000000;stroke-width:1;" x1="59" x2="115.4766" y1="402.752" y2="402.752"/><text fill="#000000" font-family="Verdana" font-size="14" font-weight="bold" lengthAdjust="spacing" textLength="43.4766" x="63" y="395.8125">tabs/</text></g><!--cluster Current Tabs--><g class="cluster" data-entity="Current Tabs" data-source-line="33" data-uid="ent0019" id="cluster_Current Tabs"><path d="M93.5,431.7373 L195.9453,431.7373 A3.75,3.75 0 0 1 198.4453,434.2373 L205.4453,454.752 L589.5,454.752 A2.5,2.5 0 0 1 592,457.252 L592,851.7373 A2.5,2.5 0 0 1 589.5,854.2373 L93.5,854.2373 A2.5,2.5 0 0 1 91,851.7373 L91,434.2373 A2.5,2.5 0 0 1 93.5,431.7373" fill="#FFFFFF" style="stroke:#000000;stroke-width:1;"/><line style="stroke:#000000;stroke-width:1;" x1="91" x2="205.4453" y1="454.752" y2="454.752"/><text fill="#000000" font-family="Verdana" font-size="14" font-weight="bold" lengthAdjust="spacing" textLength="101.4453" x="95" y="447.8125">Current Tabs</text></g><!--cluster External Dependencies--><g class="cluster" data-entity="External Dependencies" data-source-line="46" data-uid="ent0027" id="cluster_External Dependencies"><path d="M1605.5,620.2373 L1786.6201,620.2373 A3.75,3.75 0 0 1 1789.1201,622.7373 L1796.1201,643.252 L2228.5,643.252 A2.5,2.5 0 0 1 2231,645.752 L2231,733.7373 A2.5,2.5 0 0 1 2228.5,736.2373 L1605.5,736.2373 A2.5,2.5 0 0 1 1603,733.7373 L1603,622.7373 A2.5,2.5 0 0 1 1605.5,620.2373" fill="#FFFFFF" style="stroke:#000000;stroke-width:1;"/><line style="stroke:#000000;stroke-width:1;" x1="1603" x2="1796.1201" y1="643.252" y2="643.252"/><text fill="#000000" font-family="Verdana" font-size="14" font-weight="bold" lengthAdjust="spacing" textLength="180.1201" x="1607" y="636.3125">External Dependencies</text></g><!--cluster PeiDocker Core--><g class="cluster" data-entity="PeiDocker Core" data-source-line="52" data-uid="ent0031" id="cluster_PeiDocker Core"><path d="M1935.5,431.2373 L2056.7441,431.2373 A3.75,3.75 0 0 1 2059.2441,433.7373 L2066.2441,454.252 L2320.5,454.252 A2.5,2.5 0 0 1 2323,456.752 L2323,544.7373 A2.5,2.5 0 0 1 2320.5,547.2373 L1935.5,547.2373 A2.5,2.5 0 0 1 1933,544.7373 L1933,433.7373 A2.5,2.5 0 0 1 1935.5,431.2373" fill="#FFFFFF" style="stroke:#000000;stroke-width:1;"/><line style="stroke:#000000;stroke-width:1;" x1="1933" x2="2066.2441" y1="454.252" y2="454.252"/><text fill="#000000" font-family="Verdana" font-size="14" font-weight="bold" lengthAdjust="spacing" textLength="120.2441" x="1937" y="447.3125">PeiDocker Core</text></g><!--entity app.py--><g class="entity" data-entity="app.py" data-source-line="8" data-uid="ent0004" id="entity_app.py"><rect fill="#FFFFFF" height="64.0293" rx="2.5" ry="2.5" style="stroke:#000000;stroke-width:1;" width="166.9951" x="854.5" y="467.2373"/><rect fill="#FFFFFF" height="10" style="stroke:#000000;stroke-width:1;" width="15" x="1001.4951" y="472.2373"/><rect fill="#FFFFFF" height="2" style="stroke:#000000;stroke-width:1;" width="4" x="999.4951" y="474.2373"/><rect fill="#FFFFFF" height="2" style="stroke:#000000;stroke-width:1;" width="4" x="999.4951" y="478.2373"/><text fill="#000000" font-family="Verdana" font-size="14" font-style="italic" lengthAdjust="spacing" textLength="124.9951" x="870.5" y="501.3125">&#171;Main Controller&#187;</text><text fill="#000000" font-family="Verdana" font-size="14" lengthAdjust="spacing" textLength="47.9541" x="909.0205" y="518.3271">app.py</text></g><!--entity cli_launcher.py--><g class="entity" data-entity="cli_launcher.py" data-source-line="9" data-uid="ent0005" id="entity_cli_launcher.py"><rect fill="#FFFFFF" height="64.0293" rx="2.5" ry="2.5" style="stroke:#000000;stroke-width:1;" width="166.8379" x="854.5" y="182.7373"/><rect fill="#FFFFFF" height="10" style="stroke:#000000;stroke-width:1;" width="15" x="1001.3379" y="187.7373"/><rect fill="#FFFFFF" height="2" style="stroke:#000000;stroke-width:1;" width="4" x="999.3379" y="189.7373"/><rect fill="#FFFFFF" height="2" style="stroke:#000000;stroke-width:1;" width="4" x="999.3379" y="193.7373"/><text fill="#000000" font-family="Verdana" font-size="14" font-style="italic" lengthAdjust="spacing" textLength="124.8379" x="870.5" y="216.8125">&#171;CLI Integration&#187;</text><text fill="#000000" font-family="Verdana" font-size="14" lengthAdjust="spacing" textLength="106.415" x="879.7114" y="233.8271">cli_launcher.py</text></g><!--entity ui_state.py--><g class="entity" data-entity="ui_state.py" data-source-line="14" data-uid="ent0008" id="entity_ui_state.py"><rect fill="#FFFFFF" height="64.0293" rx="2.5" ry="2.5" style="stroke:#000000;stroke-width:1;" width="183.7158" x="1102" y="467.2373"/><rect fill="#FFFFFF" height="10" style="stroke:#000000;stroke-width:1;" width="15" x="1265.7158" y="472.2373"/><rect fill="#FFFFFF" height="2" style="stroke:#000000;stroke-width:1;" width="4" x="1263.7158" y="474.2373"/><rect fill="#FFFFFF" height="2" style="stroke:#000000;stroke-width:1;" width="4" x="1263.7158" y="478.2373"/><text fill="#000000" font-family="Verdana" font-size="14" font-style="italic" lengthAdjust="spacing" textLength="141.7158" x="1118" y="501.3125">&#171;Bindable UI State&#187;</text><text fill="#000000" font-family="Verdana" font-size="14" lengthAdjust="spacing" textLength="78.7773" x="1149.4692" y="518.3271">ui_state.py</text></g><!--entity config.py--><g class="entity" data-entity="config.py" data-source-line="15" data-uid="ent0009" id="entity_config.py"><rect fill="#FFFFFF" height="64.0293" rx="2.5" ry="2.5" style="stroke:#000000;stroke-width:1;" width="193.8193" x="1321" y="467.2373"/><rect fill="#FFFFFF" height="10" style="stroke:#000000;stroke-width:1;" width="15" x="1494.8193" y="472.2373"/><rect fill="#FFFFFF" height="2" style="stroke:#000000;stroke-width:1;" width="4" x="1492.8193" y="474.2373"/><rect fill="#FFFFFF" height="2" style="stroke:#000000;stroke-width:1;" width="4" x="1492.8193" y="478.2373"/><text fill="#000000" font-family="Verdana" font-size="14" font-style="italic" lengthAdjust="spacing" textLength="151.8193" x="1337" y="501.3125">&#171;Pydantic Validation&#187;</text><text fill="#000000" font-family="Verdana" font-size="14" lengthAdjust="spacing" textLength="64.2373" x="1380.791" y="518.3271">config.py</text></g><!--entity bridge.py--><g class="entity" data-entity="bridge.py" data-source-line="21" data-uid="ent0012" id="entity_bridge.py"><rect fill="#FFFFFF" height="64.0293" rx="2.5" ry="2.5" style="stroke:#000000;stroke-width:1;" width="198.4541" x="1317" y="182.7373"/><rect fill="#FFFFFF" height="10" style="stroke:#000000;stroke-width:1;" width="15" x="1495.4541" y="187.7373"/><rect fill="#FFFFFF" height="2" style="stroke:#000000;stroke-width:1;" width="4" x="1493.4541" y="189.7373"/><rect fill="#FFFFFF" height="2" style="stroke:#000000;stroke-width:1;" width="4" x="1493.4541" y="193.7373"/><text fill="#000000" font-family="Verdana" font-size="14" font-style="italic" lengthAdjust="spacing" textLength="156.4541" x="1333" y="216.8125">&#171;State-Config Bridge&#187;</text><text fill="#000000" font-family="Verdana" font-size="14" lengthAdjust="spacing" textLength="66.4248" x="1378.0146" y="233.8271">bridge.py</text></g><!--entity legacy_models.py--><g class="entity" data-entity="legacy_models.py" data-source-line="26" data-uid="ent0014" id="entity_legacy_models.py"><rect fill="#FFFFFF" height="64.0293" rx="2.5" ry="2.5" style="stroke:#000000;stroke-width:1;" width="200.2451" x="1055" y="656.2373"/><rect fill="#FFFFFF" height="10" style="stroke:#000000;stroke-width:1;" width="15" x="1235.2451" y="661.2373"/><rect fill="#FFFFFF" height="2" style="stroke:#000000;stroke-width:1;" width="4" x="1233.2451" y="663.2373"/><rect fill="#FFFFFF" height="2" style="stroke:#000000;stroke-width:1;" width="4" x="1233.2451" y="667.2373"/><text fill="#000000" font-family="Verdana" font-size="14" font-style="italic" lengthAdjust="spacing" textLength="158.2451" x="1071" y="690.3125">&#171;Legacy Data Models&#187;</text><text fill="#000000" font-family="Verdana" font-size="14" lengthAdjust="spacing" textLength="126.2051" x="1087.02" y="707.3271">legacy_models.py</text></g><!--entity legacy_utils.py--><g class="entity" data-entity="legacy_utils.py" data-source-line="27" data-uid="ent0015" id="entity_legacy_utils.py"><rect fill="#FFFFFF" height="64.0293" rx="2.5" ry="2.5" style="stroke:#000000;stroke-width:1;" width="166.0586" x="854" y="656.2373"/><rect fill="#FFFFFF" height="10" style="stroke:#000000;stroke-width:1;" width="15" x="1000.0586" y="661.2373"/><rect fill="#FFFFFF" height="2" style="stroke:#000000;stroke-width:1;" width="4" x="998.0586" y="663.2373"/><rect fill="#FFFFFF" height="2" style="stroke:#000000;stroke-width:1;" width="4" x="998.0586" y="667.2373"/><text fill="#000000" font-family="Verdana" font-size="14" font-style="italic" lengthAdjust="spacing" textLength="124.0586" x="870" y="690.3125">&#171;Legacy Utilities&#187;</text><text fill="#000000" font-family="Verdana" font-size="14" lengthAdjust="spacing" textLength="105.2461" x="879.4063" y="707.3271">legacy_utils.py</text></g><!--entity base.py--><g class="entity" data-entity="base.py" data-source-line="32" data-uid="ent0018" id="entity_base.py"><rect fill="#FFFFFF" height="64.0293" rx="2.5" ry="2.5" style="stroke:#000000;stroke-width:1;" width="156.8916" x="616.5" y="656.2373"/><rect fill="#FFFFFF" height="10" style="stroke:#000000;stroke-width:1;" width="15" x="753.3916" y="661.2373"/><rect fill="#FFFFFF" height="2" style="stroke:#000000;stroke-width:1;" width="4" x="751.3916" y="663.2373"/><rect fill="#FFFFFF" height="2" style="stroke:#000000;stroke-width:1;" width="4" x="751.3916" y="667.2373"/><text fill="#000000" font-family="Verdana" font-size="14" font-style="italic" lengthAdjust="spacing" textLength="114.8916" x="632.5" y="690.3125">&#171;Abstract Base&#187;</text><text fill="#000000" font-family="Verdana" font-size="14" lengthAdjust="spacing" textLength="54.8652" x="662.5132" y="707.3271">base.py</text></g><!--entity project.py--><g class="entity" data-entity="project.py" data-source-line="34" data-uid="ent0020" id="entity_project.py"><rect fill="#FFFFFF" height="47.0146" rx="2.5" ry="2.5" style="stroke:#000000;stroke-width:1;" width="111.2646" x="135.5" y="475.7373"/><rect fill="#FFFFFF" height="10" style="stroke:#000000;stroke-width:1;" width="15" x="226.7646" y="480.7373"/><rect fill="#FFFFFF" height="2" style="stroke:#000000;stroke-width:1;" width="4" x="224.7646" y="482.7373"/><rect fill="#FFFFFF" height="2" style="stroke:#000000;stroke-width:1;" width="4" x="224.7646" y="486.7373"/><text fill="#000000" font-family="Verdana" font-size="14" lengthAdjust="spacing" textLength="71.2646" x="150.5" y="509.8125">project.py</text></g><!--entity ssh.py--><g class="entity" data-entity="ssh.py" data-source-line="35" data-uid="ent0021" id="entity_ssh.py"><rect fill="#FFFFFF" height="47.0146" rx="2.5" ry="2.5" style="stroke:#000000;stroke-width:1;" width="85.5479" x="282" y="475.7373"/><rect fill="#FFFFFF" height="10" style="stroke:#000000;stroke-width:1;" width="15" x="347.5479" y="480.7373"/><rect fill="#FFFFFF" height="2" style="stroke:#000000;stroke-width:1;" width="4" x="345.5479" y="482.7373"/><rect fill="#FFFFFF" height="2" style="stroke:#000000;stroke-width:1;" width="4" x="345.5479" y="486.7373"/><text fill="#000000" font-family="Verdana" font-size="14" lengthAdjust="spacing" textLength="45.5479" x="297" y="509.8125">ssh.py</text></g><!--entity network.py--><g class="entity" data-entity="network.py" data-source-line="36" data-uid="ent0022" id="entity_network.py"><rect fill="#FFFFFF" height="47.0146" rx="2.5" ry="2.5" style="stroke:#000000;stroke-width:1;" width="119.0303" x="403.5" y="475.7373"/><rect fill="#FFFFFF" height="10" style="stroke:#000000;stroke-width:1;" width="15" x="502.5303" y="480.7373"/><rect fill="#FFFFFF" height="2" style="stroke:#000000;stroke-width:1;" width="4" x="500.5303" y="482.7373"/><rect fill="#FFFFFF" height="2" style="stroke:#000000;stroke-width:1;" width="4" x="500.5303" y="486.7373"/><text fill="#000000" font-family="Verdana" font-size="14" lengthAdjust="spacing" textLength="79.0303" x="418.5" y="509.8125">network.py</text></g><!--entity environment.py--><g class="entity" data-entity="environment.py" data-source-line="37" data-uid="ent0023" id="entity_environment.py"><rect fill="#FFFFFF" height="47.0146" rx="2.5" ry="2.5" style="stroke:#000000;stroke-width:1;" width="151.0908" x="115.5" y="664.7373"/><rect fill="#FFFFFF" height="10" style="stroke:#000000;stroke-width:1;" width="15" x="246.5908" y="669.7373"/><rect fill="#FFFFFF" height="2" style="stroke:#000000;stroke-width:1;" width="4" x="244.5908" y="671.7373"/><rect fill="#FFFFFF" height="2" style="stroke:#000000;stroke-width:1;" width="4" x="244.5908" y="675.7373"/><text fill="#000000" font-family="Verdana" font-size="14" lengthAdjust="spacing" textLength="111.0908" x="130.5" y="698.8125">environment.py</text></g><!--entity storage.py--><g class="entity" data-entity="storage.py" data-source-line="38" data-uid="ent0024" id="entity_storage.py"><rect fill="#FFFFFF" height="47.0146" rx="2.5" ry="2.5" style="stroke:#000000;stroke-width:1;" width="114.8535" x="301.5" y="664.7373"/><rect fill="#FFFFFF" height="10" style="stroke:#000000;stroke-width:1;" width="15" x="396.3535" y="669.7373"/><rect fill="#FFFFFF" height="2" style="stroke:#000000;stroke-width:1;" width="4" x="394.3535" y="671.7373"/><rect fill="#FFFFFF" height="2" style="stroke:#000000;stroke-width:1;" width="4" x="394.3535" y="675.7373"/><text fill="#000000" font-family="Verdana" font-size="14" lengthAdjust="spacing" textLength="74.8535" x="316.5" y="698.8125">storage.py</text></g><!--entity scripts.py--><g class="entity" data-entity="scripts.py" data-source-line="39" data-uid="ent0025" id="entity_scripts.py"><rect fill="#FFFFFF" height="47.0146" rx="2.5" ry="2.5" style="stroke:#000000;stroke-width:1;" width="108.0381" x="452" y="664.7373"/><rect fill="#FFFFFF" height="10" style="stroke:#000000;stroke-width:1;" width="15" x="540.0381" y="669.7373"/><rect fill="#FFFFFF" height="2" style="stroke:#000000;stroke-width:1;" width="4" x="538.0381" y="671.7373"/><rect fill="#FFFFFF" height="2" style="stroke:#000000;stroke-width:1;" width="4" x="538.0381" y="675.7373"/><text fill="#000000" font-family="Verdana" font-size="14" lengthAdjust="spacing" textLength="68.0381" x="467" y="698.8125">scripts.py</text></g><!--entity summary.py--><g class="entity" data-entity="summary.py" data-source-line="40" data-uid="ent0026" id="entity_summary.py"><rect fill="#FFFFFF" height="47.0146" rx="2.5" ry="2.5" style="stroke:#000000;stroke-width:1;" width="128.1563" x="127" y="783.2373"/><rect fill="#FFFFFF" height="10" style="stroke:#000000;stroke-width:1;" width="15" x="235.1563" y="788.2373"/><rect fill="#FFFFFF" height="2" style="stroke:#000000;stroke-width:1;" width="4" x="233.1563" y="790.2373"/><rect fill="#FFFFFF" height="2" style="stroke:#000000;stroke-width:1;" width="4" x="233.1563" y="794.2373"/><text fill="#000000" font-family="Verdana" font-size="14" lengthAdjust="spacing" textLength="88.1563" x="142" y="817.3125">summary.py</text></g><!--entity NiceGUI Framework--><g class="entity" data-entity="NiceGUI Framework" data-source-line="47" data-uid="ent0028" id="entity_NiceGUI Framework"><rect fill="#FFFFFF" height="64.0293" rx="2.5" ry="2.5" style="stroke:#000000;stroke-width:1;" width="180.4648" x="1619" y="656.2373"/><rect fill="#FFFFFF" height="10" style="stroke:#000000;stroke-width:1;" width="15" x="1779.4648" y="661.2373"/><rect fill="#FFFFFF" height="2" style="stroke:#000000;stroke-width:1;" width="4" x="1777.4648" y="663.2373"/><rect fill="#FFFFFF" height="2" style="stroke:#000000;stroke-width:1;" width="4" x="1777.4648" y="667.2373"/><text fill="#000000" font-family="Verdana" font-size="14" font-style="italic" lengthAdjust="spacing" textLength="98.8545" x="1654.8052" y="690.3125">&#171;Reactive UI&#187;</text><text fill="#000000" font-family="Verdana" font-size="14" lengthAdjust="spacing" textLength="140.4648" x="1634" y="707.3271">NiceGUI Framework</text></g><!--entity Pydantic v2--><g class="entity" data-entity="Pydantic v2" data-source-line="48" data-uid="ent0029" id="entity_Pydantic v2"><rect fill="#FFFFFF" height="64.0293" rx="2.5" ry="2.5" style="stroke:#000000;stroke-width:1;" width="167.5146" x="1834" y="656.2373"/><rect fill="#FFFFFF" height="10" style="stroke:#000000;stroke-width:1;" width="15" x="1981.5146" y="661.2373"/><rect fill="#FFFFFF" height="2" style="stroke:#000000;stroke-width:1;" width="4" x="1979.5146" y="663.2373"/><rect fill="#FFFFFF" height="2" style="stroke:#000000;stroke-width:1;" width="4" x="1979.5146" y="667.2373"/><text fill="#000000" font-family="Verdana" font-size="14" font-style="italic" lengthAdjust="spacing" textLength="125.5146" x="1850" y="690.3125">&#171;Data Validation&#187;</text><text fill="#000000" font-family="Verdana" font-size="14" lengthAdjust="spacing" textLength="81.4775" x="1872.0186" y="707.3271">Pydantic v2</text></g><!--entity PyYAML--><g class="entity" data-entity="PyYAML" data-source-line="49" data-uid="ent0030" id="entity_PyYAML"><rect fill="#FFFFFF" height="64.0293" rx="2.5" ry="2.5" style="stroke:#000000;stroke-width:1;" width="177.2695" x="2037.5" y="656.2373"/><rect fill="#FFFFFF" height="10" style="stroke:#000000;stroke-width:1;" width="15" x="2194.7695" y="661.2373"/><rect fill="#FFFFFF" height="2" style="stroke:#000000;stroke-width:1;" width="4" x="2192.7695" y="663.2373"/><rect fill="#FFFFFF" height="2" style="stroke:#000000;stroke-width:1;" width="4" x="2192.7695" y="667.2373"/><text fill="#000000" font-family="Verdana" font-size="14" font-style="italic" lengthAdjust="spacing" textLength="135.2695" x="2053.5" y="690.3125">&#171;YAML Processing&#187;</text><text fill="#000000" font-family="Verdana" font-size="14" lengthAdjust="spacing" textLength="54.5029" x="2093.8833" y="707.3271">PyYAML</text></g><!--entity pei-docker-cli--><g class="entity" data-entity="pei-docker-cli" data-source-line="53" data-uid="ent0032" id="entity_pei-docker-cli"><rect fill="#FFFFFF" height="64.0293" rx="2.5" ry="2.5" style="stroke:#000000;stroke-width:1;" width="167.2344" x="2139.5" y="467.2373"/><rect fill="#FFFFFF" height="10" style="stroke:#000000;stroke-width:1;" width="15" x="2286.7344" y="472.2373"/><rect fill="#FFFFFF" height="2" style="stroke:#000000;stroke-width:1;" width="4" x="2284.7344" y="474.2373"/><rect fill="#FFFFFF" height="2" style="stroke:#000000;stroke-width:1;" width="4" x="2284.7344" y="478.2373"/><text fill="#000000" font-family="Verdana" font-size="14" font-style="italic" lengthAdjust="spacing" textLength="125.2344" x="2155.5" y="501.3125">&#171;CLI Commands&#187;</text><text fill="#000000" font-family="Verdana" font-size="14" lengthAdjust="spacing" textLength="95.71" x="2170.2622" y="518.3271">pei-docker-cli</text></g><!--entity user_config.yml--><g class="entity" data-entity="user_config.yml" data-source-line="54" data-uid="ent0033" id="entity_user_config.yml"><rect fill="#FFFFFF" height="64.0293" rx="2.5" ry="2.5" style="stroke:#000000;stroke-width:1;" width="154.6016" x="1949.5" y="467.2373"/><rect fill="#FFFFFF" height="10" style="stroke:#000000;stroke-width:1;" width="15" x="2084.1016" y="472.2373"/><rect fill="#FFFFFF" height="2" style="stroke:#000000;stroke-width:1;" width="4" x="2082.1016" y="474.2373"/><rect fill="#FFFFFF" height="2" style="stroke:#000000;stroke-width:1;" width="4" x="2082.1016" y="478.2373"/><text fill="#000000" font-family="Verdana" font-size="14" font-style="italic" lengthAdjust="spacing" textLength="112.6016" x="1965.5" y="501.3125">&#171;Configuration&#187;</text><text fill="#000000" font-family="Verdana" font-size="14" lengthAdjust="spacing" textLength="112.3418" x="1965.6299" y="518.3271">user_config.yml</text></g><g class="entity" data-entity="GMN46" data-source-line="76" data-uid="ent0047" id="entity_GMN46"><path d="M2341.5,454.7373 L2341.5,543.7339 L2514.4375,543.7339 L2514.4375,464.7373 L2504.4375,454.7373 L2341.5,454.7373" fill="#FFFFFF" style="stroke:#000000;stroke-width:1;"/><path d="M2504.4375,454.7373 L2504.4375,464.7373 L2514.4375,464.7373 L2504.4375,454.7373" fill="#FFFFFF" style="stroke:#000000;stroke-width:1;"/><text fill="#000000" font-family="Verdana" font-size="13" lengthAdjust="spacing" textLength="135.3447" x="2347.5" y="472.8071">Reactive State Layer</text><text fill="#000000" font-family="Verdana" font-size="13" lengthAdjust="spacing" textLength="147.4814" x="2347.5" y="488.6064">- @bindable_dataclass</text><text fill="#000000" font-family="Verdana" font-size="13" lengthAdjust="spacing" textLength="130.1079" x="2347.5" y="504.4058">- Automatic UI sync</text><text fill="#000000" font-family="Verdana" font-size="13" lengthAdjust="spacing" textLength="151.9375" x="2347.5" y="520.2051">- Single source of truth</text><text fill="#000000" font-family="Verdana" font-size="13" lengthAdjust="spacing" textLength="129.7524" x="2347.5" y="536.0044">- No event handlers</text></g><g class="entity" data-entity="GMN49" data-source-line="84" data-uid="ent0050" id="entity_GMN49"><path d="M1595.5,454.7373 L1595.5,543.7339 L1782.3262,543.7339 L1782.3262,464.7373 L1772.3262,454.7373 L1595.5,454.7373" fill="#FFFFFF" style="stroke:#000000;stroke-width:1;"/><path d="M1772.3262,454.7373 L1772.3262,464.7373 L1782.3262,464.7373 L1772.3262,454.7373" fill="#FFFFFF" style="stroke:#000000;stroke-width:1;"/><text fill="#000000" font-family="Verdana" font-size="13" lengthAdjust="spacing" textLength="93.9517" x="1601.5" y="472.8071">Bridge Pattern</text><text fill="#000000" font-family="Verdana" font-size="13" lengthAdjust="spacing" textLength="141.9844" x="1601.5" y="488.6064">- UI State &#8596; Pydantic</text><text fill="#000000" font-family="Verdana" font-size="13" lengthAdjust="spacing" textLength="128.1401" x="1601.5" y="504.4058">- YAML serialization</text><text fill="#000000" font-family="Verdana" font-size="13" lengthAdjust="spacing" textLength="165.8262" x="1601.5" y="520.2051">- Validation orchestration</text><text fill="#000000" font-family="Verdana" font-size="13" lengthAdjust="spacing" textLength="103.6191" x="1601.5" y="536.0044">- Error handling</text></g><g class="entity" data-entity="GMN52" data-source-line="92" data-uid="ent0053" id="entity_GMN52"><path d="M2550,454.7373 L2550,543.7339 L2693.9224,543.7339 L2693.9224,464.7373 L2683.9224,454.7373 L2550,454.7373" fill="#FFFFFF" style="stroke:#000000;stroke-width:1;"/><path d="M2683.9224,454.7373 L2683.9224,464.7373 L2693.9224,464.7373 L2683.9224,454.7373" fill="#FFFFFF" style="stroke:#000000;stroke-width:1;"/><text fill="#000000" font-family="Verdana" font-size="13" lengthAdjust="spacing" textLength="105.1426" x="2556" y="472.8071">Validation Layer</text><text fill="#000000" font-family="Verdana" font-size="13" lengthAdjust="spacing" textLength="109.3701" x="2556" y="488.6064">- Field validators</text><text fill="#000000" font-family="Verdana" font-size="13" lengthAdjust="spacing" textLength="101.0039" x="2556" y="504.4058">- Type coercion</text><text fill="#000000" font-family="Verdana" font-size="13" lengthAdjust="spacing" textLength="122.9224" x="2556" y="520.2051">- Pattern matching</text><text fill="#000000" font-family="Verdana" font-size="13" lengthAdjust="spacing" textLength="112.1567" x="2556" y="536.0044">- Error messages</text></g><!--link app.py to legacy_models.py--><g class="link" data-entity-1="app.py" data-entity-2="legacy_models.py" data-source-line="58" data-uid="lnk34" id="link_app.py_legacy_models.py"><path d="M943.82,531.6473 C949.91,555.3773 961.96,586.7373 985,604.2373 C1003.62,618.3773 1015.11,604.0173 1037,612.2373 C1065.06,622.7773 1088.624,637.1249 1110.554,652.7549" fill="none" id="app.py-to-legacy_models.py" style="stroke:#000000;stroke-width:1;"/><polygon fill="#000000" points="1115.44,656.2373,1110.4326,647.7564,1111.3683,653.3353,1105.7894,654.2711,1115.44,656.2373" style="stroke:#000000;stroke-width:1;"/><text fill="#000000" font-family="Verdana" font-size="13" lengthAdjust="spacing" textLength="68.0977" x="986" y="601.3071">temporary</text></g><!--link app.py to base.py--><g class="link" data-entity-1="app.py" data-entity-2="base.py" data-source-line="59" data-uid="lnk35" id="link_app.py_base.py"><path d="M897.6,531.3273 C852.66,565.9073 785.2347,617.7977 740.2547,652.4177" fill="none" id="app.py-to-base.py" style="stroke:#000000;stroke-width:1;"/><polygon fill="#000000" points="735.5,656.0773,745.0718,653.7577,739.4623,653.0276,740.1924,647.4181,735.5,656.0773" style="stroke:#000000;stroke-width:1;"/><text fill="#000000" font-family="Verdana" font-size="13" lengthAdjust="spacing" textLength="75.4419" x="825" y="601.3071">coordinates</text></g><!--link app.py to NiceGUI Framework--><g class="link" data-entity-1="app.py" data-entity-2="NiceGUI Framework" data-source-line="60" data-uid="lnk36" id="link_app.py_NiceGUI Framework"><path d="M986.55,531.2373 C1014.61,547.8373 1051.16,567.2673 1086,579.2373 C1092.3,581.4073 1441.8263,641.4536 1612.9263,670.7836" fill="none" id="app.py-to-NiceGUI Framework" style="stroke:#000000;stroke-width:1;"/><polygon fill="#000000" points="1618.84,671.7973,1610.6452,666.3342,1613.9119,670.9525,1609.2936,674.2192,1618.84,671.7973" style="stroke:#000000;stroke-width:1;"/><text fill="#000000" font-family="Verdana" font-size="13" lengthAdjust="spacing" textLength="49.2705" x="1226" y="601.3071">built on</text></g><!--link ui_state.py to NiceGUI Framework--><g class="link" data-entity-1="ui_state.py" data-entity-2="NiceGUI Framework" data-source-line="62" data-uid="lnk37" id="link_ui_state.py_NiceGUI Framework"><path d="M1229.69,531.2773 C1250.01,547.5673 1276.61,566.6973 1303,579.2373 C1405.94,628.1473 1528.5585,656.5046 1613.0985,672.0146" fill="none" id="ui_state.py-to-NiceGUI Framework" style="stroke:#000000;stroke-width:1;"/><polygon fill="#000000" points="1619,673.0973,1610.8696,667.5389,1614.0821,672.195,1609.4259,675.4076,1619,673.0973" style="stroke:#000000;stroke-width:1;"/><text fill="#000000" font-family="Verdana" font-size="13" lengthAdjust="spacing" textLength="137.0078" x="1357" y="601.3071">@bindable_dataclass</text></g><!--link config.py to Pydantic v2--><g class="link" data-entity-1="config.py" data-entity-2="Pydantic v2" data-source-line="63" data-uid="lnk38" id="link_config.py_Pydantic v2"><path d="M1470.3,531.3673 C1500.73,548.1073 1540.4,567.6473 1578,579.2373 C1654.34,602.7773 1676.84,593.4873 1756,604.2373 C1783.09,607.9173 1791.65,601.9773 1817,612.2373 C1842.1,622.3973 1862.0178,636.4221 1880.5878,652.2021" fill="none" id="config.py-to-Pydantic v2" style="stroke:#000000;stroke-width:1;"/><polygon fill="#000000" points="1885.16,656.0873,1880.8919,647.2113,1881.3498,652.8496,1875.7116,653.3076,1885.16,656.0873" style="stroke:#000000;stroke-width:1;"/><text fill="#000000" font-family="Verdana" font-size="13" lengthAdjust="spacing" textLength="69.4941" x="1757" y="601.3071">BaseModel</text></g><!--link bridge.py to ui_state.py--><g class="link" data-entity-1="bridge.py" data-entity-2="ui_state.py" data-source-line="65" data-uid="lnk39" id="link_bridge.py_ui_state.py"><path d="M1375.49,246.8073 C1356.53,262.4373 1334.36,282.3573 1317,302.7373 C1271.88,355.6973 1234.2362,421.3693 1212.8462,461.6093" fill="none" id="bridge.py-to-ui_state.py" style="stroke:#000000;stroke-width:1;"/><polygon fill="#000000" points="1210.03,466.9073,1217.7863,460.8378,1212.3768,462.4923,1210.7223,457.0828,1210.03,466.9073" style="stroke:#000000;stroke-width:1;"/><text fill="#000000" font-family="Verdana" font-size="13" lengthAdjust="spacing" textLength="90.9937" x="1318" y="316.8071">converts from</text></g><!--link bridge.py to config.py--><g class="link" data-entity-1="bridge.py" data-entity-2="config.py" data-source-line="66" data-uid="lnk40" id="link_bridge.py_config.py"><path d="M1416.22,246.7773 C1416.6,301.0973 1417.3581,406.7875 1417.7381,461.1475" fill="none" id="bridge.py-to-config.py" style="stroke:#000000;stroke-width:1;"/><polygon fill="#000000" points="1417.78,467.1473,1421.717,458.1196,1417.745,462.1474,1413.7172,458.1755,1417.78,467.1473" style="stroke:#000000;stroke-width:1;"/><text fill="#000000" font-family="Verdana" font-size="13" lengthAdjust="spacing" textLength="90.3081" x="1418" y="316.8071">validates with</text></g><!--link bridge.py to PyYAML--><g class="link" data-entity-1="bridge.py" data-entity-2="PyYAML" data-source-line="67" data-uid="lnk41" id="link_bridge.py_PyYAML"><path d="M1515.22,218.8873 C1601.73,226.9573 1724.81,252.1773 1800,327.7373 C1882.01,410.1573 1787.38,499.5073 1872,579.2373 C1921.05,625.4573 1958.4,584.9073 2020,612.2373 C2044.93,623.2973 2065.2544,636.9602 2084.7344,652.2002" fill="none" id="bridge.py-to-PyYAML" style="stroke:#000000;stroke-width:1;"/><polygon fill="#000000" points="2089.46,655.8973,2084.8362,647.2013,2085.522,652.8164,2079.9068,653.5021,2089.46,655.8973" style="stroke:#000000;stroke-width:1;"/><text fill="#000000" font-family="Verdana" font-size="13" lengthAdjust="spacing" textLength="59.9219" x="1873" y="504.8071">serializes</text></g><!--link Current Tabs to legacy_models.py--><g class="link" data-entity-1="Current Tabs" data-entity-2="legacy_models.py" data-source-line="69" data-uid="lnk42" id="link_Current Tabs_legacy_models.py"><path d="M592.0721,506.6449 C592.1877,506.7345 592.3045,506.825 592.4224,506.9163 C592.6582,507.0989 592.8986,507.2848 593.1436,507.4739 C593.6335,507.8521 594.1416,508.2432 594.6676,508.6466 C596.7717,510.2602 599.1615,512.0717 601.8141,514.0503 C612.4244,521.9645 627.2388,532.5517 644.7825,543.8411 C679.87,566.4198 725.875,591.8073 771,604.2373 C828.01,619.9473 980.47,594.8673 1037,612.2373 C1066.47,621.2873 1090.9259,636.2362 1112.9459,652.6162" fill="none" id="Current Tabs-to-legacy_models.py" style="stroke:#000000;stroke-width:1;"/><polygon fill="#000000" points="1117.76,656.1973,1112.9262,647.6163,1113.7482,653.2131,1108.1514,654.0351,1117.76,656.1973" style="stroke:#000000;stroke-width:1;"/><text fill="#000000" font-family="Verdana" font-size="13" lengthAdjust="spacing" textLength="29.5166" x="772" y="601.3071">uses</text></g><!--link Current Tabs to base.py--><g class="link" data-entity-1="Current Tabs" data-entity-2="base.py" data-source-line="70" data-uid="lnk43" id="link_Current Tabs_base.py"><path d="M592.1329,513.9411 C592.2198,514.0874 592.3073,514.2348 592.3954,514.3832 C592.5715,514.6799 592.75,514.9807 592.9309,515.2853 C593.6542,516.5038 594.4146,517.7848 595.2095,519.124 C601.5691,529.8376 610.1381,544.2742 619.5963,560.2086 C638.5125,592.0773 657.9221,624.778 673.3871,650.828" fill="none" id="Current Tabs-to-base.py" style="stroke:#000000;stroke-width:1;"/><polygon fill="#000000" points="676.45,655.9873,675.2952,646.2064,673.8976,651.6879,668.4161,650.2903,676.45,655.9873" style="stroke:#000000;stroke-width:1;"/><text fill="#000000" font-family="Verdana" font-size="13" lengthAdjust="spacing" textLength="51.4033" x="644" y="601.3071">extends</text></g><!--link cli_launcher.py to app.py--><g class="link" data-entity-1="cli_launcher.py" data-entity-2="app.py" data-source-line="72" data-uid="lnk44" id="link_cli_launcher.py_app.py"><path d="M938,246.7773 C938,301.0973 938,406.7873 938,461.1473" fill="none" id="cli_launcher.py-to-app.py" style="stroke:#000000;stroke-width:1;"/><polygon fill="#000000" points="938,467.1473,942,458.1473,938,462.1473,934,458.1473,938,467.1473" style="stroke:#000000;stroke-width:1;"/><text fill="#000000" font-family="Verdana" font-size="13" lengthAdjust="spacing" textLength="57.3447" x="939" y="316.8071">launches</text></g><!--link bridge.py to user_config.yml--><g class="link" data-entity-1="bridge.py" data-entity-2="user_config.yml" data-source-line="73" data-uid="lnk45" id="link_bridge.py_user_config.yml"><path d="M1515.27,224.5173 C1610.84,235.2373 1758.27,257.8173 1879,302.7373 C1952.41,330.0473 1994.5249,413.5252 2013.6649,461.4552" fill="none" id="bridge.py-to-user_config.yml" style="stroke:#000000;stroke-width:1;"/><polygon fill="#000000" points="2015.89,467.0273,2016.2671,457.1857,2014.0357,462.3839,2008.8375,460.1525,2015.89,467.0273" style="stroke:#000000;stroke-width:1;"/><text fill="#000000" font-family="Verdana" font-size="13" lengthAdjust="spacing" textLength="81.269" x="1908" y="316.8071">reads/writes</text></g><!--link ui_state.py to GMN46--><g class="link" data-entity-1="ui_state.py" data-entity-2="GMN46" data-source-line="76" data-uid="lnk48" id="link_ui_state.py_GMN46"><path d="M1203.17,467.0473 C1218.49,420.6173 1254.32,337.5173 1320.5,311.2373 C1371.36,291.0373 2254.64,291.0373 2305.5,311.2373 C2365.6,335.1073 2399.27,407.0673 2415.51,454.7173" fill="none" id="ui_state.py-GMN46" style="stroke:#000000;stroke-width:1;stroke-dasharray:7.0,7.0;"/></g><!--link bridge.py to GMN49--><g class="link" data-entity-1="bridge.py" data-entity-2="GMN49" data-source-line="84" data-uid="lnk51" id="link_bridge.py_GMN49"><path d="M1454.51,246.7673 C1473.83,262.8673 1497.26,283.2073 1517,302.7373 C1566.97,352.1873 1619.69,413.6973 1653.39,454.3673" fill="none" id="bridge.py-GMN49" style="stroke:#000000;stroke-width:1;stroke-dasharray:7.0,7.0;"/></g><!--link GMN52 to config.py--><g class="link" data-entity-1="GMN52" data-entity-2="config.py" data-source-line="92" data-uid="lnk54" id="link_GMN52_config.py"><path d="M2612.99,454.4073 C2600.49,406.4773 2572.51,334.2673 2514.5,311.2373 C2467.05,292.3973 1642.95,292.3973 1595.5,311.2373 C1520.61,340.9773 1463.48,421.4373 1436.02,466.8773" fill="none" id="GMN52-config.py" style="stroke:#000000;stroke-width:1;stroke-dasharray:7.0,7.0;"/></g><!--SRC=[ZLRRJXin47tVhvZoqgSKgOyHGWq1AgI04D1MLLH5NkyaSV7Qgx4tDAruxHVq2_ib7NklIHRKF73n7C-SFMTcDc_y6dE4GWjb4g-yHhX5TMxb8n9ymVJZfoiOmHqkXVIMC8DR8H_52c52SgqyIbyI9ibRECUbCfoe2hka_WEEzjCTmQy4-1D_jAXhhW-Jej1A2g-iQL3XCnT5yQxOVeEJamYRMkF9QerqUjg1f5OBBKeZrqWrUZgxWYlZSKKnPur-7YflCzGEPcABr2_T0l88EEx7OjLIBPmN7kkAPyfa8cKHMRRxSDvZMB6qPgbMDVfscmdZbOJFGgkipx7ZESJsarUlaYr3_91hIYfRDKmZkz4qqe6p6FclsZDS2Rc5-x8eBFaTctGCBIgfwZ8r_5nu0PN8VS_g6v7lxeNmYCehTA-OzY1IxeMyi0QDTuDAU94E2I5S8yCaTPwuj-6Cp_RCQhDCIo8k0LpGxIUB2GkottaKGix3e7FhuO11_sJfSJY8PgF8cfphlf2Mvr5KTWu49Qd2knU2PPuBsXu4dm_iVqwwERxuuP6Cq3pf1PeCZMHt6ZNcDqfYs1MN978CJnN4lKDMLct2DDJIpjkMtxmFYDWN1ztFgA-Jwra0XDzmIrQYSygi6D3drEsMAI-dbao1QfJ5yn5lXMOJSAlamcHDHyrBXxIevt6RwmYB_vNjkdZkRJP27O_TMXKkQNVIQ7GwrFbZyCYTIQpp7hPjlZ58QobJXWTnF-60d6D8IwKzM9CaksldvHiVqdeVBLXV8RLmNAYtWkBD7Kl6SH3Yf7APtiQ8q9soWR_P87a7IxBv8RfNQ0oRocHqyAJy-X3SM3u6jaKn-2UBaipxe_UAsEob6mJtr4PkOBQVanwyAYAqCM0CTSmD2B3VCsFk2v6vuoTImSN4MC-jebPhDcgvAnXtNJiGSVjM6voFHuD6XVD9wMqkWZbihTiQ6K_lUHBu7UDiIH937KybQnf2DnPm4pHOSwlp6z8b_CmGMDNSKkivPIJNFHnVhLu1_7htOSnZhkOT1dz__u6cIs8aJcNZKvoAUDmDCbWA0dhgWXT4bYfQJ7-VbiPbfLZND7ohbx3JwbAXpff-ibG9zR0jaFiHIJRrwYS1be-_gN35ZaJEooH-IMb9_0C0]--></g></svg>