<svg xmlns="http://www.w3.org/2000/svg" xmlns:xlink="http://www.w3.org/1999/xlink" contentStyleType="text/css" data-diagram-type="DESCRIPTION" height="956px" preserveAspectRatio="none" style="width:2855px;height:956px;background:#FFFFFF;" version="1.1" viewBox="0 0 2855 956" width="2855px" zoomAndPan="magnify"><title>PeiDocker WebGUI - Package Architecture</title><defs/><g><text fill="#000000" font-family="Verdana" font-size="22" font-weight="bold" lengthAdjust="spacing" textLength="524.2188" x="1161.1111" y="37.1182">PeiDocker WebGUI - Package Architecture</text><!--cluster PeiDocker WebGUI--><g class="cluster" data-entity="PeiDocker WebGUI" data-source-line="5" data-uid="ent0002" id="cluster_PeiDocker WebGUI"><path d="M418.06,58.7373 L568.5551,58.7373 A3.75,3.75 0 0 1 571.0551,61.2373 L578.0551,81.752 L2450.06,81.752 A2.5,2.5 0 0 1 2452.56,84.252 L2452.56,781.7373 A2.5,2.5 0 0 1 2450.06,784.2373 L418.06,784.2373 A2.5,2.5 0 0 1 415.56,781.7373 L415.56,61.2373 A2.5,2.5 0 0 1 418.06,58.7373" fill="#FFFFFF" style="stroke:#000000;stroke-width:1;"/><line style="stroke:#000000;stroke-width:1;" x1="415.56" x2="578.0551" y1="81.752" y2="81.752"/><text fill="#000000" font-family="Verdana" font-size="14" font-weight="bold" lengthAdjust="spacing" textLength="149.4951" x="419.56" y="74.8125">PeiDocker WebGUI</text></g><!--cluster Main Application--><g class="cluster" data-entity="Main Application" data-source-line="7" data-uid="ent0003" id="cluster_Main Application"><path d="M442.06,102.7373 L573.5786,102.7373 A3.75,3.75 0 0 1 576.0786,105.2373 L583.0786,125.752 L637.06,125.752 A2.5,2.5 0 0 1 639.56,128.252 L639.56,357.2373 A2.5,2.5 0 0 1 637.06,359.7373 L442.06,359.7373 A2.5,2.5 0 0 1 439.56,357.2373 L439.56,105.2373 A2.5,2.5 0 0 1 442.06,102.7373" fill="#FFFFFF" style="stroke:#000000;stroke-width:1;"/><line style="stroke:#000000;stroke-width:1;" x1="439.56" x2="583.0786" y1="125.752" y2="125.752"/><text fill="#000000" font-family="Verdana" font-size="14" font-weight="bold" lengthAdjust="spacing" textLength="130.5186" x="443.56" y="118.8125">Main Application</text></g><!--cluster Data Layer--><g class="cluster" data-entity="Data Layer" data-source-line="12" data-uid="ent0006" id="cluster_Data Layer"><path d="M442.06,620.2373 L528.1879,620.2373 A3.75,3.75 0 0 1 530.6879,622.7373 L537.6879,643.252 L764.06,643.252 A2.5,2.5 0 0 1 766.56,645.752 L766.56,733.7373 A2.5,2.5 0 0 1 764.06,736.2373 L442.06,736.2373 A2.5,2.5 0 0 1 439.56,733.7373 L439.56,622.7373 A2.5,2.5 0 0 1 442.06,620.2373" fill="#FFFFFF" style="stroke:#000000;stroke-width:1;"/><line style="stroke:#000000;stroke-width:1;" x1="439.56" x2="537.6879" y1="643.252" y2="643.252"/><text fill="#000000" font-family="Verdana" font-size="14" font-weight="bold" lengthAdjust="spacing" textLength="85.1279" x="443.56" y="636.3125">Data Layer</text></g><!--cluster Tab Components--><g class="cluster" data-entity="Tab Components" data-source-line="17" data-uid="ent0009" id="cluster_Tab Components"><path d="M793.06,408.7373 L925.4125,408.7373 A3.75,3.75 0 0 1 927.9125,411.2373 L934.9125,431.752 L2426.06,431.752 A2.5,2.5 0 0 1 2428.56,434.252 L2428.56,757.7373 A2.5,2.5 0 0 1 2426.06,760.2373 L793.06,760.2373 A2.5,2.5 0 0 1 790.56,757.7373 L790.56,411.2373 A2.5,2.5 0 0 1 793.06,408.7373" fill="#FFFFFF" style="stroke:#000000;stroke-width:1;"/><line style="stroke:#000000;stroke-width:1;" x1="790.56" x2="934.9125" y1="431.752" y2="431.752"/><text fill="#000000" font-family="Verdana" font-size="14" font-weight="bold" lengthAdjust="spacing" textLength="131.3525" x="794.56" y="424.8125">Tab Components</text></g><!--cluster Core Tabs--><g class="cluster" data-entity="Core Tabs" data-source-line="18" data-uid="ent0010" id="cluster_Core Tabs"><path d="M817.06,452.7373 L895.8325,452.7373 A3.75,3.75 0 0 1 898.3325,455.2373 L905.3325,475.752 L1265.06,475.752 A2.5,2.5 0 0 1 1267.56,478.252 L1267.56,733.7373 A2.5,2.5 0 0 1 1265.06,736.2373 L817.06,736.2373 A2.5,2.5 0 0 1 814.56,733.7373 L814.56,455.2373 A2.5,2.5 0 0 1 817.06,452.7373" fill="#FFFFFF" style="stroke:#000000;stroke-width:1;"/><line style="stroke:#000000;stroke-width:1;" x1="814.56" x2="905.3325" y1="475.752" y2="475.752"/><text fill="#000000" font-family="Verdana" font-size="14" font-weight="bold" lengthAdjust="spacing" textLength="77.7725" x="818.56" y="468.8125">Core Tabs</text></g><!--cluster Infrastructure Tabs--><g class="cluster" data-entity="Infrastructure Tabs" data-source-line="24" data-uid="ent0014" id="cluster_Infrastructure Tabs"><path d="M1294.06,620.2373 L1449.1352,620.2373 A3.75,3.75 0 0 1 1451.6352,622.7373 L1458.6352,643.252 L2402.06,643.252 A2.5,2.5 0 0 1 2404.56,645.752 L2404.56,733.7373 A2.5,2.5 0 0 1 2402.06,736.2373 L1294.06,736.2373 A2.5,2.5 0 0 1 1291.56,733.7373 L1291.56,622.7373 A2.5,2.5 0 0 1 1294.06,620.2373" fill="#FFFFFF" style="stroke:#000000;stroke-width:1;"/><line style="stroke:#000000;stroke-width:1;" x1="1291.56" x2="1458.6352" y1="643.252" y2="643.252"/><text fill="#000000" font-family="Verdana" font-size="14" font-weight="bold" lengthAdjust="spacing" textLength="154.0752" x="1295.56" y="636.3125">Infrastructure Tabs</text></g><!--cluster External Dependencies--><g class="cluster" data-entity="External Dependencies" data-source-line="34" data-uid="ent0020" id="cluster_External Dependencies"><path d="M175.06,833.2373 L356.1801,833.2373 A3.75,3.75 0 0 1 358.6801,835.7373 L365.6801,856.252 L1099.06,856.252 A2.5,2.5 0 0 1 1101.56,858.752 L1101.56,946.7373 A2.5,2.5 0 0 1 1099.06,949.2373 L175.06,949.2373 A2.5,2.5 0 0 1 172.56,946.7373 L172.56,835.7373 A2.5,2.5 0 0 1 175.06,833.2373" fill="#FFFFFF" style="stroke:#000000;stroke-width:1;"/><line style="stroke:#000000;stroke-width:1;" x1="172.56" x2="365.6801" y1="856.252" y2="856.252"/><text fill="#000000" font-family="Verdana" font-size="14" font-weight="bold" lengthAdjust="spacing" textLength="180.1201" x="176.56" y="849.3125">External Dependencies</text></g><!--cluster PeiDocker Core--><g class="cluster" data-entity="PeiDocker Core" data-source-line="41" data-uid="ent0025" id="cluster_PeiDocker Core"><path d="M2221.06,833.2373 L2342.3041,833.2373 A3.75,3.75 0 0 1 2344.8041,835.7373 L2351.8041,856.252 L2637.06,856.252 A2.5,2.5 0 0 1 2639.56,858.752 L2639.56,946.7373 A2.5,2.5 0 0 1 2637.06,949.2373 L2221.06,949.2373 A2.5,2.5 0 0 1 2218.56,946.7373 L2218.56,835.7373 A2.5,2.5 0 0 1 2221.06,833.2373" fill="#FFFFFF" style="stroke:#000000;stroke-width:1;"/><line style="stroke:#000000;stroke-width:1;" x1="2218.56" x2="2351.8041" y1="856.252" y2="856.252"/><text fill="#000000" font-family="Verdana" font-size="14" font-weight="bold" lengthAdjust="spacing" textLength="120.2441" x="2222.56" y="849.3125">PeiDocker Core</text></g><!--entity app.py--><g class="entity" data-entity="app.py" data-source-line="8" data-uid="ent0004" id="entity_app.py"><rect fill="#FFFFFF" height="64.0293" rx="2.5" ry="2.5" style="stroke:#000000;stroke-width:1;" width="166.9951" x="456.06" y="279.7373"/><rect fill="#FFFFFF" height="10" style="stroke:#000000;stroke-width:1;" width="15" x="603.0551" y="284.7373"/><rect fill="#FFFFFF" height="2" style="stroke:#000000;stroke-width:1;" width="4" x="601.0551" y="286.7373"/><rect fill="#FFFFFF" height="2" style="stroke:#000000;stroke-width:1;" width="4" x="601.0551" y="290.7373"/><text fill="#000000" font-family="Verdana" font-size="14" font-style="italic" lengthAdjust="spacing" textLength="124.9951" x="472.06" y="313.8125">&#171;Main Controller&#187;</text><text fill="#000000" font-family="Verdana" font-size="14" lengthAdjust="spacing" textLength="47.9541" x="510.5805" y="330.8271">app.py</text></g><!--entity cli_launcher.py--><g class="entity" data-entity="cli_launcher.py" data-source-line="9" data-uid="ent0005" id="entity_cli_launcher.py"><rect fill="#FFFFFF" height="64.0293" rx="2.5" ry="2.5" style="stroke:#000000;stroke-width:1;" width="166.8379" x="456.06" y="138.7373"/><rect fill="#FFFFFF" height="10" style="stroke:#000000;stroke-width:1;" width="15" x="602.8979" y="143.7373"/><rect fill="#FFFFFF" height="2" style="stroke:#000000;stroke-width:1;" width="4" x="600.8979" y="145.7373"/><rect fill="#FFFFFF" height="2" style="stroke:#000000;stroke-width:1;" width="4" x="600.8979" y="149.7373"/><text fill="#000000" font-family="Verdana" font-size="14" font-style="italic" lengthAdjust="spacing" textLength="124.8379" x="472.06" y="172.8125">&#171;CLI Integration&#187;</text><text fill="#000000" font-family="Verdana" font-size="14" lengthAdjust="spacing" textLength="106.415" x="481.2714" y="189.8271">cli_launcher.py</text></g><!--entity models.py--><g class="entity" data-entity="models.py" data-source-line="13" data-uid="ent0007" id="entity_models.py"><rect fill="#FFFFFF" height="64.0293" rx="2.5" ry="2.5" style="stroke:#000000;stroke-width:1;" width="146.5146" x="456.06" y="656.2373"/><rect fill="#FFFFFF" height="10" style="stroke:#000000;stroke-width:1;" width="15" x="582.5746" y="661.2373"/><rect fill="#FFFFFF" height="2" style="stroke:#000000;stroke-width:1;" width="4" x="580.5746" y="663.2373"/><rect fill="#FFFFFF" height="2" style="stroke:#000000;stroke-width:1;" width="4" x="580.5746" y="667.2373"/><text fill="#000000" font-family="Verdana" font-size="14" font-style="italic" lengthAdjust="spacing" textLength="104.5146" x="472.06" y="690.3125">&#171;Data Models&#187;</text><text fill="#000000" font-family="Verdana" font-size="14" lengthAdjust="spacing" textLength="72.4131" x="488.1108" y="707.3271">models.py</text></g><!--entity utils.py--><g class="entity" data-entity="utils.py" data-source-line="14" data-uid="ent0008" id="entity_utils.py"><rect fill="#FFFFFF" height="64.0293" rx="2.5" ry="2.5" style="stroke:#000000;stroke-width:1;" width="112.3281" x="638.56" y="656.2373"/><rect fill="#FFFFFF" height="10" style="stroke:#000000;stroke-width:1;" width="15" x="730.8881" y="661.2373"/><rect fill="#FFFFFF" height="2" style="stroke:#000000;stroke-width:1;" width="4" x="728.8881" y="663.2373"/><rect fill="#FFFFFF" height="2" style="stroke:#000000;stroke-width:1;" width="4" x="728.8881" y="667.2373"/><text fill="#000000" font-family="Verdana" font-size="14" font-style="italic" lengthAdjust="spacing" textLength="70.3281" x="654.56" y="690.3125">&#171;Utilities&#187;</text><text fill="#000000" font-family="Verdana" font-size="14" lengthAdjust="spacing" textLength="51.4541" x="663.997" y="707.3271">utils.py</text></g><!--entity base.py--><g class="entity" data-entity="base.py" data-source-line="19" data-uid="ent0011" id="entity_base.py"><rect fill="#FFFFFF" height="64.0293" rx="2.5" ry="2.5" style="stroke:#000000;stroke-width:1;" width="156.8916" x="1094.06" y="488.7373"/><rect fill="#FFFFFF" height="10" style="stroke:#000000;stroke-width:1;" width="15" x="1230.9516" y="493.7373"/><rect fill="#FFFFFF" height="2" style="stroke:#000000;stroke-width:1;" width="4" x="1228.9516" y="495.7373"/><rect fill="#FFFFFF" height="2" style="stroke:#000000;stroke-width:1;" width="4" x="1228.9516" y="499.7373"/><text fill="#000000" font-family="Verdana" font-size="14" font-style="italic" lengthAdjust="spacing" textLength="114.8916" x="1110.06" y="522.8125">&#171;Abstract Base&#187;</text><text fill="#000000" font-family="Verdana" font-size="14" lengthAdjust="spacing" textLength="54.8652" x="1140.0732" y="539.8271">base.py</text></g><!--entity project.py--><g class="entity" data-entity="project.py" data-source-line="20" data-uid="ent0012" id="entity_project.py"><rect fill="#FFFFFF" height="64.0293" rx="2.5" ry="2.5" style="stroke:#000000;stroke-width:1;" width="158.4502" x="1093.56" y="656.2373"/><rect fill="#FFFFFF" height="10" style="stroke:#000000;stroke-width:1;" width="15" x="1232.0102" y="661.2373"/><rect fill="#FFFFFF" height="2" style="stroke:#000000;stroke-width:1;" width="4" x="1230.0102" y="663.2373"/><rect fill="#FFFFFF" height="2" style="stroke:#000000;stroke-width:1;" width="4" x="1230.0102" y="667.2373"/><text fill="#000000" font-family="Verdana" font-size="14" font-style="italic" lengthAdjust="spacing" textLength="116.4502" x="1109.56" y="690.3125">&#171;Project Config&#187;</text><text fill="#000000" font-family="Verdana" font-size="14" lengthAdjust="spacing" textLength="71.2646" x="1132.1528" y="707.3271">project.py</text></g><!--entity summary.py--><g class="entity" data-entity="summary.py" data-source-line="21" data-uid="ent0013" id="entity_summary.py"><rect fill="#FFFFFF" height="64.0293" rx="2.5" ry="2.5" style="stroke:#000000;stroke-width:1;" width="227.8555" x="830.56" y="656.2373"/><rect fill="#FFFFFF" height="10" style="stroke:#000000;stroke-width:1;" width="15" x="1038.4155" y="661.2373"/><rect fill="#FFFFFF" height="2" style="stroke:#000000;stroke-width:1;" width="4" x="1036.4155" y="663.2373"/><rect fill="#FFFFFF" height="2" style="stroke:#000000;stroke-width:1;" width="4" x="1036.4155" y="667.2373"/><text fill="#000000" font-family="Verdana" font-size="14" font-style="italic" lengthAdjust="spacing" textLength="185.8555" x="846.56" y="690.3125">&#171;Configuration Summary&#187;</text><text fill="#000000" font-family="Verdana" font-size="14" lengthAdjust="spacing" textLength="88.1563" x="895.4096" y="707.3271">summary.py</text></g><!--entity ssh.py--><g class="entity" data-entity="ssh.py" data-source-line="25" data-uid="ent0015" id="entity_ssh.py"><rect fill="#FFFFFF" height="64.0293" rx="2.5" ry="2.5" style="stroke:#000000;stroke-width:1;" width="189.1846" x="1731.06" y="656.2373"/><rect fill="#FFFFFF" height="10" style="stroke:#000000;stroke-width:1;" width="15" x="1900.2446" y="661.2373"/><rect fill="#FFFFFF" height="2" style="stroke:#000000;stroke-width:1;" width="4" x="1898.2446" y="663.2373"/><rect fill="#FFFFFF" height="2" style="stroke:#000000;stroke-width:1;" width="4" x="1898.2446" y="667.2373"/><text fill="#000000" font-family="Verdana" font-size="14" font-style="italic" lengthAdjust="spacing" textLength="147.1846" x="1747.06" y="690.3125">&#171;SSH Configuration&#187;</text><text fill="#000000" font-family="Verdana" font-size="14" lengthAdjust="spacing" textLength="45.5479" x="1797.8784" y="707.3271">ssh.py</text></g><!--entity network.py--><g class="entity" data-entity="network.py" data-source-line="26" data-uid="ent0016" id="entity_network.py"><rect fill="#FFFFFF" height="64.0293" rx="2.5" ry="2.5" style="stroke:#000000;stroke-width:1;" width="178.0078" x="1955.56" y="656.2373"/><rect fill="#FFFFFF" height="10" style="stroke:#000000;stroke-width:1;" width="15" x="2113.5678" y="661.2373"/><rect fill="#FFFFFF" height="2" style="stroke:#000000;stroke-width:1;" width="4" x="2111.5678" y="663.2373"/><rect fill="#FFFFFF" height="2" style="stroke:#000000;stroke-width:1;" width="4" x="2111.5678" y="667.2373"/><text fill="#000000" font-family="Verdana" font-size="14" font-style="italic" lengthAdjust="spacing" textLength="136.0078" x="1971.56" y="690.3125">&#171;Network &amp; Proxy&#187;</text><text fill="#000000" font-family="Verdana" font-size="14" lengthAdjust="spacing" textLength="79.0303" x="2000.0488" y="707.3271">network.py</text></g><!--entity environment.py--><g class="entity" data-entity="environment.py" data-source-line="27" data-uid="ent0017" id="entity_environment.py"><rect fill="#FFFFFF" height="64.0293" rx="2.5" ry="2.5" style="stroke:#000000;stroke-width:1;" width="218.8525" x="2169.06" y="656.2373"/><rect fill="#FFFFFF" height="10" style="stroke:#000000;stroke-width:1;" width="15" x="2367.9125" y="661.2373"/><rect fill="#FFFFFF" height="2" style="stroke:#000000;stroke-width:1;" width="4" x="2365.9125" y="663.2373"/><rect fill="#FFFFFF" height="2" style="stroke:#000000;stroke-width:1;" width="4" x="2365.9125" y="667.2373"/><text fill="#000000" font-family="Verdana" font-size="14" font-style="italic" lengthAdjust="spacing" textLength="176.8525" x="2185.06" y="690.3125">&#171;Environment Variables&#187;</text><text fill="#000000" font-family="Verdana" font-size="14" lengthAdjust="spacing" textLength="111.0908" x="2217.9409" y="707.3271">environment.py</text></g><!--entity storage.py--><g class="entity" data-entity="storage.py" data-source-line="28" data-uid="ent0018" id="entity_storage.py"><rect fill="#FFFFFF" height="64.0293" rx="2.5" ry="2.5" style="stroke:#000000;stroke-width:1;" width="185.8965" x="1307.56" y="656.2373"/><rect fill="#FFFFFF" height="10" style="stroke:#000000;stroke-width:1;" width="15" x="1473.4565" y="661.2373"/><rect fill="#FFFFFF" height="2" style="stroke:#000000;stroke-width:1;" width="4" x="1471.4565" y="663.2373"/><rect fill="#FFFFFF" height="2" style="stroke:#000000;stroke-width:1;" width="4" x="1471.4565" y="667.2373"/><text fill="#000000" font-family="Verdana" font-size="14" font-style="italic" lengthAdjust="spacing" textLength="143.8965" x="1323.56" y="690.3125">&#171;Storage &amp; Mounts&#187;</text><text fill="#000000" font-family="Verdana" font-size="14" lengthAdjust="spacing" textLength="74.8535" x="1358.0815" y="707.3271">storage.py</text></g><!--entity scripts.py--><g class="entity" data-entity="scripts.py" data-source-line="29" data-uid="ent0019" id="entity_scripts.py"><rect fill="#FFFFFF" height="64.0293" rx="2.5" ry="2.5" style="stroke:#000000;stroke-width:1;" width="166.749" x="1529.06" y="656.2373"/><rect fill="#FFFFFF" height="10" style="stroke:#000000;stroke-width:1;" width="15" x="1675.809" y="661.2373"/><rect fill="#FFFFFF" height="2" style="stroke:#000000;stroke-width:1;" width="4" x="1673.809" y="663.2373"/><rect fill="#FFFFFF" height="2" style="stroke:#000000;stroke-width:1;" width="4" x="1673.809" y="667.2373"/><text fill="#000000" font-family="Verdana" font-size="14" font-style="italic" lengthAdjust="spacing" textLength="124.749" x="1545.06" y="690.3125">&#171;Custom Scripts&#187;</text><text fill="#000000" font-family="Verdana" font-size="14" lengthAdjust="spacing" textLength="68.0381" x="1573.4155" y="707.3271">scripts.py</text></g><!--entity NiceGUI Framework--><g class="entity" data-entity="NiceGUI Framework" data-source-line="35" data-uid="ent0021" id="entity_NiceGUI Framework"><rect fill="#FFFFFF" height="64.0293" rx="2.5" ry="2.5" style="stroke:#000000;stroke-width:1;" width="195.4941" x="189.06" y="869.2373"/><rect fill="#FFFFFF" height="10" style="stroke:#000000;stroke-width:1;" width="15" x="364.5541" y="874.2373"/><rect fill="#FFFFFF" height="2" style="stroke:#000000;stroke-width:1;" width="4" x="362.5541" y="876.2373"/><rect fill="#FFFFFF" height="2" style="stroke:#000000;stroke-width:1;" width="4" x="362.5541" y="880.2373"/><text fill="#000000" font-family="Verdana" font-size="14" font-style="italic" lengthAdjust="spacing" textLength="153.4941" x="205.06" y="903.3125">&#171;Web UI Framework&#187;</text><text fill="#000000" font-family="Verdana" font-size="14" lengthAdjust="spacing" textLength="140.4648" x="211.5746" y="920.3271">NiceGUI Framework</text></g><!--entity Pydantic--><g class="entity" data-entity="Pydantic" data-source-line="36" data-uid="ent0022" id="entity_Pydantic"><rect fill="#FFFFFF" height="64.0293" rx="2.5" ry="2.5" style="stroke:#000000;stroke-width:1;" width="167.5146" x="419.56" y="869.2373"/><rect fill="#FFFFFF" height="10" style="stroke:#000000;stroke-width:1;" width="15" x="567.0746" y="874.2373"/><rect fill="#FFFFFF" height="2" style="stroke:#000000;stroke-width:1;" width="4" x="565.0746" y="876.2373"/><rect fill="#FFFFFF" height="2" style="stroke:#000000;stroke-width:1;" width="4" x="565.0746" y="880.2373"/><text fill="#000000" font-family="Verdana" font-size="14" font-style="italic" lengthAdjust="spacing" textLength="125.5146" x="435.56" y="903.3125">&#171;Data Validation&#187;</text><text fill="#000000" font-family="Verdana" font-size="14" lengthAdjust="spacing" textLength="59.3701" x="468.6323" y="920.3271">Pydantic</text></g><!--entity OmegaConf--><g class="entity" data-entity="OmegaConf" data-source-line="37" data-uid="ent0023" id="entity_OmegaConf"><rect fill="#FFFFFF" height="64.0293" rx="2.5" ry="2.5" style="stroke:#000000;stroke-width:1;" width="250.3799" x="835.56" y="869.2373"/><rect fill="#FFFFFF" height="10" style="stroke:#000000;stroke-width:1;" width="15" x="1065.9399" y="874.2373"/><rect fill="#FFFFFF" height="2" style="stroke:#000000;stroke-width:1;" width="4" x="1063.9399" y="876.2373"/><rect fill="#FFFFFF" height="2" style="stroke:#000000;stroke-width:1;" width="4" x="1063.9399" y="880.2373"/><text fill="#000000" font-family="Verdana" font-size="14" font-style="italic" lengthAdjust="spacing" textLength="208.3799" x="851.56" y="903.3125">&#171;Configuration Management&#187;</text><text fill="#000000" font-family="Verdana" font-size="14" lengthAdjust="spacing" textLength="82.1611" x="914.6694" y="920.3271">OmegaConf</text></g><!--entity PyYAML--><g class="entity" data-entity="PyYAML" data-source-line="38" data-uid="ent0024" id="entity_PyYAML"><rect fill="#FFFFFF" height="64.0293" rx="2.5" ry="2.5" style="stroke:#000000;stroke-width:1;" width="177.2695" x="623.06" y="869.2373"/><rect fill="#FFFFFF" height="10" style="stroke:#000000;stroke-width:1;" width="15" x="780.3295" y="874.2373"/><rect fill="#FFFFFF" height="2" style="stroke:#000000;stroke-width:1;" width="4" x="778.3295" y="876.2373"/><rect fill="#FFFFFF" height="2" style="stroke:#000000;stroke-width:1;" width="4" x="778.3295" y="880.2373"/><text fill="#000000" font-family="Verdana" font-size="14" font-style="italic" lengthAdjust="spacing" textLength="135.2695" x="639.06" y="903.3125">&#171;YAML Processing&#187;</text><text fill="#000000" font-family="Verdana" font-size="14" lengthAdjust="spacing" textLength="54.5029" x="679.4433" y="920.3271">PyYAML</text></g><!--entity pei.py--><g class="entity" data-entity="pei.py" data-source-line="42" data-uid="ent0026" id="entity_pei.py"><rect fill="#FFFFFF" height="64.0293" rx="2.5" ry="2.5" style="stroke:#000000;stroke-width:1;" width="121.0166" x="2502.06" y="869.2373"/><rect fill="#FFFFFF" height="10" style="stroke:#000000;stroke-width:1;" width="15" x="2603.0766" y="874.2373"/><rect fill="#FFFFFF" height="2" style="stroke:#000000;stroke-width:1;" width="4" x="2601.0766" y="876.2373"/><rect fill="#FFFFFF" height="2" style="stroke:#000000;stroke-width:1;" width="4" x="2601.0766" y="880.2373"/><text fill="#000000" font-family="Verdana" font-size="14" font-style="italic" lengthAdjust="spacing" textLength="79.0166" x="2518.06" y="903.3125">&#171;CLI Core&#187;</text><text fill="#000000" font-family="Verdana" font-size="14" lengthAdjust="spacing" textLength="43.0049" x="2536.0659" y="920.3271">pei.py</text></g><!--entity Templates--><g class="entity" data-entity="Templates" data-source-line="43" data-uid="ent0027" id="entity_Templates"><rect fill="#FFFFFF" height="64.0293" rx="2.5" ry="2.5" style="stroke:#000000;stroke-width:1;" width="232.2373" x="2234.56" y="869.2373"/><rect fill="#FFFFFF" height="10" style="stroke:#000000;stroke-width:1;" width="15" x="2446.7973" y="874.2373"/><rect fill="#FFFFFF" height="2" style="stroke:#000000;stroke-width:1;" width="4" x="2444.7973" y="876.2373"/><rect fill="#FFFFFF" height="2" style="stroke:#000000;stroke-width:1;" width="4" x="2444.7973" y="880.2373"/><text fill="#000000" font-family="Verdana" font-size="14" font-style="italic" lengthAdjust="spacing" textLength="190.2373" x="2250.56" y="903.3125">&#171;Configuration Templates&#187;</text><text fill="#000000" font-family="Verdana" font-size="14" lengthAdjust="spacing" textLength="72.707" x="2309.3251" y="920.3271">Templates</text></g><g class="entity" data-entity="GMN45" data-source-line="70" data-uid="ent0046" id="entity_GMN45"><path d="M2468.56,484.2373 L2468.56,516.7373 L1251.23,520.7373 L2468.56,524.7373 L2468.56,557.4346 A0,0 0 0 0 2468.56,557.4346 L2678.4916,557.4346 A0,0 0 0 0 2678.4916,557.4346 L2678.4916,494.2373 L2668.4916,484.2373 L2468.56,484.2373 A0,0 0 0 0 2468.56,484.2373" fill="#FFFFFF" style="stroke:#000000;stroke-width:1;"/><path d="M2668.4916,484.2373 L2668.4916,494.2373 L2678.4916,494.2373 L2668.4916,484.2373" fill="#FFFFFF" style="stroke:#000000;stroke-width:1;"/><text fill="#000000" font-family="Verdana" font-size="13" lengthAdjust="spacing" textLength="165.3311" x="2474.56" y="502.3071">Template Method Pattern</text><text fill="#000000" font-family="Verdana" font-size="13" lengthAdjust="spacing" textLength="140.6768" x="2474.56" y="518.1064">- Common UI helpers</text><text fill="#000000" font-family="Verdana" font-size="13" lengthAdjust="spacing" textLength="136.6904" x="2474.56" y="533.9058">- Validation interface</text><text fill="#000000" font-family="Verdana" font-size="13" lengthAdjust="spacing" textLength="188.9316" x="2474.56" y="549.7051">- Configuration management</text></g><g class="entity" data-entity="GMN48" data-source-line="77" data-uid="ent0049" id="entity_GMN48"><path d="M147.56,484.2373 L147.56,557.4346 A0,0 0 0 0 147.56,557.4346 L399.7924,557.4346 A0,0 0 0 0 399.7924,557.4346 L399.7924,494.2373 L389.7924,484.2373 L323.36,484.2373 L499.45,343.9473 L315.36,484.2373 L147.56,484.2373 A0,0 0 0 0 147.56,484.2373" fill="#FFFFFF" style="stroke:#000000;stroke-width:1;"/><path d="M389.7924,484.2373 L389.7924,494.2373 L399.7924,494.2373 L389.7924,484.2373" fill="#FFFFFF" style="stroke:#000000;stroke-width:1;"/><text fill="#000000" font-family="Verdana" font-size="13" lengthAdjust="spacing" textLength="99.3091" x="153.56" y="502.3071">Main Controller</text><text fill="#000000" font-family="Verdana" font-size="13" lengthAdjust="spacing" textLength="210.2598" x="153.56" y="518.1064">- Centralizes state management</text><text fill="#000000" font-family="Verdana" font-size="13" lengthAdjust="spacing" textLength="194.7588" x="153.56" y="533.9058">- Coordinates tab interactions</text><text fill="#000000" font-family="Verdana" font-size="13" lengthAdjust="spacing" textLength="231.2324" x="153.56" y="549.7051">- Handles configuration persistence</text></g><!--link app.py to models.py--><g class="link" data-entity-1="app.py" data-entity-2="models.py" data-source-line="47" data-uid="lnk28" id="link_app.py_models.py"><path d="M538.72,344.0273 C536.84,414.6073 532.43,579.5494 530.55,650.0394" fill="none" id="app.py-to-models.py" style="stroke:#000000;stroke-width:1;"/><polygon fill="#000000" points="530.39,656.0373,534.6285,647.1471,530.5233,651.0391,526.6314,646.9339,530.39,656.0373" style="stroke:#000000;stroke-width:1;"/><text fill="#000000" font-family="Verdana" font-size="13" lengthAdjust="spacing" textLength="29.5166" x="537.56" y="526.3071">uses</text></g><!--link app.py to base.py--><g class="link" data-entity-1="app.py" data-entity-2="base.py" data-source-line="48" data-uid="lnk29" id="link_app.py_base.py"><path d="M623.29,340.1173 C746.27,380.3373 968.3972,452.9725 1088.3372,492.1925" fill="none" id="app.py-to-base.py" style="stroke:#000000;stroke-width:1;"/><polygon fill="#000000" points="1094.04,494.0573,1086.7289,487.4582,1089.2876,492.5033,1084.2425,495.062,1094.04,494.0573" style="stroke:#000000;stroke-width:1;"/><text fill="#000000" font-family="Verdana" font-size="13" lengthAdjust="spacing" textLength="75.4419" x="781.56" y="389.8071">coordinates</text></g><!--link app.py to NiceGUI Framework--><g class="link" data-entity-1="app.py" data-entity-2="NiceGUI Framework" data-source-line="49" data-uid="lnk30" id="link_app.py_NiceGUI Framework"><path d="M455.8,318.5873 C348.01,328.0673 169.77,350.9773 129.56,400.7373 C11,547.4373 183.9139,779.8989 255.1539,864.4489" fill="none" id="app.py-to-NiceGUI Framework" style="stroke:#000000;stroke-width:1;"/><polygon fill="#000000" points="259.02,869.0373,256.2798,859.5773,255.7983,865.2136,250.1619,864.7321,259.02,869.0373" style="stroke:#000000;stroke-width:1;"/><text fill="#000000" font-family="Verdana" font-size="13" lengthAdjust="spacing" textLength="49.2705" x="104.56" y="601.3071">built on</text></g><!--reverse link base.py to project.py--><g class="link" data-entity-1="base.py" data-entity-2="project.py" data-source-line="51" data-uid="lnk31" id="link_base.py_project.py"><path d="M1172.56,570.8673 C1172.56,600.3573 1172.56,626.4273 1172.56,655.9673" fill="none" id="base.py-backto-project.py" style="stroke:#000000;stroke-width:1;"/><polygon fill="none" points="1172.56,552.8673,1166.56,570.8673,1178.56,570.8673,1172.56,552.8673" style="stroke:#000000;stroke-width:1;"/><text fill="#000000" font-family="Verdana" font-size="13" lengthAdjust="spacing" textLength="51.4033" x="1173.56" y="601.3071">extends</text></g><!--reverse link base.py to ssh.py--><g class="link" data-entity-1="base.py" data-entity-2="ssh.py" data-source-line="52" data-uid="lnk32" id="link_base.py_ssh.py"><path d="M1269.4509,525.58 C1377.3409,531.72 1557.34,550.2173 1713.56,612.2373 C1740.31,622.8573 1767.21,640.5873 1787.94,656.1373" fill="none" id="base.py-backto-ssh.py" style="stroke:#000000;stroke-width:1;"/><polygon fill="none" points="1251.48,524.5573,1269.11,531.5703,1269.7918,519.5897,1251.48,524.5573" style="stroke:#000000;stroke-width:1;"/><text fill="#000000" font-family="Verdana" font-size="13" lengthAdjust="spacing" textLength="51.4033" x="1686.56" y="601.3071">extends</text></g><!--reverse link base.py to network.py--><g class="link" data-entity-1="base.py" data-entity-2="network.py" data-source-line="53" data-uid="lnk33" id="link_base.py_network.py"><path d="M1269.2882,527.1164 C1438.5282,537.1864 1813.61,564.0573 1937.56,612.2373 C1963.78,622.4273 1989.7,640.3473 2009.46,656.1073" fill="none" id="base.py-backto-network.py" style="stroke:#000000;stroke-width:1;"/><polygon fill="none" points="1251.32,526.0473,1268.9318,533.1058,1269.6446,521.127,1251.32,526.0473" style="stroke:#000000;stroke-width:1;"/><text fill="#000000" font-family="Verdana" font-size="13" lengthAdjust="spacing" textLength="51.4033" x="1904.56" y="601.3071">extends</text></g><!--reverse link base.py to environment.py--><g class="link" data-entity-1="base.py" data-entity-2="environment.py" data-source-line="54" data-uid="lnk34" id="link_base.py_environment.py"><path d="M1269.0486,528.138 C1411.4586,537.818 1703.76,559.0373 1964.56,587.2373 C2047.92,596.2473 2072.32,584.8173 2151.56,612.2373 C2181.44,622.5773 2212.05,640.3973 2235.73,656.0773" fill="none" id="base.py-backto-environment.py" style="stroke:#000000;stroke-width:1;"/><polygon fill="none" points="1251.09,526.9173,1268.6417,534.1242,1269.4555,522.1518,1251.09,526.9173" style="stroke:#000000;stroke-width:1;"/><text fill="#000000" font-family="Verdana" font-size="13" lengthAdjust="spacing" textLength="51.4033" x="2125.56" y="601.3071">extends</text></g><!--reverse link base.py to storage.py--><g class="link" data-entity-1="base.py" data-entity-2="storage.py" data-source-line="55" data-uid="lnk35" id="link_base.py_storage.py"><path d="M1230.0086,563.4388 C1270.6486,592.9288 1316.78,626.4273 1357.48,655.9673" fill="none" id="base.py-backto-storage.py" style="stroke:#000000;stroke-width:1;"/><polygon fill="none" points="1215.44,552.8673,1226.4847,568.295,1233.5324,558.5826,1215.44,552.8673" style="stroke:#000000;stroke-width:1;"/><text fill="#000000" font-family="Verdana" font-size="13" lengthAdjust="spacing" textLength="51.4033" x="1280.56" y="601.3071">extends</text></g><!--reverse link base.py to scripts.py--><g class="link" data-entity-1="base.py" data-entity-2="scripts.py" data-source-line="56" data-uid="lnk36" id="link_base.py_scripts.py"><path d="M1268.9412,537.2935 C1339.6112,550.3335 1427.22,571.5173 1511.56,612.2373 C1535.16,623.6373 1558.83,640.8273 1577.31,655.8773" fill="none" id="base.py-backto-scripts.py" style="stroke:#000000;stroke-width:1;"/><polygon fill="none" points="1251.24,534.0273,1267.8524,543.1939,1270.0299,531.3931,1251.24,534.0273" style="stroke:#000000;stroke-width:1;"/><text fill="#000000" font-family="Verdana" font-size="13" lengthAdjust="spacing" textLength="51.4033" x="1486.56" y="601.3071">extends</text></g><!--reverse link base.py to summary.py--><g class="link" data-entity-1="base.py" data-entity-2="summary.py" data-source-line="57" data-uid="lnk37" id="link_base.py_summary.py"><path d="M1115.1027,563.4405 C1074.4727,592.9305 1028.34,626.4273 987.64,655.9673" fill="none" id="base.py-backto-summary.py" style="stroke:#000000;stroke-width:1;"/><polygon fill="none" points="1129.67,552.8673,1111.5783,558.5848,1118.6271,568.2963,1129.67,552.8673" style="stroke:#000000;stroke-width:1;"/><text fill="#000000" font-family="Verdana" font-size="13" lengthAdjust="spacing" textLength="51.4033" x="1079.56" y="601.3071">extends</text></g><!--link models.py to Pydantic--><g class="link" data-entity-1="models.py" data-entity-2="Pydantic" data-source-line="59" data-uid="lnk38" id="link_models.py_Pydantic"><path d="M525.72,720.3673 C520.81,760.2673 513.0632,823.0623 508.1432,863.0223" fill="none" id="models.py-to-Pydantic" style="stroke:#000000;stroke-width:1;"/><polygon fill="#000000" points="507.41,868.9773,512.4798,860.5336,508.021,864.0148,504.5398,859.556,507.41,868.9773" style="stroke:#000000;stroke-width:1;"/><text fill="#000000" font-family="Verdana" font-size="13" lengthAdjust="spacing" textLength="29.5166" x="516.56" y="814.3071">uses</text></g><!--link summary.py to OmegaConf--><g class="link" data-entity-1="summary.py" data-entity-2="OmegaConf" data-source-line="60" data-uid="lnk39" id="link_summary.py_OmegaConf"><path d="M946.92,720.3673 C949.95,760.2673 954.7063,823.0345 957.7363,862.9945" fill="none" id="summary.py-to-OmegaConf" style="stroke:#000000;stroke-width:1;"/><polygon fill="#000000" points="958.19,868.9773,961.4981,859.7006,957.812,863.9916,953.521,860.3055,958.19,868.9773" style="stroke:#000000;stroke-width:1;"/><text fill="#000000" font-family="Verdana" font-size="13" lengthAdjust="spacing" textLength="29.5166" x="954.56" y="814.3071">uses</text></g><!--link summary.py to PyYAML--><g class="link" data-entity-1="summary.py" data-entity-2="PyYAML" data-source-line="61" data-uid="lnk40" id="link_summary.py_PyYAML"><path d="M910.18,720.3673 C866.13,760.2673 794.6471,824.9895 750.5271,864.9495" fill="none" id="summary.py-to-PyYAML" style="stroke:#000000;stroke-width:1;"/><polygon fill="#000000" points="746.08,868.9773,755.4359,865.9003,749.7859,865.6208,750.0655,859.9709,746.08,868.9773" style="stroke:#000000;stroke-width:1;"/><text fill="#000000" font-family="Verdana" font-size="13" lengthAdjust="spacing" textLength="29.5166" x="821.56" y="814.3071">uses</text></g><!--link cli_launcher.py to app.py--><g class="link" data-entity-1="cli_launcher.py" data-entity-2="app.py" data-source-line="63" data-uid="lnk41" id="link_cli_launcher.py_app.py"><path d="M539.56,202.9273 C539.56,225.8273 539.56,250.7773 539.56,273.6473" fill="none" id="cli_launcher.py-to-app.py" style="stroke:#000000;stroke-width:1;"/><polygon fill="#000000" points="539.56,279.6473,543.56,270.6473,539.56,274.6473,535.56,270.6473,539.56,279.6473" style="stroke:#000000;stroke-width:1;"/><text fill="#000000" font-family="Verdana" font-size="13" lengthAdjust="spacing" textLength="57.3447" x="540.56" y="246.8071">launches</text></g><!--link cli_launcher.py to pei.py--><g class="link" data-entity-1="cli_launcher.py" data-entity-2="pei.py" data-source-line="64" data-uid="lnk42" id="link_cli_launcher.py_pei.py"><path d="M623.12,172.5373 C1026.01,176.9473 2748.56,202.1473 2748.56,310.7373 C2748.56,310.7373 2748.56,310.7373 2748.56,689.2373 C2748.56,769.3273 2677.2489,830.1247 2622.3889,865.8247" fill="none" id="cli_launcher.py-to-pei.py" style="stroke:#000000;stroke-width:1;"/><polygon fill="#000000" points="2617.36,869.0973,2627.0851,867.5411,2621.5508,866.3702,2622.7217,860.8358,2617.36,869.0973" style="stroke:#000000;stroke-width:1;"/><text fill="#000000" font-family="Verdana" font-size="13" lengthAdjust="spacing" textLength="97.8809" x="2749.56" y="526.3071">integrates with</text></g><!--link base.py to utils.py--><g class="link" data-entity-1="base.py" data-entity-2="utils.py" data-source-line="66" data-uid="lnk43" id="link_base.py_utils.py"><path d="M1093.82,534.3573 C1019.73,547.8973 906.7,572.9473 814.56,612.2373 C787.33,623.8473 764.1053,637.779 741.9053,652.839" fill="none" id="base.py-to-utils.py" style="stroke:#000000;stroke-width:1;"/><polygon fill="#000000" points="736.94,656.2073,746.6335,654.465,741.0777,653.4003,742.1424,647.8446,736.94,656.2073" style="stroke:#000000;stroke-width:1;"/><text fill="#000000" font-family="Verdana" font-size="13" lengthAdjust="spacing" textLength="29.5166" x="880.56" y="601.3071">uses</text></g><!--link project.py to Templates--><g class="link" data-entity-1="project.py" data-entity-2="Templates" data-source-line="67" data-uid="lnk44" id="link_project.py_Templates"><path d="M1198.85,720.6973 C1220.92,744.7173 1254.68,776.3173 1291.56,792.2373 C1458.69,864.3873 1989.7131,889.2533 2228.3731,896.9733" fill="none" id="project.py-to-Templates" style="stroke:#000000;stroke-width:1;"/><polygon fill="#000000" points="2234.37,897.1673,2225.504,892.8784,2229.3726,897.0057,2225.2454,900.8742,2234.37,897.1673" style="stroke:#000000;stroke-width:1;"/><text fill="#000000" font-family="Verdana" font-size="13" lengthAdjust="spacing" textLength="69.3608" x="1355.56" y="814.3071">loads from</text></g><!--SRC=[VLN1Rjim3BthAxWUjbFs0K5H84kxDK3J1KZROGY6GP6PMAij6PAyDjlwxwDasLRiDZcqjlH4Ff7lqUzSZYL2LN2fc9EkG5YXlDJY4Grym-sN-mLCOCN58zyZp8p8fKFXQeECVO1Bt4b5fvjjo-83d0rZdC5V1lGBVphKafB2hAeAARYJMhKe_zlmglfO7Nx0-Nc0pRLoHXS5cekB7YGA-RFWjH8vceYUtonWeHpkJOWPqI-lfB_aZiCDFw0vIbpg30iRemNCCgoaUMidEyWzFKidqPv8TSUtT8EoqWgLiscw3ZBN1e5mHxiXsPPRZBbcM-iC5mu-qLf2AE0getzHRo9qrRpvmktaVeYrTLboSsXh5Z1rKp5ODtl9aPVkQSnxeNQ64wiwgEBr6rYRnqphzJKSPHiIK-YUj7cCyDlc3Tu3NUVvC0IZ-YsDLYKLDHwuwbVWWHl9jmNQqUMTDiIzfTIyKOwbhgax8xGmid9jj-SrdIvXtIoEQlJ2NbXlWwjdXqRnWenIeSfG2P99MvtDhHJe_VNPy1BzDNryyWkaQp73PdN8k79ITA9yu8NCqX9klfQuvxwuuvOkkI92lYfzlE-pvOr7-l- -l0AjbSeh9Rr2xsGlq8vxXJBnczzg0zzXITF4eHspwBQQ7DtyC5W4WCrbPLdd_CdauiYDKwWj3lSxSqn1Q6qogNo20UYLIazXMyl2WLQC9GxxDvaS6saAI4rKcHsXMb5t27B749Eg-Ur8GncVo9aezmGgKUm9L382UXHBAnwAroklRK1wCa0IvRs9QGKN0MmykmEixTiKufvz2zbAS0eoZdkqy2HTdZOq8FjftR9BEnmWYMefi-RKpPtH9MDAEnAetESabLqlDz9wUmIMw7ATqKVIURVJpiJF-f84JvBBiQZGsB3QMpPGDZikCC9JcvITMHcr13o3o6EhdHy-daYi4nqVV1wRW7JOKBO_L1BhFCaaQ9Enymeu-ZW5FlHXyIuCW6kkCXgTPAgKch-AjAGK8jvn-my0]--></g></svg>