<?xml version="1.0" encoding="UTF-8" standalone="no"?>
<!DOCTYPE svg PUBLIC "-//W3C//DTD SVG 1.1//EN"
 "http://www.w3.org/Graphics/SVG/1.1/DTD/svg11.dtd">
<!-- Generated by graphviz version 13.1.0 (20250701.0955)
 -->
<!-- Title: peidocker_flow Pages: 1 -->
<svg width="261pt" height="424pt"
 viewBox="0.00 0.00 261.00 424.00" xmlns="http://www.w3.org/2000/svg" xmlns:xlink="http://www.w3.org/1999/xlink">
<g id="graph0" class="graph" transform="scale(1 1) rotate(0) translate(4 419.5)">
<title>peidocker_flow</title>
<polygon fill="white" stroke="none" points="-4,4 -4,-419.5 257,-419.5 257,4 -4,4"/>
<g id="clust1" class="cluster">
<title>cluster_input</title>
<polygon fill="none" stroke="black" stroke-dasharray="5,2" points="8,-331 8,-407.5 245,-407.5 245,-331 8,-331"/>
<text xml:space="preserve" text-anchor="middle" x="126.5" y="-390.2" font-family="Times New Roman,serif" font-size="14.00">Input</text>
</g>
<g id="clust2" class="cluster">
<title>cluster_processor</title>
<polygon fill="none" stroke="black" stroke-dasharray="5,2" points="54,-174.5 54,-323 194,-323 194,-174.5 54,-174.5"/>
<text xml:space="preserve" text-anchor="middle" x="124" y="-305.7" font-family="Times New Roman,serif" font-size="14.00">Config Processor</text>
</g>
<g id="clust3" class="cluster">
<title>cluster_build</title>
<polygon fill="none" stroke="black" stroke-dasharray="5,2" points="68,-8 68,-166.5 180,-166.5 180,-8 68,-8"/>
<text xml:space="preserve" text-anchor="middle" x="124" y="-149.2" font-family="Times New Roman,serif" font-size="14.00">Docker Build</text>
</g>
<!-- user_config -->
<g id="node1" class="node">
<title>user_config</title>
<polygon fill="none" stroke="black" points="121.62,-375 16.38,-375 16.38,-339 121.62,-339 121.62,-375"/>
<text xml:space="preserve" text-anchor="middle" x="69" y="-351.95" font-family="Times New Roman,serif" font-size="14.00">user_config.yml</text>
</g>
<!-- processor -->
<g id="node3" class="node">
<title>processor</title>
<polygon fill="none" stroke="black" points="185.62,-290.5 62.38,-290.5 62.38,-254.5 185.62,-254.5 185.62,-290.5"/>
<text xml:space="preserve" text-anchor="middle" x="124" y="-267.45" font-family="Times New Roman,serif" font-size="14.00">PeiConfigProcessor</text>
</g>
<!-- user_config&#45;&gt;processor -->
<g id="edge1" class="edge">
<title>user_config&#45;&gt;processor</title>
<path fill="none" stroke="black" d="M80.66,-338.5C88.03,-327.46 97.69,-312.96 106.02,-300.46"/>
<polygon fill="black" stroke="black" points="108.88,-302.49 111.51,-292.23 103.05,-298.61 108.88,-302.49"/>
</g>
<!-- templates -->
<g id="node2" class="node">
<title>templates</title>
<polygon fill="none" stroke="black" points="236.5,-375 139.5,-375 139.5,-339 236.5,-339 236.5,-375"/>
<text xml:space="preserve" text-anchor="middle" x="188" y="-351.95" font-family="Times New Roman,serif" font-size="14.00">Template Files</text>
</g>
<!-- templates&#45;&gt;processor -->
<g id="edge2" class="edge">
<title>templates&#45;&gt;processor</title>
<path fill="none" stroke="black" d="M174.43,-338.5C165.69,-327.24 154.17,-312.39 144.34,-299.72"/>
<polygon fill="black" stroke="black" points="147.38,-297.92 138.48,-292.17 141.84,-302.21 147.38,-297.92"/>
</g>
<!-- generated -->
<g id="node4" class="node">
<title>generated</title>
<polygon fill="none" stroke="black" points="180.38,-218.5 67.62,-218.5 67.62,-182.5 180.38,-182.5 180.38,-218.5"/>
<text xml:space="preserve" text-anchor="middle" x="124" y="-195.45" font-family="Times New Roman,serif" font-size="14.00">Generated Scripts</text>
</g>
<!-- processor&#45;&gt;generated -->
<g id="edge3" class="edge">
<title>processor&#45;&gt;generated</title>
<path fill="none" stroke="black" d="M124,-254.2C124,-246.91 124,-238.23 124,-230.04"/>
<polygon fill="black" stroke="black" points="127.5,-230.12 124,-220.12 120.5,-230.12 127.5,-230.12"/>
</g>
<!-- stage1 -->
<g id="node5" class="node">
<title>stage1</title>
<polygon fill="none" stroke="black" points="171.75,-134 76.25,-134 76.25,-93 171.75,-93 171.75,-134"/>
<text xml:space="preserve" text-anchor="middle" x="124" y="-116.7" font-family="Times New Roman,serif" font-size="14.00">Stage&#45;1 Image</text>
<text xml:space="preserve" text-anchor="middle" x="124" y="-100.2" font-family="Times New Roman,serif" font-size="14.00">(System)</text>
</g>
<!-- generated&#45;&gt;stage1 -->
<g id="edge4" class="edge">
<title>generated&#45;&gt;stage1</title>
<path fill="none" stroke="black" d="M124,-182.3C124,-171.79 124,-158.02 124,-145.65"/>
<polygon fill="black" stroke="black" points="127.5,-145.87 124,-135.87 120.5,-145.87 127.5,-145.87"/>
</g>
<!-- stage2 -->
<g id="node6" class="node">
<title>stage2</title>
<polygon fill="none" stroke="black" points="171.75,-57 76.25,-57 76.25,-16 171.75,-16 171.75,-57"/>
<text xml:space="preserve" text-anchor="middle" x="124" y="-39.7" font-family="Times New Roman,serif" font-size="14.00">Stage&#45;2 Image</text>
<text xml:space="preserve" text-anchor="middle" x="124" y="-23.2" font-family="Times New Roman,serif" font-size="14.00">(Application)</text>
</g>
<!-- stage1&#45;&gt;stage2 -->
<g id="edge5" class="edge">
<title>stage1&#45;&gt;stage2</title>
<path fill="none" stroke="black" d="M124,-92.79C124,-85.45 124,-76.91 124,-68.78"/>
<polygon fill="black" stroke="black" points="127.5,-68.85 124,-58.85 120.5,-68.85 127.5,-68.85"/>
</g>
</g>
</svg>
