<?xml version="1.0" encoding="UTF-8" standalone="no"?>
<!DOCTYPE svg PUBLIC "-//W3C//DTD SVG 1.1//EN"
 "http://www.w3.org/Graphics/SVG/1.1/DTD/svg11.dtd">
<!-- Generated by graphviz version 13.1.0 (20250701.0955)
 -->
<!-- Title: lifecycle Pages: 1 -->
<svg width="725pt" height="108pt"
 viewBox="0.00 0.00 725.00 108.00" xmlns="http://www.w3.org/2000/svg" xmlns:xlink="http://www.w3.org/1999/xlink">
<g id="graph0" class="graph" transform="scale(1 1) rotate(0) translate(4 104)">
<title>lifecycle</title>
<polygon fill="white" stroke="none" points="-4,4 -4,-104 720.5,-104 720.5,4 -4,4"/>
<!-- build -->
<g id="node1" class="node">
<title>build</title>
<polygon fill="none" stroke="black" points="103,-71 0,-71 0,-30 103,-30 103,-71"/>
<text xml:space="preserve" text-anchor="middle" x="51.5" y="-53.7" font-family="Times New Roman,serif" font-size="14.00">Build Time</text>
<text xml:space="preserve" text-anchor="middle" x="51.5" y="-37.2" font-family="Times New Roman,serif" font-size="14.00">on_build scripts</text>
</g>
<!-- start -->
<g id="node2" class="node">
<title>start</title>
<polygon fill="none" stroke="black" points="296,-71 197.5,-71 197.5,-30 296,-30 296,-71"/>
<text xml:space="preserve" text-anchor="middle" x="246.75" y="-53.7" font-family="Times New Roman,serif" font-size="14.00">Container Start</text>
<text xml:space="preserve" text-anchor="middle" x="246.75" y="-37.2" font-family="Times New Roman,serif" font-size="14.00">entrypoint.sh</text>
</g>
<!-- build&#45;&gt;start -->
<g id="edge1" class="edge">
<title>build&#45;&gt;start</title>
<path fill="none" stroke="black" d="M103.27,-50.5C128.6,-50.5 159.4,-50.5 185.88,-50.5"/>
<polygon fill="black" stroke="black" points="185.8,-54 195.8,-50.5 185.8,-47 185.8,-54"/>
<text xml:space="preserve" text-anchor="middle" x="150.25" y="-53.7" font-family="Times New Roman,serif" font-size="14.00">docker run</text>
</g>
<!-- first -->
<g id="node3" class="node">
<title>first</title>
<polygon fill="none" stroke="black" points="495.38,-100 373.62,-100 373.62,-59 495.38,-59 495.38,-100"/>
<text xml:space="preserve" text-anchor="middle" x="434.5" y="-82.7" font-family="Times New Roman,serif" font-size="14.00">First Run</text>
<text xml:space="preserve" text-anchor="middle" x="434.5" y="-66.2" font-family="Times New Roman,serif" font-size="14.00">on_first_run scripts</text>
</g>
<!-- start&#45;&gt;first -->
<g id="edge2" class="edge">
<title>start&#45;&gt;first</title>
<path fill="none" stroke="black" d="M296.07,-58.04C316.21,-61.19 340.01,-64.9 362.1,-68.35"/>
<polygon fill="black" stroke="black" points="361.55,-71.81 371.97,-69.89 362.63,-64.89 361.55,-71.81"/>
<text xml:space="preserve" text-anchor="middle" x="332.75" y="-69.07" font-family="Times New Roman,serif" font-size="14.00">if first</text>
</g>
<!-- every -->
<g id="node4" class="node">
<title>every</title>
<polygon fill="none" stroke="black" points="499.5,-41 369.5,-41 369.5,0 499.5,0 499.5,-41"/>
<text xml:space="preserve" text-anchor="middle" x="434.5" y="-23.7" font-family="Times New Roman,serif" font-size="14.00">Every Run</text>
<text xml:space="preserve" text-anchor="middle" x="434.5" y="-7.2" font-family="Times New Roman,serif" font-size="14.00">on_every_run scripts</text>
</g>
<!-- start&#45;&gt;every -->
<g id="edge3" class="edge">
<title>start&#45;&gt;every</title>
<path fill="none" stroke="black" d="M296.07,-42.7C315.02,-39.64 337.22,-36.05 358.18,-32.67"/>
<polygon fill="black" stroke="black" points="358.52,-36.15 367.84,-31.11 357.41,-29.24 358.52,-36.15"/>
<text xml:space="preserve" text-anchor="middle" x="332.75" y="-42.27" font-family="Times New Roman,serif" font-size="14.00">always</text>
</g>
<!-- login -->
<g id="node5" class="node">
<title>login</title>
<polygon fill="none" stroke="black" points="716.5,-41 584.25,-41 584.25,0 716.5,0 716.5,-41"/>
<text xml:space="preserve" text-anchor="middle" x="650.38" y="-23.7" font-family="Times New Roman,serif" font-size="14.00">User Login</text>
<text xml:space="preserve" text-anchor="middle" x="650.38" y="-7.2" font-family="Times New Roman,serif" font-size="14.00">on_user_login scripts</text>
</g>
<!-- every&#45;&gt;login -->
<g id="edge4" class="edge">
<title>every&#45;&gt;login</title>
<path fill="none" stroke="black" d="M499.96,-20.5C522.79,-20.5 548.71,-20.5 572.47,-20.5"/>
<polygon fill="black" stroke="black" points="572.43,-24 582.43,-20.5 572.43,-17 572.43,-24"/>
<text xml:space="preserve" text-anchor="middle" x="541.88" y="-23.7" font-family="Times New Roman,serif" font-size="14.00">ssh login</text>
</g>
</g>
</svg>
