<svg xmlns="http://www.w3.org/2000/svg" xmlns:xlink="http://www.w3.org/1999/xlink" contentStyleType="text/css" data-diagram-type="ACTIVITY" height="742px" preserveAspectRatio="none" style="width:532px;height:742px;background:#FFFFFF;" version="1.1" viewBox="0 0 532 742" width="532px" zoomAndPan="magnify"><defs/><g><ellipse cx="240.1279" cy="20" fill="#222222" rx="10" ry="10" style="stroke:#222222;stroke-width:1;"/><rect fill="#F1F1F1" height="34.1328" rx="12.5" ry="12.5" style="stroke:#181818;stroke-width:0.5;" width="233.3223" x="123.4668" y="50"/><text fill="#000000" font-family="sans-serif" font-size="12" lengthAdjust="spacing" textLength="213.3223" x="133.4668" y="71.6016">Receive control from SC-2 controller</text><rect fill="#F1F1F1" height="34.1328" rx="12.5" ry="12.5" style="stroke:#181818;stroke-width:0.5;" width="322.1914" x="79.0322" y="104.1328"/><text fill="#000000" font-family="sans-serif" font-size="12" lengthAdjust="spacing" textLength="302.1914" x="89.0322" y="125.7344">Load existing SSH configuration from memory store</text><rect fill="#F1F1F1" height="34.1328" rx="12.5" ry="12.5" style="stroke:#181818;stroke-width:0.5;" width="217.2324" x="131.5117" y="158.2656"/><text fill="#000000" font-family="sans-serif" font-size="12" lengthAdjust="spacing" textLength="197.2324" x="141.5117" y="179.8672">Initialize SSH enable/disable state</text><polygon fill="#F1F1F1" points="168.2493,212.3984,312.0066,212.3984,324.0066,224.3984,312.0066,236.3984,168.2493,236.3984,156.2493,224.3984,168.2493,212.3984" style="stroke:#181818;stroke-width:0.5;"/><text fill="#000000" font-family="sans-serif" font-size="11" lengthAdjust="spacing" textLength="143.7573" x="168.2493" y="228.5557">SSH previously configured?</text><text fill="#000000" font-family="sans-serif" font-size="11" lengthAdjust="spacing" textLength="17.4829" x="138.7664" y="222.0781">yes</text><text fill="#000000" font-family="sans-serif" font-size="11" lengthAdjust="spacing" textLength="13.5835" x="324.0066" y="222.0781">no</text><rect fill="#F1F1F1" height="34.1328" rx="12.5" ry="12.5" style="stroke:#181818;stroke-width:0.5;" width="193.0391" x="11" y="246.3984"/><text fill="#000000" font-family="sans-serif" font-size="12" lengthAdjust="spacing" textLength="173.0391" x="21" y="268">Restore previous SSH settings</text><rect fill="#F1F1F1" height="34.1328" rx="12.5" ry="12.5" style="stroke:#181818;stroke-width:0.5;" width="297.3945" x="224.0391" y="246.3984"/><text fill="#000000" font-family="sans-serif" font-size="12" lengthAdjust="spacing" textLength="277.3945" x="234.0391" y="268">Set SSH defaults (enabled, port 2222, user 'me')</text><polygon fill="#F1F1F1" points="240.1279,286.5313,252.1279,298.5313,240.1279,310.5313,228.1279,298.5313,240.1279,286.5313" style="stroke:#181818;stroke-width:0.5;"/><rect fill="#F1F1F1" height="34.1328" rx="12.5" ry="12.5" style="stroke:#181818;stroke-width:0.5;" width="158.1055" x="161.0752" y="330.5313"/><text fill="#000000" font-family="sans-serif" font-size="12" lengthAdjust="spacing" textLength="138.1055" x="171.0752" y="352.1328">Initialize port validation</text><rect fill="#F1F1F1" height="34.1328" rx="12.5" ry="12.5" style="stroke:#181818;stroke-width:0.5;" width="226.7129" x="126.7715" y="384.6641"/><text fill="#000000" font-family="sans-serif" font-size="12" lengthAdjust="spacing" textLength="206.7129" x="136.7715" y="406.2656">Set up password field with masking</text><rect fill="#F1F1F1" height="34.1328" rx="12.5" ry="12.5" style="stroke:#181818;stroke-width:0.5;" width="230.4746" x="124.8906" y="438.7969"/><text fill="#000000" font-family="sans-serif" font-size="12" lengthAdjust="spacing" textLength="210.4746" x="134.8906" y="460.3984">Initialize UID field with default 1100</text><rect fill="#F1F1F1" height="34.1328" rx="12.5" ry="12.5" style="stroke:#181818;stroke-width:0.5;" width="233.5391" x="123.3584" y="492.9297"/><text fill="#000000" font-family="sans-serif" font-size="12" lengthAdjust="spacing" textLength="213.5391" x="133.3584" y="514.5313">Configure conditional panel visibility</text><rect fill="#F1F1F1" height="34.1328" rx="12.5" ry="12.5" style="stroke:#181818;stroke-width:0.5;" width="175.2383" x="152.5088" y="547.0625"/><text fill="#000000" font-family="sans-serif" font-size="12" lengthAdjust="spacing" textLength="155.2383" x="162.5088" y="568.6641">Set up real-time validation</text><rect fill="#F1F1F1" height="34.1328" rx="12.5" ry="12.5" style="stroke:#181818;stroke-width:0.5;" width="162.4414" x="158.9072" y="601.1953"/><text fill="#000000" font-family="sans-serif" font-size="12" lengthAdjust="spacing" textLength="142.4414" x="168.9072" y="622.7969">Enable form interactions</text><rect fill="#F1F1F1" height="34.1328" rx="12.5" ry="12.5" style="stroke:#181818;stroke-width:0.5;" width="180.7109" x="149.7725" y="655.3281"/><text fill="#000000" font-family="sans-serif" font-size="12" lengthAdjust="spacing" textLength="160.7109" x="159.7725" y="676.9297">Focus on SSH enable toggle</text><ellipse cx="240.1279" cy="720.4609" fill="none" rx="11" ry="11" style="stroke:#222222;stroke-width:1;"/><ellipse cx="240.1279" cy="720.4609" fill="#222222" rx="6" ry="6" style="stroke:#222222;stroke-width:1;"/><line style="stroke:#181818;stroke-width:1;" x1="240.1279" x2="240.1279" y1="30" y2="50"/><polygon fill="#181818" points="236.1279,40,240.1279,50,244.1279,40,240.1279,44" style="stroke:#181818;stroke-width:1;"/><line style="stroke:#181818;stroke-width:1;" x1="240.1279" x2="240.1279" y1="84.1328" y2="104.1328"/><polygon fill="#181818" points="236.1279,94.1328,240.1279,104.1328,244.1279,94.1328,240.1279,98.1328" style="stroke:#181818;stroke-width:1;"/><line style="stroke:#181818;stroke-width:1;" x1="240.1279" x2="240.1279" y1="138.2656" y2="158.2656"/><polygon fill="#181818" points="236.1279,148.2656,240.1279,158.2656,244.1279,148.2656,240.1279,152.2656" style="stroke:#181818;stroke-width:1;"/><line style="stroke:#181818;stroke-width:1;" x1="156.2493" x2="107.5195" y1="224.3984" y2="224.3984"/><line style="stroke:#181818;stroke-width:1;" x1="107.5195" x2="107.5195" y1="224.3984" y2="246.3984"/><polygon fill="#181818" points="103.5195,236.3984,107.5195,246.3984,111.5195,236.3984,107.5195,240.3984" style="stroke:#181818;stroke-width:1;"/><line style="stroke:#181818;stroke-width:1;" x1="324.0066" x2="372.7363" y1="224.3984" y2="224.3984"/><line style="stroke:#181818;stroke-width:1;" x1="372.7363" x2="372.7363" y1="224.3984" y2="246.3984"/><polygon fill="#181818" points="368.7363,236.3984,372.7363,246.3984,376.7363,236.3984,372.7363,240.3984" style="stroke:#181818;stroke-width:1;"/><line style="stroke:#181818;stroke-width:1;" x1="107.5195" x2="107.5195" y1="280.5313" y2="298.5313"/><line style="stroke:#181818;stroke-width:1;" x1="107.5195" x2="228.1279" y1="298.5313" y2="298.5313"/><polygon fill="#181818" points="218.1279,294.5313,228.1279,298.5313,218.1279,302.5313,222.1279,298.5313" style="stroke:#181818;stroke-width:1;"/><line style="stroke:#181818;stroke-width:1;" x1="372.7363" x2="372.7363" y1="280.5313" y2="298.5313"/><line style="stroke:#181818;stroke-width:1;" x1="372.7363" x2="252.1279" y1="298.5313" y2="298.5313"/><polygon fill="#181818" points="262.1279,294.5313,252.1279,298.5313,262.1279,302.5313,258.1279,298.5313" style="stroke:#181818;stroke-width:1;"/><line style="stroke:#181818;stroke-width:1;" x1="240.1279" x2="240.1279" y1="192.3984" y2="212.3984"/><polygon fill="#181818" points="236.1279,202.3984,240.1279,212.3984,244.1279,202.3984,240.1279,206.3984" style="stroke:#181818;stroke-width:1;"/><line style="stroke:#181818;stroke-width:1;" x1="240.1279" x2="240.1279" y1="310.5313" y2="330.5313"/><polygon fill="#181818" points="236.1279,320.5313,240.1279,330.5313,244.1279,320.5313,240.1279,324.5313" style="stroke:#181818;stroke-width:1;"/><line style="stroke:#181818;stroke-width:1;" x1="240.1279" x2="240.1279" y1="364.6641" y2="384.6641"/><polygon fill="#181818" points="236.1279,374.6641,240.1279,384.6641,244.1279,374.6641,240.1279,378.6641" style="stroke:#181818;stroke-width:1;"/><line style="stroke:#181818;stroke-width:1;" x1="240.1279" x2="240.1279" y1="418.7969" y2="438.7969"/><polygon fill="#181818" points="236.1279,428.7969,240.1279,438.7969,244.1279,428.7969,240.1279,432.7969" style="stroke:#181818;stroke-width:1;"/><line style="stroke:#181818;stroke-width:1;" x1="240.1279" x2="240.1279" y1="472.9297" y2="492.9297"/><polygon fill="#181818" points="236.1279,482.9297,240.1279,492.9297,244.1279,482.9297,240.1279,486.9297" style="stroke:#181818;stroke-width:1;"/><line style="stroke:#181818;stroke-width:1;" x1="240.1279" x2="240.1279" y1="527.0625" y2="547.0625"/><polygon fill="#181818" points="236.1279,537.0625,240.1279,547.0625,244.1279,537.0625,240.1279,541.0625" style="stroke:#181818;stroke-width:1;"/><line style="stroke:#181818;stroke-width:1;" x1="240.1279" x2="240.1279" y1="581.1953" y2="601.1953"/><polygon fill="#181818" points="236.1279,591.1953,240.1279,601.1953,244.1279,591.1953,240.1279,595.1953" style="stroke:#181818;stroke-width:1;"/><line style="stroke:#181818;stroke-width:1;" x1="240.1279" x2="240.1279" y1="635.3281" y2="655.3281"/><polygon fill="#181818" points="236.1279,645.3281,240.1279,655.3281,244.1279,645.3281,240.1279,649.3281" style="stroke:#181818;stroke-width:1;"/><line style="stroke:#181818;stroke-width:1;" x1="240.1279" x2="240.1279" y1="689.4609" y2="709.4609"/><polygon fill="#181818" points="236.1279,699.4609,240.1279,709.4609,244.1279,699.4609,240.1279,703.4609" style="stroke:#181818;stroke-width:1;"/><!--SRC=[LL5DRy8m3BttL_X6aK03Zd3OOHyQqawhzWD2unPhQLB5Rbdtw-U40IENH7dFp-_PB2PAiVt06cb4g8EN61mqCNHGFIqtbn-7SLTituEnWD_4Ghw5gdfBS4Fj48rGyEUo3hiG9s094RLcxqd8EFh1N83U71m-ME9qAyk8igY1Cg5zn972m6wwAgDzd8CSqKCv8SyB07MRnQ_iBCmeoHNl2dICKFgGkHLAXYqsPd32K9uTs0Nq8Gfiz2nWO8mmwt0srt9lgRdpdOcZlcsEgQ6Iwj13RvXF8Lfe29s54yaHEiDVwkC- -UV- -J_dpmoirwkL4fykKLDeIwc7SIhkqS58J0To9DEjRKJZba8TtfjwoS6W2R43yeBHr0dHYMnVGwrZqWtTLW0IsjRfx7MM_Iy0]--></g></svg>