<svg xmlns="http://www.w3.org/2000/svg" xmlns:xlink="http://www.w3.org/1999/xlink" contentStyleType="text/css" data-diagram-type="DESCRIPTION" height="424px" preserveAspectRatio="none" style="width:1035px;height:424px;background:#FFFFFF;" version="1.1" viewBox="0 0 1035 424" width="1035px" zoomAndPan="magnify"><defs/><g><!--cluster Project Directory Selection Screen--><g class="cluster" data-entity="Project Directory Selection Screen" data-source-line="6" data-uid="ent0005" id="cluster_Project Directory Selection Screen"><rect fill="none" height="318" rx="2.5" ry="2.5" style="stroke:#181818;stroke-width:1;" width="825" x="83" y="7"/><text fill="#000000" font-family="sans-serif" font-size="14" font-weight="bold" lengthAdjust="spacing" textLength="229.5371" x="380.7314" y="23.5332">Project Directory Selection Screen</text></g><g class="entity" data-entity="UC1" data-source-line="7" data-uid="ent0006" id="entity_UC1"><ellipse cx="192.5555" cy="64.1111" fill="#F1F1F1" rx="93.5555" ry="21.1111" style="stroke:#181818;stroke-width:0.5;"/><text fill="#000000" font-family="sans-serif" font-size="14" lengthAdjust="spacing" textLength="146.2686" x="119.4212" y="67.8396">Select Project Directory</text></g><g class="entity" data-entity="UC2" data-source-line="8" data-uid="ent0007" id="entity_UC2"><ellipse cx="192.7351" cy="139.047" fill="#F1F1F1" rx="83.2351" ry="19.047" style="stroke:#181818;stroke-width:0.5;"/><text fill="#000000" font-family="sans-serif" font-size="14" lengthAdjust="spacing" textLength="122.1582" x="131.656" y="142.7755">Enter Project Name</text></g><g class="entity" data-entity="UC3" data-source-line="9" data-uid="ent0008" id="entity_UC3"><ellipse cx="192.6881" cy="212.9376" fill="#F1F1F1" rx="85.1881" ry="19.4376" style="stroke:#181818;stroke-width:0.5;"/><text fill="#000000" font-family="sans-serif" font-size="14" lengthAdjust="spacing" textLength="126.8066" x="129.2848" y="216.6661">Browse for Directory</text></g><g class="entity" data-entity="UC4" data-source-line="10" data-uid="ent0009" id="entity_UC4"><ellipse cx="495.2086" cy="64.8417" fill="#F1F1F1" rx="92.2086" ry="20.8417" style="stroke:#181818;stroke-width:0.5;"/><text fill="#000000" font-family="sans-serif" font-size="14" lengthAdjust="spacing" textLength="143.1787" x="423.6192" y="68.5702">Validate Directory Path</text></g><g class="entity" data-entity="UC5" data-source-line="11" data-uid="ent0010" id="entity_UC5"><ellipse cx="796.9176" cy="64.8835" fill="#F1F1F1" rx="94.9176" ry="21.3835" style="stroke:#181818;stroke-width:0.5;"/><text fill="#000000" font-family="sans-serif" font-size="14" lengthAdjust="spacing" textLength="149.3789" x="722.2282" y="68.612">Create Project Directory</text></g><g class="entity" data-entity="UC6" data-source-line="12" data-uid="ent0011" id="entity_UC6"><ellipse cx="192.3438" cy="287.8688" fill="#F1F1F1" rx="89.8438" ry="20.3688" style="stroke:#181818;stroke-width:0.5;"/><text fill="#000000" font-family="sans-serif" font-size="14" lengthAdjust="spacing" textLength="137.7168" x="123.4854" y="291.5973">Check Docker Images</text></g><g class="entity" data-entity="UC7" data-source-line="13" data-uid="ent0012" id="entity_UC7"><ellipse cx="495.1879" cy="142.1376" fill="#F1F1F1" rx="91.1879" ry="20.6376" style="stroke:#181818;stroke-width:0.5;"/><text fill="#000000" font-family="sans-serif" font-size="14" lengthAdjust="spacing" textLength="140.8271" x="424.7743" y="145.8661">Preview Image Names</text></g><!--entity user--><g class="entity" data-entity="user" data-source-line="2" data-uid="ent0002" id="entity_user"><ellipse cx="20.7793" cy="108.5" fill="#F1F1F1" rx="8" ry="8" style="stroke:#181818;stroke-width:0.5;"/><path d="M20.7793,116.5 L20.7793,143.5 M7.7793,124.5 L33.7793,124.5 M20.7793,143.5 L7.7793,158.5 M20.7793,143.5 L33.7793,158.5" fill="none" style="stroke:#181818;stroke-width:0.5;"/><text fill="#000000" font-family="sans-serif" font-size="14" lengthAdjust="spacing" textLength="29.5586" x="6" y="174.5332">User</text></g><!--entity fs--><g class="entity" data-entity="fs" data-source-line="3" data-uid="ent0003" id="entity_fs"><ellipse cx="991.562" cy="89.5" fill="#F1F1F1" rx="8" ry="8" style="stroke:#181818;stroke-width:0.5;"/><path d="M991.562,97.5 L991.562,124.5 M978.562,105.5 L1004.562,105.5 M991.562,124.5 L978.562,139.5 M991.562,124.5 L1004.562,139.5" fill="none" style="stroke:#181818;stroke-width:0.5;"/><text fill="#000000" font-family="sans-serif" font-size="14" lengthAdjust="spacing" textLength="73.124" x="955" y="155.5332">File System</text></g><!--entity docker--><g class="entity" data-entity="docker" data-source-line="4" data-uid="ent0004" id="entity_docker"><ellipse cx="494.9551" cy="349.5" fill="#F1F1F1" rx="8" ry="8" style="stroke:#181818;stroke-width:0.5;"/><path d="M494.9551,357.5 L494.9551,384.5 M481.9551,365.5 L507.9551,365.5 M494.9551,384.5 L481.9551,399.5 M494.9551,384.5 L507.9551,399.5" fill="none" style="stroke:#181818;stroke-width:0.5;"/><text fill="#000000" font-family="sans-serif" font-size="14" lengthAdjust="spacing" textLength="94.9102" x="447.5" y="415.5332">Docker System</text></g><!--link user to UC1--><g class="link" data-entity-1="user" data-entity-2="UC1" data-source-line="16" data-uid="lnk13" id="link_user_UC1"><path d="M36.12,127.41 C46.41,119.42 60.94,109.01 75,102 C92.61,93.22 106.9916,87.6464 125.4716,81.7764" fill="none" id="user-to-UC1" style="stroke:#181818;stroke-width:1;"/><polygon fill="#181818" points="131.19,79.96,121.4014,78.8723,126.4246,81.4737,123.8233,86.4969,131.19,79.96" style="stroke:#181818;stroke-width:1;"/></g><!--link user to UC2--><g class="link" data-entity-1="user" data-entity-2="UC2" data-source-line="17" data-uid="lnk14" id="link_user_UC2"><path d="M36.16,139 C52.63,139 75.17,139 103.34,139" fill="none" id="user-to-UC2" style="stroke:#181818;stroke-width:1;"/><polygon fill="#181818" points="109.34,139,100.34,135,104.34,139,100.34,143,109.34,139" style="stroke:#181818;stroke-width:1;"/></g><!--link user to UC3--><g class="link" data-entity-1="user" data-entity-2="UC3" data-source-line="18" data-uid="lnk15" id="link_user_UC3"><path d="M36.17,150.25 C46.48,158.02 61.02,168.14 75,175 C94.2,184.41 110.5477,190.5177 130.2777,196.6177" fill="none" id="user-to-UC3" style="stroke:#181818;stroke-width:1;"/><polygon fill="#181818" points="136.01,198.39,128.5931,191.9101,131.2331,196.9131,126.2301,199.5531,136.01,198.39" style="stroke:#181818;stroke-width:1;"/></g><!--link UC1 to UC4--><g class="link" data-entity-1="UC1" data-entity-2="UC4" data-source-line="19" data-uid="lnk16" id="link_UC1_UC4"><path d="M286.11,64.31 C323.27,64.43 359.98,64.5489 396.98,64.6789" fill="none" id="UC1-to-UC4" style="stroke:#181818;stroke-width:1;"/><polygon fill="#181818" points="402.98,64.7,393.9941,60.6684,397.98,64.6824,393.966,68.6684,402.98,64.7" style="stroke:#181818;stroke-width:1;"/><text fill="#000000" font-family="sans-serif" font-size="13" lengthAdjust="spacing" textLength="55.6563" x="317" y="61.4951">&#171;include&#187;</text></g><!--link UC4 to UC5--><g class="link" data-entity-1="UC4" data-entity-2="UC5" data-source-line="20" data-uid="lnk17" id="link_UC4_UC5"><path d="M587.23,65 C623.52,65 659.26,65 695.83,65" fill="none" id="UC4-to-UC5" style="stroke:#181818;stroke-width:1;"/><polygon fill="#181818" points="701.83,65,692.83,61,696.83,65,692.83,69,701.83,65" style="stroke:#181818;stroke-width:1;"/><text fill="#000000" font-family="sans-serif" font-size="13" lengthAdjust="spacing" textLength="53.4917" x="618" y="61.4951">&#171;extend&#187;</text></g><!--link UC2 to UC7--><g class="link" data-entity-1="UC2" data-entity-2="UC7" data-source-line="21" data-uid="lnk18" id="link_UC2_UC7"><path d="M275.61,139.82 C315.41,140.22 357.2903,140.6412 398.0703,141.0412" fill="none" id="UC2-to-UC7" style="stroke:#181818;stroke-width:1;"/><polygon fill="#181818" points="404.07,141.1,395.1097,137.0119,399.0702,141.051,395.0312,145.0115,404.07,141.1" style="stroke:#181818;stroke-width:1;"/><text fill="#000000" font-family="sans-serif" font-size="13" lengthAdjust="spacing" textLength="55.6563" x="317" y="137.4951">&#171;include&#187;</text></g><!--link UC6 to docker--><g class="link" data-entity-1="UC6" data-entity-2="docker" data-source-line="22" data-uid="lnk19" id="link_UC6_docker"><path d="M246.88,304.34 C303.71,321.74 387.0529,347.2534 441.3029,363.8634" fill="none" id="UC6-to-docker" style="stroke:#181818;stroke-width:1;"/><polygon fill="#181818" points="447.04,365.62,439.6054,359.1604,442.2591,364.1562,437.2633,366.8099,447.04,365.62" style="stroke:#181818;stroke-width:1;"/></g><!--link UC4 to fs--><g class="link" data-entity-1="UC4" data-entity-2="fs" data-source-line="23" data-uid="lnk20" id="link_UC4_fs"><path d="M561.52,79.69 C601.83,88.16 654.67,98.23 702,104 C792.63,115.04 894.2111,118.3536 948.8411,119.4136" fill="none" id="UC4-to-fs" style="stroke:#181818;stroke-width:1;"/><polygon fill="#181818" points="954.84,119.53,945.9193,115.3562,949.8409,119.433,945.7641,123.3547,954.84,119.53" style="stroke:#181818;stroke-width:1;"/></g><!--link UC5 to fs--><g class="link" data-entity-1="UC5" data-entity-2="fs" data-source-line="24" data-uid="lnk21" id="link_UC5_fs"><path d="M856.8,81.8 C888.87,90.96 921.7308,100.352 949.2108,108.202" fill="none" id="UC5-to-fs" style="stroke:#181818;stroke-width:1;"/><polygon fill="#181818" points="954.98,109.85,947.4249,103.5318,950.1723,108.4766,945.2275,111.2241,954.98,109.85" style="stroke:#181818;stroke-width:1;"/></g><!--SRC=[TP9DQyCm38Rl_XKYznwMVi4eEQpTO9SH2DtTE4hYrh51TjULiVy-st70Mzd9ajv77vQji7FW393i1mUj91HE6isuS8QWE5ga0hY5YpVcu8jK2CtDEXoZrjbPEHXnHigrDaOO2tMvxdrYKPCvUGyEiPcX6pIefhRG24BK1Nmn22q5jpvXak4kBpOuxXzozbaxFy2Cll4H4rNcr1EPgpyxF_FVQikSU-TAjjnXDclDtP3GLOxk2GFutv3hN-o0uWnfMQyZxz4cR9DZDU67nEj4nBlCs9PzCnQU11QBAguWSyhSMJAl9di5Zx3RIItKfSMgOY4oAUkeuAT3tKQXJCBsBcKJbVIiSmN_0qAHoVm1]--></g></svg>