<svg xmlns="http://www.w3.org/2000/svg" xmlns:xlink="http://www.w3.org/1999/xlink" contentStyleType="text/css" data-diagram-type="ACTIVITY" height="922px" preserveAspectRatio="none" style="width:523px;height:922px;background:#FFFFFF;" version="1.1" viewBox="0 0 523 922" width="523px" zoomAndPan="magnify"><defs/><g><ellipse cx="264.9023" cy="20" fill="#222222" rx="10" ry="10" style="stroke:#222222;stroke-width:1;"/><rect fill="#F1F1F1" height="35.0938" rx="12.5" ry="12.5" style="stroke:#181818;stroke-width:0.5;" width="158.0586" x="185.873" y="94"/><text fill="#000000" font-family="sans-serif" font-size="12" lengthAdjust="spacing" textLength="138.0586" x="195.873" y="116.457">User enters directory path</text><rect fill="#555555" height="6" rx="2.5" ry="2.5" style="stroke:#555555;stroke-width:1;" width="376.1367" x="76.834" y="149.0938"/><rect fill="#F1F1F1" height="35.0938" rx="12.5" ry="12.5" style="stroke:#181818;stroke-width:0.5;" width="127.3965" x="96.834" y="175.0938"/><text fill="#000000" font-family="sans-serif" font-size="12" lengthAdjust="spacing" textLength="107.3965" x="106.834" y="197.5508">Validate path format</text><rect fill="#F1F1F1" height="35.0938" rx="12.5" ry="12.5" style="stroke:#181818;stroke-width:0.5;" width="121.3672" x="99.8486" y="230.1875"/><text fill="#000000" font-family="sans-serif" font-size="12" lengthAdjust="spacing" textLength="101.3672" x="109.8486" y="252.6445">Check permissions</text><rect fill="#F1F1F1" height="35.0938" rx="12.5" ry="12.5" style="stroke:#181818;stroke-width:0.5;" width="139.3965" x="90.834" y="285.2813"/><text fill="#000000" font-family="sans-serif" font-size="12" lengthAdjust="spacing" textLength="119.3965" x="100.834" y="307.7383">Show existence status</text><rect fill="#F1F1F1" height="35.0938" rx="12.5" ry="12.5" style="stroke:#181818;stroke-width:0.5;" width="157.3965" x="269.9023" y="175.0938"/><text fill="#000000" font-family="sans-serif" font-size="12" lengthAdjust="spacing" textLength="137.3965" x="279.9023" y="197.5508">Auto-extract project name</text><rect fill="#F1F1F1" height="35.0938" rx="12.5" ry="12.5" style="stroke:#181818;stroke-width:0.5;" width="136.0684" x="280.5664" y="230.1875"/><text fill="#000000" font-family="sans-serif" font-size="12" lengthAdjust="spacing" textLength="116.0684" x="290.5664" y="252.6445">Validate project name</text><rect fill="#F1F1F1" height="35.0938" rx="12.5" ry="12.5" style="stroke:#181818;stroke-width:0.5;" width="180.7402" x="258.2305" y="285.2813"/><text fill="#000000" font-family="sans-serif" font-size="12" lengthAdjust="spacing" textLength="160.7402" x="268.2305" y="307.7383">Update Docker image preview</text><rect fill="#555555" height="6" rx="2.5" ry="2.5" style="stroke:#555555;stroke-width:1;" width="376.1367" x="76.834" y="340.375"/><polygon fill="#F1F1F1" points="218.7324,366.375,311.0723,366.375,323.0723,378.375,311.0723,390.375,218.7324,390.375,206.7324,378.375,218.7324,366.375" style="stroke:#181818;stroke-width:0.5;"/><text fill="#000000" font-family="sans-serif" font-size="11" lengthAdjust="spacing" textLength="92.3398" x="218.7324" y="382.876">Validation passes?</text><text fill="#000000" font-family="sans-serif" font-size="11" lengthAdjust="spacing" textLength="17.1177" x="189.6147" y="375.958">yes</text><text fill="#000000" font-family="sans-serif" font-size="11" lengthAdjust="spacing" textLength="12.2354" x="323.0723" y="375.958">no</text><rect fill="#F1F1F1" height="35.0938" rx="12.5" ry="12.5" style="stroke:#181818;stroke-width:0.5;" width="145.4316" x="108.8071" y="400.375"/><text fill="#000000" font-family="sans-serif" font-size="12" lengthAdjust="spacing" textLength="125.4316" x="118.8071" y="422.832">Enable Continue button</text><rect fill="#F1F1F1" height="35.0938" rx="12.5" ry="12.5" style="stroke:#181818;stroke-width:0.5;" width="148.0859" x="274.2388" y="400.375"/><text fill="#000000" font-family="sans-serif" font-size="12" lengthAdjust="spacing" textLength="128.0859" x="284.2388" y="422.832">Disable Continue button</text><rect fill="#F1F1F1" height="35.0938" rx="12.5" ry="12.5" style="stroke:#181818;stroke-width:0.5;" width="136.7129" x="279.9253" y="455.4688"/><text fill="#000000" font-family="sans-serif" font-size="12" lengthAdjust="spacing" textLength="116.7129" x="289.9253" y="477.9258">Show error messages</text><polygon fill="#F1F1F1" points="264.9023,496.5625,276.9023,508.5625,264.9023,520.5625,252.9023,508.5625,264.9023,496.5625" style="stroke:#181818;stroke-width:0.5;"/><rect fill="#F1F1F1" height="35.0938" rx="12.5" ry="12.5" style="stroke:#181818;stroke-width:0.5;" width="123.3711" x="203.2168" y="547.3867"/><text fill="#000000" font-family="sans-serif" font-size="12" lengthAdjust="spacing" textLength="103.3711" x="213.2168" y="569.8438">Wait for user action</text><polygon fill="#F1F1F1" points="32,602.4805,131.0215,602.4805,143.0215,614.4805,131.0215,626.4805,32,626.4805,20,614.4805,32,602.4805" style="stroke:#181818;stroke-width:0.5;"/><text fill="#000000" font-family="sans-serif" font-size="11" lengthAdjust="spacing" textLength="17.1177" x="85.5107" y="637.8994">yes</text><text fill="#000000" font-family="sans-serif" font-size="11" lengthAdjust="spacing" textLength="99.0215" x="32" y="618.9814">User clicks Browse?</text><rect fill="#F1F1F1" height="35.0938" rx="12.5" ry="12.5" style="stroke:#181818;stroke-width:0.5;" width="134.0645" x="14.4785" y="659.3994"/><text fill="#000000" font-family="sans-serif" font-size="12" lengthAdjust="spacing" textLength="114.0645" x="24.4785" y="681.8564">Open directory dialog</text><rect fill="#F1F1F1" height="35.0938" rx="12.5" ry="12.5" style="stroke:#181818;stroke-width:0.5;" width="110.7324" x="26.1445" y="714.4932"/><text fill="#000000" font-family="sans-serif" font-size="12" lengthAdjust="spacing" textLength="90.7324" x="36.1445" y="736.9502">Update path field</text><polygon fill="#F1F1F1" points="180.833,602.4805,267.6299,602.4805,279.6299,614.4805,267.6299,626.4805,180.833,626.4805,168.833,614.4805,180.833,602.4805" style="stroke:#181818;stroke-width:0.5;"/><text fill="#000000" font-family="sans-serif" font-size="11" lengthAdjust="spacing" textLength="17.1177" x="228.2314" y="637.8994">yes</text><text fill="#000000" font-family="sans-serif" font-size="11" lengthAdjust="spacing" textLength="86.7969" x="180.833" y="618.9814">User clicks Back?</text><rect fill="#F1F1F1" height="35.0938" rx="12.5" ry="12.5" style="stroke:#181818;stroke-width:0.5;" width="111.377" x="168.543" y="659.3994"/><text fill="#000000" font-family="sans-serif" font-size="12" lengthAdjust="spacing" textLength="91.377" x="178.543" y="681.8564">Navigate to SC-0</text><ellipse cx="224.2314" cy="725.4932" fill="none" rx="11" ry="11" style="stroke:#222222;stroke-width:1;"/><ellipse cx="224.2314" cy="725.4932" fill="#222222" rx="6" ry="6" style="stroke:#222222;stroke-width:1;"/><polygon fill="#F1F1F1" points="329.4358,602.4805,435.8103,602.4805,447.8103,614.4805,435.8103,626.4805,329.4358,626.4805,317.4358,614.4805,329.4358,602.4805" style="stroke:#181818;stroke-width:0.5;"/><text fill="#000000" font-family="sans-serif" font-size="11" lengthAdjust="spacing" textLength="17.1177" x="386.623" y="637.8994">yes</text><text fill="#000000" font-family="sans-serif" font-size="11" lengthAdjust="spacing" textLength="106.3745" x="329.4358" y="618.9814">User clicks Continue?</text><rect fill="#F1F1F1" height="35.0938" rx="12.5" ry="12.5" style="stroke:#181818;stroke-width:0.5;" width="144.7168" x="310.2646" y="659.3994"/><text fill="#000000" font-family="sans-serif" font-size="12" lengthAdjust="spacing" textLength="124.7168" x="320.2646" y="681.8564">Create project directory</text><rect fill="#F1F1F1" height="35.0938" rx="12.5" ry="12.5" style="stroke:#181818;stroke-width:0.5;" width="165.4063" x="299.9199" y="714.4932"/><text fill="#000000" font-family="sans-serif" font-size="12" lengthAdjust="spacing" textLength="145.4063" x="309.9199" y="736.9502">Save state for next screens</text><rect fill="#F1F1F1" height="35.0938" rx="12.5" ry="12.5" style="stroke:#181818;stroke-width:0.5;" width="111.377" x="326.9346" y="769.5869"/><text fill="#000000" font-family="sans-serif" font-size="12" lengthAdjust="spacing" textLength="91.377" x="336.9346" y="792.0439">Navigate to SC-2</text><ellipse cx="382.623" cy="835.6807" fill="none" rx="11" ry="11" style="stroke:#222222;stroke-width:1;"/><ellipse cx="382.623" cy="835.6807" fill="#222222" rx="6" ry="6" style="stroke:#222222;stroke-width:1;"/><polygon fill="#F1F1F1" points="264.9023,50,276.9023,62,264.9023,74,252.9023,62,264.9023,50" style="stroke:#181818;stroke-width:0.5;"/><polygon fill="#F1F1F1" points="222.092,886.6807,307.7126,886.6807,319.7126,898.6807,307.7126,910.6807,222.092,910.6807,210.092,898.6807,222.092,886.6807" style="stroke:#181818;stroke-width:0.5;"/><text fill="#000000" font-family="sans-serif" font-size="11" lengthAdjust="spacing" textLength="85.6206" x="222.092" y="903.1816">Continue editing?</text><text fill="#000000" font-family="sans-serif" font-size="11" lengthAdjust="spacing" textLength="17.1177" x="319.7126" y="896.2637">yes</text><line style="stroke:#181818;stroke-width:1;" x1="160.5322" x2="160.5322" y1="210.1875" y2="230.1875"/><polygon fill="#181818" points="156.5322,220.1875,160.5322,230.1875,164.5322,220.1875,160.5322,224.1875" style="stroke:#181818;stroke-width:1;"/><line style="stroke:#181818;stroke-width:1;" x1="160.5322" x2="160.5322" y1="265.2813" y2="285.2813"/><polygon fill="#181818" points="156.5322,275.2813,160.5322,285.2813,164.5322,275.2813,160.5322,279.2813" style="stroke:#181818;stroke-width:1;"/><line style="stroke:#181818;stroke-width:1;" x1="348.6006" x2="348.6006" y1="210.1875" y2="230.1875"/><polygon fill="#181818" points="344.6006,220.1875,348.6006,230.1875,352.6006,220.1875,348.6006,224.1875" style="stroke:#181818;stroke-width:1;"/><line style="stroke:#181818;stroke-width:1;" x1="348.6006" x2="348.6006" y1="265.2813" y2="285.2813"/><polygon fill="#181818" points="344.6006,275.2813,348.6006,285.2813,352.6006,275.2813,348.6006,279.2813" style="stroke:#181818;stroke-width:1;"/><line style="stroke:#181818;stroke-width:1;" x1="160.5322" x2="160.5322" y1="155.0938" y2="175.0938"/><polygon fill="#181818" points="156.5322,165.0938,160.5322,175.0938,164.5322,165.0938,160.5322,169.0938" style="stroke:#181818;stroke-width:1;"/><line style="stroke:#181818;stroke-width:1;" x1="348.6006" x2="348.6006" y1="155.0938" y2="175.0938"/><polygon fill="#181818" points="344.6006,165.0938,348.6006,175.0938,352.6006,165.0938,348.6006,169.0938" style="stroke:#181818;stroke-width:1;"/><line style="stroke:#181818;stroke-width:1;" x1="160.5322" x2="160.5322" y1="320.375" y2="340.375"/><polygon fill="#181818" points="156.5322,330.375,160.5322,340.375,164.5322,330.375,160.5322,334.375" style="stroke:#181818;stroke-width:1;"/><line style="stroke:#181818;stroke-width:1;" x1="348.6006" x2="348.6006" y1="320.375" y2="340.375"/><polygon fill="#181818" points="344.6006,330.375,348.6006,340.375,352.6006,330.375,348.6006,334.375" style="stroke:#181818;stroke-width:1;"/><line style="stroke:#181818;stroke-width:1;" x1="264.9023" x2="264.9023" y1="129.0938" y2="149.0938"/><polygon fill="#181818" points="260.9023,139.0938,264.9023,149.0938,268.9023,139.0938,264.9023,143.0938" style="stroke:#181818;stroke-width:1;"/><line style="stroke:#181818;stroke-width:1;" x1="348.2817" x2="348.2817" y1="435.4688" y2="455.4688"/><polygon fill="#181818" points="344.2817,445.4688,348.2817,455.4688,352.2817,445.4688,348.2817,449.4688" style="stroke:#181818;stroke-width:1;"/><line style="stroke:#181818;stroke-width:1;" x1="206.7324" x2="181.5229" y1="378.375" y2="378.375"/><line style="stroke:#181818;stroke-width:1;" x1="181.5229" x2="181.5229" y1="378.375" y2="400.375"/><polygon fill="#181818" points="177.5229,390.375,181.5229,400.375,185.5229,390.375,181.5229,394.375" style="stroke:#181818;stroke-width:1;"/><line style="stroke:#181818;stroke-width:1;" x1="323.0723" x2="348.2817" y1="378.375" y2="378.375"/><line style="stroke:#181818;stroke-width:1;" x1="348.2817" x2="348.2817" y1="378.375" y2="400.375"/><polygon fill="#181818" points="344.2817,390.375,348.2817,400.375,352.2817,390.375,348.2817,394.375" style="stroke:#181818;stroke-width:1;"/><line style="stroke:#181818;stroke-width:1;" x1="181.5229" x2="181.5229" y1="435.4688" y2="508.5625"/><line style="stroke:#181818;stroke-width:1;" x1="181.5229" x2="252.9023" y1="508.5625" y2="508.5625"/><polygon fill="#181818" points="242.9023,504.5625,252.9023,508.5625,242.9023,512.5625,246.9023,508.5625" style="stroke:#181818;stroke-width:1;"/><line style="stroke:#181818;stroke-width:1;" x1="348.2817" x2="348.2817" y1="490.5625" y2="508.5625"/><line style="stroke:#181818;stroke-width:1;" x1="348.2817" x2="276.9023" y1="508.5625" y2="508.5625"/><polygon fill="#181818" points="286.9023,504.5625,276.9023,508.5625,286.9023,512.5625,282.9023,508.5625" style="stroke:#181818;stroke-width:1;"/><line style="stroke:#181818;stroke-width:1;" x1="264.9023" x2="264.9023" y1="346.375" y2="366.375"/><polygon fill="#181818" points="260.9023,356.375,264.9023,366.375,268.9023,356.375,264.9023,360.375" style="stroke:#181818;stroke-width:1;"/><line style="stroke:#181818;stroke-width:1;" x1="264.9023" x2="264.9023" y1="520.5625" y2="547.3867"/><polygon fill="#181818" points="260.9023,537.3867,264.9023,547.3867,268.9023,537.3867,264.9023,541.3867" style="stroke:#181818;stroke-width:1;"/><line style="stroke:#181818;stroke-width:1;" x1="81.5107" x2="81.5107" y1="694.4932" y2="714.4932"/><polygon fill="#181818" points="77.5107,704.4932,81.5107,714.4932,85.5107,704.4932,81.5107,708.4932" style="stroke:#181818;stroke-width:1;"/><line style="stroke:#181818;stroke-width:1;" x1="224.2314" x2="224.2314" y1="694.4932" y2="714.4932"/><polygon fill="#181818" points="220.2314,704.4932,224.2314,714.4932,228.2314,704.4932,224.2314,708.4932" style="stroke:#181818;stroke-width:1;"/><line style="stroke:#181818;stroke-width:1;" x1="382.623" x2="382.623" y1="694.4932" y2="714.4932"/><polygon fill="#181818" points="378.623,704.4932,382.623,714.4932,386.623,704.4932,382.623,708.4932" style="stroke:#181818;stroke-width:1;"/><line style="stroke:#181818;stroke-width:1;" x1="382.623" x2="382.623" y1="749.5869" y2="769.5869"/><polygon fill="#181818" points="378.623,759.5869,382.623,769.5869,386.623,759.5869,382.623,763.5869" style="stroke:#181818;stroke-width:1;"/><line style="stroke:#181818;stroke-width:1;" x1="382.623" x2="382.623" y1="804.6807" y2="824.6807"/><polygon fill="#181818" points="378.623,814.6807,382.623,824.6807,386.623,814.6807,382.623,818.6807" style="stroke:#181818;stroke-width:1;"/><line style="stroke:#181818;stroke-width:1;" x1="81.5107" x2="81.5107" y1="626.4805" y2="659.3994"/><polygon fill="#181818" points="77.5107,649.3994,81.5107,659.3994,85.5107,649.3994,81.5107,653.3994" style="stroke:#181818;stroke-width:1;"/><line style="stroke:#181818;stroke-width:1;" x1="81.5107" x2="81.5107" y1="749.5869" y2="866.6807"/><polygon fill="#181818" points="77.5107,856.6807,81.5107,866.6807,85.5107,856.6807,81.5107,860.6807" style="stroke:#181818;stroke-width:1;"/><line style="stroke:#181818;stroke-width:1;" x1="224.2314" x2="224.2314" y1="626.4805" y2="659.3994"/><polygon fill="#181818" points="220.2314,649.3994,224.2314,659.3994,228.2314,649.3994,224.2314,653.3994" style="stroke:#181818;stroke-width:1;"/><line style="stroke:#181818;stroke-width:1;" x1="382.623" x2="382.623" y1="626.4805" y2="659.3994"/><polygon fill="#181818" points="378.623,649.3994,382.623,659.3994,386.623,649.3994,382.623,653.3994" style="stroke:#181818;stroke-width:1;"/><line style="stroke:#181818;stroke-width:1;" x1="143.0215" x2="168.833" y1="614.4805" y2="614.4805"/><polygon fill="#181818" points="158.833,610.4805,168.833,614.4805,158.833,618.4805,162.833,614.4805" style="stroke:#181818;stroke-width:1;"/><line style="stroke:#181818;stroke-width:1;" x1="279.6299" x2="317.4358" y1="614.4805" y2="614.4805"/><polygon fill="#181818" points="307.4358,610.4805,317.4358,614.4805,307.4358,618.4805,311.4358,614.4805" style="stroke:#181818;stroke-width:1;"/><line style="stroke:#181818;stroke-width:1;" x1="264.9023" x2="264.9023" y1="582.4805" y2="587.4805"/><line style="stroke:#181818;stroke-width:1;" x1="264.9023" x2="81.5107" y1="587.4805" y2="587.4805"/><line style="stroke:#181818;stroke-width:1;" x1="81.5107" x2="81.5107" y1="587.4805" y2="602.4805"/><polygon fill="#181818" points="77.5107,592.4805,81.5107,602.4805,85.5107,592.4805,81.5107,596.4805" style="stroke:#181818;stroke-width:1;"/><line style="stroke:#181818;stroke-width:1;" x1="447.8103" x2="479.3262" y1="614.4805" y2="614.4805"/><line style="stroke:#181818;stroke-width:1;" x1="479.3262" x2="479.3262" y1="614.4805" y2="866.6807"/><polygon fill="#181818" points="475.3262,856.6807,479.3262,866.6807,483.3262,856.6807,479.3262,860.6807" style="stroke:#181818;stroke-width:1;"/><line style="stroke:#181818;stroke-width:1;" x1="81.5107" x2="479.3262" y1="866.6807" y2="866.6807"/><line style="stroke:#181818;stroke-width:1;" x1="264.9023" x2="264.9023" y1="74" y2="94"/><polygon fill="#181818" points="260.9023,84,264.9023,94,268.9023,84,264.9023,88" style="stroke:#181818;stroke-width:1;"/><line style="stroke:#181818;stroke-width:1;" x1="319.7126" x2="497.3262" y1="898.6807" y2="898.6807"/><polygon fill="#181818" points="493.3262,527.3867,497.3262,517.3867,501.3262,527.3867,497.3262,523.3867" style="stroke:#181818;stroke-width:1;"/><line style="stroke:#181818;stroke-width:1;" x1="497.3262" x2="497.3262" y1="62" y2="898.6807"/><line style="stroke:#181818;stroke-width:1;" x1="497.3262" x2="276.9023" y1="62" y2="62"/><polygon fill="#181818" points="286.9023,58,276.9023,62,286.9023,66,282.9023,62" style="stroke:#181818;stroke-width:1;"/><line style="stroke:#181818;stroke-width:1;" x1="264.9023" x2="264.9023" y1="866.6807" y2="886.6807"/><polygon fill="#181818" points="260.9023,876.6807,264.9023,886.6807,268.9023,876.6807,264.9023,880.6807" style="stroke:#181818;stroke-width:1;"/><line style="stroke:#181818;stroke-width:1;" x1="264.9023" x2="264.9023" y1="30" y2="50"/><polygon fill="#181818" points="260.9023,40,264.9023,50,268.9023,40,264.9023,44" style="stroke:#181818;stroke-width:1;"/><!--SRC=[TL8zSuCm3DtxApII8NUzZitGQqdNTiYbdHMZW0hOd2L2ykzhCD3cQp9OZyVxa2XwVV3K4Ee3mFDMo0DP9I-GiIUZpf-WGIrMORntlWn7m7rXnHag3QF-laPTnL5Qa2cX8L-p23ihu_scS1tGaKN96W9Hr5OcLi0SsKRWQwjkIKVrQ1GQxtw22h1Oq-hotzUpRJDCriwKmGZNcFSmEZ1rFO9iDfdWFIGZKn0PV8YGl2n02xAGd4WMaV7TuguYI9rLjYt1hbLrTY2hX22nRWIkMUuXP_VUEmyrYGHTCWhYVJZxxB-HjLS7RLz2CC_nwrxfq8kfs9G2RzvrGZUaVZRX_Q-rZB5o-NamiIwcAfiTND6ZAM-GV-21yvv27MpIvMFa5NNDFQ8fY1jagQV_1SwQfx3m41U4XZniM0OGuudcPRfGytIkPWWrBZLq1OTIahaLoZWyv44KIvJq2m00]--></g></svg>