<svg xmlns="http://www.w3.org/2000/svg" xmlns:xlink="http://www.w3.org/1999/xlink" contentStyleType="text/css" data-diagram-type="ACTIVITY" height="1031px" preserveAspectRatio="none" style="width:894px;height:1031px;background:#FFFFFF;" version="1.1" viewBox="0 0 894 1031" width="894px" zoomAndPan="magnify"><defs/><g><ellipse cx="582.853" cy="20" fill="#222222" rx="10" ry="10" style="stroke:#222222;stroke-width:1;"/><rect fill="#F1F1F1" height="34.1328" rx="12.5" ry="12.5" style="stroke:#181818;stroke-width:0.5;" width="198.7578" x="483.4741" y="50"/><text fill="#000000" font-family="sans-serif" font-size="12" lengthAdjust="spacing" textLength="178.7578" x="493.4741" y="71.6016">User configures authentication</text><rect fill="#F1F1F1" height="34.1328" rx="12.5" ry="12.5" style="stroke:#181818;stroke-width:0.5;" width="170.4922" x="497.6069" y="104.1328"/><text fill="#000000" font-family="sans-serif" font-size="12" lengthAdjust="spacing" textLength="150.4922" x="507.6069" y="125.7344">Validate username format</text><polygon fill="#F1F1F1" points="539.6882,158.2656,626.0178,158.2656,638.0178,170.2656,626.0178,182.2656,539.6882,182.2656,527.6882,170.2656,539.6882,158.2656" style="stroke:#181818;stroke-width:0.5;"/><text fill="#000000" font-family="sans-serif" font-size="11" lengthAdjust="spacing" textLength="86.3296" x="539.6882" y="174.4229">Username valid?</text><text fill="#000000" font-family="sans-serif" font-size="11" lengthAdjust="spacing" textLength="17.4829" x="510.2053" y="167.9453">yes</text><text fill="#000000" font-family="sans-serif" font-size="11" lengthAdjust="spacing" textLength="13.5835" x="638.0178" y="167.9453">no</text><rect fill="#F1F1F1" height="34.1328" rx="12.5" ry="12.5" style="stroke:#181818;stroke-width:0.5;" width="207.4531" x="280.4033" y="192.2656"/><text fill="#000000" font-family="sans-serif" font-size="12" lengthAdjust="spacing" textLength="187.4531" x="290.4033" y="213.8672">Validate password requirements</text><polygon fill="#F1F1F1" points="342.5308,246.3984,425.729,246.3984,437.729,258.3984,425.729,270.3984,342.5308,270.3984,330.5308,258.3984,342.5308,246.3984" style="stroke:#181818;stroke-width:0.5;"/><text fill="#000000" font-family="sans-serif" font-size="11" lengthAdjust="spacing" textLength="83.1982" x="342.5308" y="262.5557">Password valid?</text><text fill="#000000" font-family="sans-serif" font-size="11" lengthAdjust="spacing" textLength="17.4829" x="313.0479" y="256.0781">yes</text><text fill="#000000" font-family="sans-serif" font-size="11" lengthAdjust="spacing" textLength="13.5835" x="437.729" y="256.0781">no</text><rect fill="#F1F1F1" height="34.1328" rx="12.5" ry="12.5" style="stroke:#181818;stroke-width:0.5;" width="114.3887" x="163.2334" y="280.3984"/><text fill="#000000" font-family="sans-serif" font-size="12" lengthAdjust="spacing" textLength="94.3887" x="173.2334" y="302">Check UID value</text><polygon fill="#F1F1F1" points="170.6484,334.5313,270.207,334.5313,282.207,346.5313,270.207,358.5313,170.6484,358.5313,158.6484,346.5313,170.6484,334.5313" style="stroke:#181818;stroke-width:0.5;"/><text fill="#000000" font-family="sans-serif" font-size="11" lengthAdjust="spacing" textLength="99.5586" x="170.6484" y="350.6885">UID in valid range?</text><text fill="#000000" font-family="sans-serif" font-size="11" lengthAdjust="spacing" textLength="17.4829" x="141.1655" y="344.2109">yes</text><text fill="#000000" font-family="sans-serif" font-size="11" lengthAdjust="spacing" textLength="13.5835" x="282.207" y="344.2109">no</text><rect fill="#F1F1F1" height="34.1328" rx="12.5" ry="12.5" style="stroke:#181818;stroke-width:0.5;" width="190.5137" x="13.3291" y="368.5313"/><text fill="#000000" font-family="sans-serif" font-size="12" lengthAdjust="spacing" textLength="170.5137" x="23.3291" y="390.1328">Configure SSH authentication</text><rect fill="#F1F1F1" height="34.1328" rx="12.5" ry="12.5" style="stroke:#181818;stroke-width:0.5;" width="195.1719" x="11" y="471.1416"/><text fill="#000000" font-family="sans-serif" font-size="12" lengthAdjust="spacing" textLength="175.1719" x="21" y="492.7432">Process SSH key configuration</text><rect fill="#F1F1F1" height="34.1328" rx="12.5" ry="12.5" style="stroke:#181818;stroke-width:0.5;" width="133.3379" x="41.917" y="540.2744"/><text fill="#000000" font-family="sans-serif" font-size="12" lengthAdjust="spacing" textLength="113.3379" x="51.917" y="561.876">Validate key format</text><polygon fill="#F1F1F1" points="33.8257,422.6641,183.3462,422.6641,195.3462,434.6641,183.3462,446.6641,33.8257,446.6641,21.8257,434.6641,33.8257,422.6641" style="stroke:#181818;stroke-width:0.5;"/><text fill="#000000" font-family="sans-serif" font-size="11" lengthAdjust="spacing" textLength="17.4829" x="112.5859" y="457.2988">yes</text><text fill="#000000" font-family="sans-serif" font-size="11" lengthAdjust="spacing" textLength="149.5205" x="33.8257" y="438.8213">Key authentication enabled?</text><polygon fill="#F1F1F1" points="108.5859,594.4072,120.5859,606.4072,108.5859,618.4072,96.5859,606.4072,108.5859,594.4072" style="stroke:#181818;stroke-width:0.5;"/><rect fill="#F1F1F1" height="34.1328" rx="12.5" ry="12.5" style="stroke:#181818;stroke-width:0.5;" width="164.7559" x="26.208" y="686.8848"/><text fill="#000000" font-family="sans-serif" font-size="12" lengthAdjust="spacing" textLength="144.7559" x="36.208" y="708.4863">Configure root password</text><rect fill="#F1F1F1" height="34.1328" rx="12.5" ry="12.5" style="stroke:#181818;stroke-width:0.5;" width="150.2832" x="33.4443" y="756.0176"/><text fill="#000000" font-family="sans-serif" font-size="12" lengthAdjust="spacing" textLength="130.2832" x="43.4443" y="777.6191">Show security warning</text><polygon fill="#F1F1F1" points="52.0579,638.4072,165.114,638.4072,177.114,650.4072,165.114,662.4072,52.0579,662.4072,40.0579,650.4072,52.0579,638.4072" style="stroke:#181818;stroke-width:0.5;"/><text fill="#000000" font-family="sans-serif" font-size="11" lengthAdjust="spacing" textLength="17.4829" x="112.5859" y="673.042">yes</text><text fill="#000000" font-family="sans-serif" font-size="11" lengthAdjust="spacing" textLength="113.0562" x="52.0579" y="654.5645">Root access enabled?</text><polygon fill="#F1F1F1" points="108.5859,810.1504,120.5859,822.1504,108.5859,834.1504,96.5859,822.1504,108.5859,810.1504" style="stroke:#181818;stroke-width:0.5;"/><rect fill="#F1F1F1" height="34.1328" rx="12.5" ry="12.5" style="stroke:#181818;stroke-width:0.5;" width="176.4746" x="20.3486" y="854.1504"/><text fill="#000000" font-family="sans-serif" font-size="12" lengthAdjust="spacing" textLength="156.4746" x="30.3486" y="875.752">Update configuration store</text><rect fill="#F1F1F1" height="34.1328" rx="12.5" ry="12.5" style="stroke:#181818;stroke-width:0.5;" width="168.1953" x="248.1719" y="368.5313"/><text fill="#000000" font-family="sans-serif" font-size="12" lengthAdjust="spacing" textLength="148.1953" x="258.1719" y="390.1328">Show UID validation error</text><polygon fill="#F1F1F1" points="220.4277,894.2832,232.4277,906.2832,220.4277,918.2832,208.4277,906.2832,220.4277,894.2832" style="stroke:#181818;stroke-width:0.5;"/><rect fill="#F1F1F1" height="34.1328" rx="12.5" ry="12.5" style="stroke:#181818;stroke-width:0.5;" width="202.9297" x="446.3672" y="280.3984"/><text fill="#000000" font-family="sans-serif" font-size="12" lengthAdjust="spacing" textLength="182.9297" x="456.3672" y="302">Show password validation error</text><polygon fill="#F1F1F1" points="384.1299,924.2832,396.1299,936.2832,384.1299,948.2832,372.1299,936.2832,384.1299,924.2832" style="stroke:#181818;stroke-width:0.5;"/><rect fill="#F1F1F1" height="34.1328" rx="12.5" ry="12.5" style="stroke:#181818;stroke-width:0.5;" width="204.5586" x="679.2969" y="192.2656"/><text fill="#000000" font-family="sans-serif" font-size="12" lengthAdjust="spacing" textLength="184.5586" x="689.2969" y="213.8672">Show username validation error</text><polygon fill="#F1F1F1" points="582.853,954.2832,594.853,966.2832,582.853,978.2832,570.853,966.2832,582.853,954.2832" style="stroke:#181818;stroke-width:0.5;"/><ellipse cx="582.853" cy="1009.2832" fill="none" rx="11" ry="11" style="stroke:#222222;stroke-width:1;"/><ellipse cx="582.853" cy="1009.2832" fill="#222222" rx="6" ry="6" style="stroke:#222222;stroke-width:1;"/><line style="stroke:#181818;stroke-width:1;" x1="582.853" x2="582.853" y1="30" y2="50"/><polygon fill="#181818" points="578.853,40,582.853,50,586.853,40,582.853,44" style="stroke:#181818;stroke-width:1;"/><line style="stroke:#181818;stroke-width:1;" x1="582.853" x2="582.853" y1="84.1328" y2="104.1328"/><polygon fill="#181818" points="578.853,94.1328,582.853,104.1328,586.853,94.1328,582.853,98.1328" style="stroke:#181818;stroke-width:1;"/><line style="stroke:#181818;stroke-width:1;" x1="108.5859" x2="108.5859" y1="505.2744" y2="540.2744"/><polygon fill="#181818" points="104.5859,530.2744,108.5859,540.2744,112.5859,530.2744,108.5859,534.2744" style="stroke:#181818;stroke-width:1;"/><line style="stroke:#181818;stroke-width:1;" x1="108.5859" x2="108.5859" y1="446.6641" y2="471.1416"/><polygon fill="#181818" points="104.5859,461.1416,108.5859,471.1416,112.5859,461.1416,108.5859,465.1416" style="stroke:#181818;stroke-width:1;"/><line style="stroke:#181818;stroke-width:1;" x1="195.3462" x2="216.1719" y1="434.6641" y2="434.6641"/><polygon fill="#181818" points="212.1719,512.7744,216.1719,522.7744,220.1719,512.7744,216.1719,516.7744" style="stroke:#181818;stroke-width:1;"/><line style="stroke:#181818;stroke-width:1;" x1="216.1719" x2="216.1719" y1="434.6641" y2="606.4072"/><line style="stroke:#181818;stroke-width:1;" x1="216.1719" x2="120.5859" y1="606.4072" y2="606.4072"/><polygon fill="#181818" points="130.5859,602.4072,120.5859,606.4072,130.5859,610.4072,126.5859,606.4072" style="stroke:#181818;stroke-width:1;"/><line style="stroke:#181818;stroke-width:1;" x1="108.5859" x2="108.5859" y1="574.4072" y2="594.4072"/><polygon fill="#181818" points="104.5859,584.4072,108.5859,594.4072,112.5859,584.4072,108.5859,588.4072" style="stroke:#181818;stroke-width:1;"/><line style="stroke:#181818;stroke-width:1;" x1="108.5859" x2="108.5859" y1="402.6641" y2="422.6641"/><polygon fill="#181818" points="104.5859,412.6641,108.5859,422.6641,112.5859,412.6641,108.5859,416.6641" style="stroke:#181818;stroke-width:1;"/><line style="stroke:#181818;stroke-width:1;" x1="108.5859" x2="108.5859" y1="721.0176" y2="756.0176"/><polygon fill="#181818" points="104.5859,746.0176,108.5859,756.0176,112.5859,746.0176,108.5859,750.0176" style="stroke:#181818;stroke-width:1;"/><line style="stroke:#181818;stroke-width:1;" x1="108.5859" x2="108.5859" y1="662.4072" y2="686.8848"/><polygon fill="#181818" points="104.5859,676.8848,108.5859,686.8848,112.5859,676.8848,108.5859,680.8848" style="stroke:#181818;stroke-width:1;"/><line style="stroke:#181818;stroke-width:1;" x1="177.114" x2="200.9639" y1="650.4072" y2="650.4072"/><polygon fill="#181818" points="196.9639,728.5176,200.9639,738.5176,204.9639,728.5176,200.9639,732.5176" style="stroke:#181818;stroke-width:1;"/><line style="stroke:#181818;stroke-width:1;" x1="200.9639" x2="200.9639" y1="650.4072" y2="822.1504"/><line style="stroke:#181818;stroke-width:1;" x1="200.9639" x2="120.5859" y1="822.1504" y2="822.1504"/><polygon fill="#181818" points="130.5859,818.1504,120.5859,822.1504,130.5859,826.1504,126.5859,822.1504" style="stroke:#181818;stroke-width:1;"/><line style="stroke:#181818;stroke-width:1;" x1="108.5859" x2="108.5859" y1="790.1504" y2="810.1504"/><polygon fill="#181818" points="104.5859,800.1504,108.5859,810.1504,112.5859,800.1504,108.5859,804.1504" style="stroke:#181818;stroke-width:1;"/><line style="stroke:#181818;stroke-width:1;" x1="108.5859" x2="108.5859" y1="618.4072" y2="638.4072"/><polygon fill="#181818" points="104.5859,628.4072,108.5859,638.4072,112.5859,628.4072,108.5859,632.4072" style="stroke:#181818;stroke-width:1;"/><line style="stroke:#181818;stroke-width:1;" x1="108.5859" x2="108.5859" y1="834.1504" y2="854.1504"/><polygon fill="#181818" points="104.5859,844.1504,108.5859,854.1504,112.5859,844.1504,108.5859,848.1504" style="stroke:#181818;stroke-width:1;"/><line style="stroke:#181818;stroke-width:1;" x1="158.6484" x2="108.5859" y1="346.5313" y2="346.5313"/><line style="stroke:#181818;stroke-width:1;" x1="108.5859" x2="108.5859" y1="346.5313" y2="368.5313"/><polygon fill="#181818" points="104.5859,358.5313,108.5859,368.5313,112.5859,358.5313,108.5859,362.5313" style="stroke:#181818;stroke-width:1;"/><line style="stroke:#181818;stroke-width:1;" x1="282.207" x2="332.2695" y1="346.5313" y2="346.5313"/><line style="stroke:#181818;stroke-width:1;" x1="332.2695" x2="332.2695" y1="346.5313" y2="368.5313"/><polygon fill="#181818" points="328.2695,358.5313,332.2695,368.5313,336.2695,358.5313,332.2695,362.5313" style="stroke:#181818;stroke-width:1;"/><line style="stroke:#181818;stroke-width:1;" x1="108.5859" x2="108.5859" y1="888.2832" y2="906.2832"/><line style="stroke:#181818;stroke-width:1;" x1="108.5859" x2="208.4277" y1="906.2832" y2="906.2832"/><polygon fill="#181818" points="198.4277,902.2832,208.4277,906.2832,198.4277,910.2832,202.4277,906.2832" style="stroke:#181818;stroke-width:1;"/><line style="stroke:#181818;stroke-width:1;" x1="332.2695" x2="332.2695" y1="402.6641" y2="906.2832"/><line style="stroke:#181818;stroke-width:1;" x1="332.2695" x2="232.4277" y1="906.2832" y2="906.2832"/><polygon fill="#181818" points="242.4277,902.2832,232.4277,906.2832,242.4277,910.2832,238.4277,906.2832" style="stroke:#181818;stroke-width:1;"/><line style="stroke:#181818;stroke-width:1;" x1="220.4277" x2="220.4277" y1="314.5313" y2="334.5313"/><polygon fill="#181818" points="216.4277,324.5313,220.4277,334.5313,224.4277,324.5313,220.4277,328.5313" style="stroke:#181818;stroke-width:1;"/><line style="stroke:#181818;stroke-width:1;" x1="330.5308" x2="220.4277" y1="258.3984" y2="258.3984"/><line style="stroke:#181818;stroke-width:1;" x1="220.4277" x2="220.4277" y1="258.3984" y2="280.3984"/><polygon fill="#181818" points="216.4277,270.3984,220.4277,280.3984,224.4277,270.3984,220.4277,274.3984" style="stroke:#181818;stroke-width:1;"/><line style="stroke:#181818;stroke-width:1;" x1="437.729" x2="547.832" y1="258.3984" y2="258.3984"/><line style="stroke:#181818;stroke-width:1;" x1="547.832" x2="547.832" y1="258.3984" y2="280.3984"/><polygon fill="#181818" points="543.832,270.3984,547.832,280.3984,551.832,270.3984,547.832,274.3984" style="stroke:#181818;stroke-width:1;"/><line style="stroke:#181818;stroke-width:1;" x1="220.4277" x2="220.4277" y1="918.2832" y2="936.2832"/><line style="stroke:#181818;stroke-width:1;" x1="220.4277" x2="372.1299" y1="936.2832" y2="936.2832"/><polygon fill="#181818" points="362.1299,932.2832,372.1299,936.2832,362.1299,940.2832,366.1299,936.2832" style="stroke:#181818;stroke-width:1;"/><line style="stroke:#181818;stroke-width:1;" x1="547.832" x2="547.832" y1="314.5313" y2="936.2832"/><line style="stroke:#181818;stroke-width:1;" x1="547.832" x2="396.1299" y1="936.2832" y2="936.2832"/><polygon fill="#181818" points="406.1299,932.2832,396.1299,936.2832,406.1299,940.2832,402.1299,936.2832" style="stroke:#181818;stroke-width:1;"/><line style="stroke:#181818;stroke-width:1;" x1="384.1299" x2="384.1299" y1="226.3984" y2="246.3984"/><polygon fill="#181818" points="380.1299,236.3984,384.1299,246.3984,388.1299,236.3984,384.1299,240.3984" style="stroke:#181818;stroke-width:1;"/><line style="stroke:#181818;stroke-width:1;" x1="527.6882" x2="384.1299" y1="170.2656" y2="170.2656"/><line style="stroke:#181818;stroke-width:1;" x1="384.1299" x2="384.1299" y1="170.2656" y2="192.2656"/><polygon fill="#181818" points="380.1299,182.2656,384.1299,192.2656,388.1299,182.2656,384.1299,186.2656" style="stroke:#181818;stroke-width:1;"/><line style="stroke:#181818;stroke-width:1;" x1="638.0178" x2="781.5762" y1="170.2656" y2="170.2656"/><line style="stroke:#181818;stroke-width:1;" x1="781.5762" x2="781.5762" y1="170.2656" y2="192.2656"/><polygon fill="#181818" points="777.5762,182.2656,781.5762,192.2656,785.5762,182.2656,781.5762,186.2656" style="stroke:#181818;stroke-width:1;"/><line style="stroke:#181818;stroke-width:1;" x1="384.1299" x2="384.1299" y1="948.2832" y2="966.2832"/><line style="stroke:#181818;stroke-width:1;" x1="384.1299" x2="570.853" y1="966.2832" y2="966.2832"/><polygon fill="#181818" points="560.853,962.2832,570.853,966.2832,560.853,970.2832,564.853,966.2832" style="stroke:#181818;stroke-width:1;"/><line style="stroke:#181818;stroke-width:1;" x1="781.5762" x2="781.5762" y1="226.3984" y2="966.2832"/><line style="stroke:#181818;stroke-width:1;" x1="781.5762" x2="594.853" y1="966.2832" y2="966.2832"/><polygon fill="#181818" points="604.853,962.2832,594.853,966.2832,604.853,970.2832,600.853,966.2832" style="stroke:#181818;stroke-width:1;"/><line style="stroke:#181818;stroke-width:1;" x1="582.853" x2="582.853" y1="138.2656" y2="158.2656"/><polygon fill="#181818" points="578.853,148.2656,582.853,158.2656,586.853,148.2656,582.853,152.2656" style="stroke:#181818;stroke-width:1;"/><line style="stroke:#181818;stroke-width:1;" x1="582.853" x2="582.853" y1="978.2832" y2="998.2832"/><polygon fill="#181818" points="578.853,988.2832,582.853,998.2832,586.853,988.2832,582.853,992.2832" style="stroke:#181818;stroke-width:1;"/><!--SRC=[VP8zSeGm38LxJg6IlG8KAP8YcJGxsI6zOmHu5cmYss6uVVo3itYNIIkzxqbwjZQCJ54r6WcuafteBQ46Pis0qWZEZ52oBgfFDegM6GJhb99D29sYYPcw41sKJIh-UDdJ2JmDvOhwL03Su9bflIXgWV3R2iB9pT2ratYJSseUcZYRvm7v5Pgt5w-mM8Tg6EzAGaOEYCaU7sdFf_lWSdbzE36AlDqxhdTTGCc-HcoFR9tncHH7hOFjrS4foCnvduCNfVnY3sKhkjqE7qePO3pO_Z_yTXLv9aMy6tiPr08QkILXLbWOII7xey5LCuVrilr16qLRs3XgX5AglqY3zVOY_hIG5P6YJR-Pvroavkovxz08xh48sUoZPL14tBBpBm00]--></g></svg>