<svg xmlns="http://www.w3.org/2000/svg" xmlns:xlink="http://www.w3.org/1999/xlink" contentStyleType="text/css" data-diagram-type="STATE" height="1149px" preserveAspectRatio="none" style="width:625px;height:1149px;background:#FFFFFF;" version="1.1" viewBox="0 0 625 1149" width="625px" zoomAndPan="magnify"><defs/><g><!--cluster SSHEnabled--><g class="cluster" data-entity="SSHEnabled" data-source-line="5" data-uid="ent0002" id="cluster_SSHEnabled"><path d="M19.5,397.49 L522.5,397.49 A12.5,12.5 0 0 1 535,409.99 L535,418.9783 L7,418.9783 L7,409.99 A12.5,12.5 0 0 1 19.5,397.49" fill="#F1F1F1"/><rect fill="none" height="641.49" rx="12.5" ry="12.5" style="stroke:#181818;stroke-width:0.5;" width="528" x="7" y="397.49"/><line style="stroke:#181818;stroke-width:0.5;" x1="7" x2="535" y1="418.9783" y2="418.9783"/><text fill="#000000" font-family="sans-serif" font-size="14" lengthAdjust="spacing" textLength="78.8457" x="231.5771" y="415.0252">SSHEnabled</text></g><path d="M43.09,648.49 L148.9074,648.49 A12.5,12.5 0 0 1 161.4074,660.99 L161.4074,674.9783 L30.59,674.9783 L30.59,660.99 A12.5,12.5 0 0 1 43.09,648.49" fill="#F1F1F1"/><rect fill="none" height="239.4883" rx="12.5" ry="12.5" style="stroke:#181818;stroke-width:0.5;" width="130.8174" x="30.59" y="648.49"/><line style="stroke:#181818;stroke-width:0.5;" x1="30.59" x2="161.4074" y1="674.9783" y2="674.9783"/><text fill="#000000" font-family="sans-serif" font-size="14" lengthAdjust="spacing" textLength="110.8174" x="40.59" y="667.0252">AdvancedConfig</text><ellipse cx="90.68" cy="695.9783" fill="#222222" rx="10" ry="10" style="stroke:#222222;stroke-width:1;"/><g id="SSHEnabled.AdvancedConfig.KeyConfig"><rect fill="#F1F1F1" height="50" rx="12.5" ry="12.5" style="stroke:#181818;stroke-width:0.5;" width="89.1523" x="46.11" y="741.9783"/><line style="stroke:#181818;stroke-width:0.5;" x1="46.11" x2="135.2623" y1="768.4666" y2="768.4666"/><text fill="#000000" font-family="sans-serif" font-size="14" lengthAdjust="spacing" textLength="69.1523" x="56.11" y="760.5134">KeyConfig</text></g><g id="SSHEnabled.AdvancedConfig.RootConfig"><rect fill="#F1F1F1" height="50" rx="12.5" ry="12.5" style="stroke:#181818;stroke-width:0.5;" width="96.1865" x="42.59" y="827.9783"/><line style="stroke:#181818;stroke-width:0.5;" x1="42.59" x2="138.7765" y1="854.4666" y2="854.4666"/><text fill="#000000" font-family="sans-serif" font-size="14" lengthAdjust="spacing" textLength="76.1865" x="52.59" y="846.5134">RootConfig</text></g><!--link *start*AdvancedConfig to KeyConfig--><g class="link" data-entity-1=".start.AdvancedConfig" data-entity-2="KeyConfig" data-source-line="18" data-uid="lnk24" id="link_.start.AdvancedConfig_KeyConfig"><path d="M90.68,706.2883 C90.68,715.3283 90.68,723.4683 90.68,735.7083" fill="none" id="*start*AdvancedConfig-to-KeyConfig" style="stroke:#181818;stroke-width:1;"/><polygon fill="#181818" points="90.68,741.7083,94.68,732.7083,90.68,736.7083,86.68,732.7083,90.68,741.7083" style="stroke:#181818;stroke-width:1;"/></g><!--link KeyConfig to RootConfig--><g class="link" data-entity-1="KeyConfig" data-entity-2="RootConfig" data-source-line="19" data-uid="lnk26" id="link_KeyConfig_RootConfig"><path d="M90.68,792.2783 C90.68,803.4183 90.68,810.5983 90.68,821.7383" fill="none" id="KeyConfig-to-RootConfig" style="stroke:#181818;stroke-width:1;"/><polygon fill="#181818" points="90.68,827.7383,94.68,818.7383,90.68,822.7383,86.68,818.7383,90.68,827.7383" style="stroke:#181818;stroke-width:1;"/></g><ellipse cx="254" cy="450.49" fill="#222222" rx="10" ry="10" style="stroke:#222222;stroke-width:1;"/><g id="SSHEnabled.BasicConfig"><rect fill="#F1F1F1" height="50" rx="12.5" ry="12.5" style="stroke:#181818;stroke-width:0.5;" width="99.0371" x="204.48" y="521.49"/><line style="stroke:#181818;stroke-width:0.5;" x1="204.48" x2="303.5171" y1="547.9783" y2="547.9783"/><text fill="#000000" font-family="sans-serif" font-size="14" lengthAdjust="spacing" textLength="79.0371" x="214.48" y="540.0252">BasicConfig</text></g><g id="SSHEnabled.PortValidation"><rect fill="#F1F1F1" height="50" rx="12.5" ry="12.5" style="stroke:#181818;stroke-width:0.5;" width="115.3955" x="196.3" y="743.24"/><line style="stroke:#181818;stroke-width:0.5;" x1="196.3" x2="311.6955" y1="769.7283" y2="769.7283"/><text fill="#000000" font-family="sans-serif" font-size="14" lengthAdjust="spacing" textLength="95.3955" x="206.3" y="761.7752">PortValidation</text></g><g id="SSHEnabled.UserConfig"><rect fill="#F1F1F1" height="50" rx="12.5" ry="12.5" style="stroke:#181818;stroke-width:0.5;" width="95.2637" x="346.37" y="743.24"/><line style="stroke:#181818;stroke-width:0.5;" x1="346.37" x2="441.6337" y1="769.7283" y2="769.7283"/><text fill="#000000" font-family="sans-serif" font-size="14" lengthAdjust="spacing" textLength="75.2637" x="356.37" y="761.7752">UserConfig</text></g><g id="SSHEnabled.ValidPorts"><rect fill="#F1F1F1" height="50" rx="12.5" ry="12.5" style="stroke:#181818;stroke-width:0.5;" width="88.2295" x="30.89" y="964.98"/><line style="stroke:#181818;stroke-width:0.5;" x1="30.89" x2="119.1195" y1="991.4683" y2="991.4683"/><text fill="#000000" font-family="sans-serif" font-size="14" lengthAdjust="spacing" textLength="68.2295" x="40.89" y="983.5152">ValidPorts</text></g><g id="SSHEnabled.InvalidPorts"><rect fill="#F1F1F1" height="50" rx="12.5" ry="12.5" style="stroke:#181818;stroke-width:0.5;" width="99.0439" x="154.48" y="964.98"/><line style="stroke:#181818;stroke-width:0.5;" x1="154.48" x2="253.5239" y1="991.4683" y2="991.4683"/><text fill="#000000" font-family="sans-serif" font-size="14" lengthAdjust="spacing" textLength="79.0439" x="164.48" y="983.5152">InvalidPorts</text></g><g id="SSHEnabled.ValidUser"><rect fill="#F1F1F1" height="50" rx="12.5" ry="12.5" style="stroke:#181818;stroke-width:0.5;" width="84.1553" x="288.92" y="964.98"/><line style="stroke:#181818;stroke-width:0.5;" x1="288.92" x2="373.0753" y1="991.4683" y2="991.4683"/><text fill="#000000" font-family="sans-serif" font-size="14" lengthAdjust="spacing" textLength="64.1553" x="298.92" y="983.5152">ValidUser</text></g><g id="SSHEnabled.InvalidUser"><rect fill="#F1F1F1" height="50" rx="12.5" ry="12.5" style="stroke:#181818;stroke-width:0.5;" width="94.9697" x="408.52" y="964.98"/><line style="stroke:#181818;stroke-width:0.5;" x1="408.52" x2="503.4897" y1="991.4683" y2="991.4683"/><text fill="#000000" font-family="sans-serif" font-size="14" lengthAdjust="spacing" textLength="74.9697" x="418.52" y="983.5152">InvalidUser</text></g><path d="M458.51,87 L593.4963,87 A12.5,12.5 0 0 1 605.9963,99.5 L605.9963,113.4883 L446.01,113.4883 L446.01,99.5 A12.5,12.5 0 0 1 458.51,87" fill="#F1F1F1"/><rect fill="none" height="239.4883" rx="12.5" ry="12.5" style="stroke:#181818;stroke-width:0.5;" width="159.9863" x="446.01" y="87"/><line style="stroke:#181818;stroke-width:0.5;" x1="446.01" x2="605.9963" y1="113.4883" y2="113.4883"/><text fill="#000000" font-family="sans-serif" font-size="14" lengthAdjust="spacing" textLength="84.2393" x="483.8835" y="105.5352">SSHDisabled</text><ellipse cx="527.5" cy="134.4883" fill="#222222" rx="10" ry="10" style="stroke:#222222;stroke-width:1;"/><g id="SSHDisabled.ShowWarning"><rect fill="#F1F1F1" height="50" rx="12.5" ry="12.5" style="stroke:#181818;stroke-width:0.5;" width="111.2051" x="471.9" y="180.4883"/><line style="stroke:#181818;stroke-width:0.5;" x1="471.9" x2="583.1051" y1="206.9766" y2="206.9766"/><text fill="#000000" font-family="sans-serif" font-size="14" lengthAdjust="spacing" textLength="91.2051" x="481.9" y="199.0234">ShowWarning</text></g><g id="SSHDisabled.HideConfigPanels"><rect fill="#F1F1F1" height="50" rx="12.5" ry="12.5" style="stroke:#181818;stroke-width:0.5;" width="138.9863" x="458.01" y="266.4883"/><line style="stroke:#181818;stroke-width:0.5;" x1="458.01" x2="596.9963" y1="292.9766" y2="292.9766"/><text fill="#000000" font-family="sans-serif" font-size="14" lengthAdjust="spacing" textLength="118.9863" x="468.01" y="285.0234">HideConfigPanels</text></g><!--link *start*SSHDisabled to ShowWarning--><g class="link" data-entity-1=".start.SSHDisabled" data-entity-2="ShowWarning" data-source-line="24" data-uid="lnk29" id="link_.start.SSHDisabled_ShowWarning"><path d="M527.5,144.7983 C527.5,153.8383 527.5,161.9783 527.5,174.2183" fill="none" id="*start*SSHDisabled-to-ShowWarning" style="stroke:#181818;stroke-width:1;"/><polygon fill="#181818" points="527.5,180.2183,531.5,171.2183,527.5,175.2183,523.5,171.2183,527.5,180.2183" style="stroke:#181818;stroke-width:1;"/></g><!--link ShowWarning to HideConfigPanels--><g class="link" data-entity-1="ShowWarning" data-entity-2="HideConfigPanels" data-source-line="25" data-uid="lnk31" id="link_ShowWarning_HideConfigPanels"><path d="M527.5,230.7883 C527.5,241.9283 527.5,249.1083 527.5,260.2483" fill="none" id="ShowWarning-to-HideConfigPanels" style="stroke:#181818;stroke-width:1;"/><polygon fill="#181818" points="527.5,266.2483,531.5,257.2483,527.5,261.2483,523.5,257.2483,527.5,266.2483" style="stroke:#181818;stroke-width:1;"/></g><ellipse cx="526" cy="16" fill="#222222" rx="10" ry="10" style="stroke:#222222;stroke-width:1;"/><g id="EnableNextButton"><rect fill="#F1F1F1" height="50" rx="12.5" ry="12.5" style="stroke:#181818;stroke-width:0.5;" width="141.1328" x="72.43" y="1093.98"/><line style="stroke:#181818;stroke-width:0.5;" x1="72.43" x2="213.5628" y1="1120.4683" y2="1120.4683"/><text fill="#000000" font-family="sans-serif" font-size="14" lengthAdjust="spacing" textLength="121.1328" x="82.43" y="1112.5152">EnableNextButton</text></g><g id="DisableNextButton"><rect fill="#F1F1F1" height="50" rx="12.5" ry="12.5" style="stroke:#181818;stroke-width:0.5;" width="146.5264" x="309.74" y="1093.98"/><line style="stroke:#181818;stroke-width:0.5;" x1="309.74" x2="456.2664" y1="1120.4683" y2="1120.4683"/><text fill="#000000" font-family="sans-serif" font-size="14" lengthAdjust="spacing" textLength="126.5264" x="319.74" y="1112.5152">DisableNextButton</text></g><!--link *start* to SSHDisabled--><g class="link" data-entity-1=".start." data-entity-2="SSHDisabled" data-source-line="1" data-uid="lnk3" id="link_.start._SSHDisabled"><path d="M526,26.36 C526,38.56 526,55.35 526,80.69" fill="none" id="*start*-to-SSHDisabled" style="stroke:#181818;stroke-width:1;"/><polygon fill="#181818" points="526,86.69,530,77.69,526,81.69,522,77.69,526,86.69" style="stroke:#181818;stroke-width:1;"/></g><!--link SSHDisabled to SSHEnabled--><g class="link" data-entity-1="SSHDisabled" data-entity-2="SSHEnabled" data-source-line="2" data-uid="lnk4" id="link_SSHDisabled_SSHEnabled"><path d="M475.2,326.77 C472.32,336.7 469.84,346.69 468,356.49 C466.6,363.92 463.09,367.75 468,373.49 C482.91,390.93 503.09,364.96 519,381.49 C521.555,384.145 523.6086,387.1542 525.2447,390.3929 C526.0628,392.0123 526.7765,393.689 527.3964,395.4075 C527.5514,395.8372 527.7004,396.2694 527.8438,396.704 C527.9155,396.9213 526.1819,391.4168 526.2508,391.6353" fill="none" id="SSHDisabled-to-SSHEnabled" style="stroke:#181818;stroke-width:1;"/><polygon fill="#181818" points="528.0547,397.3577,529.1637,387.5714,526.5514,392.589,521.5339,389.9767,528.0547,397.3577" style="stroke:#181818;stroke-width:1;"/><text fill="#000000" font-family="sans-serif" font-size="13" lengthAdjust="spacing" textLength="69.4941" x="469" y="370.0584">enable_ssh</text></g><!--link SSHEnabled to SSHDisabled--><g class="link" data-entity-1="SSHEnabled" data-entity-2="SSHDisabled" data-source-line="3" data-uid="lnk5" id="link_SSHEnabled_SSHDisabled"><path d="M535.0604,418.4405 C535.0878,418.3216 535.1153,418.2024 535.1427,418.0831 C535.1976,417.8444 535.2525,417.6049 535.3074,417.3646 C535.7466,415.4424 536.1864,413.471 536.6221,411.4612 C537.4936,407.4416 538.3485,403.2686 539.1492,399.0291 C540.7506,390.55 542.135,381.805 543,373.49 C544.57,358.39 545.042,348.5047 544.382,332.8047" fill="none" id="SSHEnabled-to-SSHDisabled" style="stroke:#181818;stroke-width:1;"/><polygon fill="#181818" points="544.13,326.81,540.5115,335.9701,544.34,331.8056,548.5045,335.6341,544.13,326.81" style="stroke:#181818;stroke-width:1;"/><text fill="#000000" font-family="sans-serif" font-size="13" lengthAdjust="spacing" textLength="72.7505" x="545.04" y="370.0584">disable_ssh</text></g><!--link *start*SSHEnabled to BasicConfig--><g class="link" data-entity-1=".start.SSHEnabled" data-entity-2="BasicConfig" data-source-line="6" data-uid="lnk8" id="link_.start.SSHEnabled_BasicConfig"><path d="M254,460.85 C254,474.78 254,495.45 254,515.14" fill="none" id="*start*SSHEnabled-to-BasicConfig" style="stroke:#181818;stroke-width:1;"/><polygon fill="#181818" points="254,521.14,258,512.14,254,516.14,250,512.14,254,521.14" style="stroke:#181818;stroke-width:1;"/></g><!--link BasicConfig to PortValidation--><g class="link" data-entity-1="BasicConfig" data-entity-2="PortValidation" data-source-line="7" data-uid="lnk10" id="link_BasicConfig_PortValidation"><path d="M254,571.85 C254,614.09 254,694.46 254,736.77" fill="none" id="BasicConfig-to-PortValidation" style="stroke:#181818;stroke-width:1;"/><polygon fill="#181818" points="254,742.77,258,733.77,254,737.77,250,733.77,254,742.77" style="stroke:#181818;stroke-width:1;"/><text fill="#000000" font-family="sans-serif" font-size="13" lengthAdjust="spacing" textLength="86.3535" x="255" y="615.0584">port_changed</text></g><!--link BasicConfig to UserConfig--><g class="link" data-entity-1="BasicConfig" data-entity-2="UserConfig" data-source-line="8" data-uid="lnk12" id="link_BasicConfig_UserConfig"><path d="M303.89,566.51 C320.34,574.98 337.38,586.5 349,601.49 C381.79,643.79 390.3049,702.2744 392.7149,737.0244" fill="none" id="BasicConfig-to-UserConfig" style="stroke:#181818;stroke-width:1;"/><polygon fill="#181818" points="393.13,743.01,396.4977,733.7548,392.7841,738.022,388.5169,734.3083,393.13,743.01" style="stroke:#181818;stroke-width:1;"/><text fill="#000000" font-family="sans-serif" font-size="13" lengthAdjust="spacing" textLength="87.2612" x="360.32" y="615.0584">user_changed</text></g><!--link BasicConfig to AdvancedConfig--><g class="link" data-entity-1="BasicConfig" data-entity-2="AdvancedConfig" data-source-line="9" data-uid="lnk13" id="link_BasicConfig_AdvancedConfig"><path d="M204.21,557.3 C178.06,564.99 147.65,578.42 129,601.49 C118.03,615.07 112.1624,625.564 106.8724,642.464" fill="none" id="BasicConfig-to-AdvancedConfig" style="stroke:#181818;stroke-width:1;"/><polygon fill="#181818" points="105.08,648.19,111.5859,640.7958,106.5736,643.4183,103.9512,638.406,105.08,648.19" style="stroke:#181818;stroke-width:1;"/><text fill="#000000" font-family="sans-serif" font-size="13" lengthAdjust="spacing" textLength="115.7749" x="130" y="615.0584">advanced_enabled</text></g><!--link PortValidation to ValidPorts--><g class="link" data-entity-1="PortValidation" data-entity-2="ValidPorts" data-source-line="11" data-uid="lnk15" id="link_PortValidation_ValidPorts"><path d="M243.71,793.46 C231.55,819.66 209.09,861.27 179,887.98 C155.81,908.57 138.78,896.94 116,917.98 C101.99,930.92 93.9147,944.3178 87.0147,959.3378" fill="none" id="PortValidation-to-ValidPorts" style="stroke:#181818;stroke-width:1;"/><polygon fill="#181818" points="84.51,964.79,91.9018,958.2815,86.5972,960.2465,84.6322,954.9419,84.51,964.79" style="stroke:#181818;stroke-width:1;"/><text fill="#000000" font-family="sans-serif" font-size="13" lengthAdjust="spacing" textLength="69.0815" x="117" y="931.5484">ports_valid</text></g><!--link PortValidation to InvalidPorts--><g class="link" data-entity-1="PortValidation" data-entity-2="InvalidPorts" data-source-line="12" data-uid="lnk17" id="link_PortValidation_InvalidPorts"><path d="M241.2,793.66 C226.9,822.46 204.61,872.22 196,917.98 C193.11,933.34 193.8563,944.89 196.5263,958.64" fill="none" id="PortValidation-to-InvalidPorts" style="stroke:#181818;stroke-width:1;"/><polygon fill="#181818" points="197.67,964.53,199.8811,954.9325,196.7169,959.6217,192.0278,956.4575,197.67,964.53" style="stroke:#181818;stroke-width:1;"/><text fill="#000000" font-family="sans-serif" font-size="13" lengthAdjust="spacing" textLength="80.9072" x="197" y="931.5484">ports_invalid</text></g><!--link UserConfig to ValidUser--><g class="link" data-entity-1="UserConfig" data-entity-2="ValidUser" data-source-line="14" data-uid="lnk19" id="link_UserConfig_ValidUser"><path d="M387.02,793.59 C374.91,835.83 351.8048,916.4327 339.6648,958.7427" fill="none" id="UserConfig-to-ValidUser" style="stroke:#181818;stroke-width:1;"/><polygon fill="#181818" points="338.01,964.51,344.3371,956.9623,339.389,959.7039,336.6474,954.7559,338.01,964.51" style="stroke:#181818;stroke-width:1;"/><text fill="#000000" font-family="sans-serif" font-size="13" lengthAdjust="spacing" textLength="63.3623" x="350.62" y="931.5484">user_valid</text></g><!--link UserConfig to InvalidUser--><g class="link" data-entity-1="UserConfig" data-entity-2="InvalidUser" data-source-line="15" data-uid="lnk21" id="link_UserConfig_InvalidUser"><path d="M400.87,793.59 C412.79,835.83 435.5304,916.4255 447.4704,958.7355" fill="none" id="UserConfig-to-InvalidUser" style="stroke:#181818;stroke-width:1;"/><polygon fill="#181818" points="449.1,964.51,450.5053,954.7619,447.742,959.6979,442.806,956.9347,449.1,964.51" style="stroke:#181818;stroke-width:1;"/><text fill="#000000" font-family="sans-serif" font-size="13" lengthAdjust="spacing" textLength="75.188" x="440.37" y="931.5484">user_invalid</text></g><!--link ValidPorts to EnableNextButton--><g class="link" data-entity-1="ValidPorts" data-entity-2="EnableNextButton" data-source-line="28" data-uid="lnk33" id="link_ValidPorts_EnableNextButton"><path d="M88.11,1015.47 C100.15,1037.96 115.068,1065.8104 127.098,1088.2804" fill="none" id="ValidPorts-to-EnableNextButton" style="stroke:#181818;stroke-width:1;"/><polygon fill="#181818" points="129.93,1093.57,129.2085,1083.7476,127.57,1089.162,122.1557,1087.5235,129.93,1093.57" style="stroke:#181818;stroke-width:1;"/></g><!--link InvalidPorts to DisableNextButton--><g class="link" data-entity-1="InvalidPorts" data-entity-2="DisableNextButton" data-source-line="29" data-uid="lnk35" id="link_InvalidPorts_DisableNextButton"><path d="M226.59,1015.32 C239.01,1027.97 255.1,1043.2 271,1054.98 C290.36,1069.32 308.0325,1079.934 328.1125,1090.704" fill="none" id="InvalidPorts-to-DisableNextButton" style="stroke:#181818;stroke-width:1;"/><polygon fill="#181818" points="333.4,1093.54,327.3594,1085.7611,328.9938,1091.1767,323.5782,1092.811,333.4,1093.54" style="stroke:#181818;stroke-width:1;"/></g><!--link ValidUser to EnableNextButton--><g class="link" data-entity-1="ValidUser" data-entity-2="EnableNextButton" data-source-line="30" data-uid="lnk36" id="link_ValidUser_EnableNextButton"><path d="M311.96,1015.2 C300.96,1028.12 286.3,1043.65 271,1054.98 C250.6,1070.09 231.4615,1080.6721 209.3115,1090.9621" fill="none" id="ValidUser-to-EnableNextButton" style="stroke:#181818;stroke-width:1;"/><polygon fill="#181818" points="203.87,1093.49,213.7175,1093.3258,208.4046,1091.3834,210.347,1086.0705,203.87,1093.49" style="stroke:#181818;stroke-width:1;"/></g><!--link InvalidUser to DisableNextButton--><g class="link" data-entity-1="InvalidUser" data-entity-2="DisableNextButton" data-source-line="31" data-uid="lnk37" id="link_InvalidUser_DisableNextButton"><path d="M441.92,1015.47 C429,1037.96 412.929,1065.8975 400.019,1088.3675" fill="none" id="InvalidUser-to-DisableNextButton" style="stroke:#181818;stroke-width:1;"/><polygon fill="#181818" points="397.03,1093.57,404.9819,1087.759,399.5209,1089.2346,398.0453,1083.7736,397.03,1093.57" style="stroke:#181818;stroke-width:1;"/></g><!--SRC=[VL91QiCm4Bph5JeNye4S2arQI2cK4DFq48hPMceiCAjYAMvBoT-hbMHxuvY23fhPsT5gfCFDcrmiRcLHREwDW_T6Ay7sVUq14rnA7NUbSxLW_CGYw5JQHg5m7hpcFhz2oaC-UWNEL6kB7-OOM8PYTMjRluV6AF36OZ3-34HPrO37CEgr_iNfDiEbF0NmZ_PETO2LLeCUCb6cMr9FM9CHg3D2ubsUo9KTKVFgH-okzGRxZh3Or8CzSVqTUkb4busvyi8svJwv9cK_fl-aVuRivOXYRMUj7ufdSMOFERmqVycYjb-lqA91Qc0eLZT6wUIs1TID8p-M8qdIztZMttvryjwYk4YE5FbS9XcpcdC8CV2GPYt-0000]--></g></svg>