<svg xmlns="http://www.w3.org/2000/svg" xmlns:xlink="http://www.w3.org/1999/xlink" contentStyleType="text/css" data-diagram-type="DESCRIPTION" height="569px" preserveAspectRatio="none" style="width:663px;height:569px;background:#FFFFFF;" version="1.1" viewBox="0 0 663 569" width="663px" zoomAndPan="magnify"><defs/><g><!--cluster SSH Configuration Screen--><g class="cluster" data-entity="SSH Configuration Screen" data-source-line="5" data-uid="ent0004" id="cluster_SSH Configuration Screen"><rect fill="none" height="465" rx="2.5" ry="2.5" style="stroke:#181818;stroke-width:1;" width="574.5" x="83.37" y="7"/><text fill="#000000" font-family="sans-serif" font-size="14" font-weight="bold" lengthAdjust="spacing" textLength="183.415" x="278.9125" y="22.5352">SSH Configuration Screen</text></g><!--entity UC1--><g class="entity" data-entity="UC1" data-source-line="6" data-uid="ent0005" id="entity_UC1"><ellipse cx="210.4077" cy="133.0015" fill="#F1F1F1" rx="80.7577" ry="18.5515" style="stroke:#181818;stroke-width:0.5;"/><text fill="#000000" font-family="sans-serif" font-size="14" lengthAdjust="spacing" textLength="131.8652" x="144.4751" y="137.7457">Enable/Disable SSH</text></g><!--entity UC2--><g class="entity" data-entity="UC2" data-source-line="7" data-uid="ent0006" id="entity_UC2"><ellipse cx="210.4051" cy="60.995" fill="#F1F1F1" rx="82.4251" ry="18.885" style="stroke:#181818;stroke-width:0.5;"/><text fill="#000000" font-family="sans-serif" font-size="14" lengthAdjust="spacing" textLength="135.7822" x="142.514" y="65.7392">Configure SSH Ports</text></g><!--entity UC3--><g class="entity" data-entity="UC3" data-source-line="8" data-uid="ent0007" id="entity_UC3"><ellipse cx="210.4118" cy="208.0024" fill="#F1F1F1" rx="95.8118" ry="21.5624" style="stroke:#181818;stroke-width:0.5;"/><text fill="#000000" font-family="sans-serif" font-size="14" lengthAdjust="spacing" textLength="166.3115" x="127.256" y="212.7465">Set SSH User Credentials</text></g><!--entity UC4--><g class="entity" data-entity="UC4" data-source-line="9" data-uid="ent0008" id="entity_UC4"><ellipse cx="210.4052" cy="288.999" fill="#F1F1F1" rx="111.0452" ry="24.609" style="stroke:#181818;stroke-width:0.5;"/><text fill="#000000" font-family="sans-serif" font-size="14" lengthAdjust="spacing" textLength="199.7461" x="110.5322" y="293.7432">Configure Key Authentication</text></g><!--entity UC5--><g class="entity" data-entity="UC5" data-source-line="10" data-uid="ent0009" id="entity_UC5"><ellipse cx="210.4081" cy="365.0016" fill="#F1F1F1" rx="70.4581" ry="16.4916" style="stroke:#181818;stroke-width:0.5;"/><text fill="#000000" font-family="sans-serif" font-size="14" lengthAdjust="spacing" textLength="106.7979" x="157.0091" y="369.7458">Set Root Access</text></g><!--entity UC6--><g class="entity" data-entity="UC6" data-source-line="11" data-uid="ent0010" id="entity_UC6"><ellipse cx="542.1599" cy="61.998" fill="#F1F1F1" rx="89.5899" ry="20.318" style="stroke:#181818;stroke-width:0.5;"/><text fill="#000000" font-family="sans-serif" font-size="14" lengthAdjust="spacing" textLength="152.2979" x="466.0109" y="66.7421">Validate Port Numbers</text></g><!--entity UC7--><g class="entity" data-entity="UC7" data-source-line="12" data-uid="ent0011" id="entity_UC7"><ellipse cx="542.1647" cy="208.0009" fill="#F1F1F1" rx="99.7047" ry="22.3409" style="stroke:#181818;stroke-width:0.5;"/><text fill="#000000" font-family="sans-serif" font-size="14" lengthAdjust="spacing" textLength="174.959" x="454.6853" y="212.7451">Validate Password Format</text></g><!--entity UC8--><g class="entity" data-entity="UC8" data-source-line="13" data-uid="ent0012" id="entity_UC8"><ellipse cx="210.4089" cy="436.0038" fill="#F1F1F1" rx="87.4189" ry="19.8838" style="stroke:#181818;stroke-width:0.5;"/><text fill="#000000" font-family="sans-serif" font-size="14" lengthAdjust="spacing" textLength="147.3418" x="136.738" y="440.7479">Navigate to Next Step</text></g><!--entity user--><g class="entity" data-entity="user" data-source-line="2" data-uid="ent0002" id="entity_user"><ellipse cx="21.1826" cy="229.25" fill="#F1F1F1" rx="8" ry="8" style="stroke:#181818;stroke-width:0.5;"/><path d="M21.1826,237.25 L21.1826,264.25 M8.1826,245.25 L34.1826,245.25 M21.1826,264.25 L8.1826,279.25 M21.1826,264.25 L34.1826,279.25" fill="none" style="stroke:#181818;stroke-width:0.5;"/><text fill="#000000" font-family="sans-serif" font-size="14" lengthAdjust="spacing" textLength="30.3652" x="6" y="294.2852">User</text></g><!--entity config--><g class="entity" data-entity="config" data-source-line="3" data-uid="ent0003" id="entity_config"><ellipse cx="542.1561" cy="496.25" fill="#F1F1F1" rx="8" ry="8" style="stroke:#181818;stroke-width:0.5;"/><path d="M542.1561,504.25 L542.1561,531.25 M529.1561,512.25 L555.1561,512.25 M542.1561,531.25 L529.1561,546.25 M542.1561,531.25 L555.1561,546.25" fill="none" style="stroke:#181818;stroke-width:0.5;"/><text fill="#000000" font-family="sans-serif" font-size="14" lengthAdjust="spacing" textLength="132.9521" x="475.68" y="561.2852">Configuration Store</text></g><!--link user to UC1--><g class="link" data-entity-1="user" data-entity-2="UC1" data-source-line="16" data-uid="lnk13" id="link_user_UC1"><path d="M36.8,220.48 C45.47,202.43 58.17,182.06 75.37,169 C93.4,155.29 110.4286,148.2122 132.1486,142.9522" fill="none" id="user-to-UC1" style="stroke:#181818;stroke-width:1;"/><polygon fill="#181818" points="137.98,141.54,128.2914,139.7707,133.1205,142.7168,130.1743,147.5459,137.98,141.54" style="stroke:#181818;stroke-width:1;"/></g><!--link user to UC2--><g class="link" data-entity-1="user" data-entity-2="UC2" data-source-line="17" data-uid="lnk14" id="link_user_UC2"><path d="M24.62,220.44 C29.02,183.67 41.29,129.25 75.37,97 C91.11,82.09 106.5396,74.6672 127.4696,69.4272" fill="none" id="user-to-UC2" style="stroke:#181818;stroke-width:1;"/><polygon fill="#181818" points="133.29,67.97,123.588,66.2755,128.4397,69.1843,125.5309,74.036,133.29,67.97" style="stroke:#181818;stroke-width:1;"/></g><!--link user to UC3--><g class="link" data-entity-1="user" data-entity-2="UC3" data-source-line="18" data-uid="lnk15" id="link_user_UC3"><path d="M36.65,251.96 C45.15,248.04 56.2,243.29 66.37,240 C88.52,232.82 107.249,227.9739 129.709,223.0539" fill="none" id="user-to-UC3" style="stroke:#181818;stroke-width:1;"/><polygon fill="#181818" points="135.57,221.77,125.9225,219.7885,130.6858,222.8399,127.6344,227.6032,135.57,221.77" style="stroke:#181818;stroke-width:1;"/></g><!--link user to UC4--><g class="link" data-entity-1="user" data-entity-2="UC4" data-source-line="19" data-uid="lnk16" id="link_user_UC4"><path d="M36.56,261.3 C54.72,264.21 81.5455,268.511 113.6955,273.661" fill="none" id="user-to-UC4" style="stroke:#181818;stroke-width:1;"/><polygon fill="#181818" points="119.62,274.61,111.366,269.2368,114.6829,273.8191,110.1006,277.1361,119.62,274.61" style="stroke:#181818;stroke-width:1;"/></g><!--link user to UC5--><g class="link" data-entity-1="user" data-entity-2="UC5" data-source-line="20" data-uid="lnk17" id="link_user_UC5"><path d="M36.82,287.39 C45.97,302.46 59.11,320.08 75.37,331 C96.19,344.99 116.4721,352.0156 140.1421,356.8656" fill="none" id="user-to-UC5" style="stroke:#181818;stroke-width:1;"/><polygon fill="#181818" points="146.02,358.07,138.0061,352.3448,141.1218,357.0663,136.4003,360.182,146.02,358.07" style="stroke:#181818;stroke-width:1;"/></g><!--link user to UC8--><g class="link" data-entity-1="user" data-entity-2="UC8" data-source-line="21" data-uid="lnk18" id="link_user_UC8"><path d="M27.15,297.62 C33.22,329.19 46.53,372.74 75.37,399 C90.81,413.05 105.3294,420.2686 125.4494,425.7286" fill="none" id="user-to-UC8" style="stroke:#181818;stroke-width:1;"/><polygon fill="#181818" points="131.24,427.3,123.6017,421.0825,126.4145,425.9905,121.5065,428.8033,131.24,427.3" style="stroke:#181818;stroke-width:1;"/></g><!--link UC2 to UC6--><g class="link" data-entity-1="UC2" data-entity-2="UC6" data-source-line="22" data-uid="lnk19" id="link_UC2_UC6"><path d="M292.92,61.24 C341.27,61.39 396.59,61.5619 446.2,61.7119" fill="none" id="UC2-to-UC6" style="stroke:#181818;stroke-width:1;"/><polygon fill="#181818" points="452.2,61.73,443.2121,57.7028,447.2,61.7149,443.1879,65.7028,452.2,61.73" style="stroke:#181818;stroke-width:1;"/><text fill="#000000" font-family="sans-serif" font-size="13" lengthAdjust="spacing" textLength="59.3569" x="352.46" y="58.0084">&#171;include&#187;</text></g><!--link UC3 to UC7--><g class="link" data-entity-1="UC3" data-entity-2="UC7" data-source-line="23" data-uid="lnk20" id="link_UC3_UC7"><path d="M306.35,208 C348.87,208 393.01,208 436.02,208" fill="none" id="UC3-to-UC7" style="stroke:#181818;stroke-width:1;"/><polygon fill="#181818" points="442.02,208,433.02,204,437.02,208,433.02,212,442.02,208" style="stroke:#181818;stroke-width:1;"/><text fill="#000000" font-family="sans-serif" font-size="13" lengthAdjust="spacing" textLength="59.3569" x="352.46" y="204.5684">&#171;include&#187;</text></g><!--link UC1 to config--><g class="link" data-entity-1="UC1" data-entity-2="config" data-source-line="24" data-uid="lnk21" id="link_UC1_config"><path d="M278.75,143.3 C294.6,148.64 310.14,156.73 321.46,169 C360.19,210.99 320.88,245.74 351.46,294 C370.07,323.37 393.95,313.56 412.46,343 C443.79,392.83 406.86,425.11 442.46,472 C451.14,483.43 457.8258,489.6618 470.2858,497.1418" fill="none" id="UC1-to-config" style="stroke:#181818;stroke-width:1;"/><polygon fill="#181818" points="475.43,500.23,469.7724,492.1682,471.1431,497.6565,465.6549,499.0272,475.43,500.23" style="stroke:#181818;stroke-width:1;"/></g><!--link UC2 to config--><g class="link" data-entity-1="UC2" data-entity-2="config" data-source-line="25" data-uid="lnk22" id="link_UC2_config"><path d="M279.52,71.68 C295.07,77.02 310.28,85.02 321.46,97 C358.67,136.88 327.16,167.16 351.46,216 C370.75,254.77 394.77,252.46 412.46,292 C445.58,366.03 395.49,405.88 442.46,472 C450.88,483.86 457.6222,490.3078 470.2322,497.8578" fill="none" id="UC2-to-config" style="stroke:#181818;stroke-width:1;"/><polygon fill="#181818" points="475.38,500.94,469.713,492.8849,471.0901,498.3715,465.6035,499.7486,475.38,500.94" style="stroke:#181818;stroke-width:1;"/></g><!--link UC3 to config--><g class="link" data-entity-1="UC3" data-entity-2="config" data-source-line="26" data-uid="lnk23" id="link_UC3_config"><path d="M282.82,222.52 C297.08,228.19 310.89,236.06 321.46,247 C352.22,278.84 327.51,304.75 351.46,342 C371.2,372.7 391.58,367.05 412.46,397 C432.99,426.45 418.64,445.13 442.46,472 C451.66,482.37 458.2062,488.0611 470.2962,495.3211" fill="none" id="UC3-to-config" style="stroke:#181818;stroke-width:1;"/><polygon fill="#181818" points="475.44,498.41,469.7835,490.3475,471.1535,495.836,465.665,497.2059,475.44,498.41" style="stroke:#181818;stroke-width:1;"/></g><!--link UC4 to config--><g class="link" data-entity-1="UC4" data-entity-2="config" data-source-line="27" data-uid="lnk24" id="link_UC4_config"><path d="M284.38,307.74 C297.8,313.59 310.89,321.18 321.46,331 C344.47,352.38 332.36,370.05 351.46,395 C383.66,437.06 398.77,442.02 442.46,472 C452.76,479.07 458.8808,483.0027 470.0608,489.3927" fill="none" id="UC4-to-config" style="stroke:#181818;stroke-width:1;"/><polygon fill="#181818" points="475.27,492.37,469.4411,484.4312,470.929,489.8889,465.4714,491.3768,475.27,492.37" style="stroke:#181818;stroke-width:1;"/></g><!--link UC5 to config--><g class="link" data-entity-1="UC5" data-entity-2="config" data-source-line="28" data-uid="lnk25" id="link_UC5_config"><path d="M270.67,373.95 C288.53,378.96 307.16,386.79 321.46,399 C344.43,418.61 328.83,439.98 351.46,460 C386.06,490.61 429.8045,505.9009 469.6145,514.8009" fill="none" id="UC5-to-config" style="stroke:#181818;stroke-width:1;"/><polygon fill="#181818" points="475.47,516.11,467.5595,510.2428,470.5905,515.0191,465.8141,518.0501,475.47,516.11" style="stroke:#181818;stroke-width:1;"/></g><!--SRC=[RP9TQyCW58Rl_HM7t9VH9cdBA86IRGm6OInqzzQSfaAgGq_smTX_duePjkkLFkSylfn41pmGa0OZ-oD19mqAabenBaWRo7OMJGRSmkWsKx7MwY3xqN1lGkjg61mHwepv3Axw0I5hsqUuq8L1L1byC_2XWbkdtIk-7_3cJbg_WZiL0dVrFBMce230ipPaexP8jHOf27vsg0rsg4ZoONBpwv5F-0NRaOvU5c7Kw1UNsIzQ4so5G3j5bgdooWVPSS8m83JZQOzc4fVNHMxjXpOTF6XpuXJTLUes_5tstdLNrU2d-q32joYksGzZ_dvWDgl2FqjWaKAUGf52cSAQkNDnluHRs6oa4iFOOLMvJXuxgt-TUUZ4Lp15_65-ZiKvbWd-0W00]--></g></svg>