<svg xmlns="http://www.w3.org/2000/svg" xmlns:xlink="http://www.w3.org/1999/xlink" contentStyleType="text/css" data-diagram-type="SEQUENCE" height="1292px" preserveAspectRatio="none" style="width:893px;height:1292px;background:#FFFFFF;" version="1.1" viewBox="0 0 893 1292" width="893px" zoomAndPan="magnify"><defs/><g><rect fill="none" height="229.2969" style="stroke:#000000;stroke-width:1.5;" width="866.2651" x="10" y="464.8281"/><g><title>User</title><rect fill="#000000" fill-opacity="0.00000" height="1218.1406" width="8" x="37.7793" y="37.6094"/><line style="stroke:#181818;stroke-width:0.5;stroke-dasharray:5.0,5.0;" x1="41" x2="41" y1="37.6094" y2="1255.75"/></g><g><title>NiceGUI Components</title><rect fill="#000000" fill-opacity="0.00000" height="1218.1406" width="8" x="194.7437" y="37.6094"/><line style="stroke:#181818;stroke-width:0.5;stroke-dasharray:5.0,5.0;" x1="198.6611" x2="198.6611" y1="37.6094" y2="1255.75"/></g><g><title>AppUIState</title><rect fill="#000000" fill-opacity="0.00000" height="1218.1406" width="8" x="342.3452" y="37.6094"/><line style="stroke:#181818;stroke-width:0.5;stroke-dasharray:5.0,5.0;" x1="345.5454" x2="345.5454" y1="37.6094" y2="1255.75"/></g><g><title>UIStateBridge</title><rect fill="#000000" fill-opacity="0.00000" height="1218.1406" width="8" x="473.2905" y="37.6094"/><line style="stroke:#181818;stroke-width:0.5;stroke-dasharray:5.0,5.0;" x1="476.7114" x2="476.7114" y1="37.6094" y2="1255.75"/></g><g><title>AppConfig</title><rect fill="#000000" fill-opacity="0.00000" height="1218.1406" width="8" x="649.8794" y="37.6094"/><line style="stroke:#181818;stroke-width:0.5;stroke-dasharray:5.0,5.0;" x1="653.1899" x2="653.1899" y1="37.6094" y2="1255.75"/></g><g><title>user_config.yml</title><rect fill="#000000" fill-opacity="0.00000" height="1218.1406" width="8" x="806.2446" y="37.6094"/><line style="stroke:#181818;stroke-width:0.5;stroke-dasharray:5.0,5.0;" x1="810.2241" x2="810.2241" y1="37.6094" y2="1255.75"/></g><g class="participant participant-head" data-participant="U"><rect fill="#E2E2F0" height="31.6094" rx="2.5" ry="2.5" style="stroke:#181818;stroke-width:0.5;" width="43.5586" x="20" y="5"/><text fill="#000000" font-family="sans-serif" font-size="14" lengthAdjust="spacing" textLength="29.5586" x="27" y="26.5332">User</text></g><g class="participant participant-tail" data-participant="U"><rect fill="#E2E2F0" height="31.6094" rx="2.5" ry="2.5" style="stroke:#181818;stroke-width:0.5;" width="43.5586" x="20" y="1254.75"/><text fill="#000000" font-family="sans-serif" font-size="14" lengthAdjust="spacing" textLength="29.5586" x="27" y="1276.2832">User</text></g><g class="participant participant-head" data-participant="UI"><rect fill="#E2E2F0" height="31.6094" rx="2.5" ry="2.5" style="stroke:#181818;stroke-width:0.5;" width="150.165" x="123.6611" y="5"/><text fill="#000000" font-family="sans-serif" font-size="14" lengthAdjust="spacing" textLength="136.165" x="130.6611" y="26.5332">NiceGUI Components</text></g><g class="participant participant-tail" data-participant="UI"><rect fill="#E2E2F0" height="31.6094" rx="2.5" ry="2.5" style="stroke:#181818;stroke-width:0.5;" width="150.165" x="123.6611" y="1254.75"/><text fill="#000000" font-family="sans-serif" font-size="14" lengthAdjust="spacing" textLength="136.165" x="130.6611" y="1276.2832">NiceGUI Components</text></g><g class="participant participant-head" data-participant="UIS"><rect fill="#E2E2F0" height="31.6094" rx="2.5" ry="2.5" style="stroke:#181818;stroke-width:0.5;" width="85.5996" x="303.5454" y="5"/><text fill="#000000" font-family="sans-serif" font-size="14" lengthAdjust="spacing" textLength="71.5996" x="310.5454" y="26.5332">AppUIState</text></g><g class="participant participant-tail" data-participant="UIS"><rect fill="#E2E2F0" height="31.6094" rx="2.5" ry="2.5" style="stroke:#181818;stroke-width:0.5;" width="85.5996" x="303.5454" y="1254.75"/><text fill="#000000" font-family="sans-serif" font-size="14" lengthAdjust="spacing" textLength="71.5996" x="310.5454" y="1276.2832">AppUIState</text></g><g class="participant participant-head" data-participant="Bridge"><rect fill="#E2E2F0" height="31.6094" rx="2.5" ry="2.5" style="stroke:#181818;stroke-width:0.5;" width="101.1582" x="426.7114" y="5"/><text fill="#000000" font-family="sans-serif" font-size="14" lengthAdjust="spacing" textLength="87.1582" x="433.7114" y="26.5332">UIStateBridge</text></g><g class="participant participant-tail" data-participant="Bridge"><rect fill="#E2E2F0" height="31.6094" rx="2.5" ry="2.5" style="stroke:#181818;stroke-width:0.5;" width="101.1582" x="426.7114" y="1254.75"/><text fill="#000000" font-family="sans-serif" font-size="14" lengthAdjust="spacing" textLength="87.1582" x="433.7114" y="1276.2832">UIStateBridge</text></g><g class="participant participant-head" data-participant="BC"><rect fill="#E2E2F0" height="31.6094" rx="2.5" ry="2.5" style="stroke:#181818;stroke-width:0.5;" width="79.3789" x="614.1899" y="5"/><text fill="#000000" font-family="sans-serif" font-size="14" lengthAdjust="spacing" textLength="65.3789" x="621.1899" y="26.5332">AppConfig</text></g><g class="participant participant-tail" data-participant="BC"><rect fill="#E2E2F0" height="31.6094" rx="2.5" ry="2.5" style="stroke:#181818;stroke-width:0.5;" width="79.3789" x="614.1899" y="1254.75"/><text fill="#000000" font-family="sans-serif" font-size="14" lengthAdjust="spacing" textLength="65.3789" x="621.1899" y="1276.2832">AppConfig</text></g><g class="participant participant-head" data-participant="YAML"><rect fill="#E2E2F0" height="31.6094" rx="2.5" ry="2.5" style="stroke:#181818;stroke-width:0.5;" width="112.041" x="754.2241" y="5"/><text fill="#000000" font-family="sans-serif" font-size="14" lengthAdjust="spacing" textLength="98.041" x="761.2241" y="26.5332">user_config.yml</text></g><g class="participant participant-tail" data-participant="YAML"><rect fill="#E2E2F0" height="31.6094" rx="2.5" ry="2.5" style="stroke:#181818;stroke-width:0.5;" width="112.041" x="754.2241" y="1254.75"/><text fill="#000000" font-family="sans-serif" font-size="14" lengthAdjust="spacing" textLength="98.041" x="761.2241" y="1276.2832">user_config.yml</text></g><rect fill="#EEEEEE" height="3" style="stroke:#EEEEEE;stroke-width:1;" width="886.2651" x="0" y="68.7852"/><line style="stroke:#000000;stroke-width:1;" x1="0" x2="886.2651" y1="68.7852" y2="68.7852"/><line style="stroke:#000000;stroke-width:1;" x1="0" x2="886.2651" y1="71.7852" y2="71.7852"/><rect fill="#EEEEEE" height="24.3516" style="stroke:#000000;stroke-width:2;" width="168.5527" x="358.8562" y="57.6094"/><text fill="#000000" font-family="sans-serif" font-size="13" font-weight="bold" lengthAdjust="spacing" textLength="150.9409" x="364.8562" y="75.1045">User Configuration Flow</text><g class="message" data-participant-1="U" data-participant-2="UI"><polygon fill="#181818" points="186.7437,110.3125,196.7437,114.3125,186.7437,118.3125,190.7437,114.3125" style="stroke:#181818;stroke-width:1;"/><line style="stroke:#181818;stroke-width:1;" x1="41.7793" x2="192.7437" y1="114.3125" y2="114.3125"/><text fill="#000000" font-family="sans-serif" font-size="13" lengthAdjust="spacing" textLength="100.4517" x="48.7793" y="109.4561">Edit configuration</text></g><g class="message" data-participant-1="UI" data-participant-2="UIS"><polygon fill="#181818" points="334.3452,151.8398,344.3452,155.8398,334.3452,159.8398,338.3452,155.8398" style="stroke:#181818;stroke-width:1;"/><line style="stroke:#181818;stroke-width:1;" x1="198.7437" x2="340.3452" y1="155.8398" y2="155.8398"/><text fill="#000000" font-family="sans-serif" font-size="13" lengthAdjust="spacing" textLength="123.6016" x="205.7437" y="150.9834">Update bindable data</text></g><path d="M351,127.3125 L351,169.3125 L555,169.3125 L555,137.3125 L545,127.3125 L351,127.3125" fill="#FEFFDD" style="stroke:#181818;stroke-width:0.5;"/><path d="M545,127.3125 L545,137.3125 L555,137.3125 L545,127.3125" fill="#FEFFDD" style="stroke:#181818;stroke-width:0.5;"/><text fill="#000000" font-family="sans-serif" font-size="13" lengthAdjust="spacing" textLength="148.4209" x="357" y="145.8076">NiceGUI's binding system</text><text fill="#000000" font-family="sans-serif" font-size="13" lengthAdjust="spacing" textLength="183.5361" x="357" y="162.1592">automatically syncs UI and data</text><g class="message" data-participant-1="UIS" data-participant-2="UIS"><line style="stroke:#181818;stroke-width:1;" x1="346.3452" x2="388.3452" y1="197.3672" y2="197.3672"/><line style="stroke:#181818;stroke-width:1;" x1="388.3452" x2="388.3452" y1="197.3672" y2="210.3672"/><line style="stroke:#181818;stroke-width:1;" x1="347.3452" x2="388.3452" y1="210.3672" y2="210.3672"/><polygon fill="#181818" points="357.3452,206.3672,347.3452,210.3672,357.3452,214.3672,353.3452,210.3672" style="stroke:#181818;stroke-width:1;"/><text fill="#000000" font-family="sans-serif" font-size="13" lengthAdjust="spacing" textLength="93.9136" x="353.3452" y="192.5107">mark_modified()</text></g><rect fill="#EEEEEE" height="3" style="stroke:#EEEEEE;stroke-width:1;" width="886.2651" x="0" y="239.543"/><line style="stroke:#000000;stroke-width:1;" x1="0" x2="886.2651" y1="239.543" y2="239.543"/><line style="stroke:#000000;stroke-width:1;" x1="0" x2="886.2651" y1="242.543" y2="242.543"/><rect fill="#EEEEEE" height="24.3516" style="stroke:#000000;stroke-width:2;" width="112.9473" x="386.6589" y="228.3672"/><text fill="#000000" font-family="sans-serif" font-size="13" font-weight="bold" lengthAdjust="spacing" textLength="95.3354" x="392.6589" y="245.8623">Validation Flow</text><g class="message" data-participant-1="U" data-participant-2="UI"><polygon fill="#181818" points="186.7437,281.0703,196.7437,285.0703,186.7437,289.0703,190.7437,285.0703" style="stroke:#181818;stroke-width:1;"/><line style="stroke:#181818;stroke-width:1;" x1="41.7793" x2="192.7437" y1="285.0703" y2="285.0703"/><text fill="#000000" font-family="sans-serif" font-size="13" lengthAdjust="spacing" textLength="107.6816" x="48.7793" y="280.2139">Save configuration</text></g><g class="message" data-participant-1="UI" data-participant-2="Bridge"><polygon fill="#181818" points="465.2905,311.4219,475.2905,315.4219,465.2905,319.4219,469.2905,315.4219" style="stroke:#181818;stroke-width:1;"/><line style="stroke:#181818;stroke-width:1;" x1="198.7437" x2="471.2905" y1="315.4219" y2="315.4219"/><text fill="#000000" font-family="sans-serif" font-size="13" lengthAdjust="spacing" textLength="151.7598" x="205.7437" y="310.5654">validate_ui_state(ui_state)</text></g><g class="message" data-participant-1="Bridge" data-participant-2="BC"><polygon fill="#181818" points="641.8794,341.7734,651.8794,345.7734,641.8794,349.7734,645.8794,345.7734" style="stroke:#181818;stroke-width:1;"/><line style="stroke:#181818;stroke-width:1;" x1="477.2905" x2="647.8794" y1="345.7734" y2="345.7734"/><text fill="#000000" font-family="sans-serif" font-size="13" lengthAdjust="spacing" textLength="138.0107" x="484.2905" y="340.917">Create Pydantic models</text></g><g class="message" data-participant-1="BC" data-participant-2="BC"><line style="stroke:#181818;stroke-width:1;" x1="653.8794" x2="695.8794" y1="376.125" y2="376.125"/><line style="stroke:#181818;stroke-width:1;" x1="695.8794" x2="695.8794" y1="376.125" y2="389.125"/><line style="stroke:#181818;stroke-width:1;" x1="654.8794" x2="695.8794" y1="389.125" y2="389.125"/><polygon fill="#181818" points="664.8794,385.125,654.8794,389.125,664.8794,393.125,660.8794,389.125" style="stroke:#181818;stroke-width:1;"/><text fill="#000000" font-family="sans-serif" font-size="13" lengthAdjust="spacing" textLength="142.3652" x="660.8794" y="371.2686">Validate data constraints</text></g><g class="message" data-participant-1="BC" data-participant-2="Bridge"><polygon fill="#181818" points="488.2905,415.4766,478.2905,419.4766,488.2905,423.4766,484.2905,419.4766" style="stroke:#181818;stroke-width:1;"/><line style="stroke:#181818;stroke-width:1;" x1="482.2905" x2="652.8794" y1="419.4766" y2="419.4766"/><text fill="#000000" font-family="sans-serif" font-size="13" lengthAdjust="spacing" textLength="139.458" x="494.2905" y="414.6201">Return validation results</text></g><g class="message" data-participant-1="Bridge" data-participant-2="UI"><polygon fill="#181818" points="209.7437,445.8281,199.7437,449.8281,209.7437,453.8281,205.7437,449.8281" style="stroke:#181818;stroke-width:1;"/><line style="stroke:#181818;stroke-width:1;" x1="203.7437" x2="476.2905" y1="449.8281" y2="449.8281"/><text fill="#000000" font-family="sans-serif" font-size="13" lengthAdjust="spacing" textLength="135.8145" x="215.7437" y="444.9717">Return (is_valid, errors)</text></g><path d="M10,464.8281 L70.1709,464.8281 L70.1709,473.1797 L60.1709,483.1797 L10,483.1797 L10,464.8281" fill="#EEEEEE" style="stroke:#000000;stroke-width:1.5;"/><rect fill="none" height="229.2969" style="stroke:#000000;stroke-width:1.5;" width="866.2651" x="10" y="464.8281"/><text fill="#000000" font-family="sans-serif" font-size="13" font-weight="bold" lengthAdjust="spacing" textLength="15.1709" x="25" y="479.3232">alt</text><text fill="#000000" font-family="sans-serif" font-size="11" font-weight="bold" lengthAdjust="spacing" textLength="107.5884" x="85.1709" y="478.2471">[Validation Success]</text><g class="message" data-participant-1="UI" data-participant-2="Bridge"><polygon fill="#181818" points="465.2905,501.5313,475.2905,505.5313,465.2905,509.5313,469.2905,505.5313" style="stroke:#181818;stroke-width:1;"/><line style="stroke:#181818;stroke-width:1;" x1="198.7437" x2="471.2905" y1="505.5313" y2="505.5313"/><text fill="#000000" font-family="sans-serif" font-size="13" lengthAdjust="spacing" textLength="190.7725" x="205.7437" y="500.6748">save_to_yaml(ui_state, file_path)</text></g><g class="message" data-participant-1="Bridge" data-participant-2="Bridge"><line style="stroke:#181818;stroke-width:1;" x1="477.2905" x2="519.2905" y1="535.8828" y2="535.8828"/><line style="stroke:#181818;stroke-width:1;" x1="519.2905" x2="519.2905" y1="535.8828" y2="548.8828"/><line style="stroke:#181818;stroke-width:1;" x1="478.2905" x2="519.2905" y1="548.8828" y2="548.8828"/><polygon fill="#181818" points="488.2905,544.8828,478.2905,548.8828,488.2905,552.8828,484.2905,548.8828" style="stroke:#181818;stroke-width:1;"/><text fill="#000000" font-family="sans-serif" font-size="13" lengthAdjust="spacing" textLength="162.5889" x="484.2905" y="531.0264">_ui_to_user_config_format()</text></g><g class="message" data-participant-1="Bridge" data-participant-2="YAML"><polygon fill="#181818" points="798.2446,575.2344,808.2446,579.2344,798.2446,583.2344,802.2446,579.2344" style="stroke:#181818;stroke-width:1;"/><line style="stroke:#181818;stroke-width:1;" x1="477.2905" x2="804.2446" y1="579.2344" y2="579.2344"/><text fill="#000000" font-family="sans-serif" font-size="13" lengthAdjust="spacing" textLength="89.5718" x="484.2905" y="574.3779">Write YAML file</text></g><g class="message" data-participant-1="Bridge" data-participant-2="UIS"><polygon fill="#181818" points="357.3452,605.5859,347.3452,609.5859,357.3452,613.5859,353.3452,609.5859" style="stroke:#181818;stroke-width:1;"/><line style="stroke:#181818;stroke-width:1;" x1="351.3452" x2="476.2905" y1="609.5859" y2="609.5859"/><text fill="#000000" font-family="sans-serif" font-size="13" lengthAdjust="spacing" textLength="79.4663" x="363.3452" y="604.7295">mark_saved()</text></g><g class="message" data-participant-1="Bridge" data-participant-2="UI"><polygon fill="#181818" points="209.7437,635.9375,199.7437,639.9375,209.7437,643.9375,205.7437,639.9375" style="stroke:#181818;stroke-width:1;"/><line style="stroke:#181818;stroke-width:1;" x1="203.7437" x2="476.2905" y1="639.9375" y2="639.9375"/><text fill="#000000" font-family="sans-serif" font-size="13" lengthAdjust="spacing" textLength="89.5908" x="215.7437" y="635.0811">Return success</text></g><line style="stroke:#000000;stroke-width:1;stroke-dasharray:2.0,2.0;" x1="10" x2="876.2651" y1="648.9375" y2="648.9375"/><text fill="#000000" font-family="sans-serif" font-size="11" font-weight="bold" lengthAdjust="spacing" textLength="99.0107" x="15" y="660.3564">[Validation Failure]</text><g class="message" data-participant-1="UI" data-participant-2="U"><polygon fill="#181818" points="52.7793,682.125,42.7793,686.125,52.7793,690.125,48.7793,686.125" style="stroke:#181818;stroke-width:1;"/><line style="stroke:#181818;stroke-width:1;" x1="46.7793" x2="197.7437" y1="686.125" y2="686.125"/><text fill="#000000" font-family="sans-serif" font-size="13" lengthAdjust="spacing" textLength="126.439" x="58.7793" y="681.2686">Show error messages</text></g><rect fill="#EEEEEE" height="3" style="stroke:#EEEEEE;stroke-width:1;" width="886.2651" x="0" y="722.3008"/><line style="stroke:#000000;stroke-width:1;" x1="0" x2="886.2651" y1="722.3008" y2="722.3008"/><line style="stroke:#000000;stroke-width:1;" x1="0" x2="886.2651" y1="725.3008" y2="725.3008"/><rect fill="#EEEEEE" height="24.3516" style="stroke:#000000;stroke-width:2;" width="170.6982" x="357.7834" y="711.125"/><text fill="#000000" font-family="sans-serif" font-size="13" font-weight="bold" lengthAdjust="spacing" textLength="153.0864" x="363.7834" y="728.6201">Load Configuration Flow</text><g class="message" data-participant-1="U" data-participant-2="UI"><polygon fill="#181818" points="186.7437,763.8281,196.7437,767.8281,186.7437,771.8281,190.7437,767.8281" style="stroke:#181818;stroke-width:1;"/><line style="stroke:#181818;stroke-width:1;" x1="41.7793" x2="192.7437" y1="767.8281" y2="767.8281"/><text fill="#000000" font-family="sans-serif" font-size="13" lengthAdjust="spacing" textLength="119.2407" x="48.7793" y="762.9717">Load existing project</text></g><g class="message" data-participant-1="UI" data-participant-2="Bridge"><polygon fill="#181818" points="465.2905,794.1797,475.2905,798.1797,465.2905,802.1797,469.2905,798.1797" style="stroke:#181818;stroke-width:1;"/><line style="stroke:#181818;stroke-width:1;" x1="198.7437" x2="471.2905" y1="798.1797" y2="798.1797"/><text fill="#000000" font-family="sans-serif" font-size="13" lengthAdjust="spacing" textLength="203.0488" x="205.7437" y="793.3232">load_from_yaml(file_path, ui_state)</text></g><g class="message" data-participant-1="Bridge" data-participant-2="YAML"><polygon fill="#181818" points="798.2446,824.5313,808.2446,828.5313,798.2446,832.5313,802.2446,828.5313" style="stroke:#181818;stroke-width:1;"/><line style="stroke:#181818;stroke-width:1;" x1="477.2905" x2="804.2446" y1="828.5313" y2="828.5313"/><text fill="#000000" font-family="sans-serif" font-size="13" lengthAdjust="spacing" textLength="90.3208" x="484.2905" y="823.6748">Read YAML file</text></g><g class="message" data-participant-1="Bridge" data-participant-2="Bridge"><line style="stroke:#181818;stroke-width:1;" x1="477.2905" x2="519.2905" y1="858.8828" y2="858.8828"/><line style="stroke:#181818;stroke-width:1;" x1="519.2905" x2="519.2905" y1="858.8828" y2="871.8828"/><line style="stroke:#181818;stroke-width:1;" x1="478.2905" x2="519.2905" y1="871.8828" y2="871.8828"/><polygon fill="#181818" points="488.2905,867.8828,478.2905,871.8828,488.2905,875.8828,484.2905,871.8828" style="stroke:#181818;stroke-width:1;"/><text fill="#000000" font-family="sans-serif" font-size="13" lengthAdjust="spacing" textLength="86.0044" x="484.2905" y="854.0264">_load_into_ui()</text></g><g class="message" data-participant-1="Bridge" data-participant-2="UIS"><polygon fill="#181818" points="357.3452,898.2344,347.3452,902.2344,357.3452,906.2344,353.3452,902.2344" style="stroke:#181818;stroke-width:1;"/><line style="stroke:#181818;stroke-width:1;" x1="351.3452" x2="476.2905" y1="902.2344" y2="902.2344"/><text fill="#000000" font-family="sans-serif" font-size="13" lengthAdjust="spacing" textLength="106.9453" x="363.3452" y="897.3779">Update all UI state</text></g><g class="message" data-participant-1="UIS" data-participant-2="UI"><polygon fill="#181818" points="209.7437,939.7617,199.7437,943.7617,209.7437,947.7617,205.7437,943.7617" style="stroke:#181818;stroke-width:1;"/><line style="stroke:#181818;stroke-width:1;" x1="203.7437" x2="345.3452" y1="943.7617" y2="943.7617"/><text fill="#000000" font-family="sans-serif" font-size="13" lengthAdjust="spacing" textLength="107.6626" x="215.7437" y="938.9053">Trigger UI updates</text></g><path d="M351,915.2344 L351,957.2344 L514,957.2344 L514,925.2344 L504,915.2344 L351,915.2344" fill="#FEFFDD" style="stroke:#181818;stroke-width:0.5;"/><path d="M504,915.2344 L504,925.2344 L514,925.2344 L504,915.2344" fill="#FEFFDD" style="stroke:#181818;stroke-width:0.5;"/><text fill="#000000" font-family="sans-serif" font-size="13" lengthAdjust="spacing" textLength="139.439" x="357" y="933.7295">NiceGUI binding system</text><text fill="#000000" font-family="sans-serif" font-size="13" lengthAdjust="spacing" textLength="142.3525" x="357" y="950.0811">automatically updates UI</text><g class="message" data-participant-1="Bridge" data-participant-2="UI"><polygon fill="#181818" points="209.7437,981.2891,199.7437,985.2891,209.7437,989.2891,205.7437,985.2891" style="stroke:#181818;stroke-width:1;"/><line style="stroke:#181818;stroke-width:1;" x1="203.7437" x2="476.2905" y1="985.2891" y2="985.2891"/><text fill="#000000" font-family="sans-serif" font-size="13" lengthAdjust="spacing" textLength="89.5908" x="215.7437" y="980.4326">Return success</text></g><rect fill="#EEEEEE" height="3" style="stroke:#EEEEEE;stroke-width:1;" width="886.2651" x="0" y="1014.4648"/><line style="stroke:#000000;stroke-width:1;" x1="0" x2="886.2651" y1="1014.4648" y2="1014.4648"/><line style="stroke:#000000;stroke-width:1;" x1="0" x2="886.2651" y1="1017.4648" y2="1017.4648"/><rect fill="#EEEEEE" height="24.3516" style="stroke:#000000;stroke-width:2;" width="140.3945" x="372.9353" y="1003.2891"/><text fill="#000000" font-family="sans-serif" font-size="13" font-weight="bold" lengthAdjust="spacing" textLength="122.7827" x="378.9353" y="1020.7842">Stage Merging Flow</text><g class="message" data-participant-1="U" data-participant-2="UI"><polygon fill="#181818" points="186.7437,1055.9922,196.7437,1059.9922,186.7437,1063.9922,190.7437,1059.9922" style="stroke:#181818;stroke-width:1;"/><line style="stroke:#181818;stroke-width:1;" x1="41.7793" x2="192.7437" y1="1059.9922" y2="1059.9922"/><text fill="#000000" font-family="sans-serif" font-size="13" lengthAdjust="spacing" textLength="132.9644" x="48.7793" y="1055.1357">Switch between stages</text></g><g class="message" data-participant-1="UI" data-participant-2="UIS"><polygon fill="#181818" points="334.3452,1086.3438,344.3452,1090.3438,334.3452,1094.3438,338.3452,1090.3438" style="stroke:#181818;stroke-width:1;"/><line style="stroke:#181818;stroke-width:1;" x1="198.7437" x2="340.3452" y1="1090.3438" y2="1090.3438"/><text fill="#000000" font-family="sans-serif" font-size="13" lengthAdjust="spacing" textLength="93.9453" x="205.7437" y="1085.4873">set active_stage</text></g><g class="message" data-participant-1="UIS" data-participant-2="UIS"><line style="stroke:#181818;stroke-width:1;" x1="346.3452" x2="388.3452" y1="1120.6953" y2="1120.6953"/><line style="stroke:#181818;stroke-width:1;" x1="388.3452" x2="388.3452" y1="1120.6953" y2="1133.6953"/><line style="stroke:#181818;stroke-width:1;" x1="347.3452" x2="388.3452" y1="1133.6953" y2="1133.6953"/><polygon fill="#181818" points="357.3452,1129.6953,347.3452,1133.6953,357.3452,1137.6953,353.3452,1133.6953" style="stroke:#181818;stroke-width:1;"/><text fill="#000000" font-family="sans-serif" font-size="13" lengthAdjust="spacing" textLength="106.9517" x="353.3452" y="1115.8389">get_active_stage()</text></g><g class="message" data-participant-1="UI" data-participant-2="Bridge"><polygon fill="#181818" points="465.2905,1160.0469,475.2905,1164.0469,465.2905,1168.0469,469.2905,1164.0469" style="stroke:#181818;stroke-width:1;"/><line style="stroke:#181818;stroke-width:1;" x1="198.7437" x2="471.2905" y1="1164.0469" y2="1164.0469"/><text fill="#000000" font-family="sans-serif" font-size="13" lengthAdjust="spacing" textLength="140.1943" x="205.7437" y="1159.1904">Generate merged config</text></g><g class="message" data-participant-1="Bridge" data-participant-2="Bridge"><line style="stroke:#181818;stroke-width:1;" x1="477.2905" x2="519.2905" y1="1194.3984" y2="1194.3984"/><line style="stroke:#181818;stroke-width:1;" x1="519.2905" x2="519.2905" y1="1194.3984" y2="1207.3984"/><line style="stroke:#181818;stroke-width:1;" x1="478.2905" x2="519.2905" y1="1207.3984" y2="1207.3984"/><polygon fill="#181818" points="488.2905,1203.3984,478.2905,1207.3984,488.2905,1211.3984,484.2905,1207.3984" style="stroke:#181818;stroke-width:1;"/><text fill="#000000" font-family="sans-serif" font-size="13" lengthAdjust="spacing" textLength="162.5889" x="484.2905" y="1189.542">_ui_to_user_config_format()</text></g><g class="message" data-participant-1="Bridge" data-participant-2="UI"><polygon fill="#181818" points="209.7437,1233.75,199.7437,1237.75,209.7437,1241.75,205.7437,1237.75" style="stroke:#181818;stroke-width:1;"/><line style="stroke:#181818;stroke-width:1;" x1="203.7437" x2="476.2905" y1="1237.75" y2="1237.75"/><text fill="#000000" font-family="sans-serif" font-size="13" lengthAdjust="spacing" textLength="179.9053" x="215.7437" y="1232.8936">Return merged YAML structure</text></g><!--SRC=[bLJRYjim47ttLmpxqWIs_G132hkcNGAxfMpgbaB1ADB4KIjBHf8tpTztT4bY9scNvidHd1cTSsP6FRDUSjapxU6cTcXlW3ceYtvy_aboVAYNK9ckDngrTmcrdCBk-hvUhZppcCEhQJm7xwqKROAapuigbT4RsIP4DOqEHB7XCVvktwc8-Nxtz5WKYmK4_f2I1ykyD1e-AhE3nQAeuUrxObJ21o4zy36c86Knk2gXxWKnXBNKWgqL0lrZXJPqP6MxzILaAzwuY96w1RTt7hiVcWtUT5IGCwNsTAfvi02O5gaArJzUqp7xg-cCa1k9OZQFvByo9SLVIA_O2rubdGmiuIKbOpF8nWMJPuUFUP4m4LsLK5aC2Z_l1VafEH0BLAwuhmw0p2Df3vSwRvcadXym-Sfdz8FLXvi3ROjkK05tl31mpxYPT4t4tW9QQwmZrKpviUpLm3awLm3zfl8SwM-yQVQiKqTbjx2H2fkU-Uqyveo4vhnW1wMDXgRP64jTcfrdX1aguPkL93nynzfdc5Fh0XznKMEarcKfP2rEEika6YoE9DRKtIsrEve27IMn5YbHYpWLZuQ9rqOwOl2tT3xCOs_DJ-J-R40KOPgDDLtoyEZSBLmRbEJ6CrBTanbNx8rLQJR8OZcR5sTMvMMYVGXQuoMdBIZX2wrKImjBiI4YtRLDUsNFScPuY_xPYE0blJuKVqBRXdgNIxQJdczXZNw7g0FVq8ZHu-3G0-DUqYp6u6IbM_JDE4XsJ3lmW1fjyACZ0YZoEXV_DxHNDUQ2iLEqh0EdK_m3]--></g></svg>