<svg xmlns="http://www.w3.org/2000/svg" xmlns:xlink="http://www.w3.org/1999/xlink" contentStyleType="text/css" data-diagram-type="CLASS" height="767px" preserveAspectRatio="none" style="width:1053px;height:767px;background:#FFFFFF;" version="1.1" viewBox="0 0 1053 767" width="1053px" zoomAndPan="magnify"><defs/><g><!--cluster pei_docker--><g class="cluster" data-entity="pei_docker" data-uid="ent0025" id="cluster_pei_docker"><path d="M8.5,6 L83.4238,6 A3.75,3.75 0 0 1 85.9238,8.5 L92.9238,29.6094 L1043.5,29.6094 A2.5,2.5 0 0 1 1046,32.1094 L1046,757.5 A2.5,2.5 0 0 1 1043.5,760 L8.5,760 A2.5,2.5 0 0 1 6,757.5 L6,8.5 A2.5,2.5 0 0 1 8.5,6" fill="none" style="stroke:#000000;stroke-width:1.5;"/><line style="stroke:#000000;stroke-width:1.5;" x1="6" x2="92.9238" y1="29.6094" y2="29.6094"/><text fill="#000000" font-family="sans-serif" font-size="14" font-weight="bold" lengthAdjust="spacing" textLength="73.9238" x="10" y="22.5332">pei_docker</text></g><!--cluster webgui--><g class="cluster" data-entity="webgui" data-source-line="2" data-uid="ent0002" id="cluster_webgui"><path d="M32.5,50 L81.7207,50 A3.75,3.75 0 0 1 84.2207,52.5 L91.2207,73.6094 L799.5,73.6094 A2.5,2.5 0 0 1 802,76.1094 L802,733.5 A2.5,2.5 0 0 1 799.5,736 L32.5,736 A2.5,2.5 0 0 1 30,733.5 L30,52.5 A2.5,2.5 0 0 1 32.5,50" fill="none" style="stroke:#000000;stroke-width:1.5;"/><line style="stroke:#000000;stroke-width:1.5;" x1="30" x2="91.2207" y1="73.6094" y2="73.6094"/><text fill="#000000" font-family="sans-serif" font-size="14" font-weight="bold" lengthAdjust="spacing" textLength="48.2207" x="34" y="66.5332">webgui</text></g><!--cluster models--><g class="cluster" data-entity="models" data-source-line="3" data-uid="ent0003" id="cluster_models"><path d="M56.5,474 L106.5137,474 A3.75,3.75 0 0 1 109.0137,476.5 L116.0137,497.6094 L371.5,497.6094 A2.5,2.5 0 0 1 374,500.1094 L374,709.5 A2.5,2.5 0 0 1 371.5,712 L56.5,712 A2.5,2.5 0 0 1 54,709.5 L54,476.5 A2.5,2.5 0 0 1 56.5,474" fill="none" style="stroke:#000000;stroke-width:1.5;"/><line style="stroke:#000000;stroke-width:1.5;" x1="54" x2="116.0137" y1="497.6094" y2="497.6094"/><text fill="#000000" font-family="sans-serif" font-size="14" font-weight="bold" lengthAdjust="spacing" textLength="49.0137" x="58" y="490.5332">models</text></g><!--cluster utils--><g class="cluster" data-entity="utils" data-source-line="31" data-uid="ent0006" id="cluster_utils"><path d="M209.5,279.5 L239.2793,279.5 A3.75,3.75 0 0 1 241.7793,282 L248.7793,303.1094 L370.5,303.1094 A2.5,2.5 0 0 1 373,305.6094 L373,392 A2.5,2.5 0 0 1 370.5,394.5 L209.5,394.5 A2.5,2.5 0 0 1 207,392 L207,282 A2.5,2.5 0 0 1 209.5,279.5" fill="none" style="stroke:#000000;stroke-width:1.5;"/><line style="stroke:#000000;stroke-width:1.5;" x1="207" x2="248.7793" y1="303.1094" y2="303.1094"/><text fill="#000000" font-family="sans-serif" font-size="14" font-weight="bold" lengthAdjust="spacing" textLength="28.7793" x="211" y="296.0332">utils</text></g><!--cluster tabs--><g class="cluster" data-entity="tabs" data-source-line="39" data-uid="ent0008" id="cluster_tabs"><path d="M400.5,248 L430.2861,248 A3.75,3.75 0 0 1 432.7861,250.5 L439.7861,271.6094 L666.5,271.6094 A2.5,2.5 0 0 1 669,274.1094 L669,648 A2.5,2.5 0 0 1 666.5,650.5 L400.5,650.5 A2.5,2.5 0 0 1 398,648 L398,250.5 A2.5,2.5 0 0 1 400.5,248" fill="none" style="stroke:#000000;stroke-width:1.5;"/><line style="stroke:#000000;stroke-width:1.5;" x1="398" x2="439.7861" y1="271.6094" y2="271.6094"/><text fill="#000000" font-family="sans-serif" font-size="14" font-weight="bold" lengthAdjust="spacing" textLength="28.7861" x="402" y="264.5332">tabs</text></g><!--cluster templates--><g class="cluster" data-entity="templates" data-source-line="71" data-uid="ent0013" id="cluster_templates"><path d="M828.5,526.5 L894.8584,526.5 A3.75,3.75 0 0 1 897.3584,529 L904.3584,550.1094 L1019.5,550.1094 A2.5,2.5 0 0 1 1022,552.6094 L1022,657 A2.5,2.5 0 0 1 1019.5,659.5 L828.5,659.5 A2.5,2.5 0 0 1 826,657 L826,529 A2.5,2.5 0 0 1 828.5,526.5" fill="none" style="stroke:#000000;stroke-width:1.5;"/><line style="stroke:#000000;stroke-width:1.5;" x1="826" x2="904.3584" y1="550.1094" y2="550.1094"/><text fill="#000000" font-family="sans-serif" font-size="14" font-weight="bold" lengthAdjust="spacing" textLength="65.3584" x="830" y="543.0332">templates</text></g><!--entity app--><g class="entity" data-entity="app" data-source-line="63" data-uid="ent0012" id="entity_app"><rect fill="#F1F1F1" height="98.4375" rx="2.5" ry="2.5" style="stroke:#181818;stroke-width:0.5;" width="138.2549" x="403" y="86"/><text fill="#000000" font-family="sans-serif" font-size="14" lengthAdjust="spacing" textLength="42.0342" x="413" y="110.5332">app.py</text><line style="stroke:#181818;stroke-width:1;" x1="404" x2="540.2549" y1="113.6094" y2="113.6094"/><text fill="#000000" font-family="sans-serif" font-size="14" lengthAdjust="spacing" textLength="118.2549" x="413" y="132.1426">PeiDockerWebGUI</text><text fill="#000000" font-family="sans-serif" font-size="14" lengthAdjust="spacing" textLength="61.4688" x="413" y="149.752">TabName</text><text fill="#000000" font-family="sans-serif" font-size="14" lengthAdjust="spacing" textLength="57.5996" x="413" y="167.3613">AppState</text></g><!--entity ui_state--><g class="entity" data-entity="ui_state" data-source-line="5" data-uid="ent0004" id="entity_ui_state"><rect fill="#F1F1F1" height="186.4844" rx="2.5" ry="2.5" style="stroke:#181818;stroke-width:0.5;" width="112.5928" x="70.5" y="510"/><text fill="#000000" font-family="sans-serif" font-size="14" lengthAdjust="spacing" textLength="67.71" x="80.5" y="534.5332">ui_state.py</text><line style="stroke:#181818;stroke-width:1;" x1="71.5" x2="182.0928" y1="537.6094" y2="537.6094"/><text fill="#000000" font-family="sans-serif" font-size="14" lengthAdjust="spacing" textLength="71.5996" x="80.5" y="556.1426">AppUIState</text><text fill="#000000" font-family="sans-serif" font-size="14" lengthAdjust="spacing" textLength="50.5859" x="80.5" y="573.752">StageUI</text><text fill="#000000" font-family="sans-serif" font-size="14" lengthAdjust="spacing" textLength="92.5928" x="80.5" y="591.3613">EnvironmentUI</text><text fill="#000000" font-family="sans-serif" font-size="14" lengthAdjust="spacing" textLength="65.3447" x="80.5" y="608.9707">NetworkUI</text><text fill="#000000" font-family="sans-serif" font-size="14" lengthAdjust="spacing" textLength="66.9102" x="80.5" y="626.5801">SSHTabUI</text><text fill="#000000" font-family="sans-serif" font-size="14" lengthAdjust="spacing" textLength="63.0342" x="80.5" y="644.1895">StorageUI</text><text fill="#000000" font-family="sans-serif" font-size="14" lengthAdjust="spacing" textLength="56.7861" x="80.5" y="661.7988">ScriptsUI</text><text fill="#000000" font-family="sans-serif" font-size="14" lengthAdjust="spacing" textLength="57.5723" x="80.5" y="679.4082">ProjectUI</text></g><!--entity config--><g class="entity" data-entity="config" data-source-line="18" data-uid="ent0005" id="entity_config"><rect fill="#F1F1F1" height="186.4844" rx="2.5" ry="2.5" style="stroke:#181818;stroke-width:0.5;" width="139.0615" x="218.5" y="510"/><text fill="#000000" font-family="sans-serif" font-size="14" lengthAdjust="spacing" textLength="56.0342" x="228.5" y="534.5332">config.py</text><line style="stroke:#181818;stroke-width:1;" x1="219.5" x2="356.5615" y1="537.6094" y2="537.6094"/><text fill="#000000" font-family="sans-serif" font-size="14" lengthAdjust="spacing" textLength="65.3789" x="228.5" y="556.1426">AppConfig</text><text fill="#000000" font-family="sans-serif" font-size="14" lengthAdjust="spacing" textLength="77.0547" x="228.5" y="573.752">StageConfig</text><text fill="#000000" font-family="sans-serif" font-size="14" lengthAdjust="spacing" textLength="119.0615" x="228.5" y="591.3613">EnvironmentConfig</text><text fill="#000000" font-family="sans-serif" font-size="14" lengthAdjust="spacing" textLength="91.8135" x="228.5" y="608.9707">NetworkConfig</text><text fill="#000000" font-family="sans-serif" font-size="14" lengthAdjust="spacing" textLength="69.2549" x="228.5" y="626.5801">SSHConfig</text><text fill="#000000" font-family="sans-serif" font-size="14" lengthAdjust="spacing" textLength="89.5029" x="228.5" y="644.1895">StorageConfig</text><text fill="#000000" font-family="sans-serif" font-size="14" lengthAdjust="spacing" textLength="83.2549" x="228.5" y="661.7988">ScriptsConfig</text><text fill="#000000" font-family="sans-serif" font-size="14" lengthAdjust="spacing" textLength="84.041" x="228.5" y="679.4082">ProjectConfig</text></g><!--entity ui_state_bridge--><g class="entity" data-entity="ui_state_bridge" data-source-line="33" data-uid="ent0007" id="entity_ui_state_bridge"><rect fill="#F1F1F1" height="63.2188" rx="2.5" ry="2.5" style="stroke:#181818;stroke-width:0.5;" width="134.4131" x="223" y="315.5"/><text fill="#000000" font-family="sans-serif" font-size="14" lengthAdjust="spacing" textLength="114.4131" x="233" y="340.0332">ui_state_bridge.py</text><line style="stroke:#181818;stroke-width:1;" x1="224" x2="356.4131" y1="343.1094" y2="343.1094"/><text fill="#000000" font-family="sans-serif" font-size="14" lengthAdjust="spacing" textLength="87.1582" x="233" y="361.6426">UIStateBridge</text></g><!--entity base--><g class="entity" data-entity="base" data-source-line="41" data-uid="ent0009" id="entity_base"><rect fill="#F1F1F1" height="63.2188" rx="2.5" ry="2.5" style="stroke:#181818;stroke-width:0.5;" width="76.0342" x="571" y="571.5"/><text fill="#000000" font-family="sans-serif" font-size="14" lengthAdjust="spacing" textLength="49.0342" x="581" y="596.0332">base.py</text><line style="stroke:#181818;stroke-width:1;" x1="572" x2="646.0342" y1="599.1094" y2="599.1094"/><text fill="#000000" font-family="sans-serif" font-size="14" lengthAdjust="spacing" textLength="56.0342" x="581" y="617.6426">BaseTab</text></g><!--entity project_tab--><g class="entity" data-entity="project_tab" data-source-line="47" data-uid="ent0010" id="entity_project_tab"><rect fill="#F1F1F1" height="63.2188" rx="2.5" ry="2.5" style="stroke:#181818;stroke-width:0.5;" width="87.6963" x="565" y="315.5"/><text fill="#000000" font-family="sans-serif" font-size="14" lengthAdjust="spacing" textLength="60.6963" x="575" y="340.0332">project.py</text><line style="stroke:#181818;stroke-width:1;" x1="566" x2="651.6963" y1="343.1094" y2="343.1094"/><text fill="#000000" font-family="sans-serif" font-size="14" lengthAdjust="spacing" textLength="67.6963" x="575" y="361.6426">ProjectTab</text></g><!--entity other_tabs--><g class="entity" data-entity="other_tabs" data-source-line="53" data-uid="ent0011" id="entity_other_tabs"><rect fill="#F1F1F1" height="125.6563" rx="2.5" ry="2.5" style="stroke:#181818;stroke-width:0.5;" width="115.7168" x="414" y="284"/><text fill="#000000" font-family="sans-serif" font-size="14" lengthAdjust="spacing" textLength="40.4619" x="424" y="308.5332">ssh.py</text><text fill="#000000" font-family="sans-serif" font-size="14" lengthAdjust="spacing" textLength="67.6963" x="424" y="326.1426">network.py</text><text fill="#000000" font-family="sans-serif" font-size="14" lengthAdjust="spacing" textLength="95.7168" x="424" y="343.752">environment.py</text><text fill="#000000" font-family="sans-serif" font-size="14" lengthAdjust="spacing" textLength="65.3721" x="424" y="361.3613">storage.py</text><text fill="#000000" font-family="sans-serif" font-size="14" lengthAdjust="spacing" textLength="59.124" x="424" y="378.9707">scripts.py</text><text fill="#000000" font-family="sans-serif" font-size="14" lengthAdjust="spacing" textLength="76.2344" x="424" y="396.5801">summary.py</text></g><!--entity config_template--><g class="entity" data-entity="config_template" data-source-line="73" data-uid="ent0014" id="entity_config_template"><rect fill="#F1F1F1" height="80.8281" rx="2.5" ry="2.5" style="stroke:#181818;stroke-width:0.5;" width="163.9375" x="842" y="562.5"/><text fill="#000000" font-family="sans-serif" font-size="14" lengthAdjust="spacing" textLength="143.9375" x="852" y="587.0332">config-template-full.yml</text><line style="stroke:#181818;stroke-width:1;" x1="843" x2="1004.9375" y1="590.1094" y2="590.1094"/><text fill="#000000" font-family="sans-serif" font-size="14" lengthAdjust="spacing" textLength="120.5996" x="852" y="608.6426">Master template for</text><text fill="#000000" font-family="sans-serif" font-size="14" lengthAdjust="spacing" textLength="98.041" x="852" y="626.252">user_config.yml</text></g><!--link ui_state_bridge to ui_state--><g class="link" data-entity-1="ui_state_bridge" data-entity-2="ui_state" data-source-line="80" data-uid="lnk15" id="link_ui_state_bridge_ui_state"><path codeLine="80" d="M265.61,378.78 C251.72,396.51 234.12,419.32 219,440 C210.7,451.34 208.37,454.03 201,466 C192.4,479.96 186.6268,489.7523 178.3568,504.5523" fill="none" id="ui_state_bridge-to-ui_state" style="stroke:#181818;stroke-width:1;"/><polygon fill="#181818" points="175.43,509.79,183.312,503.8846,177.869,505.4252,176.3283,499.9822,175.43,509.79" style="stroke:#181818;stroke-width:1;"/><text fill="#000000" font-family="sans-serif" font-size="13" lengthAdjust="spacing" textLength="61.4009" x="220" y="454.4951">transforms</text></g><!--link ui_state_bridge to config--><g class="link" data-entity-1="ui_state_bridge" data-entity-2="config" data-source-line="81" data-uid="lnk16" id="link_ui_state_bridge_config"><path codeLine="81" d="M289.76,378.64 C289.5,411.03 289.1369,457.7102 288.7769,503.7802" fill="none" id="ui_state_bridge-to-config" style="stroke:#181818;stroke-width:1;"/><polygon fill="#181818" points="288.73,509.78,292.8002,500.8115,288.7691,504.7802,284.8004,500.749,288.73,509.78" style="stroke:#181818;stroke-width:1;"/><text fill="#000000" font-family="sans-serif" font-size="13" lengthAdjust="spacing" textLength="51.3081" x="291" y="454.4951">validates</text></g><!--link ui_state_bridge to config_template--><g class="link" data-entity-1="ui_state_bridge" data-entity-2="config_template" data-source-line="82" data-uid="lnk17" id="link_ui_state_bridge_config_template"><path codeLine="82" d="M335.71,378.54 C354.37,389.85 376.57,401.87 398,410 C513,453.61 553.34,424.19 669,466 C738.13,490.99 806.5184,528.8008 856.7584,559.2408" fill="none" id="ui_state_bridge-to-config_template" style="stroke:#181818;stroke-width:1;"/><polygon fill="#181818" points="861.89,562.35,856.2654,554.2652,857.6137,559.759,852.1199,561.1073,861.89,562.35" style="stroke:#181818;stroke-width:1;"/><text fill="#000000" font-family="sans-serif" font-size="13" lengthAdjust="spacing" textLength="96.8335" x="644" y="454.4951">generates YAML</text></g><!--link app to ui_state--><g class="link" data-entity-1="app" data-entity-2="ui_state" data-source-line="84" data-uid="lnk18" id="link_app_ui_state"><path codeLine="84" d="M402.94,137.2 C328.15,142.59 211.58,163.67 152,240 C92.79,315.86 94.4702,424.1334 106.1602,503.9234" fill="none" id="app-to-ui_state" style="stroke:#181818;stroke-width:1;"/><polygon fill="#181818" points="107.03,509.86,109.6831,500.3752,106.3052,504.9128,101.7676,501.5349,107.03,509.86" style="stroke:#181818;stroke-width:1;"/><text fill="#000000" font-family="sans-serif" font-size="13" lengthAdjust="spacing" textLength="53.479" x="153" y="352.4951">manages</text></g><!--link app to ui_state_bridge--><g class="link" data-entity-1="app" data-entity-2="ui_state_bridge" data-source-line="85" data-uid="lnk19" id="link_app_ui_state_bridge"><path codeLine="85" d="M430.25,184.18 C395.3,224.5 350.4098,276.2961 320.5498,310.7461" fill="none" id="app-to-ui_state_bridge" style="stroke:#181818;stroke-width:1;"/><polygon fill="#181818" points="316.62,315.28,325.5374,311.099,319.8949,311.5017,319.4921,305.8592,316.62,315.28" style="stroke:#181818;stroke-width:1;"/><text fill="#000000" font-family="sans-serif" font-size="13" lengthAdjust="spacing" textLength="27.46" x="404" y="228.4951">uses</text></g><!--link app to project_tab--><g class="link" data-entity-1="app" data-entity-2="project_tab" data-source-line="86" data-uid="lnk20" id="link_app_project_tab"><path codeLine="86" d="M508.66,184.35 C515.84,194.09 523.24,204.31 530,214 C553.38,247.51 574.099,282.8846 589.349,310.1246" fill="none" id="app-to-project_tab" style="stroke:#181818;stroke-width:1;"/><polygon fill="#181818" points="592.28,315.36,591.3738,305.5529,589.8375,310.9972,584.3933,309.4609,592.28,315.36" style="stroke:#181818;stroke-width:1;"/><text fill="#000000" font-family="sans-serif" font-size="13" lengthAdjust="spacing" textLength="48.4199" x="543" y="228.4951">contains</text></g><!--link app to other_tabs--><g class="link" data-entity-1="app" data-entity-2="other_tabs" data-source-line="87" data-uid="lnk21" id="link_app_other_tabs"><path codeLine="87" d="M472,184.18 C472,213.72 472,245.86 472,277.69" fill="none" id="app-to-other_tabs" style="stroke:#181818;stroke-width:1;"/><polygon fill="#181818" points="472,283.69,476,274.69,472,278.69,468,274.69,472,283.69" style="stroke:#181818;stroke-width:1;"/><text fill="#000000" font-family="sans-serif" font-size="13" lengthAdjust="spacing" textLength="48.4199" x="473" y="228.4951">contains</text></g><!--link project_tab to base--><g class="link" data-entity-1="project_tab" data-entity-2="base" data-source-line="89" data-uid="lnk22" id="link_project_tab_base"><path codeLine="89" d="M609,378.64 C609,427.46 609,504.36 609,553.25" fill="none" id="project_tab-to-base" style="stroke:#181818;stroke-width:1;"/><polygon fill="none" points="609,571.25,615,553.25,603,553.25,609,571.25" style="stroke:#181818;stroke-width:1;"/></g><!--link other_tabs to base--><g class="link" data-entity-1="other_tabs" data-entity-2="base" data-source-line="90" data-uid="lnk23" id="link_other_tabs_base"><path codeLine="90" d="M505.51,410.14 C533.08,461.25 562.4369,515.6665 583.8869,555.4465" fill="none" id="other_tabs-to-base" style="stroke:#181818;stroke-width:1;"/><polygon fill="none" points="592.43,571.29,589.1681,552.5988,578.6058,558.2942,592.43,571.29" style="stroke:#181818;stroke-width:1;"/></g><!--link base to app--><g class="link" data-entity-1="base" data-entity-2="app" data-source-line="92" data-uid="lnk24" id="link_base_app"><path codeLine="92" d="M627.03,571.31 C663.08,505.49 735.27,348 670,240 C642.19,193.97 592.2133,169.1733 546.9733,154.3933" fill="none" id="base-to-app" style="stroke:#181818;stroke-width:1;"/><polygon fill="#181818" points="541.27,152.53,548.5828,159.1272,546.0228,154.0827,551.0672,151.5227,541.27,152.53" style="stroke:#181818;stroke-width:1;"/><text fill="#000000" font-family="sans-serif" font-size="13" lengthAdjust="spacing" textLength="61.4199" x="698" y="352.4951">references</text></g><!--SRC=[ZLJRJkCm47ttLrYyfn-G1oHW4I0j22cBq6g58YUT1c_ZYsm7L2tyEtPkTXophP_QSoOpu-Cp8qcz9mtWCmcqt8fw3shp3bNJqJFy3s5xv1J1n1PQFS7kAAWDuKqBkAEbDiG0_ZEJxapmHXuMU6RF0hYGykckSA4Bs28DFDqji6l-HfNW3BY9c0SmxqBj8xGeRd-HAWQDKElKHQseD3f27vNuQoyQe2_phuGKjU0xsaH23E0fCbpraMiL4dYWH88TrKZbAswJLNf9KimWIu8PfOcOGPvFD0iqMwWpz9Y3oahHRVETaKRsg92ZcIxxw1CQCwJwfg-AwBWP1ntjuD86MT-TvXavw5ZQDg9Q8tEqtFWI9rSKvXMKgwUZWbg_niNuuAGO1c-_cDA3brRmOAGLt356r264Lo_bEoTI1YtRV-5t2rqUWVxeDzepL3V1-5gH7WZpjh1JvrVF2_f4I2QseW4cMnir-oGU-NAA2DeRc6nYibtNjfi3QzCDtnDjGE4vpqwecUkqVQznZKm9-bxZmScoSx-ESsmKuTecOZePEMwh7B-HbcxTzVuJvc-OumOuA1UFVr_S_qJ8FKjKcX5kHTGhQagSkqjvEXo2t5KqX79F1uuDM1H-bMKVv_rqeY3OWwYVPPVBvSpj0-v00Qz1Vm40]--></g></svg>