<svg xmlns="http://www.w3.org/2000/svg" xmlns:xlink="http://www.w3.org/1999/xlink" contentStyleType="text/css" data-diagram-type="ACTIVITY" height="683px" preserveAspectRatio="none" style="width:759px;height:683px;background:#FFFFFF;" version="1.1" viewBox="0 0 759 683" width="759px" zoomAndPan="magnify"><defs/><g><ellipse cx="177.3994" cy="20" fill="#222222" rx="10" ry="10" style="stroke:#222222;stroke-width:1;"/><rect fill="#F1F1F1" height="35.0938" rx="12.5" ry="12.5" style="stroke:#181818;stroke-width:0.5;" width="154.7363" x="100.0313" y="50"/><text fill="#000000" font-family="sans-serif" font-size="12" lengthAdjust="spacing" textLength="134.7363" x="110.0313" y="72.457">SC-0: Application Startup</text><rect fill="#F1F1F1" height="35.0938" rx="12.5" ry="12.5" style="stroke:#181818;stroke-width:0.5;" width="102.0371" x="126.3809" y="154.0117"/><text fill="#000000" font-family="sans-serif" font-size="12" lengthAdjust="spacing" textLength="82.0371" x="136.3809" y="176.4688">Warning Dialog</text><ellipse cx="177.3994" cy="228.0586" fill="none" rx="11" ry="11" style="stroke:#222222;stroke-width:1;"/><ellipse cx="177.3994" cy="228.0586" fill="#222222" rx="6" ry="6" style="stroke:#222222;stroke-width:1;"/><polygon fill="#F1F1F1" points="133.0718,105.0938,221.7271,105.0938,233.7271,117.0938,221.7271,129.0938,133.0718,129.0938,121.0718,117.0938,133.0718,105.0938" style="stroke:#181818;stroke-width:0.5;"/><text fill="#000000" font-family="sans-serif" font-size="11" lengthAdjust="spacing" textLength="12.2354" x="181.3994" y="140.5127">no</text><text fill="#000000" font-family="sans-serif" font-size="11" lengthAdjust="spacing" textLength="88.6553" x="133.0718" y="121.5947">Docker Available?</text><rect fill="#F1F1F1" height="35.0938" rx="12.5" ry="12.5" style="stroke:#181818;stroke-width:0.5;" width="195.3945" x="79.7021" y="281.0586"/><text fill="#000000" font-family="sans-serif" font-size="12" lengthAdjust="spacing" textLength="175.3945" x="89.7021" y="303.5156">SC-1: Project Directory Selection</text><rect fill="none" height="304.1836" style="stroke:#000000;stroke-width:1.5;" width="737.9829" x="11" y="326.1523"/><path d="M242.71,326.1523 L242.71,336.7617 L232.71,346.7617 L11,346.7617" fill="none" style="stroke:#000000;stroke-width:1.5;"/><text fill="#000000" font-family="sans-serif" font-size="14" lengthAdjust="spacing" textLength="221.71" x="14" y="341.6855">SC-2: Wizard Controller Framework</text><path d="M353.7988,398.3203 L353.7988,407.4961 L333.7988,411.4961 L353.7988,415.4961 L353.7988,424.6719 A0,0 0 0 0 353.7988,424.6719 L738.9829,424.6719 A0,0 0 0 0 738.9829,424.6719 L738.9829,408.3203 L728.9829,398.3203 L353.7988,398.3203 A0,0 0 0 0 353.7988,398.3203" fill="#FEFFDD" style="stroke:#181818;stroke-width:0.5;"/><path d="M728.9829,398.3203 L728.9829,408.3203 L738.9829,408.3203 L728.9829,398.3203" fill="#FEFFDD" style="stroke:#181818;stroke-width:0.5;"/><text fill="#000000" font-family="sans-serif" font-size="13" lengthAdjust="spacing" textLength="364.1841" x="359.7988" y="416.8154">Linear progression only (Prev/Next between consecutive steps)</text><rect fill="#F1F1F1" height="95.4688" rx="12.5" ry="12.5" style="stroke:#181818;stroke-width:0.5;" width="312.7988" x="21" y="363.7617"/><text fill="#000000" font-family="sans-serif" font-size="12" font-weight="bold" lengthAdjust="spacing" textLength="170.6895" x="31" y="386.2188">11 Linear Configuration Steps</text><text fill="#000000" font-family="sans-serif" font-size="12" lengthAdjust="spacing" textLength="290.1328" x="31" y="401.3125">SC-3: Project Info &#8594; SC-4: SSH Config &#8594; SC-5: Proxy</text><text fill="#000000" font-family="sans-serif" font-size="12" lengthAdjust="spacing" textLength="292.7988" x="31" y="416.4063">SC-6: APT Config &#8594; SC-7: Ports &#8594; SC-8: Environment</text><text fill="#000000" font-family="sans-serif" font-size="12" lengthAdjust="spacing" textLength="290.1387" x="31" y="431.5">SC-9: Devices &#8594; SC-10: Mounts &#8594; SC-11: Entry Point</text><text fill="#000000" font-family="sans-serif" font-size="12" lengthAdjust="spacing" textLength="186.3984" x="31" y="446.5938">SC-12: Scripts &#8594; SC-13: Summary</text><rect fill="#F1F1F1" height="35.0938" rx="12.5" ry="12.5" style="stroke:#181818;stroke-width:0.5;" width="135.3652" x="109.7168" y="528.1484"/><text fill="#000000" font-family="sans-serif" font-size="12" lengthAdjust="spacing" textLength="115.3652" x="119.7168" y="550.6055">Write user_config.yml</text><rect fill="#F1F1F1" height="35.0938" rx="12.5" ry="12.5" style="stroke:#181818;stroke-width:0.5;" width="128.0703" x="113.3643" y="583.2422"/><text fill="#000000" font-family="sans-serif" font-size="12" lengthAdjust="spacing" textLength="108.0703" x="123.3643" y="605.6992">Continue Navigation</text><polygon fill="#F1F1F1" points="127.561,479.2305,227.2378,479.2305,239.2378,491.2305,227.2378,503.2305,127.561,503.2305,115.561,491.2305,127.561,479.2305" style="stroke:#181818;stroke-width:0.5;"/><text fill="#000000" font-family="sans-serif" font-size="11" lengthAdjust="spacing" textLength="17.1177" x="181.3994" y="514.6494">yes</text><text fill="#000000" font-family="sans-serif" font-size="11" lengthAdjust="spacing" textLength="99.6768" x="127.561" y="495.7314">Save Configuration?</text><text fill="#000000" font-family="sans-serif" font-size="11" lengthAdjust="spacing" textLength="31.7969" x="239.2378" y="488.8135">cancel</text><ellipse cx="293.0347" cy="491.2305" fill="none" rx="11" ry="11" style="stroke:#222222;stroke-width:1;"/><ellipse cx="293.0347" cy="491.2305" fill="#222222" rx="6" ry="6" style="stroke:#222222;stroke-width:1;"/><ellipse cx="177.3994" cy="661.3359" fill="none" rx="11" ry="11" style="stroke:#222222;stroke-width:1;"/><ellipse cx="177.3994" cy="661.3359" fill="#222222" rx="6" ry="6" style="stroke:#222222;stroke-width:1;"/><line style="stroke:#181818;stroke-width:1;" x1="177.3994" x2="177.3994" y1="30" y2="50"/><polygon fill="#181818" points="173.3994,40,177.3994,50,181.3994,40,177.3994,44" style="stroke:#181818;stroke-width:1;"/><line style="stroke:#181818;stroke-width:1;" x1="177.3994" x2="177.3994" y1="189.1055" y2="217.0586"/><polygon fill="#181818" points="173.3994,207.0586,177.3994,217.0586,181.3994,207.0586,177.3994,211.0586" style="stroke:#181818;stroke-width:1;"/><line style="stroke:#181818;stroke-width:1;" x1="177.3994" x2="177.3994" y1="129.0938" y2="154.0117"/><polygon fill="#181818" points="173.3994,144.0117,177.3994,154.0117,181.3994,144.0117,177.3994,148.0117" style="stroke:#181818;stroke-width:1;"/><line style="stroke:#181818;stroke-width:1;" x1="233.7271" x2="245.7271" y1="117.0938" y2="117.0938"/><polygon fill="#181818" points="241.7271,187.0586,245.7271,197.0586,249.7271,187.0586,245.7271,191.0586" style="stroke:#181818;stroke-width:1;"/><line style="stroke:#181818;stroke-width:1;" x1="245.7271" x2="245.7271" y1="117.0938" y2="261.0586"/><line style="stroke:#181818;stroke-width:1;" x1="245.7271" x2="177.3994" y1="261.0586" y2="261.0586"/><line style="stroke:#181818;stroke-width:1;" x1="177.3994" x2="177.3994" y1="261.0586" y2="281.0586"/><polygon fill="#181818" points="173.3994,271.0586,177.3994,281.0586,181.3994,271.0586,177.3994,275.0586" style="stroke:#181818;stroke-width:1;"/><line style="stroke:#181818;stroke-width:1;" x1="177.3994" x2="177.3994" y1="85.0938" y2="105.0938"/><polygon fill="#181818" points="173.3994,95.0938,177.3994,105.0938,181.3994,95.0938,177.3994,99.0938" style="stroke:#181818;stroke-width:1;"/><line style="stroke:#181818;stroke-width:1;" x1="177.3994" x2="177.3994" y1="563.2422" y2="583.2422"/><polygon fill="#181818" points="173.3994,573.2422,177.3994,583.2422,181.3994,573.2422,177.3994,577.2422" style="stroke:#181818;stroke-width:1;"/><line style="stroke:#181818;stroke-width:1;" x1="177.3994" x2="177.3994" y1="503.2305" y2="528.1484"/><polygon fill="#181818" points="173.3994,518.1484,177.3994,528.1484,181.3994,518.1484,177.3994,522.1484" style="stroke:#181818;stroke-width:1;"/><line style="stroke:#181818;stroke-width:1;" x1="239.2378" x2="282.0347" y1="491.2305" y2="491.2305"/><polygon fill="#181818" points="272.0347,487.2305,282.0347,491.2305,272.0347,495.2305,276.0347,491.2305" style="stroke:#181818;stroke-width:1;"/><line style="stroke:#181818;stroke-width:1;" x1="177.3994" x2="177.3994" y1="618.3359" y2="650.3359"/><polygon fill="#181818" points="173.3994,640.3359,177.3994,650.3359,181.3994,640.3359,177.3994,644.3359" style="stroke:#181818;stroke-width:1;"/><line style="stroke:#181818;stroke-width:1;" x1="177.3994" x2="177.3994" y1="459.2305" y2="479.2305"/><polygon fill="#181818" points="173.3994,469.2305,177.3994,479.2305,181.3994,469.2305,177.3994,473.2305" style="stroke:#181818;stroke-width:1;"/><line style="stroke:#181818;stroke-width:1;" x1="177.3994" x2="177.3994" y1="316.1523" y2="363.7617"/><polygon fill="#181818" points="173.3994,353.7617,177.3994,363.7617,181.3994,353.7617,177.3994,357.7617" style="stroke:#181818;stroke-width:1;"/><!--SRC=[NLBRRjGm47tFLupwj5s9IxZZVK1L5mGIL2kbKX-HwywcGvsPQEAa3QYlV02Vo9Tqd90Ma28v7fypntEEk-Gr5QuwVlJKmL7RHWe-aJ1K-Q1lDqL1UrXj9LoXmj7WAVhpYEyE8LqYmuhbi01mPrwPk8Oj-IZrnafTahP0lg1zCRKl7UnKlc581b9RH4UeCDgVoPbCQteqIHyO_9c3C_hkzGAEXPDAZ2R_GNs3rw9N1_0ZgwxNPGcVYT5hXksfxdMvFRRTUcqWw_NyGVeJxmL-__oLooySLDN7FyIb-7B2tempyvLviZlz3_BQ8AAfM_Pl7BpdWLIuGKupyQs3BGuKy1vLchzVfES7NbbcOZ8RTa8BiRJ1gw3K_eMp-rTzqtWTix4i2K6flankcRrLgHMxBayk74TOxHI79oTua-0SqpLQKa6umz0d6j2oCNToRlRbT2jlnNyClCztn0cO8rOouRv3_HecwEEnYPlvB6T4t2ES-85gFoSAWB53M0NF0UFSPNeLTZ2zYzkYoFix]--></g></svg>