<svg xmlns="http://www.w3.org/2000/svg" xmlns:xlink="http://www.w3.org/1999/xlink" contentStyleType="text/css" data-diagram-type="STATE" height="1101px" preserveAspectRatio="none" style="width:1070px;height:1101px;background:#FFFFFF;" version="1.1" viewBox="0 0 1070 1101" width="1070px" zoomAndPan="magnify"><defs/><g><path d="M129,7 L297.5029,7 A12.5,12.5 0 0 1 310.0029,19.5 L310.0029,34.6094 L116.5,34.6094 L116.5,19.5 A12.5,12.5 0 0 1 129,7" fill="#F1F1F1" style="stroke:#F1F1F1;stroke-width:1;"/><rect fill="none" height="326.6094" rx="12.5" ry="12.5" style="stroke:#181818;stroke-width:0.5;" width="193.5029" x="116.5" y="7"/><line style="stroke:#181818;stroke-width:0.5;" x1="116.5" x2="310.0029" y1="34.6094" y2="34.6094"/><text fill="#000000" font-family="sans-serif" font-size="14" lengthAdjust="spacing" textLength="92.5996" x="166.9517" y="26.5332">ValidationError</text><ellipse cx="215" cy="55.6094" fill="#222222" rx="10" ry="10" style="stroke:#222222;stroke-width:1;"/><g id="ValidationError.DisplayingErrorMessage"><rect fill="#F1F1F1" height="50" rx="12.5" ry="12.5" style="stroke:#181818;stroke-width:0.5;" width="172.5029" x="128.5" y="101.6094"/><line style="stroke:#181818;stroke-width:0.5;" x1="128.5" x2="301.0029" y1="129.2188" y2="129.2188"/><text fill="#000000" font-family="sans-serif" font-size="14" lengthAdjust="spacing" textLength="152.5029" x="138.5" y="121.1426">DisplayingErrorMessage</text></g><g id="ValidationError.HighlightingInvalidFields"><rect fill="#F1F1F1" height="50" rx="12.5" ry="12.5" style="stroke:#181818;stroke-width:0.5;" width="170.9717" x="129.5" y="187.6094"/><line style="stroke:#181818;stroke-width:0.5;" x1="129.5" x2="300.4717" y1="215.2188" y2="215.2188"/><text fill="#000000" font-family="sans-serif" font-size="14" lengthAdjust="spacing" textLength="150.9717" x="139.5" y="207.1426">HighlightingInvalidFields</text></g><g id="ValidationError.DisablingNavigation"><rect fill="#F1F1F1" height="50" rx="12.5" ry="12.5" style="stroke:#181818;stroke-width:0.5;" width="143.7373" x="143" y="273.6094"/><line style="stroke:#181818;stroke-width:0.5;" x1="143" x2="286.7373" y1="301.2188" y2="301.2188"/><text fill="#000000" font-family="sans-serif" font-size="14" lengthAdjust="spacing" textLength="123.7373" x="153" y="293.1426">DisablingNavigation</text></g><!--link *start*ValidationError to DisplayingErrorMessage--><g class="link" data-entity-1="*start*ValidationError" data-entity-2="DisplayingErrorMessage" data-source-line="21" data-uid="lnk24" id="link_*start*ValidationError_DisplayingErrorMessage"><path d="M215,65.6294 C215,74.6894 215,83.0494 215,95.4394" fill="none" id="*start*ValidationError-to-DisplayingErrorMessage" style="stroke:#181818;stroke-width:1;"/><polygon fill="#181818" points="215,101.4394,219,92.4394,215,96.4394,211,92.4394,215,101.4394" style="stroke:#181818;stroke-width:1;"/></g><!--link DisplayingErrorMessage to HighlightingInvalidFields--><g class="link" data-entity-1="DisplayingErrorMessage" data-entity-2="HighlightingInvalidFields" data-source-line="22" data-uid="lnk26" id="link_DisplayingErrorMessage_HighlightingInvalidFields"><path d="M215,151.9094 C215,163.0494 215,170.2294 215,181.3694" fill="none" id="DisplayingErrorMessage-to-HighlightingInvalidFields" style="stroke:#181818;stroke-width:1;"/><polygon fill="#181818" points="215,187.3694,219,178.3694,215,182.3694,211,178.3694,215,187.3694" style="stroke:#181818;stroke-width:1;"/></g><!--link HighlightingInvalidFields to DisablingNavigation--><g class="link" data-entity-1="HighlightingInvalidFields" data-entity-2="DisablingNavigation" data-source-line="23" data-uid="lnk28" id="link_HighlightingInvalidFields_DisablingNavigation"><path d="M215,237.9094 C215,249.0494 215,256.2294 215,267.3694" fill="none" id="HighlightingInvalidFields-to-DisablingNavigation" style="stroke:#181818;stroke-width:1;"/><polygon fill="#181818" points="215,273.3694,219,264.3694,215,268.3694,211,264.3694,215,273.3694" style="stroke:#181818;stroke-width:1;"/></g><path d="M436.5,540 L580.1064,540 A12.5,12.5 0 0 1 592.6064,552.5 L592.6064,567.6094 L424,567.6094 L424,552.5 A12.5,12.5 0 0 1 436.5,540" fill="#F1F1F1" style="stroke:#F1F1F1;stroke-width:1;"/><rect fill="none" height="326.6094" rx="12.5" ry="12.5" style="stroke:#181818;stroke-width:0.5;" width="168.6064" x="424" y="540"/><line style="stroke:#181818;stroke-width:0.5;" x1="424" x2="592.6064" y1="567.6094" y2="567.6094"/><text fill="#000000" font-family="sans-serif" font-size="14" lengthAdjust="spacing" textLength="63.0205" x="476.793" y="559.5332">SaveError</text><ellipse cx="510" cy="588.6094" fill="#222222" rx="10" ry="10" style="stroke:#222222;stroke-width:1;"/><g id="SaveError.DisplayingSaveError"><rect fill="#F1F1F1" height="50" rx="12.5" ry="12.5" style="stroke:#181818;stroke-width:0.5;" width="147.6064" x="436" y="634.6094"/><line style="stroke:#181818;stroke-width:0.5;" x1="436" x2="583.6064" y1="662.2188" y2="662.2188"/><text fill="#000000" font-family="sans-serif" font-size="14" lengthAdjust="spacing" textLength="127.6064" x="446" y="654.1426">DisplayingSaveError</text></g><g id="SaveError.OfferingRetry"><rect fill="#F1F1F1" height="50" rx="12.5" ry="12.5" style="stroke:#181818;stroke-width:0.5;" width="103.248" x="458.5" y="720.6094"/><line style="stroke:#181818;stroke-width:0.5;" x1="458.5" x2="561.748" y1="748.2188" y2="748.2188"/><text fill="#000000" font-family="sans-serif" font-size="14" lengthAdjust="spacing" textLength="83.248" x="468.5" y="740.1426">OfferingRetry</text></g><g id="SaveError.AttemptingRetry"><rect fill="#F1F1F1" height="50" rx="12.5" ry="12.5" style="stroke:#181818;stroke-width:0.5;" width="120.3721" x="450" y="806.6094"/><line style="stroke:#181818;stroke-width:0.5;" x1="450" x2="570.3721" y1="834.2188" y2="834.2188"/><text fill="#000000" font-family="sans-serif" font-size="14" lengthAdjust="spacing" textLength="100.3721" x="460" y="826.1426">AttemptingRetry</text></g><!--link *start*SaveError to DisplayingSaveError--><g class="link" data-entity-1="*start*SaveError" data-entity-2="DisplayingSaveError" data-source-line="27" data-uid="lnk31" id="link_*start*SaveError_DisplayingSaveError"><path d="M510,598.6294 C510,607.6894 510,616.0494 510,628.4394" fill="none" id="*start*SaveError-to-DisplayingSaveError" style="stroke:#181818;stroke-width:1;"/><polygon fill="#181818" points="510,634.4394,514,625.4394,510,629.4394,506,625.4394,510,634.4394" style="stroke:#181818;stroke-width:1;"/></g><!--link DisplayingSaveError to OfferingRetry--><g class="link" data-entity-1="DisplayingSaveError" data-entity-2="OfferingRetry" data-source-line="28" data-uid="lnk33" id="link_DisplayingSaveError_OfferingRetry"><path d="M510,684.9094 C510,696.0494 510,703.2294 510,714.3694" fill="none" id="DisplayingSaveError-to-OfferingRetry" style="stroke:#181818;stroke-width:1;"/><polygon fill="#181818" points="510,720.3694,514,711.3694,510,715.3694,506,711.3694,510,720.3694" style="stroke:#181818;stroke-width:1;"/></g><!--link OfferingRetry to AttemptingRetry--><g class="link" data-entity-1="OfferingRetry" data-entity-2="AttemptingRetry" data-source-line="29" data-uid="lnk35" id="link_OfferingRetry_AttemptingRetry"><path d="M510,770.9094 C510,782.0494 510,789.2294 510,800.3694" fill="none" id="OfferingRetry-to-AttemptingRetry" style="stroke:#181818;stroke-width:1;"/><polygon fill="#181818" points="510,806.3694,514,797.3694,510,801.3694,506,797.3694,510,806.3694" style="stroke:#181818;stroke-width:1;"/></g><ellipse cx="552.5" cy="170.5" fill="#222222" rx="10" ry="10" style="stroke:#222222;stroke-width:1;"/><g id="NoError"><rect fill="#F1F1F1" height="50" rx="12.5" ry="12.5" style="stroke:#181818;stroke-width:0.5;" width="69.0068" x="453" y="412"/><line style="stroke:#181818;stroke-width:0.5;" x1="453" x2="522.0068" y1="439.6094" y2="439.6094"/><text fill="#000000" font-family="sans-serif" font-size="14" lengthAdjust="spacing" textLength="49.0068" x="463" y="431.5332">NoError</text></g><g id="NavigationError"><rect fill="#F1F1F1" height="50" rx="12.5" ry="12.5" style="stroke:#181818;stroke-width:0.5;" width="117.2617" x="7" y="678.5"/><line style="stroke:#181818;stroke-width:0.5;" x1="7" x2="124.2617" y1="706.1094" y2="706.1094"/><text fill="#000000" font-family="sans-serif" font-size="14" lengthAdjust="spacing" textLength="97.2617" x="17" y="698.0332">NavigationError</text></g><g id="SystemError"><rect fill="#F1F1F1" height="50" rx="12.5" ry="12.5" style="stroke:#181818;stroke-width:0.5;" width="97.7861" x="873.5" y="678.5"/><line style="stroke:#181818;stroke-width:0.5;" x1="873.5" x2="971.2861" y1="706.1094" y2="706.1094"/><text fill="#000000" font-family="sans-serif" font-size="14" lengthAdjust="spacing" textLength="77.7861" x="883.5" y="698.0332">SystemError</text></g><g id="FatalError"><rect fill="#F1F1F1" height="50" rx="12.5" ry="12.5" style="stroke:#181818;stroke-width:0.5;" width="82.2344" x="881.5" y="945"/><line style="stroke:#181818;stroke-width:0.5;" x1="881.5" x2="963.7344" y1="972.6094" y2="972.6094"/><text fill="#000000" font-family="sans-serif" font-size="14" lengthAdjust="spacing" textLength="62.2344" x="891.5" y="964.5332">FatalError</text></g><ellipse cx="922.5" cy="1084" fill="none" rx="11" ry="11" style="stroke:#222222;stroke-width:1;"/><ellipse cx="922.5" cy="1084" fill="#222222" rx="6" ry="6" style="stroke:#222222;stroke-width:1;"/><!--link *start* to NoError--><g class="link" data-entity-1="*start*" data-entity-2="NoError" data-source-line="1" data-uid="lnk4" id="link_*start*_NoError"><path d="M552.58,180.66 C552.55,210.63 550.2,308.02 522.5,382 C518.58,392.46 515.7554,398.0295 509.6654,406.9795" fill="none" id="*start*-to-NoError" style="stroke:#181818;stroke-width:1;"/><polygon fill="#181818" points="506.29,411.94,514.6601,406.7495,509.1028,407.8062,508.046,402.249,506.29,411.94" style="stroke:#181818;stroke-width:1;"/></g><!--link NoError to ValidationError--><g class="link" data-entity-1="NoError" data-entity-2="ValidationError" data-source-line="2" data-uid="lnk5" id="link_NoError_ValidationError"><path d="M452.81,432.5 C394.99,425.96 282.55,409.92 255.5,382 C242.28,368.35 234.83,357.37 227.9,339.6" fill="none" id="NoError-to-ValidationError" style="stroke:#181818;stroke-width:1;"/><polygon fill="#181818" points="225.72,334.01,225.2633,343.8483,227.5367,338.6683,232.7166,340.9416,225.72,334.01" style="stroke:#181818;stroke-width:1;"/><text fill="#000000" font-family="sans-serif" font-size="13" lengthAdjust="spacing" textLength="123.5952" x="256.5" y="378.4951">invalid_input_entered</text></g><!--link ValidationError to NoError--><g class="link" data-entity-1="ValidationError" data-entity-2="NoError" data-source-line="7" data-uid="lnk11" id="link_ValidationError_NoError"><path d="M310.61,272.33 C345.56,307.68 385.7,347.23 423.5,382 C434.41,392.04 442.1855,398.8031 453.1255,407.9431" fill="none" id="ValidationError-to-NoError" style="stroke:#181818;stroke-width:1;"/><polygon fill="#181818" points="457.73,411.79,453.3879,402.95,453.8929,408.5843,448.2587,409.0893,457.73,411.79" style="stroke:#181818;stroke-width:1;"/><text fill="#000000" font-family="sans-serif" font-size="13" lengthAdjust="spacing" textLength="89.6099" x="424.5" y="378.4951">input_corrected</text></g><!--link NoError to NavigationError--><g class="link" data-entity-1="NoError" data-entity-2="NavigationError" data-source-line="3" data-uid="lnk7" id="link_NoError_NavigationError"><path d="M452.73,439.82 C355.84,445.26 88.22,462.8 62.5,492 C16.47,544.24 38.5987,629.6472 53.9587,672.8172" fill="none" id="NoError-to-NavigationError" style="stroke:#181818;stroke-width:1;"/><polygon fill="#181818" points="55.97,678.47,56.7216,668.6499,54.2939,673.7593,49.1845,671.3316,55.97,678.47" style="stroke:#181818;stroke-width:1;"/><text fill="#000000" font-family="sans-serif" font-size="13" lengthAdjust="spacing" textLength="234.1587" x="63.5" y="506.4951">navigation_attempted_with_invalid_state</text></g><!--link NavigationError to NoError--><g class="link" data-entity-1="NavigationError" data-entity-2="NoError" data-source-line="10" data-uid="lnk13" id="link_NavigationError_NoError"><path d="M95.85,678.33 C148.74,636.89 262.17,551.05 366.5,492 C394.53,476.14 422.5321,463.7306 447.1921,453.7006" fill="none" id="NavigationError-to-NoError" style="stroke:#181818;stroke-width:1;"/><polygon fill="#181818" points="452.75,451.44,442.9062,451.1256,448.1184,453.3238,445.9202,458.5361,452.75,451.44" style="stroke:#181818;stroke-width:1;"/><text fill="#000000" font-family="sans-serif" font-size="13" lengthAdjust="spacing" textLength="104.0762" x="367.5" y="506.4951">validation_passed</text></g><!--link NoError to SaveError--><g class="link" data-entity-1="NoError" data-entity-2="SaveError" data-source-line="4" data-uid="lnk8" id="link_NoError_SaveError"><path d="M522.08,441.68 C553.18,447.03 597.15,460.11 618.5,492 C645.68,532.6 627.8058,575.9778 596.8158,615.9578" fill="none" id="NoError-to-SaveError" style="stroke:#181818;stroke-width:1;"/><polygon fill="#181818" points="593.14,620.7,601.8152,616.0373,596.2032,616.7482,595.4923,611.1362,593.14,620.7" style="stroke:#181818;stroke-width:1;"/><text fill="#000000" font-family="sans-serif" font-size="13" lengthAdjust="spacing" textLength="127.207" x="627.5" y="506.4951">save_operation_failed</text></g><!--link SaveError to NoError--><g class="link" data-entity-1="SaveError" data-entity-2="NoError" data-source-line="13" data-uid="lnk15" id="link_SaveError_NoError"><path d="M480.44,539.82 C479.59,523.69 479.5,507.54 480.5,492 C481.13,482.19 481.5865,477.3832 482.8765,468.0732" fill="none" id="SaveError-to-NoError" style="stroke:#181818;stroke-width:1;"/><polygon fill="#181818" points="483.7,462.13,478.5026,470.4958,483.0138,467.0827,486.4269,471.5938,483.7,462.13" style="stroke:#181818;stroke-width:1;"/><text fill="#000000" font-family="sans-serif" font-size="13" lengthAdjust="spacing" textLength="128.6099" x="481.5" y="506.4951">save_retry_successful</text></g><!--link NoError to SystemError--><g class="link" data-entity-1="NoError" data-entity-2="SystemError" data-source-line="5" data-uid="lnk10" id="link_NoError_SystemError"><path d="M522.19,437.11 C577.47,437.28 687.11,444.26 763.5,492 C838.07,538.6 887.6243,628.3005 909.0443,672.9405" fill="none" id="NoError-to-SystemError" style="stroke:#181818;stroke-width:1;"/><polygon fill="#181818" points="911.64,678.35,911.3528,668.5053,909.4769,673.8421,904.1402,671.9662,911.64,678.35" style="stroke:#181818;stroke-width:1;"/><text fill="#000000" font-family="sans-serif" font-size="13" lengthAdjust="spacing" textLength="150.2998" x="787.5" y="506.4951">unexpected_system_error</text></g><!--link SystemError to NoError--><g class="link" data-entity-1="SystemError" data-entity-2="NoError" data-source-line="16" data-uid="lnk17" id="link_SystemError_NoError"><path d="M935.55,678.49 C957.04,635.36 993.06,544.36 946.5,492 C918.34,460.33 630.0937,444.4356 528.0837,439.7456" fill="none" id="SystemError-to-NoError" style="stroke:#181818;stroke-width:1;"/><polygon fill="#181818" points="522.09,439.47,530.8968,443.8791,527.0847,439.6996,531.2642,435.8876,522.09,439.47" style="stroke:#181818;stroke-width:1;"/><text fill="#000000" font-family="sans-serif" font-size="13" lengthAdjust="spacing" textLength="106.209" x="956.5" y="506.4951">system_recovered</text></g><!--link ValidationError to ValidationError--><g class="link" data-entity-1="ValidationError" data-entity-2="ValidationError" data-source-line="8" data-uid="lnk12" id="link_ValidationError_ValidationError"><path d="M310.78,133.96 C330.98,137.8 345.5,149.98 345.5,170.5 C345.5,191.02 336.8744,202.0795 316.6744,205.9195" fill="none" id="ValidationError-to-ValidationError" style="stroke:#181818;stroke-width:1;"/><polygon fill="#181818" points="310.78,207.04,320.3687,209.2888,315.692,206.1062,318.8746,201.4296,310.78,207.04" style="stroke:#181818;stroke-width:1;"/><text fill="#000000" font-family="sans-serif" font-size="13" lengthAdjust="spacing" textLength="167.6733" x="351.5" y="175.9951">user_continues_invalid_input</text></g><!--link NavigationError to ValidationError--><g class="link" data-entity-1="NavigationError" data-entity-2="ValidationError" data-source-line="11" data-uid="lnk14" id="link_NavigationError_ValidationError"><path d="M58.08,678.44 C47.03,638.94 29.22,558.12 45.5,492 C60.07,432.83 84.8247,377.7352 113.5447,325.6052" fill="none" id="NavigationError-to-ValidationError" style="stroke:#181818;stroke-width:1;"/><polygon fill="#181818" points="116.44,320.35,108.5936,326.3027,114.0273,324.7294,115.6006,330.163,116.44,320.35" style="stroke:#181818;stroke-width:1;"/><text fill="#000000" font-family="sans-serif" font-size="13" lengthAdjust="spacing" textLength="122.1289" x="72.5" y="442.4951">validation_still_failing</text></g><!--link SaveError to SaveError--><g class="link" data-entity-1="SaveError" data-entity-2="SaveError" data-source-line="14" data-uid="lnk16" id="link_SaveError_SaveError"><path d="M593.08,666.33 C613.16,669.31 628,681.7 628,703.5 C628,725.3 619.095,736.8092 599.015,739.7892" fill="none" id="SaveError-to-SaveError" style="stroke:#181818;stroke-width:1;"/><polygon fill="#181818" points="593.08,740.67,602.5697,743.3055,598.0258,739.936,601.3953,735.3921,593.08,740.67" style="stroke:#181818;stroke-width:1;"/><text fill="#000000" font-family="sans-serif" font-size="13" lengthAdjust="spacing" textLength="98.998" x="634" y="708.9951">save_retry_failed</text></g><!--link SystemError to FatalError--><g class="link" data-entity-1="SystemError" data-entity-2="FatalError" data-source-line="17" data-uid="lnk19" id="link_SystemError_FatalError"><path d="M922.5,728.91 C922.5,779.3 922.5,888.31 922.5,938.65" fill="none" id="SystemError-to-FatalError" style="stroke:#181818;stroke-width:1;"/><polygon fill="#181818" points="922.5,944.65,926.5,935.65,922.5,939.65,918.5,935.65,922.5,944.65" style="stroke:#181818;stroke-width:1;"/><text fill="#000000" font-family="sans-serif" font-size="13" lengthAdjust="spacing" textLength="130.7871" x="923.5" y="911.4951">system_unrecoverable</text></g><!--link FatalError to *end*--><g class="link" data-entity-1="FatalError" data-entity-2="*end*" data-source-line="18" data-uid="lnk21" id="link_FatalError_*end*"><path d="M922.5,995.03 C922.5,1019.19 922.5,1049.31 922.5,1066.79" fill="none" id="FatalError-to-*end*" style="stroke:#181818;stroke-width:1;"/><polygon fill="#181818" points="922.5,1072.79,926.5,1063.79,922.5,1067.79,918.5,1063.79,922.5,1072.79" style="stroke:#181818;stroke-width:1;"/><text fill="#000000" font-family="sans-serif" font-size="13" lengthAdjust="spacing" textLength="89.6162" x="923.5" y="1039.4951">application_exit</text></g><!--SRC=[TLDDQyCm3BtxL-Gyw1_eOJ3OodPO1oliKeRn4YKLU8xnHzOm-jydEqqQEzaX997Ua_IUxEFTPx7Pt1VxzicOrh3hEyO-XCHAE6pL4DiMgBeGuwYqTnoK0mDLmjcB3fk4ewO85yx1jtPGyHzq9pvMiquuIAeSH0SZtz8tRpMOeKOjK6Oz3xsbkYFUApXhA4CN6nCSeZAMovd9ZjA2fB8r9d9NqKj3l0L39ELGUR0yyOUnt8oqOpTLurfO6qIju9SzPpphKCfe2Qg6iPjjQQTeeG5dUcvzMOArjPSPUc7vWB_QpUOUPyK7aycsjel78OVkX1CoGtjrnOil2Mo628GZdSbj8RIMM0uwuOnaPpmd2qD-MH4PWVc8LalHananzqfAHGC4M4z4pZCs9qaFhR1v6VQtGv2L9Tg_kR4RZK-fszxOPHppvkVwW5C-cIxToLjTWw7eUrW5uPB_Y7WORjI4kVm1]--></g></svg>