<svg xmlns="http://www.w3.org/2000/svg" xmlns:xlink="http://www.w3.org/1999/xlink" contentStyleType="text/css" data-diagram-type="STATE" height="593px" preserveAspectRatio="none" style="width:1112px;height:593px;background:#FFFFFF;" version="1.1" viewBox="0 0 1112 593" width="1112px" zoomAndPan="magnify"><defs/><g><ellipse cx="529" cy="16" fill="#222222" rx="10" ry="10" style="stroke:#222222;stroke-width:1;"/><g id="WaitingForInput"><rect fill="#F1F1F1" height="50" rx="12.5" ry="12.5" style="stroke:#181818;stroke-width:0.5;" width="118.8203" x="469.5" y="87"/><line style="stroke:#181818;stroke-width:0.5;" x1="469.5" x2="588.3203" y1="114.6094" y2="114.6094"/><text fill="#000000" font-family="sans-serif" font-size="14" lengthAdjust="spacing" textLength="98.8203" x="479.5" y="106.5332">WaitingForInput</text></g><g id="ProcessingEscape"><rect fill="#F1F1F1" height="50" rx="12.5" ry="12.5" style="stroke:#181818;stroke-width:0.5;" width="135.9512" x="7" y="215"/><line style="stroke:#181818;stroke-width:0.5;" x1="7" x2="142.9512" y1="242.6094" y2="242.6094"/><text fill="#000000" font-family="sans-serif" font-size="14" lengthAdjust="spacing" textLength="115.9512" x="17" y="234.5332">ProcessingEscape</text></g><g id="ProcessingNavigation"><rect fill="#F1F1F1" height="50" rx="12.5" ry="12.5" style="stroke:#181818;stroke-width:0.5;" width="155.4063" x="178.5" y="215"/><line style="stroke:#181818;stroke-width:0.5;" x1="178.5" x2="333.9063" y1="242.6094" y2="242.6094"/><text fill="#000000" font-family="sans-serif" font-size="14" lengthAdjust="spacing" textLength="135.4063" x="188.5" y="234.5332">ProcessingNavigation</text></g><g id="ProcessingAction"><rect fill="#F1F1F1" height="50" rx="12.5" ry="12.5" style="stroke:#181818;stroke-width:0.5;" width="128.165" x="977" y="215"/><line style="stroke:#181818;stroke-width:0.5;" x1="977" x2="1105.165" y1="242.6094" y2="242.6094"/><text fill="#000000" font-family="sans-serif" font-size="14" lengthAdjust="spacing" textLength="108.165" x="987" y="234.5332">ProcessingAction</text></g><g id="ProcessingText"><rect fill="#F1F1F1" height="50" rx="12.5" ry="12.5" style="stroke:#181818;stroke-width:0.5;" width="116.4824" x="582" y="215"/><line style="stroke:#181818;stroke-width:0.5;" x1="582" x2="698.4824" y1="242.6094" y2="242.6094"/><text fill="#000000" font-family="sans-serif" font-size="14" lengthAdjust="spacing" textLength="96.4824" x="592" y="234.5332">ProcessingText</text></g><g id="CheckingEscapeCount"><rect fill="#F1F1F1" height="50" rx="12.5" ry="12.5" style="stroke:#181818;stroke-width:0.5;" width="162.4199" x="54" y="326"/><line style="stroke:#181818;stroke-width:0.5;" x1="54" x2="216.4199" y1="353.6094" y2="353.6094"/><text fill="#000000" font-family="sans-serif" font-size="14" lengthAdjust="spacing" textLength="142.4199" x="64" y="345.5332">CheckingEscapeCount</text></g><g id="ClearingInput"><rect fill="#F1F1F1" height="50" rx="12.5" ry="12.5" style="stroke:#181818;stroke-width:0.5;" width="103.2754" x="331.5" y="454"/><line style="stroke:#181818;stroke-width:0.5;" x1="331.5" x2="434.7754" y1="481.6094" y2="481.6094"/><text fill="#000000" font-family="sans-serif" font-size="14" lengthAdjust="spacing" textLength="83.2754" x="341.5" y="473.5332">ClearingInput</text></g><g id="ReturningToMainMenu"><rect fill="#F1F1F1" height="50" rx="12.5" ry="12.5" style="stroke:#181818;stroke-width:0.5;" width="162.4063" x="54" y="454"/><line style="stroke:#181818;stroke-width:0.5;" x1="54" x2="216.4063" y1="481.6094" y2="481.6094"/><text fill="#000000" font-family="sans-serif" font-size="14" lengthAdjust="spacing" textLength="142.4063" x="64" y="473.5332">ReturningToMainMenu</text></g><ellipse cx="135" cy="576" fill="none" rx="11" ry="11" style="stroke:#222222;stroke-width:1;"/><ellipse cx="135" cy="576" fill="#222222" rx="6" ry="6" style="stroke:#222222;stroke-width:1;"/><g id="ChangingFocus"><rect fill="#F1F1F1" height="50" rx="12.5" ry="12.5" style="stroke:#181818;stroke-width:0.5;" width="118.0615" x="275" y="326"/><line style="stroke:#181818;stroke-width:0.5;" x1="275" x2="393.0615" y1="353.6094" y2="353.6094"/><text fill="#000000" font-family="sans-serif" font-size="14" lengthAdjust="spacing" textLength="98.0615" x="285" y="345.5332">ChangingFocus</text></g><g id="ExecutingAction"><rect fill="#F1F1F1" height="50" rx="12.5" ry="12.5" style="stroke:#181818;stroke-width:0.5;" width="120.3926" x="804" y="326"/><line style="stroke:#181818;stroke-width:0.5;" x1="804" x2="924.3926" y1="353.6094" y2="353.6094"/><text fill="#000000" font-family="sans-serif" font-size="14" lengthAdjust="spacing" textLength="100.3926" x="814" y="345.5332">ExecutingAction</text></g><g id="ValidationError"><rect fill="#F1F1F1" height="50" rx="12.5" ry="12.5" style="stroke:#181818;stroke-width:0.5;" width="112.5996" x="737.5" y="454"/><line style="stroke:#181818;stroke-width:0.5;" x1="737.5" x2="850.0996" y1="481.6094" y2="481.6094"/><text fill="#000000" font-family="sans-serif" font-size="14" lengthAdjust="spacing" textLength="92.5996" x="747.5" y="473.5332">ValidationError</text></g><g id="UpdatingInput"><rect fill="#F1F1F1" height="50" rx="12.5" ry="12.5" style="stroke:#181818;stroke-width:0.5;" width="107.1787" x="584.5" y="326"/><line style="stroke:#181818;stroke-width:0.5;" x1="584.5" x2="691.6787" y1="353.6094" y2="353.6094"/><text fill="#000000" font-family="sans-serif" font-size="14" lengthAdjust="spacing" textLength="87.1787" x="594.5" y="345.5332">UpdatingInput</text></g><g id="ValidatingInput"><rect fill="#F1F1F1" height="50" rx="12.5" ry="12.5" style="stroke:#181818;stroke-width:0.5;" width="112.627" x="518.5" y="454"/><line style="stroke:#181818;stroke-width:0.5;" x1="518.5" x2="631.127" y1="481.6094" y2="481.6094"/><text fill="#000000" font-family="sans-serif" font-size="14" lengthAdjust="spacing" textLength="92.627" x="528.5" y="473.5332">ValidatingInput</text></g><!--link *start* to WaitingForInput--><g class="link" data-entity-1="*start*" data-entity-2="WaitingForInput" data-source-line="1" data-uid="lnk4" id="link_*start*_WaitingForInput"><path d="M529,26.01 C529,39.89 529,60.97 529,80.84" fill="none" id="*start*-to-WaitingForInput" style="stroke:#181818;stroke-width:1;"/><polygon fill="#181818" points="529,86.84,533,77.84,529,81.84,525,77.84,529,86.84" style="stroke:#181818;stroke-width:1;"/></g><!--link WaitingForInput to ProcessingEscape--><g class="link" data-entity-1="WaitingForInput" data-entity-2="ProcessingEscape" data-source-line="2" data-uid="lnk6" id="link_WaitingForInput_ProcessingEscape"><path d="M469.43,112.87 C364.91,113.86 154.34,121.61 99,167 C84.84,178.62 79.8663,192.9058 77.4663,208.9758" fill="none" id="WaitingForInput-to-ProcessingEscape" style="stroke:#181818;stroke-width:1;"/><polygon fill="#181818" points="76.58,214.91,81.8655,206.5996,77.3185,209.9648,73.9533,205.4179,76.58,214.91" style="stroke:#181818;stroke-width:1;"/><text fill="#000000" font-family="sans-serif" font-size="13" lengthAdjust="spacing" textLength="80.209" x="100" y="181.4951">ESC_pressed</text></g><!--link WaitingForInput to ProcessingNavigation--><g class="link" data-entity-1="WaitingForInput" data-entity-2="ProcessingNavigation" data-source-line="3" data-uid="lnk8" id="link_WaitingForInput_ProcessingNavigation"><path d="M469.21,113.72 C382.57,116.17 228.66,126.3 194,167 C180.42,182.95 190.7577,197.2065 209.4777,211.1465" fill="none" id="WaitingForInput-to-ProcessingNavigation" style="stroke:#181818;stroke-width:1;"/><polygon fill="#181818" points="214.29,214.73,209.4606,206.1465,210.2797,211.7437,204.6825,212.5629,214.29,214.73" style="stroke:#181818;stroke-width:1;"/><text fill="#000000" font-family="sans-serif" font-size="13" lengthAdjust="spacing" textLength="174.8462" x="195" y="181.4951">TAB_or_SHIFT_TAB_pressed</text></g><!--link WaitingForInput to ProcessingAction--><g class="link" data-entity-1="WaitingForInput" data-entity-2="ProcessingAction" data-source-line="4" data-uid="lnk10" id="link_WaitingForInput_ProcessingAction"><path d="M588.76,118.43 C656.65,125.56 770.29,140.4 865,167 C908.7,179.28 950.7681,196.6566 985.4081,212.4066" fill="none" id="WaitingForInput-to-ProcessingAction" style="stroke:#181818;stroke-width:1;"/><polygon fill="#181818" points="990.87,214.89,984.3327,207.5236,986.3184,212.8205,981.0215,214.8062,990.87,214.89" style="stroke:#181818;stroke-width:1;"/><text fill="#000000" font-family="sans-serif" font-size="13" lengthAdjust="spacing" textLength="97.5381" x="915" y="181.4951">ENTER_pressed</text></g><!--link WaitingForInput to ProcessingText--><g class="link" data-entity-1="WaitingForInput" data-entity-2="ProcessingText" data-source-line="5" data-uid="lnk12" id="link_WaitingForInput_ProcessingText"><path d="M550.4,137.29 C570.06,159.61 595.0645,187.9872 614.6945,210.2772" fill="none" id="WaitingForInput-to-ProcessingText" style="stroke:#181818;stroke-width:1;"/><polygon fill="#181818" points="618.66,214.78,615.7137,205.3822,615.3555,211.0277,609.71,210.6694,618.66,214.78" style="stroke:#181818;stroke-width:1;"/><text fill="#000000" font-family="sans-serif" font-size="13" lengthAdjust="spacing" textLength="121.4053" x="592" y="181.4951">regular_key_pressed</text></g><!--link ProcessingEscape to CheckingEscapeCount--><g class="link" data-entity-1="ProcessingEscape" data-entity-2="CheckingEscapeCount" data-source-line="7" data-uid="lnk14" id="link_ProcessingEscape_CheckingEscapeCount"><path d="M88.32,265.19 C98.26,283.25 108.8979,302.573 118.8279,320.623" fill="none" id="ProcessingEscape-to-CheckingEscapeCount" style="stroke:#181818;stroke-width:1;"/><polygon fill="#181818" points="121.72,325.88,120.8866,316.0665,119.3099,321.4992,113.8772,319.9226,121.72,325.88" style="stroke:#181818;stroke-width:1;"/></g><!--link CheckingEscapeCount to ClearingInput--><g class="link" data-entity-1="CheckingEscapeCount" data-entity-2="ClearingInput" data-source-line="8" data-uid="lnk16" id="link_CheckingEscapeCount_ClearingInput"><path d="M182.52,376.14 C226.55,398.51 286.3208,428.8822 330.2908,451.2222" fill="none" id="CheckingEscapeCount-to-ClearingInput" style="stroke:#181818;stroke-width:1;"/><polygon fill="#181818" points="335.64,453.94,329.4281,446.2972,331.1824,451.6752,325.8044,453.4295,335.64,453.94" style="stroke:#181818;stroke-width:1;"/><text fill="#000000" font-family="sans-serif" font-size="13" lengthAdjust="spacing" textLength="83.1162" x="275" y="420.4951">single_escape</text></g><!--link CheckingEscapeCount to ReturningToMainMenu--><g class="link" data-entity-1="CheckingEscapeCount" data-entity-2="ReturningToMainMenu" data-source-line="9" data-uid="lnk18" id="link_CheckingEscapeCount_ReturningToMainMenu"><path d="M135,376.29 C135,398.61 135,425.49 135,447.78" fill="none" id="CheckingEscapeCount-to-ReturningToMainMenu" style="stroke:#181818;stroke-width:1;"/><polygon fill="#181818" points="135,453.78,139,444.78,135,448.78,131,444.78,135,453.78" style="stroke:#181818;stroke-width:1;"/><text fill="#000000" font-family="sans-serif" font-size="13" lengthAdjust="spacing" textLength="88.188" x="136" y="420.4951">double_escape</text></g><!--link ClearingInput to WaitingForInput--><g class="link" data-entity-1="ClearingInput" data-entity-2="WaitingForInput" data-source-line="10" data-uid="lnk19" id="link_ClearingInput_WaitingForInput"><path d="M392.78,453.54 C419.39,387.03 490.5814,209.0407 517.0814,142.8007" fill="none" id="ClearingInput-to-WaitingForInput" style="stroke:#181818;stroke-width:1;"/><polygon fill="#181818" points="519.31,137.23,512.2532,144.1004,517.4528,141.8723,519.6809,147.0719,519.31,137.23" style="stroke:#181818;stroke-width:1;"/></g><!--link ReturningToMainMenu to *end*--><g class="link" data-entity-1="ReturningToMainMenu" data-entity-2="*end*" data-source-line="11" data-uid="lnk21" id="link_ReturningToMainMenu_*end*"><path d="M135,504.46 C135,524.04 135,544.49 135,558.8" fill="none" id="ReturningToMainMenu-to-*end*" style="stroke:#181818;stroke-width:1;"/><polygon fill="#181818" points="135,564.8,139,555.8,135,559.8,131,555.8,135,564.8" style="stroke:#181818;stroke-width:1;"/></g><!--link ProcessingNavigation to ChangingFocus--><g class="link" data-entity-1="ProcessingNavigation" data-entity-2="ChangingFocus" data-source-line="13" data-uid="lnk23" id="link_ProcessingNavigation_ChangingFocus"><path d="M273.31,265.19 C286.24,283.25 300.3277,302.9511 313.2477,321.0011" fill="none" id="ProcessingNavigation-to-ChangingFocus" style="stroke:#181818;stroke-width:1;"/><polygon fill="#181818" points="316.74,325.88,314.7542,316.2334,313.8298,321.8142,308.249,320.8898,316.74,325.88" style="stroke:#181818;stroke-width:1;"/></g><!--link ChangingFocus to WaitingForInput--><g class="link" data-entity-1="ChangingFocus" data-entity-2="WaitingForInput" data-source-line="14" data-uid="lnk24" id="link_ChangingFocus_WaitingForInput"><path d="M341.86,325.93 C355.21,288.13 385.49,214.27 432,167 C443.69,155.12 453.3106,148.0059 467.8706,139.9459" fill="none" id="ChangingFocus-to-WaitingForInput" style="stroke:#181818;stroke-width:1;"/><polygon fill="#181818" points="473.12,137.04,463.3087,137.8993,468.7455,139.4616,467.1832,144.8984,473.12,137.04" style="stroke:#181818;stroke-width:1;"/></g><!--link ProcessingAction to ExecutingAction--><g class="link" data-entity-1="ProcessingAction" data-entity-2="ExecutingAction" data-source-line="16" data-uid="lnk26" id="link_ProcessingAction_ExecutingAction"><path d="M1001.72,265.19 C972.39,283.25 937.5889,304.6838 908.2789,322.7338" fill="none" id="ProcessingAction-to-ExecutingAction" style="stroke:#181818;stroke-width:1;"/><polygon fill="#181818" points="903.17,325.88,912.9309,324.5666,907.4274,323.2581,908.7359,317.7547,903.17,325.88" style="stroke:#181818;stroke-width:1;"/></g><!--link ExecutingAction to WaitingForInput--><g class="link" data-entity-1="ExecutingAction" data-entity-2="WaitingForInput" data-source-line="17" data-uid="lnk27" id="link_ExecutingAction_WaitingForInput"><path d="M859.61,325.88 C851.08,286.27 828.4,207.78 777,167 C748.35,144.27 658.5285,129.0941 594.7285,120.6841" fill="none" id="ExecutingAction-to-WaitingForInput" style="stroke:#181818;stroke-width:1;"/><polygon fill="#181818" points="588.78,119.9,597.1801,125.0419,593.7371,120.5534,598.2256,117.1105,588.78,119.9" style="stroke:#181818;stroke-width:1;"/><text fill="#000000" font-family="sans-serif" font-size="13" lengthAdjust="spacing" textLength="101.8989" x="842" y="245.4951">action_completed</text></g><!--link ExecutingAction to ValidationError--><g class="link" data-entity-1="ExecutingAction" data-entity-2="ValidationError" data-source-line="18" data-uid="lnk29" id="link_ExecutingAction_ValidationError"><path d="M850.5,376.29 C838.11,398.61 822.7533,426.2447 810.3733,448.5347" fill="none" id="ExecutingAction-to-ValidationError" style="stroke:#181818;stroke-width:1;"/><polygon fill="#181818" points="807.46,453.78,815.3267,447.8543,809.8877,449.4089,808.333,443.9699,807.46,453.78" style="stroke:#181818;stroke-width:1;"/><text fill="#000000" font-family="sans-serif" font-size="13" lengthAdjust="spacing" textLength="93.2344" x="834" y="420.4951">validation_failed</text></g><!--link ValidationError to WaitingForInput--><g class="link" data-entity-1="ValidationError" data-entity-2="WaitingForInput" data-source-line="19" data-uid="lnk30" id="link_ValidationError_WaitingForInput"><path d="M791.56,453.69 C784.46,387.93 761.82,208.67 722,167 C687.62,131.03 637.4021,118.9776 594.4921,114.8276" fill="none" id="ValidationError-to-WaitingForInput" style="stroke:#181818;stroke-width:1;"/><polygon fill="#181818" points="588.52,114.25,597.0931,119.0978,593.4968,114.7313,597.8633,111.135,588.52,114.25" style="stroke:#181818;stroke-width:1;"/></g><!--link ProcessingText to UpdatingInput--><g class="link" data-entity-1="ProcessingText" data-entity-2="UpdatingInput" data-source-line="21" data-uid="lnk32" id="link_ProcessingText_UpdatingInput"><path d="M639.56,265.19 C639.22,283.25 638.8797,301.831 638.5497,319.881" fill="none" id="ProcessingText-to-UpdatingInput" style="stroke:#181818;stroke-width:1;"/><polygon fill="#181818" points="638.44,325.88,642.6038,316.9546,638.5314,320.8808,634.6052,316.8084,638.44,325.88" style="stroke:#181818;stroke-width:1;"/></g><!--link UpdatingInput to ValidatingInput--><g class="link" data-entity-1="UpdatingInput" data-entity-2="ValidatingInput" data-source-line="22" data-uid="lnk34" id="link_UpdatingInput_ValidatingInput"><path d="M625.85,376.29 C614.7,398.61 600.9323,426.123 589.7923,448.413" fill="none" id="UpdatingInput-to-ValidatingInput" style="stroke:#181818;stroke-width:1;"/><polygon fill="#181818" points="587.11,453.78,594.7115,447.5176,589.3453,449.3075,587.5554,443.9412,587.11,453.78" style="stroke:#181818;stroke-width:1;"/></g><!--link ValidatingInput to WaitingForInput--><g class="link" data-entity-1="ValidatingInput" data-entity-2="WaitingForInput" data-source-line="23" data-uid="lnk35" id="link_ValidatingInput_WaitingForInput"><path d="M571.92,453.54 C563.54,387.03 541.1504,209.4229 532.8004,143.1829" fill="none" id="ValidatingInput-to-WaitingForInput" style="stroke:#181818;stroke-width:1;"/><polygon fill="#181818" points="532.05,137.23,529.207,146.6596,532.6753,142.1907,537.1442,145.6591,532.05,137.23" style="stroke:#181818;stroke-width:1;"/></g><!--SRC=[ZP9DRi8m48NtFaNMI5o0HIKQ6PK5g88K5WXPKsSQB5mxScn4Rr_ReL4INC7olRnl_fp3v9XDfo_P7eGLgbfeirIrisIaO-RTQ8vDustQSAWncsLqcxFQU1FB1yWQBg82AxJoM35_PTgmxTjoKR0WdginvpUUhWkwUH8gy6ezOh1o4Wmxuqy7ahkD0fgVa9yxAzTEMPBmsgn4CDvl6y-oK4eYmnZxbzgWTKQ5sVGAX5gXSfujjVliiOFAgITALGcvm-JOtwnt-7OxK5Kimrr31YhPXToTFwJe5RcpdKT6EbN9RmZn8-FwkvPe_GEai1r8KSPvgJ7QUEpIEUmBXFJSEFDWyFWBXCn77QZRKSb03Nh_9KOwrUSN]--></g></svg>