<svg xmlns="http://www.w3.org/2000/svg" xmlns:xlink="http://www.w3.org/1999/xlink" contentStyleType="text/css" data-diagram-type="ACTIVITY" height="989px" preserveAspectRatio="none" style="width:602px;height:989px;background:#FFFFFF;" version="1.1" viewBox="0 0 602 989" width="602px" zoomAndPan="magnify"><defs/><g><ellipse cx="227.6768" cy="20" fill="#222222" rx="10" ry="10" style="stroke:#222222;stroke-width:1;"/><path d="M348.3887,54.3711 L348.3887,63.5469 L328.3887,67.5469 L348.3887,71.5469 L348.3887,80.7227 A0,0 0 0 0 348.3887,80.7227 L553.6167,80.7227 A0,0 0 0 0 553.6167,80.7227 L553.6167,64.3711 L543.6167,54.3711 L348.3887,54.3711 A0,0 0 0 0 348.3887,54.3711" fill="#FEFFDD" style="stroke:#181818;stroke-width:0.5;"/><path d="M543.6167,54.3711 L543.6167,64.3711 L553.6167,64.3711 L543.6167,54.3711" fill="#FEFFDD" style="stroke:#181818;stroke-width:0.5;"/><text fill="#000000" font-family="sans-serif" font-size="13" lengthAdjust="spacing" textLength="184.228" x="354.3887" y="72.8662">In-memory Python dict structure</text><rect fill="#F1F1F1" height="35.0938" rx="12.5" ry="12.5" style="stroke:#181818;stroke-width:0.5;" width="201.4238" x="126.9648" y="50"/><text fill="#000000" font-family="sans-serif" font-size="12" lengthAdjust="spacing" textLength="181.4238" x="136.9648" y="72.457">Initialize empty configuration store</text><rect fill="#F1F1F1" height="35.0938" rx="12.5" ry="12.5" style="stroke:#181818;stroke-width:0.5;" width="156.043" x="149.6553" y="149.0938"/><text fill="#000000" font-family="sans-serif" font-size="12" lengthAdjust="spacing" textLength="136.043" x="159.6553" y="171.5508">User modifies form inputs</text><path d="M352.0537,208.5586 L352.0537,217.7344 L332.0537,221.7344 L352.0537,225.7344 L352.0537,234.9102 A0,0 0 0 0 352.0537,234.9102 L564.5308,234.9102 A0,0 0 0 0 564.5308,234.9102 L564.5308,218.5586 L554.5308,208.5586 L352.0537,208.5586 A0,0 0 0 0 352.0537,208.5586" fill="#FEFFDD" style="stroke:#181818;stroke-width:0.5;"/><path d="M554.5308,208.5586 L554.5308,218.5586 L564.5308,218.5586 L554.5308,208.5586" fill="#FEFFDD" style="stroke:#181818;stroke-width:0.5;"/><text fill="#000000" font-family="sans-serif" font-size="13" lengthAdjust="spacing" textLength="191.4771" x="358.0537" y="227.0537">Real-time updates without file I/O</text><rect fill="#F1F1F1" height="35.0938" rx="12.5" ry="12.5" style="stroke:#181818;stroke-width:0.5;" width="208.7539" x="123.2998" y="204.1875"/><text fill="#000000" font-family="sans-serif" font-size="12" lengthAdjust="spacing" textLength="188.7539" x="133.2998" y="226.6445">Update memory store with changes</text><rect fill="#F1F1F1" height="35.0938" rx="12.5" ry="12.5" style="stroke:#181818;stroke-width:0.5;" width="200.7559" x="127.2988" y="259.2813"/><text fill="#000000" font-family="sans-serif" font-size="12" lengthAdjust="spacing" textLength="180.7559" x="137.2988" y="281.7383">Trigger validation on current fields</text><rect fill="#F1F1F1" height="35.0938" rx="12.5" ry="12.5" style="stroke:#181818;stroke-width:0.5;" width="215.4395" x="119.957" y="363.293"/><text fill="#000000" font-family="sans-serif" font-size="12" lengthAdjust="spacing" textLength="195.4395" x="129.957" y="385.75">Validate current step if going forward</text><polygon fill="#F1F1F1" points="135.0361,418.3867,320.3174,418.3867,332.3174,430.3867,320.3174,442.3867,135.0361,442.3867,123.0361,430.3867,135.0361,418.3867" style="stroke:#181818;stroke-width:0.5;"/><text fill="#000000" font-family="sans-serif" font-size="11" lengthAdjust="spacing" textLength="185.2813" x="135.0361" y="434.8877">Validation passes or going backward?</text><text fill="#000000" font-family="sans-serif" font-size="11" lengthAdjust="spacing" textLength="17.1177" x="105.9185" y="427.9697">yes</text><text fill="#000000" font-family="sans-serif" font-size="11" lengthAdjust="spacing" textLength="12.2354" x="332.3174" y="427.9697">no</text><rect fill="#F1F1F1" height="35.0938" rx="12.5" ry="12.5" style="stroke:#181818;stroke-width:0.5;" width="204.0723" x="11" y="452.3867"/><text fill="#000000" font-family="sans-serif" font-size="12" lengthAdjust="spacing" textLength="184.0723" x="21" y="474.8438">Save current step to memory store</text><rect fill="#F1F1F1" height="35.0938" rx="12.5" ry="12.5" style="stroke:#181818;stroke-width:0.5;" width="186.1074" x="19.9824" y="507.4805"/><text fill="#000000" font-family="sans-serif" font-size="12" lengthAdjust="spacing" textLength="166.1074" x="29.9824" y="529.9375">Load new step with stored data</text><rect fill="#F1F1F1" height="35.0938" rx="12.5" ry="12.5" style="stroke:#181818;stroke-width:0.5;" width="119.3984" x="282.6182" y="452.3867"/><text fill="#000000" font-family="sans-serif" font-size="12" lengthAdjust="spacing" textLength="99.3984" x="292.6182" y="474.8438">Prevent navigation</text><rect fill="#F1F1F1" height="35.0938" rx="12.5" ry="12.5" style="stroke:#181818;stroke-width:0.5;" width="138.7227" x="272.9561" y="507.4805"/><text fill="#000000" font-family="sans-serif" font-size="12" lengthAdjust="spacing" textLength="118.7227" x="282.9561" y="529.9375">Show validation errors</text><polygon fill="#F1F1F1" points="227.6768,548.5742,239.6768,560.5742,227.6768,572.5742,215.6768,560.5742,227.6768,548.5742" style="stroke:#181818;stroke-width:0.5;"/><polygon fill="#F1F1F1" points="148.4934,314.375,306.8601,314.375,318.8601,326.375,306.8601,338.375,148.4934,338.375,136.4934,326.375,148.4934,314.375" style="stroke:#181818;stroke-width:0.5;"/><text fill="#000000" font-family="sans-serif" font-size="11" lengthAdjust="spacing" textLength="17.1177" x="231.6768" y="349.7939">yes</text><text fill="#000000" font-family="sans-serif" font-size="11" lengthAdjust="spacing" textLength="158.3667" x="148.4934" y="330.876">User navigates to different step?</text><polygon fill="#F1F1F1" points="227.6768,592.5742,239.6768,604.5742,227.6768,616.5742,215.6768,604.5742,227.6768,592.5742" style="stroke:#181818;stroke-width:0.5;"/><polygon fill="#F1F1F1" points="227.6768,105.0938,239.6768,117.0938,227.6768,129.0938,215.6768,117.0938,227.6768,105.0938" style="stroke:#181818;stroke-width:0.5;"/><polygon fill="#F1F1F1" points="170.198,636.5742,285.1555,636.5742,297.1555,648.5742,285.1555,660.5742,170.198,660.5742,158.198,648.5742,170.198,636.5742" style="stroke:#181818;stroke-width:0.5;"/><text fill="#000000" font-family="sans-serif" font-size="11" lengthAdjust="spacing" textLength="114.9575" x="170.198" y="653.0752">User continues editing?</text><rect fill="#F1F1F1" height="35.0938" rx="12.5" ry="12.5" style="stroke:#181818;stroke-width:0.5;" width="176.7324" x="139.3105" y="680.5742"/><text fill="#000000" font-family="sans-serif" font-size="12" lengthAdjust="spacing" textLength="156.7324" x="149.3105" y="703.0313">User clicks Save on final step</text><rect fill="#F1F1F1" height="35.0938" rx="12.5" ry="12.5" style="stroke:#181818;stroke-width:0.5;" width="239.4102" x="107.9717" y="735.668"/><text fill="#000000" font-family="sans-serif" font-size="12" lengthAdjust="spacing" textLength="219.4102" x="117.9717" y="758.125">Convert memory store to user_config.yml</text><rect fill="#F1F1F1" height="35.0938" rx="12.5" ry="12.5" style="stroke:#181818;stroke-width:0.5;" width="168.7109" x="143.3213" y="790.7617"/><text fill="#000000" font-family="sans-serif" font-size="12" lengthAdjust="spacing" textLength="148.7109" x="153.3213" y="813.2188">Write file to project directory</text><rect fill="#F1F1F1" height="35.0938" rx="12.5" ry="12.5" style="stroke:#181818;stroke-width:0.5;" width="196.0801" x="129.6367" y="845.8555"/><text fill="#000000" font-family="sans-serif" font-size="12" lengthAdjust="spacing" textLength="176.0801" x="139.6367" y="868.3125">Update UI with save confirmation</text><rect fill="#F1F1F1" height="35.0938" rx="12.5" ry="12.5" style="stroke:#181818;stroke-width:0.5;" width="256.1035" x="99.625" y="900.9492"/><text fill="#000000" font-family="sans-serif" font-size="12" lengthAdjust="spacing" textLength="236.1035" x="109.625" y="923.4063">Keep memory store active for more changes</text><ellipse cx="227.6768" cy="967.043" fill="none" rx="11" ry="11" style="stroke:#222222;stroke-width:1;"/><ellipse cx="227.6768" cy="967.043" fill="#222222" rx="6" ry="6" style="stroke:#222222;stroke-width:1;"/><line style="stroke:#181818;stroke-width:1;" x1="227.6768" x2="227.6768" y1="30" y2="50"/><polygon fill="#181818" points="223.6768,40,227.6768,50,231.6768,40,227.6768,44" style="stroke:#181818;stroke-width:1;"/><line style="stroke:#181818;stroke-width:1;" x1="227.6768" x2="227.6768" y1="184.1875" y2="204.1875"/><polygon fill="#181818" points="223.6768,194.1875,227.6768,204.1875,231.6768,194.1875,227.6768,198.1875" style="stroke:#181818;stroke-width:1;"/><line style="stroke:#181818;stroke-width:1;" x1="227.6768" x2="227.6768" y1="239.2813" y2="259.2813"/><polygon fill="#181818" points="223.6768,249.2813,227.6768,259.2813,231.6768,249.2813,227.6768,253.2813" style="stroke:#181818;stroke-width:1;"/><line style="stroke:#181818;stroke-width:1;" x1="113.0361" x2="113.0361" y1="487.4805" y2="507.4805"/><polygon fill="#181818" points="109.0361,497.4805,113.0361,507.4805,117.0361,497.4805,113.0361,501.4805" style="stroke:#181818;stroke-width:1;"/><line style="stroke:#181818;stroke-width:1;" x1="342.3174" x2="342.3174" y1="487.4805" y2="507.4805"/><polygon fill="#181818" points="338.3174,497.4805,342.3174,507.4805,346.3174,497.4805,342.3174,501.4805" style="stroke:#181818;stroke-width:1;"/><line style="stroke:#181818;stroke-width:1;" x1="123.0361" x2="113.0361" y1="430.3867" y2="430.3867"/><line style="stroke:#181818;stroke-width:1;" x1="113.0361" x2="113.0361" y1="430.3867" y2="452.3867"/><polygon fill="#181818" points="109.0361,442.3867,113.0361,452.3867,117.0361,442.3867,113.0361,446.3867" style="stroke:#181818;stroke-width:1;"/><line style="stroke:#181818;stroke-width:1;" x1="332.3174" x2="342.3174" y1="430.3867" y2="430.3867"/><line style="stroke:#181818;stroke-width:1;" x1="342.3174" x2="342.3174" y1="430.3867" y2="452.3867"/><polygon fill="#181818" points="338.3174,442.3867,342.3174,452.3867,346.3174,442.3867,342.3174,446.3867" style="stroke:#181818;stroke-width:1;"/><line style="stroke:#181818;stroke-width:1;" x1="113.0361" x2="113.0361" y1="542.5742" y2="560.5742"/><line style="stroke:#181818;stroke-width:1;" x1="113.0361" x2="215.6768" y1="560.5742" y2="560.5742"/><polygon fill="#181818" points="205.6768,556.5742,215.6768,560.5742,205.6768,564.5742,209.6768,560.5742" style="stroke:#181818;stroke-width:1;"/><line style="stroke:#181818;stroke-width:1;" x1="342.3174" x2="342.3174" y1="542.5742" y2="560.5742"/><line style="stroke:#181818;stroke-width:1;" x1="342.3174" x2="239.6768" y1="560.5742" y2="560.5742"/><polygon fill="#181818" points="249.6768,556.5742,239.6768,560.5742,249.6768,564.5742,245.6768,560.5742" style="stroke:#181818;stroke-width:1;"/><line style="stroke:#181818;stroke-width:1;" x1="227.6768" x2="227.6768" y1="398.3867" y2="418.3867"/><polygon fill="#181818" points="223.6768,408.3867,227.6768,418.3867,231.6768,408.3867,227.6768,412.3867" style="stroke:#181818;stroke-width:1;"/><line style="stroke:#181818;stroke-width:1;" x1="227.6768" x2="227.6768" y1="338.375" y2="363.293"/><polygon fill="#181818" points="223.6768,353.293,227.6768,363.293,231.6768,353.293,227.6768,357.293" style="stroke:#181818;stroke-width:1;"/><line style="stroke:#181818;stroke-width:1;" x1="318.8601" x2="431.6787" y1="326.375" y2="326.375"/><polygon fill="#181818" points="427.6787,457.9336,431.6787,467.9336,435.6787,457.9336,431.6787,461.9336" style="stroke:#181818;stroke-width:1;"/><line style="stroke:#181818;stroke-width:1;" x1="431.6787" x2="431.6787" y1="326.375" y2="604.5742"/><line style="stroke:#181818;stroke-width:1;" x1="431.6787" x2="239.6768" y1="604.5742" y2="604.5742"/><polygon fill="#181818" points="249.6768,600.5742,239.6768,604.5742,249.6768,608.5742,245.6768,604.5742" style="stroke:#181818;stroke-width:1;"/><line style="stroke:#181818;stroke-width:1;" x1="227.6768" x2="227.6768" y1="572.5742" y2="592.5742"/><polygon fill="#181818" points="223.6768,582.5742,227.6768,592.5742,231.6768,582.5742,227.6768,586.5742" style="stroke:#181818;stroke-width:1;"/><line style="stroke:#181818;stroke-width:1;" x1="227.6768" x2="227.6768" y1="294.375" y2="314.375"/><polygon fill="#181818" points="223.6768,304.375,227.6768,314.375,231.6768,304.375,227.6768,308.375" style="stroke:#181818;stroke-width:1;"/><line style="stroke:#181818;stroke-width:1;" x1="227.6768" x2="227.6768" y1="129.0938" y2="149.0938"/><polygon fill="#181818" points="223.6768,139.0938,227.6768,149.0938,231.6768,139.0938,227.6768,143.0938" style="stroke:#181818;stroke-width:1;"/><line style="stroke:#181818;stroke-width:1;" x1="297.1555" x2="576.5308" y1="648.5742" y2="648.5742"/><polygon fill="#181818" points="572.5308,387.793,576.5308,377.793,580.5308,387.793,576.5308,383.793" style="stroke:#181818;stroke-width:1;"/><line style="stroke:#181818;stroke-width:1;" x1="576.5308" x2="576.5308" y1="117.0938" y2="648.5742"/><line style="stroke:#181818;stroke-width:1;" x1="576.5308" x2="239.6768" y1="117.0938" y2="117.0938"/><polygon fill="#181818" points="249.6768,113.0938,239.6768,117.0938,249.6768,121.0938,245.6768,117.0938" style="stroke:#181818;stroke-width:1;"/><line style="stroke:#181818;stroke-width:1;" x1="227.6768" x2="227.6768" y1="616.5742" y2="636.5742"/><polygon fill="#181818" points="223.6768,626.5742,227.6768,636.5742,231.6768,626.5742,227.6768,630.5742" style="stroke:#181818;stroke-width:1;"/><line style="stroke:#181818;stroke-width:1;" x1="227.6768" x2="227.6768" y1="85.0938" y2="105.0938"/><polygon fill="#181818" points="223.6768,95.0938,227.6768,105.0938,231.6768,95.0938,227.6768,99.0938" style="stroke:#181818;stroke-width:1;"/><line style="stroke:#181818;stroke-width:1;" x1="227.6768" x2="227.6768" y1="660.5742" y2="680.5742"/><polygon fill="#181818" points="223.6768,670.5742,227.6768,680.5742,231.6768,670.5742,227.6768,674.5742" style="stroke:#181818;stroke-width:1;"/><line style="stroke:#181818;stroke-width:1;" x1="227.6768" x2="227.6768" y1="715.668" y2="735.668"/><polygon fill="#181818" points="223.6768,725.668,227.6768,735.668,231.6768,725.668,227.6768,729.668" style="stroke:#181818;stroke-width:1;"/><line style="stroke:#181818;stroke-width:1;" x1="227.6768" x2="227.6768" y1="770.7617" y2="790.7617"/><polygon fill="#181818" points="223.6768,780.7617,227.6768,790.7617,231.6768,780.7617,227.6768,784.7617" style="stroke:#181818;stroke-width:1;"/><line style="stroke:#181818;stroke-width:1;" x1="227.6768" x2="227.6768" y1="825.8555" y2="845.8555"/><polygon fill="#181818" points="223.6768,835.8555,227.6768,845.8555,231.6768,835.8555,227.6768,839.8555" style="stroke:#181818;stroke-width:1;"/><line style="stroke:#181818;stroke-width:1;" x1="227.6768" x2="227.6768" y1="880.9492" y2="900.9492"/><polygon fill="#181818" points="223.6768,890.9492,227.6768,900.9492,231.6768,890.9492,227.6768,894.9492" style="stroke:#181818;stroke-width:1;"/><line style="stroke:#181818;stroke-width:1;" x1="227.6768" x2="227.6768" y1="936.043" y2="956.043"/><polygon fill="#181818" points="223.6768,946.043,227.6768,956.043,231.6768,946.043,227.6768,950.043" style="stroke:#181818;stroke-width:1;"/><!--SRC=[PP8nRzmm38Lt_mgETqFQtHuoT3gqG8EcIST2bMYRYKqP56t3_VMbPETwQO43Z8C-lKS-lQHEjAelJ4fkeDy8E4wwWO_SKZUBKueCIQDWKt5K1A6krnekV3VY66M3XqrxOm9vDL1chxDW9JYXqmgWVaeeCCP0BM62Die8nDEigIcdKt2cUcWL8rX9U_2zumuBTElx3TrmfpGYpELcAdIS5LeQ42uVlsRLxqPtPhlOJc7VmNv-5a7E90wXA5CBfp8VkuMw8gVHLcbRB6HIdExFe3qod3PCPxjZyi-xB5uLCvV5kaZSvHrN9w4fSBPu_Zl6v58oboW7-ylvrmp_xs8-ZsxvnyEckusgUIE_H1U0STsf4c010fYlsp4S4iA9urN-GN39oiVoDjvLxx6FwsrwA18b7Jfi0LLlt_sXOUrp_7kOLXubdcrD3DOhxkxFrLu3Fv1_JL3sCjMMs0rbvAQgFqLUKFHz5MpVsIx-tFluOHi78ty8MVRblUryalY2rhr0OX-xQiJHggVB4KN9CKl8UEnPVqOBwfsNyqh6sUjPNUt_jO5sFFq1]--></g></svg>