<svg xmlns="http://www.w3.org/2000/svg" xmlns:xlink="http://www.w3.org/1999/xlink" contentStyleType="text/css" data-diagram-type="ACTIVITY" height="690px" preserveAspectRatio="none" style="width:833px;height:690px;background:#FFFFFF;" version="1.1" viewBox="0 0 833 690" width="833px" zoomAndPan="magnify"><defs/><g><ellipse cx="477.6914" cy="20" fill="#222222" rx="10" ry="10" style="stroke:#222222;stroke-width:1;"/><rect fill="#F1F1F1" height="35.0938" rx="12.5" ry="12.5" style="stroke:#181818;stroke-width:0.5;" width="210.7344" x="372.3242" y="50"/><text fill="#000000" font-family="sans-serif" font-size="12" lengthAdjust="spacing" textLength="190.7344" x="382.3242" y="72.457">User triggers navigation (Prev/Next)</text><polygon fill="#F1F1F1" points="426.3276,105.0938,529.0552,105.0938,541.0552,117.0938,529.0552,129.0938,426.3276,129.0938,414.3276,117.0938,426.3276,105.0938" style="stroke:#181818;stroke-width:0.5;"/><text fill="#000000" font-family="sans-serif" font-size="11" lengthAdjust="spacing" textLength="102.7275" x="426.3276" y="121.5947">Navigation direction?</text><text fill="#000000" font-family="sans-serif" font-size="11" lengthAdjust="spacing" textLength="22.6177" x="391.71" y="114.6768">Next</text><text fill="#000000" font-family="sans-serif" font-size="11" lengthAdjust="spacing" textLength="22.6177" x="541.0552" y="114.6768">Prev</text><rect fill="#F1F1F1" height="35.0938" rx="12.5" ry="12.5" style="stroke:#181818;stroke-width:0.5;" width="165.418" x="195.7412" y="139.0938"/><text fill="#000000" font-family="sans-serif" font-size="12" lengthAdjust="spacing" textLength="145.418" x="205.7412" y="161.5508">Validate current step inputs</text><polygon fill="#F1F1F1" points="232.2803,194.1875,324.6201,194.1875,336.6201,206.1875,324.6201,218.1875,232.2803,218.1875,220.2803,206.1875,232.2803,194.1875" style="stroke:#181818;stroke-width:0.5;"/><text fill="#000000" font-family="sans-serif" font-size="11" lengthAdjust="spacing" textLength="92.3398" x="232.2803" y="210.6885">Validation passes?</text><text fill="#000000" font-family="sans-serif" font-size="11" lengthAdjust="spacing" textLength="17.1177" x="203.1626" y="203.7705">yes</text><text fill="#000000" font-family="sans-serif" font-size="11" lengthAdjust="spacing" textLength="12.2354" x="336.6201" y="203.7705">no</text><rect fill="#F1F1F1" height="35.0938" rx="12.5" ry="12.5" style="stroke:#181818;stroke-width:0.5;" width="190.0801" x="61.3662" y="228.1875"/><text fill="#000000" font-family="sans-serif" font-size="12" lengthAdjust="spacing" textLength="170.0801" x="71.3662" y="250.6445">Save step data to memory store</text><rect fill="#F1F1F1" height="35.0938" rx="12.5" ry="12.5" style="stroke:#181818;stroke-width:0.5;" width="142.7305" x="85.041" y="298.2813"/><text fill="#000000" font-family="sans-serif" font-size="12" lengthAdjust="spacing" textLength="122.7305" x="95.041" y="320.7383">Increment step counter</text><polygon fill="#F1F1F1" points="126.4355,368.375,186.377,368.375,198.377,380.375,186.377,392.375,126.4355,392.375,114.4355,380.375,126.4355,368.375" style="stroke:#181818;stroke-width:0.5;"/><text fill="#000000" font-family="sans-serif" font-size="11" lengthAdjust="spacing" textLength="59.9414" x="126.4355" y="384.876">Step &lt;= 11?</text><text fill="#000000" font-family="sans-serif" font-size="11" lengthAdjust="spacing" textLength="17.1177" x="97.3179" y="377.958">yes</text><text fill="#000000" font-family="sans-serif" font-size="11" lengthAdjust="spacing" textLength="12.2354" x="198.377" y="377.958">no</text><rect fill="#F1F1F1" height="35.0938" rx="12.5" ry="12.5" style="stroke:#181818;stroke-width:0.5;" width="138.0781" x="11" y="402.375"/><text fill="#000000" font-family="sans-serif" font-size="12" lengthAdjust="spacing" textLength="118.0781" x="21" y="424.832">Load next step screen</text><rect fill="#F1F1F1" height="35.0938" rx="12.5" ry="12.5" style="stroke:#181818;stroke-width:0.5;" width="127.3906" x="169.0781" y="402.375"/><text fill="#000000" font-family="sans-serif" font-size="12" lengthAdjust="spacing" textLength="107.3906" x="179.0781" y="424.832">Stay on current step</text><polygon fill="#F1F1F1" points="156.4063,443.4688,168.4063,455.4688,156.4063,467.4688,144.4063,455.4688,156.4063,443.4688" style="stroke:#181818;stroke-width:0.5;"/><rect fill="#F1F1F1" height="35.0938" rx="12.5" ry="12.5" style="stroke:#181818;stroke-width:0.5;" width="148.0508" x="326.4688" y="228.1875"/><text fill="#000000" font-family="sans-serif" font-size="12" lengthAdjust="spacing" textLength="128.0508" x="336.4688" y="250.6445">Display validation errors</text><rect fill="#F1F1F1" height="35.0938" rx="12.5" ry="12.5" style="stroke:#181818;stroke-width:0.5;" width="138.043" x="331.4727" y="298.2813"/><text fill="#000000" font-family="sans-serif" font-size="12" lengthAdjust="spacing" textLength="118.043" x="341.4727" y="320.7383">Focus first invalid field</text><rect fill="#F1F1F1" height="35.0938" rx="12.5" ry="12.5" style="stroke:#181818;stroke-width:0.5;" width="119.3984" x="340.7949" y="368.375"/><text fill="#000000" font-family="sans-serif" font-size="12" lengthAdjust="spacing" textLength="99.3984" x="350.7949" y="390.832">Prevent navigation</text><polygon fill="#F1F1F1" points="278.4502,473.4688,290.4502,485.4688,278.4502,497.4688,266.4502,485.4688,278.4502,473.4688" style="stroke:#181818;stroke-width:0.5;"/><rect fill="#F1F1F1" height="35.0938" rx="12.5" ry="12.5" style="stroke:#181818;stroke-width:0.5;" width="230.7617" x="561.5518" y="139.0938"/><text fill="#000000" font-family="sans-serif" font-size="12" lengthAdjust="spacing" textLength="210.7617" x="571.5518" y="161.5508">Save current step data to memory store</text><rect fill="#F1F1F1" height="35.0938" rx="12.5" ry="12.5" style="stroke:#181818;stroke-width:0.5;" width="148.0625" x="602.9014" y="194.1875"/><text fill="#000000" font-family="sans-serif" font-size="12" lengthAdjust="spacing" textLength="128.0625" x="612.9014" y="216.6445">Decrement step counter</text><polygon fill="#F1F1F1" points="650.0208,264.2813,703.8445,264.2813,715.8445,276.2813,703.8445,288.2813,650.0208,288.2813,638.0208,276.2813,650.0208,264.2813" style="stroke:#181818;stroke-width:0.5;"/><text fill="#000000" font-family="sans-serif" font-size="11" lengthAdjust="spacing" textLength="53.8237" x="650.0208" y="280.7822">Step &gt;= 1?</text><text fill="#000000" font-family="sans-serif" font-size="11" lengthAdjust="spacing" textLength="17.1177" x="620.9031" y="273.8643">yes</text><text fill="#000000" font-family="sans-serif" font-size="11" lengthAdjust="spacing" textLength="12.2354" x="715.8445" y="273.8643">no</text><rect fill="#F1F1F1" height="35.0938" rx="12.5" ry="12.5" style="stroke:#181818;stroke-width:0.5;" width="160.7539" x="514.5195" y="298.2813"/><text fill="#000000" font-family="sans-serif" font-size="12" lengthAdjust="spacing" textLength="140.7539" x="524.5195" y="320.7383">Load previous step screen</text><rect fill="#F1F1F1" height="35.0938" rx="12.5" ry="12.5" style="stroke:#181818;stroke-width:0.5;" width="127.3906" x="695.2734" y="298.2813"/><text fill="#000000" font-family="sans-serif" font-size="12" lengthAdjust="spacing" textLength="107.3906" x="705.2734" y="320.7383">Stay on current step</text><polygon fill="#F1F1F1" points="676.9326,339.375,688.9326,351.375,676.9326,363.375,664.9326,351.375,676.9326,339.375" style="stroke:#181818;stroke-width:0.5;"/><polygon fill="#F1F1F1" points="477.6914,503.4688,489.6914,515.4688,477.6914,527.4688,465.6914,515.4688,477.6914,503.4688" style="stroke:#181818;stroke-width:0.5;"/><rect fill="#F1F1F1" height="35.0938" rx="12.5" ry="12.5" style="stroke:#181818;stroke-width:0.5;" width="157.4082" x="398.9873" y="547.4688"/><text fill="#000000" font-family="sans-serif" font-size="12" lengthAdjust="spacing" textLength="137.4082" x="408.9873" y="569.9258">Update progress indicator</text><rect fill="#F1F1F1" height="35.0938" rx="12.5" ry="12.5" style="stroke:#181818;stroke-width:0.5;" width="188.7852" x="383.2988" y="602.5625"/><text fill="#000000" font-family="sans-serif" font-size="12" lengthAdjust="spacing" textLength="168.7852" x="393.2988" y="625.0195">Update navigation button states</text><ellipse cx="477.6914" cy="668.6563" fill="none" rx="11" ry="11" style="stroke:#222222;stroke-width:1;"/><ellipse cx="477.6914" cy="668.6563" fill="#222222" rx="6" ry="6" style="stroke:#222222;stroke-width:1;"/><line style="stroke:#181818;stroke-width:1;" x1="477.6914" x2="477.6914" y1="30" y2="50"/><polygon fill="#181818" points="473.6914,40,477.6914,50,481.6914,40,477.6914,44" style="stroke:#181818;stroke-width:1;"/><line style="stroke:#181818;stroke-width:1;" x1="156.4063" x2="156.4063" y1="263.2813" y2="298.2813"/><polygon fill="#181818" points="152.4063,288.2813,156.4063,298.2813,160.4063,288.2813,156.4063,292.2813" style="stroke:#181818;stroke-width:1;"/><line style="stroke:#181818;stroke-width:1;" x1="114.4355" x2="80.0391" y1="380.375" y2="380.375"/><line style="stroke:#181818;stroke-width:1;" x1="80.0391" x2="80.0391" y1="380.375" y2="402.375"/><polygon fill="#181818" points="76.0391,392.375,80.0391,402.375,84.0391,392.375,80.0391,396.375" style="stroke:#181818;stroke-width:1;"/><line style="stroke:#181818;stroke-width:1;" x1="198.377" x2="232.7734" y1="380.375" y2="380.375"/><line style="stroke:#181818;stroke-width:1;" x1="232.7734" x2="232.7734" y1="380.375" y2="402.375"/><polygon fill="#181818" points="228.7734,392.375,232.7734,402.375,236.7734,392.375,232.7734,396.375" style="stroke:#181818;stroke-width:1;"/><line style="stroke:#181818;stroke-width:1;" x1="80.0391" x2="80.0391" y1="437.4688" y2="455.4688"/><line style="stroke:#181818;stroke-width:1;" x1="80.0391" x2="144.4063" y1="455.4688" y2="455.4688"/><polygon fill="#181818" points="134.4063,451.4688,144.4063,455.4688,134.4063,459.4688,138.4063,455.4688" style="stroke:#181818;stroke-width:1;"/><line style="stroke:#181818;stroke-width:1;" x1="232.7734" x2="232.7734" y1="437.4688" y2="455.4688"/><line style="stroke:#181818;stroke-width:1;" x1="232.7734" x2="168.4063" y1="455.4688" y2="455.4688"/><polygon fill="#181818" points="178.4063,451.4688,168.4063,455.4688,178.4063,459.4688,174.4063,455.4688" style="stroke:#181818;stroke-width:1;"/><line style="stroke:#181818;stroke-width:1;" x1="156.4063" x2="156.4063" y1="333.375" y2="368.375"/><polygon fill="#181818" points="152.4063,358.375,156.4063,368.375,160.4063,358.375,156.4063,362.375" style="stroke:#181818;stroke-width:1;"/><line style="stroke:#181818;stroke-width:1;" x1="400.4941" x2="400.4941" y1="263.2813" y2="298.2813"/><polygon fill="#181818" points="396.4941,288.2813,400.4941,298.2813,404.4941,288.2813,400.4941,292.2813" style="stroke:#181818;stroke-width:1;"/><line style="stroke:#181818;stroke-width:1;" x1="400.4941" x2="400.4941" y1="333.375" y2="368.375"/><polygon fill="#181818" points="396.4941,358.375,400.4941,368.375,404.4941,358.375,400.4941,362.375" style="stroke:#181818;stroke-width:1;"/><line style="stroke:#181818;stroke-width:1;" x1="220.2803" x2="156.4063" y1="206.1875" y2="206.1875"/><line style="stroke:#181818;stroke-width:1;" x1="156.4063" x2="156.4063" y1="206.1875" y2="228.1875"/><polygon fill="#181818" points="152.4063,218.1875,156.4063,228.1875,160.4063,218.1875,156.4063,222.1875" style="stroke:#181818;stroke-width:1;"/><line style="stroke:#181818;stroke-width:1;" x1="336.6201" x2="400.4941" y1="206.1875" y2="206.1875"/><line style="stroke:#181818;stroke-width:1;" x1="400.4941" x2="400.4941" y1="206.1875" y2="228.1875"/><polygon fill="#181818" points="396.4941,218.1875,400.4941,228.1875,404.4941,218.1875,400.4941,222.1875" style="stroke:#181818;stroke-width:1;"/><line style="stroke:#181818;stroke-width:1;" x1="156.4063" x2="156.4063" y1="467.4688" y2="485.4688"/><line style="stroke:#181818;stroke-width:1;" x1="156.4063" x2="266.4502" y1="485.4688" y2="485.4688"/><polygon fill="#181818" points="256.4502,481.4688,266.4502,485.4688,256.4502,489.4688,260.4502,485.4688" style="stroke:#181818;stroke-width:1;"/><line style="stroke:#181818;stroke-width:1;" x1="400.4941" x2="400.4941" y1="403.4688" y2="485.4688"/><line style="stroke:#181818;stroke-width:1;" x1="400.4941" x2="290.4502" y1="485.4688" y2="485.4688"/><polygon fill="#181818" points="300.4502,481.4688,290.4502,485.4688,300.4502,489.4688,296.4502,485.4688" style="stroke:#181818;stroke-width:1;"/><line style="stroke:#181818;stroke-width:1;" x1="278.4502" x2="278.4502" y1="174.1875" y2="194.1875"/><polygon fill="#181818" points="274.4502,184.1875,278.4502,194.1875,282.4502,184.1875,278.4502,188.1875" style="stroke:#181818;stroke-width:1;"/><line style="stroke:#181818;stroke-width:1;" x1="676.9326" x2="676.9326" y1="174.1875" y2="194.1875"/><polygon fill="#181818" points="672.9326,184.1875,676.9326,194.1875,680.9326,184.1875,676.9326,188.1875" style="stroke:#181818;stroke-width:1;"/><line style="stroke:#181818;stroke-width:1;" x1="638.0208" x2="594.8965" y1="276.2813" y2="276.2813"/><line style="stroke:#181818;stroke-width:1;" x1="594.8965" x2="594.8965" y1="276.2813" y2="298.2813"/><polygon fill="#181818" points="590.8965,288.2813,594.8965,298.2813,598.8965,288.2813,594.8965,292.2813" style="stroke:#181818;stroke-width:1;"/><line style="stroke:#181818;stroke-width:1;" x1="715.8445" x2="758.9688" y1="276.2813" y2="276.2813"/><line style="stroke:#181818;stroke-width:1;" x1="758.9688" x2="758.9688" y1="276.2813" y2="298.2813"/><polygon fill="#181818" points="754.9688,288.2813,758.9688,298.2813,762.9688,288.2813,758.9688,292.2813" style="stroke:#181818;stroke-width:1;"/><line style="stroke:#181818;stroke-width:1;" x1="594.8965" x2="594.8965" y1="333.375" y2="351.375"/><line style="stroke:#181818;stroke-width:1;" x1="594.8965" x2="664.9326" y1="351.375" y2="351.375"/><polygon fill="#181818" points="654.9326,347.375,664.9326,351.375,654.9326,355.375,658.9326,351.375" style="stroke:#181818;stroke-width:1;"/><line style="stroke:#181818;stroke-width:1;" x1="758.9688" x2="758.9688" y1="333.375" y2="351.375"/><line style="stroke:#181818;stroke-width:1;" x1="758.9688" x2="688.9326" y1="351.375" y2="351.375"/><polygon fill="#181818" points="698.9326,347.375,688.9326,351.375,698.9326,355.375,694.9326,351.375" style="stroke:#181818;stroke-width:1;"/><line style="stroke:#181818;stroke-width:1;" x1="676.9326" x2="676.9326" y1="229.2813" y2="264.2813"/><polygon fill="#181818" points="672.9326,254.2813,676.9326,264.2813,680.9326,254.2813,676.9326,258.2813" style="stroke:#181818;stroke-width:1;"/><line style="stroke:#181818;stroke-width:1;" x1="414.3276" x2="278.4502" y1="117.0938" y2="117.0938"/><line style="stroke:#181818;stroke-width:1;" x1="278.4502" x2="278.4502" y1="117.0938" y2="139.0938"/><polygon fill="#181818" points="274.4502,129.0938,278.4502,139.0938,282.4502,129.0938,278.4502,133.0938" style="stroke:#181818;stroke-width:1;"/><line style="stroke:#181818;stroke-width:1;" x1="541.0552" x2="676.9326" y1="117.0938" y2="117.0938"/><line style="stroke:#181818;stroke-width:1;" x1="676.9326" x2="676.9326" y1="117.0938" y2="139.0938"/><polygon fill="#181818" points="672.9326,129.0938,676.9326,139.0938,680.9326,129.0938,676.9326,133.0938" style="stroke:#181818;stroke-width:1;"/><line style="stroke:#181818;stroke-width:1;" x1="278.4502" x2="278.4502" y1="497.4688" y2="515.4688"/><line style="stroke:#181818;stroke-width:1;" x1="278.4502" x2="465.6914" y1="515.4688" y2="515.4688"/><polygon fill="#181818" points="455.6914,511.4688,465.6914,515.4688,455.6914,519.4688,459.6914,515.4688" style="stroke:#181818;stroke-width:1;"/><line style="stroke:#181818;stroke-width:1;" x1="676.9326" x2="676.9326" y1="363.375" y2="515.4688"/><line style="stroke:#181818;stroke-width:1;" x1="676.9326" x2="489.6914" y1="515.4688" y2="515.4688"/><polygon fill="#181818" points="499.6914,511.4688,489.6914,515.4688,499.6914,519.4688,495.6914,515.4688" style="stroke:#181818;stroke-width:1;"/><line style="stroke:#181818;stroke-width:1;" x1="477.6914" x2="477.6914" y1="85.0938" y2="105.0938"/><polygon fill="#181818" points="473.6914,95.0938,477.6914,105.0938,481.6914,95.0938,477.6914,99.0938" style="stroke:#181818;stroke-width:1;"/><line style="stroke:#181818;stroke-width:1;" x1="477.6914" x2="477.6914" y1="527.4688" y2="547.4688"/><polygon fill="#181818" points="473.6914,537.4688,477.6914,547.4688,481.6914,537.4688,477.6914,541.4688" style="stroke:#181818;stroke-width:1;"/><line style="stroke:#181818;stroke-width:1;" x1="477.6914" x2="477.6914" y1="582.5625" y2="602.5625"/><polygon fill="#181818" points="473.6914,592.5625,477.6914,602.5625,481.6914,592.5625,477.6914,596.5625" style="stroke:#181818;stroke-width:1;"/><line style="stroke:#181818;stroke-width:1;" x1="477.6914" x2="477.6914" y1="637.6563" y2="657.6563"/><polygon fill="#181818" points="473.6914,647.6563,477.6914,657.6563,481.6914,647.6563,477.6914,651.6563" style="stroke:#181818;stroke-width:1;"/><!--SRC=[TP9DQyCm38Rl-HKwjgVHQxAFInaCIXcKxkubQcP8R2CfOVdta-sGTjbwoOVqIg_qs2o6f2ZFZ0H2jcsH69mPRMl4UWURTyBnuOZVigqAUu7DyPfhB64Tlrws85-eugGh0CeFqzd6248z4A4JOC40reL1k591x3HhOgTWc96NDXDoxA9zJcR4NAjA0-AXnzxJf35FM6NHcwi9-yMbzeCJf9oCHgSOVNo2tUwlWvOVl6d0wUIvdBKPkboD7IDid5-q9p4JwC2tQyrIrzXBiIufzvP3fpNZTLaayiJpxA- -7XWkbbWKJrBf7tRDd8_uez7rI68YcsMhg4ZC4wjVlEynA_TuZzZ2wrbv_NCW2LPGI-jrxXMmrUxtOCtJfsTv3kcU1F8j8RD2Q6njTD9goTrSnyz1H5yi6bU4kb7u0G00]--></g></svg>