<svg xmlns="http://www.w3.org/2000/svg" xmlns:xlink="http://www.w3.org/1999/xlink" contentStyleType="text/css" data-diagram-type="DESCRIPTION" height="615px" preserveAspectRatio="none" style="width:894px;height:615px;background:#FFFFFF;" version="1.1" viewBox="0 0 894 615" width="894px" zoomAndPan="magnify"><defs/><g><!--cluster Simple Wizard Controller--><g class="cluster" data-entity="Simple Wizard Controller" data-source-line="6" data-uid="ent0005" id="cluster_Simple Wizard Controller"><rect fill="none" height="396" rx="2.5" ry="2.5" style="stroke:#181818;stroke-width:1;" width="805" x="83" y="7"/><text fill="#000000" font-family="sans-serif" font-size="14" font-weight="bold" lengthAdjust="spacing" textLength="166.4619" x="402.269" y="23.5332">Simple Wizard Controller</text></g><g class="entity" data-entity="UC1" data-source-line="7" data-uid="ent0006" id="entity_UC1"><ellipse cx="195.6506" cy="65.2301" fill="#F1F1F1" rx="96.6506" ry="21.7301" style="stroke:#181818;stroke-width:0.5;"/><text fill="#000000" font-family="sans-serif" font-size="14" lengthAdjust="spacing" textLength="153.3164" x="118.9924" y="68.9586">Navigate Between Steps</text></g><g class="entity" data-entity="UC2" data-source-line="8" data-uid="ent0007" id="entity_UC2"><ellipse cx="490.615" cy="171.923" fill="#F1F1F1" rx="72.615" ry="16.923" style="stroke:#181818;stroke-width:0.5;"/><text fill="#000000" font-family="sans-serif" font-size="14" lengthAdjust="spacing" textLength="94.9102" x="440.1599" y="176.4396">Track Progress</text></g><g class="entity" data-entity="UC3" data-source-line="9" data-uid="ent0008" id="entity_UC3"><ellipse cx="490.6351" cy="65.227" fill="#F1F1F1" rx="81.6351" ry="18.727" style="stroke:#181818;stroke-width:0.5;"/><text fill="#000000" font-family="sans-serif" font-size="14" lengthAdjust="spacing" textLength="118.3096" x="431.1934" y="69.0405">Validate Step Input</text></g><g class="entity" data-entity="UC4" data-source-line="10" data-uid="ent0009" id="entity_UC4"><ellipse cx="780.5316" cy="65.2063" fill="#F1F1F1" rx="91.5316" ry="20.7063" style="stroke:#181818;stroke-width:0.5;"/><text fill="#000000" font-family="sans-serif" font-size="14" lengthAdjust="spacing" textLength="141.6201" x="709.7216" y="68.9348">Manage Memory State</text></g><g class="entity" data-entity="UC5" data-source-line="11" data-uid="ent0010" id="entity_UC5"><ellipse cx="195.7234" cy="142.8447" fill="#F1F1F1" rx="92.2234" ry="20.8447" style="stroke:#181818;stroke-width:0.5;"/><text fill="#000000" font-family="sans-serif" font-size="14" lengthAdjust="spacing" textLength="143.2129" x="124.117" y="146.5732">Handle Keyboard Input</text></g><g class="entity" data-entity="UC6" data-source-line="12" data-uid="ent0011" id="entity_UC6"><ellipse cx="195.6863" cy="219.1373" fill="#F1F1F1" rx="86.1863" ry="19.6373" style="stroke:#181818;stroke-width:0.5;"/><text fill="#000000" font-family="sans-serif" font-size="14" lengthAdjust="spacing" textLength="129.165" x="131.1037" y="222.8658">Display Current Step</text></g><g class="entity" data-entity="UC7" data-source-line="13" data-uid="ent0012" id="entity_UC7"><ellipse cx="195.4514" cy="292.7903" fill="#F1F1F1" rx="81.9514" ry="18.7903" style="stroke:#181818;stroke-width:0.5;"/><text fill="#000000" font-family="sans-serif" font-size="14" lengthAdjust="spacing" textLength="119.0752" x="135.7575" y="296.5653">Save Configuration</text></g><g class="entity" data-entity="UC8" data-source-line="14" data-uid="ent0013" id="entity_UC8"><ellipse cx="195.3514" cy="366.7703" fill="#F1F1F1" rx="86.8514" ry="19.7703" style="stroke:#181818;stroke-width:0.5;"/><text fill="#000000" font-family="sans-serif" font-size="14" lengthAdjust="spacing" textLength="130.7305" x="129.9862" y="370.4988">Return to Main Menu</text></g><!--entity user--><g class="entity" data-entity="user" data-source-line="2" data-uid="ent0002" id="entity_user"><ellipse cx="20.7793" cy="112.5" fill="#F1F1F1" rx="8" ry="8" style="stroke:#181818;stroke-width:0.5;"/><path d="M20.7793,120.5 L20.7793,147.5 M7.7793,128.5 L33.7793,128.5 M20.7793,147.5 L7.7793,162.5 M20.7793,147.5 L33.7793,162.5" fill="none" style="stroke:#181818;stroke-width:0.5;"/><text fill="#000000" font-family="sans-serif" font-size="14" lengthAdjust="spacing" textLength="29.5586" x="6" y="178.5332">User</text></g><!--entity config--><g class="entity" data-entity="config" data-source-line="3" data-uid="ent0003" id="entity_config"><ellipse cx="490.3135" cy="427.5" fill="#F1F1F1" rx="8" ry="8" style="stroke:#181818;stroke-width:0.5;"/><path d="M490.3135,435.5 L490.3135,462.5 M477.3135,443.5 L503.3135,443.5 M490.3135,462.5 L477.3135,477.5 M490.3135,462.5 L503.3135,477.5" fill="none" style="stroke:#181818;stroke-width:0.5;"/><text fill="#000000" font-family="sans-serif" font-size="14" lengthAdjust="spacing" textLength="120.627" x="430" y="493.5332">Configuration Store</text></g><!--entity fs--><g class="entity" data-entity="fs" data-source-line="4" data-uid="ent0004" id="entity_fs"><ellipse cx="490.562" cy="540.5" fill="#F1F1F1" rx="8" ry="8" style="stroke:#181818;stroke-width:0.5;"/><path d="M490.562,548.5 L490.562,575.5 M477.562,556.5 L503.562,556.5 M490.562,575.5 L477.562,590.5 M490.562,575.5 L503.562,590.5" fill="none" style="stroke:#181818;stroke-width:0.5;"/><text fill="#000000" font-family="sans-serif" font-size="14" lengthAdjust="spacing" textLength="73.124" x="454" y="606.5332">File System</text></g><!--link user to UC1--><g class="link" data-entity-1="user" data-entity-2="UC1" data-source-line="17" data-uid="lnk14" id="link_user_UC1"><path d="M36.02,130.74 C46.26,122.29 60.78,111.31 75,104 C92.76,94.87 107.3726,89.0996 126.1626,83.1196" fill="none" id="user-to-UC1" style="stroke:#181818;stroke-width:1;"/><polygon fill="#181818" points="131.88,81.3,122.0908,80.2178,127.1155,82.8163,124.5169,87.841,131.88,81.3" style="stroke:#181818;stroke-width:1;"/></g><!--link user to UC5--><g class="link" data-entity-1="user" data-entity-2="UC5" data-source-line="18" data-uid="lnk15" id="link_user_UC5"><path d="M36.12,143 C51.32,143 70.89,143 97.09,143" fill="none" id="user-to-UC5" style="stroke:#181818;stroke-width:1;"/><polygon fill="#181818" points="103.09,143,94.09,139,98.09,143,94.09,147,103.09,143" style="stroke:#181818;stroke-width:1;"/></g><!--link user to UC8--><g class="link" data-entity-1="user" data-entity-2="UC8" data-source-line="19" data-uid="lnk16" id="link_user_UC8"><path d="M22.73,182.11 C25.62,223.86 36.54,289.36 75,329 C87.66,342.05 99.0639,348.7752 116.3839,354.4052" fill="none" id="user-to-UC8" style="stroke:#181818;stroke-width:1;"/><polygon fill="#181818" points="122.09,356.26,114.7674,349.6737,117.3349,354.7143,112.2943,357.2819,122.09,356.26" style="stroke:#181818;stroke-width:1;"/></g><!--link UC1 to UC2--><g class="link" data-entity-1="UC1" data-entity-2="UC2" data-source-line="20" data-uid="lnk17" id="link_UC1_UC2"><path d="M246.54,83.27 C304.23,104.34 392.2239,136.4823 444.8139,155.6823" fill="none" id="UC1-to-UC2" style="stroke:#181818;stroke-width:1;"/><polygon fill="#181818" points="450.45,157.74,443.3676,150.8961,445.7532,156.0253,440.624,158.4109,450.45,157.74" style="stroke:#181818;stroke-width:1;"/><text fill="#000000" font-family="sans-serif" font-size="13" lengthAdjust="spacing" textLength="55.6563" x="323" y="109.4951">&#171;include&#187;</text></g><!--link UC1 to UC3--><g class="link" data-entity-1="UC1" data-entity-2="UC3" data-source-line="21" data-uid="lnk18" id="link_UC1_UC3"><path d="M292.03,65 C329.78,65 366.67,65 402.82,65" fill="none" id="UC1-to-UC3" style="stroke:#181818;stroke-width:1;"/><polygon fill="#181818" points="408.82,65,399.82,61,403.82,65,399.82,69,408.82,65" style="stroke:#181818;stroke-width:1;"/><text fill="#000000" font-family="sans-serif" font-size="13" lengthAdjust="spacing" textLength="55.6563" x="323" y="61.4951">&#171;include&#187;</text></g><!--link UC3 to UC4--><g class="link" data-entity-1="UC3" data-entity-2="UC4" data-source-line="22" data-uid="lnk19" id="link_UC3_UC4"><path d="M572.11,65 C608.38,65 645.37,65 682.77,65" fill="none" id="UC3-to-UC4" style="stroke:#181818;stroke-width:1;"/><polygon fill="#181818" points="688.77,65,679.77,61,683.77,65,679.77,69,688.77,65" style="stroke:#181818;stroke-width:1;"/><text fill="#000000" font-family="sans-serif" font-size="13" lengthAdjust="spacing" textLength="55.6563" x="603" y="61.4951">&#171;include&#187;</text></g><!--link UC6 to UC2--><g class="link" data-entity-1="UC6" data-entity-2="UC2" data-source-line="23" data-uid="lnk20" id="link_UC6_UC2"><path d="M280.07,214.95 C311.28,212.58 346.93,208.85 379,203 C401.93,198.82 421.2475,193.719 441.6875,187.529" fill="none" id="UC6-to-UC2" style="stroke:#181818;stroke-width:1;"/><polygon fill="#181818" points="447.43,185.79,437.657,184.5702,442.6446,187.2392,439.9757,192.2268,447.43,185.79" style="stroke:#181818;stroke-width:1;"/><text fill="#000000" font-family="sans-serif" font-size="13" lengthAdjust="spacing" textLength="55.6563" x="323" y="199.4951">&#171;include&#187;</text></g><!--link UC7 to config--><g class="link" data-entity-1="UC7" data-entity-2="config" data-source-line="24" data-uid="lnk21" id="link_UC7_config"><path d="M243.52,308.41 C259.25,314.17 276.67,321.22 292,329 C306.43,336.32 373.2868,380.4131 426.1768,415.6531" fill="none" id="UC7-to-config" style="stroke:#181818;stroke-width:1;"/><polygon fill="#181818" points="431.17,418.98,425.8982,410.6609,427.009,416.2076,421.4623,417.3184,431.17,418.98" style="stroke:#181818;stroke-width:1;"/></g><!--link UC7 to fs--><g class="link" data-entity-1="UC7" data-entity-2="fs" data-source-line="25" data-uid="lnk22" id="link_UC7_fs"><path d="M253.56,306.46 C267.33,311.76 281.17,319.05 292,329 C314.83,349.99 306.32,365.24 322,392 C355.85,449.77 361.47,467.84 409,515 C422.29,528.19 434.0034,537.1038 448.7634,546.7238" fill="none" id="UC7-to-fs" style="stroke:#181818;stroke-width:1;"/><polygon fill="#181818" points="453.79,550,448.4342,541.7347,449.6012,547.2699,444.066,548.4368,453.79,550" style="stroke:#181818;stroke-width:1;"/></g><!--SRC=[TP9DJyCm38Rl-HNMxZkmRw5f1ueG20qXok1iMhT4T4db94C5yTz9ebGAcZWbzllaTMAdeyQ2rS2oVRTGIwRAIgq4LbOpJ0w6U09emFdDc2oqQcJh60C9fSzHPAgO7waRsH6KWx5qZ6fZX0Zkg5elJ4fvxFtwAh-GQ_2MbdNNXMhV0aAv2et77l0aMxG4LsG_YK8vwaqqF1GNEVdCM7t08-kMoOp4B2TUi9Dry0eUSATwPnCspx4zAcm9zdJKF7ZMdqZO8iTkKTN-0VSqlEdmXDnlcOFNqlGT3b0uPb8sLa_SAkTAF17ywMsYrZdrHDQn2YFRerJ-biebR2D-X0XpWkbq5xkJ1Siys0YlflqCBc6xbQhgN4sxNQRCpvHvKXPdokfVjtLKqjSOmyRy0W00]--></g></svg>