<svg xmlns="http://www.w3.org/2000/svg" xmlns:xlink="http://www.w3.org/1999/xlink" contentStyleType="text/css" data-diagram-type="ACTIVITY" height="596px" preserveAspectRatio="none" style="width:565px;height:596px;background:#FFFFFF;" version="1.1" viewBox="0 0 565 596" width="565px" zoomAndPan="magnify"><defs/><g><ellipse cx="349.8251" cy="20" fill="#222222" rx="10" ry="10" style="stroke:#222222;stroke-width:1;"/><rect fill="#F1F1F1" height="35.0938" rx="12.5" ry="12.5" style="stroke:#181818;stroke-width:0.5;" width="154.0508" x="272.7997" y="50"/><text fill="#000000" font-family="sans-serif" font-size="12" lengthAdjust="spacing" textLength="134.0508" x="282.7997" y="72.457">Initialize wizard controller</text><polygon fill="#F1F1F1" points="276.1471,105.0938,423.5031,105.0938,435.5031,117.0938,423.5031,129.0938,276.1471,129.0938,264.1471,117.0938,276.1471,105.0938" style="stroke:#181818;stroke-width:0.5;"/><text fill="#000000" font-family="sans-serif" font-size="11" lengthAdjust="spacing" textLength="147.356" x="276.1471" y="121.5947">CLI screen override provided?</text><text fill="#000000" font-family="sans-serif" font-size="11" lengthAdjust="spacing" textLength="17.1177" x="247.0294" y="114.6768">yes</text><text fill="#000000" font-family="sans-serif" font-size="11" lengthAdjust="spacing" textLength="12.2354" x="435.5031" y="114.6768">no</text><rect fill="#F1F1F1" height="35.0938" rx="12.5" ry="12.5" style="stroke:#181818;stroke-width:0.5;" width="250.0801" x="87.7307" y="139.0938"/><text fill="#000000" font-family="sans-serif" font-size="12" lengthAdjust="spacing" textLength="230.0801" x="97.7307" y="161.5508">Extract target step from --screen parameter</text><polygon fill="#F1F1F1" points="132.3789,194.1875,293.1626,194.1875,305.1626,206.1875,293.1626,218.1875,132.3789,218.1875,120.3789,206.1875,132.3789,194.1875" style="stroke:#181818;stroke-width:0.5;"/><text fill="#000000" font-family="sans-serif" font-size="11" lengthAdjust="spacing" textLength="160.7837" x="132.3789" y="210.6885">Target step valid (sc-3 to sc-13)?</text><text fill="#000000" font-family="sans-serif" font-size="11" lengthAdjust="spacing" textLength="17.1177" x="103.2612" y="203.7705">yes</text><text fill="#000000" font-family="sans-serif" font-size="11" lengthAdjust="spacing" textLength="12.2354" x="305.1626" y="203.7705">no</text><rect fill="#F1F1F1" height="35.0938" rx="12.5" ry="12.5" style="stroke:#181818;stroke-width:0.5;" width="198.7578" x="11" y="228.1875"/><text fill="#000000" font-family="sans-serif" font-size="12" lengthAdjust="spacing" textLength="178.7578" x="21" y="250.6445">Navigate directly to specified step</text><rect fill="#F1F1F1" height="35.0938" rx="12.5" ry="12.5" style="stroke:#181818;stroke-width:0.5;" width="148.0566" x="241.1343" y="228.1875"/><text fill="#000000" font-family="sans-serif" font-size="12" lengthAdjust="spacing" textLength="128.0566" x="251.1343" y="250.6445">Default to Step 1 (SC-3)</text><polygon fill="#F1F1F1" points="212.7708,269.2813,224.7708,281.2813,212.7708,293.2813,200.7708,281.2813,212.7708,269.2813" style="stroke:#181818;stroke-width:0.5;"/><rect fill="#F1F1F1" height="35.0938" rx="12.5" ry="12.5" style="stroke:#181818;stroke-width:0.5;" width="135.377" x="419.1909" y="139.0938"/><text fill="#000000" font-family="sans-serif" font-size="12" lengthAdjust="spacing" textLength="115.377" x="429.1909" y="161.5508">Start at Step 1 (SC-3)</text><polygon fill="#F1F1F1" points="349.8251,299.2813,361.8251,311.2813,349.8251,323.2813,337.8251,311.2813,349.8251,299.2813" style="stroke:#181818;stroke-width:0.5;"/><rect fill="#F1F1F1" height="35.0938" rx="12.5" ry="12.5" style="stroke:#181818;stroke-width:0.5;" width="212.082" x="243.7841" y="343.2813"/><text fill="#000000" font-family="sans-serif" font-size="12" lengthAdjust="spacing" textLength="192.082" x="253.7841" y="365.7383">Initialize memory configuration store</text><rect fill="#F1F1F1" height="35.0938" rx="12.5" ry="12.5" style="stroke:#181818;stroke-width:0.5;" width="222.752" x="238.4491" y="398.375"/><text fill="#000000" font-family="sans-serif" font-size="12" lengthAdjust="spacing" textLength="202.752" x="248.4491" y="420.832">Load project directory from SC-1 state</text><rect fill="#F1F1F1" height="35.0938" rx="12.5" ry="12.5" style="stroke:#181818;stroke-width:0.5;" width="150.0664" x="274.7919" y="453.4688"/><text fill="#000000" font-family="sans-serif" font-size="12" lengthAdjust="spacing" textLength="130.0664" x="284.7919" y="475.9258">Set up progress tracking</text><rect fill="#F1F1F1" height="35.0938" rx="12.5" ry="12.5" style="stroke:#181818;stroke-width:0.5;" width="155.3926" x="272.1288" y="508.5625"/><text fill="#000000" font-family="sans-serif" font-size="12" lengthAdjust="spacing" textLength="135.3926" x="282.1288" y="531.0195">Display initial step screen</text><ellipse cx="349.8251" cy="574.6563" fill="none" rx="11" ry="11" style="stroke:#222222;stroke-width:1;"/><ellipse cx="349.8251" cy="574.6563" fill="#222222" rx="6" ry="6" style="stroke:#222222;stroke-width:1;"/><line style="stroke:#181818;stroke-width:1;" x1="349.8251" x2="349.8251" y1="30" y2="50"/><polygon fill="#181818" points="345.8251,40,349.8251,50,353.8251,40,349.8251,44" style="stroke:#181818;stroke-width:1;"/><line style="stroke:#181818;stroke-width:1;" x1="120.3789" x2="110.3789" y1="206.1875" y2="206.1875"/><line style="stroke:#181818;stroke-width:1;" x1="110.3789" x2="110.3789" y1="206.1875" y2="228.1875"/><polygon fill="#181818" points="106.3789,218.1875,110.3789,228.1875,114.3789,218.1875,110.3789,222.1875" style="stroke:#181818;stroke-width:1;"/><line style="stroke:#181818;stroke-width:1;" x1="305.1626" x2="315.1626" y1="206.1875" y2="206.1875"/><line style="stroke:#181818;stroke-width:1;" x1="315.1626" x2="315.1626" y1="206.1875" y2="228.1875"/><polygon fill="#181818" points="311.1626,218.1875,315.1626,228.1875,319.1626,218.1875,315.1626,222.1875" style="stroke:#181818;stroke-width:1;"/><line style="stroke:#181818;stroke-width:1;" x1="110.3789" x2="110.3789" y1="263.2813" y2="281.2813"/><line style="stroke:#181818;stroke-width:1;" x1="110.3789" x2="200.7708" y1="281.2813" y2="281.2813"/><polygon fill="#181818" points="190.7708,277.2813,200.7708,281.2813,190.7708,285.2813,194.7708,281.2813" style="stroke:#181818;stroke-width:1;"/><line style="stroke:#181818;stroke-width:1;" x1="315.1626" x2="315.1626" y1="263.2813" y2="281.2813"/><line style="stroke:#181818;stroke-width:1;" x1="315.1626" x2="224.7708" y1="281.2813" y2="281.2813"/><polygon fill="#181818" points="234.7708,277.2813,224.7708,281.2813,234.7708,285.2813,230.7708,281.2813" style="stroke:#181818;stroke-width:1;"/><line style="stroke:#181818;stroke-width:1;" x1="212.7708" x2="212.7708" y1="174.1875" y2="194.1875"/><polygon fill="#181818" points="208.7708,184.1875,212.7708,194.1875,216.7708,184.1875,212.7708,188.1875" style="stroke:#181818;stroke-width:1;"/><line style="stroke:#181818;stroke-width:1;" x1="264.1471" x2="212.7708" y1="117.0938" y2="117.0938"/><line style="stroke:#181818;stroke-width:1;" x1="212.7708" x2="212.7708" y1="117.0938" y2="139.0938"/><polygon fill="#181818" points="208.7708,129.0938,212.7708,139.0938,216.7708,129.0938,212.7708,133.0938" style="stroke:#181818;stroke-width:1;"/><line style="stroke:#181818;stroke-width:1;" x1="435.5031" x2="486.8794" y1="117.0938" y2="117.0938"/><line style="stroke:#181818;stroke-width:1;" x1="486.8794" x2="486.8794" y1="117.0938" y2="139.0938"/><polygon fill="#181818" points="482.8794,129.0938,486.8794,139.0938,490.8794,129.0938,486.8794,133.0938" style="stroke:#181818;stroke-width:1;"/><line style="stroke:#181818;stroke-width:1;" x1="212.7708" x2="212.7708" y1="293.2813" y2="311.2813"/><line style="stroke:#181818;stroke-width:1;" x1="212.7708" x2="337.8251" y1="311.2813" y2="311.2813"/><polygon fill="#181818" points="327.8251,307.2813,337.8251,311.2813,327.8251,315.2813,331.8251,311.2813" style="stroke:#181818;stroke-width:1;"/><line style="stroke:#181818;stroke-width:1;" x1="486.8794" x2="486.8794" y1="174.1875" y2="311.2813"/><line style="stroke:#181818;stroke-width:1;" x1="486.8794" x2="361.8251" y1="311.2813" y2="311.2813"/><polygon fill="#181818" points="371.8251,307.2813,361.8251,311.2813,371.8251,315.2813,367.8251,311.2813" style="stroke:#181818;stroke-width:1;"/><line style="stroke:#181818;stroke-width:1;" x1="349.8251" x2="349.8251" y1="85.0938" y2="105.0938"/><polygon fill="#181818" points="345.8251,95.0938,349.8251,105.0938,353.8251,95.0938,349.8251,99.0938" style="stroke:#181818;stroke-width:1;"/><line style="stroke:#181818;stroke-width:1;" x1="349.8251" x2="349.8251" y1="323.2813" y2="343.2813"/><polygon fill="#181818" points="345.8251,333.2813,349.8251,343.2813,353.8251,333.2813,349.8251,337.2813" style="stroke:#181818;stroke-width:1;"/><line style="stroke:#181818;stroke-width:1;" x1="349.8251" x2="349.8251" y1="378.375" y2="398.375"/><polygon fill="#181818" points="345.8251,388.375,349.8251,398.375,353.8251,388.375,349.8251,392.375" style="stroke:#181818;stroke-width:1;"/><line style="stroke:#181818;stroke-width:1;" x1="349.8251" x2="349.8251" y1="433.4688" y2="453.4688"/><polygon fill="#181818" points="345.8251,443.4688,349.8251,453.4688,353.8251,443.4688,349.8251,447.4688" style="stroke:#181818;stroke-width:1;"/><line style="stroke:#181818;stroke-width:1;" x1="349.8251" x2="349.8251" y1="488.5625" y2="508.5625"/><polygon fill="#181818" points="345.8251,498.5625,349.8251,508.5625,353.8251,498.5625,349.8251,502.5625" style="stroke:#181818;stroke-width:1;"/><line style="stroke:#181818;stroke-width:1;" x1="349.8251" x2="349.8251" y1="543.6563" y2="563.6563"/><polygon fill="#181818" points="345.8251,553.6563,349.8251,563.6563,353.8251,553.6563,349.8251,557.6563" style="stroke:#181818;stroke-width:1;"/><!--SRC=[NP2nSeCm38Ptda8Z30nSDZ9qI3haBjU5le0F2whMs3vPq9AdhmmPk4mUzEd_vI-9OIdQcoSXu-Y1y4iFmnRwu8M3SyZdWWOeB_SRf9uHFOG5cSaYH0wBllQj0ldIGRbYgWg0zlrFsFG26ZwYG1ACC72OeAwV6T6mcL1oEa3E_poWYrvYeKnzVG89Mbitf-grH6i-p4AZ4GHBZBsuTQCZzZGGsYqhnwDB2AKFpwqh3cPsajakjpLGTfVwL6sejpGKnuMsouR0o2kyeqTp4qw1rsnke75c8nIy7X4OpqLx3yPcOTzwwFFU36zMDB5HK7-YOASMvfZHaJ4bo2P_o8ywkbAApgn0U-SkQnTwBhGe_WC0]--></g></svg>