<svg xmlns="http://www.w3.org/2000/svg" xmlns:xlink="http://www.w3.org/1999/xlink" contentStyleType="text/css" data-diagram-type="STATE" height="271px" preserveAspectRatio="none" style="width:1271px;height:271px;background:#FFFFFF;" version="1.1" viewBox="0 0 1271 271" width="1271px" zoomAndPan="magnify"><defs/><g><ellipse cx="590.63" cy="16" fill="#222222" rx="10" ry="10" style="stroke:#222222;stroke-width:1;"/><g id="NoError"><rect fill="#F1F1F1" height="50" rx="12.5" ry="12.5" style="stroke:#181818;stroke-width:0.5;" width="69.0068" x="556.13" y="87"/><line style="stroke:#181818;stroke-width:0.5;" x1="556.13" x2="625.1368" y1="114.6094" y2="114.6094"/><text fill="#000000" font-family="sans-serif" font-size="14" lengthAdjust="spacing" textLength="49.0068" x="566.13" y="106.5332">NoError</text></g><g id="PathError"><rect fill="#F1F1F1" height="50" rx="12.5" ry="12.5" style="stroke:#181818;stroke-width:0.5;" width="79.9102" x="69.63" y="215"/><line style="stroke:#181818;stroke-width:0.5;" x1="69.63" x2="149.5402" y1="242.6094" y2="242.6094"/><text fill="#000000" font-family="sans-serif" font-size="14" lengthAdjust="spacing" textLength="59.9102" x="79.63" y="234.5332">PathError</text></g><g id="NameError"><rect fill="#F1F1F1" height="50" rx="12.5" ry="12.5" style="stroke:#181818;stroke-width:0.5;" width="88.4551" x="382.63" y="215"/><line style="stroke:#181818;stroke-width:0.5;" x1="382.63" x2="471.0851" y1="242.6094" y2="242.6094"/><text fill="#000000" font-family="sans-serif" font-size="14" lengthAdjust="spacing" textLength="68.4551" x="392.63" y="234.5332">NameError</text></g><g id="PermissionError"><rect fill="#F1F1F1" height="50" rx="12.5" ry="12.5" style="stroke:#181818;stroke-width:0.5;" width="120.3516" x="702.63" y="215"/><line style="stroke:#181818;stroke-width:0.5;" x1="702.63" x2="822.9816" y1="242.6094" y2="242.6094"/><text fill="#000000" font-family="sans-serif" font-size="14" lengthAdjust="spacing" textLength="100.3516" x="712.63" y="234.5332">PermissionError</text></g><g id="CreationError"><rect fill="#F1F1F1" height="50" rx="12.5" ry="12.5" style="stroke:#181818;stroke-width:0.5;" width="104.0273" x="1049.63" y="215"/><line style="stroke:#181818;stroke-width:0.5;" x1="1049.63" x2="1153.6573" y1="242.6094" y2="242.6094"/><text fill="#000000" font-family="sans-serif" font-size="14" lengthAdjust="spacing" textLength="84.0273" x="1059.63" y="234.5332">CreationError</text></g><!--link *start* to NoError--><g class="link" data-entity-1="*start*" data-entity-2="NoError" data-source-line="1" data-uid="lnk4" id="link_*start*_NoError"><path d="M590.63,26.01 C590.63,39.89 590.63,60.97 590.63,80.84" fill="none" id="*start*-to-NoError" style="stroke:#181818;stroke-width:1;"/><polygon fill="#181818" points="590.63,86.84,594.63,77.84,590.63,81.84,586.63,77.84,590.63,86.84" style="stroke:#181818;stroke-width:1;"/></g><!--link NoError to PathError--><g class="link" data-entity-1="NoError" data-entity-2="PathError" data-source-line="2" data-uid="lnk6" id="link_NoError_PathError"><path d="M555.78,113.67 C438.18,116.28 61.38,127.67 25.63,167 C6,188.6 33.8269,207.4591 64.1269,221.2191" fill="none" id="NoError-to-PathError" style="stroke:#181818;stroke-width:1;"/><polygon fill="#181818" points="69.59,223.7,63.0493,216.3366,65.0374,221.6326,59.7415,223.6207,69.59,223.7" style="stroke:#181818;stroke-width:1;"/><text fill="#000000" font-family="sans-serif" font-size="13" lengthAdjust="spacing" textLength="120.707" x="26.63" y="181.4951">invalid_path_entered</text></g><!--link PathError to NoError--><g class="link" data-entity-1="PathError" data-entity-2="NoError" data-source-line="7" data-uid="lnk13" id="link_PathError_NoError"><path d="M137.01,214.97 C157.1,198.72 185.8,178.24 214.63,167 C333.83,120.51 482.3003,113.5301 550.1303,112.8501" fill="none" id="PathError-to-NoError" style="stroke:#181818;stroke-width:1;"/><polygon fill="#181818" points="556.13,112.79,547.0904,108.8804,551.1303,112.8401,547.1706,116.88,556.13,112.79" style="stroke:#181818;stroke-width:1;"/><text fill="#000000" font-family="sans-serif" font-size="13" lengthAdjust="spacing" textLength="110.5889" x="215.63" y="181.4951">valid_path_entered</text></g><!--link NoError to NameError--><g class="link" data-entity-1="NoError" data-entity-2="NameError" data-source-line="3" data-uid="lnk8" id="link_NoError_NameError"><path d="M555.97,115.23 C493.6,120.05 366.45,133.8 339.63,167 C321.59,189.34 347.2092,207.2484 377.1092,220.5684" fill="none" id="NoError-to-NameError" style="stroke:#181818;stroke-width:1;"/><polygon fill="#181818" points="382.59,223.01,375.9966,215.6938,378.0227,220.9753,372.7411,223.0014,382.59,223.01" style="stroke:#181818;stroke-width:1;"/><text fill="#000000" font-family="sans-serif" font-size="13" lengthAdjust="spacing" textLength="127.9243" x="340.63" y="181.4951">invalid_name_entered</text></g><!--link NameError to NoError--><g class="link" data-entity-1="NameError" data-entity-2="NoError" data-source-line="8" data-uid="lnk14" id="link_NameError_NoError"><path d="M452.44,214.7 C468.21,200.27 489.05,181.93 508.63,167 C523.68,155.53 536.037,147.0853 550.937,137.5453" fill="none" id="NameError-to-NoError" style="stroke:#181818;stroke-width:1;"/><polygon fill="#181818" points="555.99,134.31,546.2536,135.7943,551.7792,137.0061,550.5673,142.5316,555.99,134.31" style="stroke:#181818;stroke-width:1;"/><text fill="#000000" font-family="sans-serif" font-size="13" lengthAdjust="spacing" textLength="117.8062" x="509.63" y="181.4951">valid_name_entered</text></g><!--link NoError to PermissionError--><g class="link" data-entity-1="NoError" data-entity-2="PermissionError" data-source-line="4" data-uid="lnk10" id="link_NoError_PermissionError"><path d="M613.63,137.24 C628.31,151.99 648.18,170.68 667.63,185 C682.3,195.79 694.0866,203.1733 709.6366,211.8233" fill="none" id="NoError-to-PermissionError" style="stroke:#181818;stroke-width:1;"/><polygon fill="#181818" points="714.88,214.74,708.9595,206.8694,710.5105,212.3094,705.0705,213.8605,714.88,214.74" style="stroke:#181818;stroke-width:1;"/><text fill="#000000" font-family="sans-serif" font-size="13" lengthAdjust="spacing" textLength="142.3525" x="668.63" y="181.4951">permission_check_failed</text></g><!--link PermissionError to NoError--><g class="link" data-entity-1="PermissionError" data-entity-2="NoError" data-source-line="9" data-uid="lnk15" id="link_PermissionError_NoError"><path d="M798.36,214.7 C814.68,200.6 827.93,182.6 815.63,167 C792.32,137.43 688.427,122.8288 631.297,116.8088" fill="none" id="PermissionError-to-NoError" style="stroke:#181818;stroke-width:1;"/><polygon fill="#181818" points="625.33,116.18,633.8613,121.1011,630.3025,116.704,634.6996,113.1452,625.33,116.18" style="stroke:#181818;stroke-width:1;"/><text fill="#000000" font-family="sans-serif" font-size="13" lengthAdjust="spacing" textLength="114.1753" x="820.63" y="181.4951">permission_granted</text></g><!--link NoError to CreationError--><g class="link" data-entity-1="NoError" data-entity-2="CreationError" data-source-line="5" data-uid="lnk12" id="link_NoError_CreationError"><path d="M625.15,115.12 C689.14,119.73 830,133.13 943.63,167 C983.64,178.93 1021.2737,196.277 1052.2837,212.217" fill="none" id="NoError-to-CreationError" style="stroke:#181818;stroke-width:1;"/><polygon fill="#181818" points="1057.62,214.96,1051.4442,207.288,1053.1731,212.6742,1047.7869,214.403,1057.62,214.96" style="stroke:#181818;stroke-width:1;"/><text fill="#000000" font-family="sans-serif" font-size="13" lengthAdjust="spacing" textLength="141.6353" x="993.63" y="181.4951">directory_creation_failed</text></g><!--link CreationError to NoError--><g class="link" data-entity-1="CreationError" data-entity-2="NoError" data-source-line="10" data-uid="lnk16" id="link_CreationError_NoError"><path d="M1130.36,214.98 C1144.72,200.13 1156.57,181.26 1143.63,167 C1108.72,128.51 746.7182,116.7064 631.1482,113.8864" fill="none" id="CreationError-to-NoError" style="stroke:#181818;stroke-width:1;"/><polygon fill="#181818" points="625.15,113.74,634.0497,117.9584,630.1485,113.862,634.2449,109.9607,625.15,113.74" style="stroke:#181818;stroke-width:1;"/><text fill="#000000" font-family="sans-serif" font-size="13" lengthAdjust="spacing" textLength="114.1689" x="1149.63" y="181.4951">creation_successful</text></g><!--SRC=[ROz12iCW44Ntdi9r8HVeeflIRSY-595nqaYDXj44UljAcrWLL-AV_-3z- -d1k-x2UtSZSiJszviDCao_tvbhkqcZbLXY9j0695H5kPSprcKRisPvG9grzzhP0rbI8c12U8bHQbDHLq8PCaPfGWYEtWBsoq6nltesBYAj4KcyLIqcrDeba4ruaeo8OgLnMK_EVWL0xyVLV000]--></g></svg>