<svg xmlns="http://www.w3.org/2000/svg" xmlns:xlink="http://www.w3.org/1999/xlink" contentStyleType="text/css" data-diagram-type="ACTIVITY" height="477px" preserveAspectRatio="none" style="width:402px;height:477px;background:#FFFFFF;" version="1.1" viewBox="0 0 402 477" width="402px" zoomAndPan="magnify"><defs/><g><ellipse cx="210.0781" cy="20" fill="#222222" rx="10" ry="10" style="stroke:#222222;stroke-width:1;"/><rect fill="#F1F1F1" height="35.0938" rx="12.5" ry="12.5" style="stroke:#181818;stroke-width:0.5;" width="98.6973" x="160.7295" y="50"/><text fill="#000000" font-family="sans-serif" font-size="12" lengthAdjust="spacing" textLength="78.6973" x="170.7295" y="72.457">Display screen</text><polygon fill="#F1F1F1" points="154.4363,105.0938,265.72,105.0938,277.72,117.0938,265.72,129.0938,154.4363,129.0938,142.4363,117.0938,154.4363,105.0938" style="stroke:#181818;stroke-width:0.5;"/><text fill="#000000" font-family="sans-serif" font-size="11" lengthAdjust="spacing" textLength="111.2837" x="154.4363" y="121.5947">CLI override provided?</text><text fill="#000000" font-family="sans-serif" font-size="11" lengthAdjust="spacing" textLength="17.1177" x="125.3186" y="114.6768">yes</text><text fill="#000000" font-family="sans-serif" font-size="11" lengthAdjust="spacing" textLength="12.2354" x="277.72" y="114.6768">no</text><rect fill="#F1F1F1" height="35.0938" rx="12.5" ry="12.5" style="stroke:#181818;stroke-width:0.5;" width="198.0723" x="11" y="139.0938"/><text fill="#000000" font-family="sans-serif" font-size="12" lengthAdjust="spacing" textLength="178.0723" x="21" y="161.5508">Pre-fill directory path (grayed out)</text><rect fill="#F1F1F1" height="35.0938" rx="12.5" ry="12.5" style="stroke:#181818;stroke-width:0.5;" width="165.4121" x="27.3301" y="194.1875"/><text fill="#000000" font-family="sans-serif" font-size="12" lengthAdjust="spacing" textLength="145.4121" x="37.3301" y="216.6445">Disable directory path input</text><rect fill="#F1F1F1" height="35.0938" rx="12.5" ry="12.5" style="stroke:#181818;stroke-width:0.5;" width="138.7344" x="40.6689" y="249.2813"/><text fill="#000000" font-family="sans-serif" font-size="12" lengthAdjust="spacing" textLength="118.7344" x="50.6689" y="271.7383">Disable browse button</text><rect fill="#F1F1F1" height="35.0938" rx="12.5" ry="12.5" style="stroke:#181818;stroke-width:0.5;" width="162.0957" x="229.0723" y="139.0938"/><text fill="#000000" font-family="sans-serif" font-size="12" lengthAdjust="spacing" textLength="142.0957" x="239.0723" y="161.5508">Load default directory path</text><rect fill="#F1F1F1" height="35.0938" rx="12.5" ry="12.5" style="stroke:#181818;stroke-width:0.5;" width="118.0566" x="251.0918" y="194.1875"/><text fill="#000000" font-family="sans-serif" font-size="12" lengthAdjust="spacing" textLength="98.0566" x="261.0918" y="216.6445">Enable all controls</text><polygon fill="#F1F1F1" points="210.0781,290.375,222.0781,302.375,210.0781,314.375,198.0781,302.375,210.0781,290.375" style="stroke:#181818;stroke-width:0.5;"/><rect fill="#F1F1F1" height="35.0938" rx="12.5" ry="12.5" style="stroke:#181818;stroke-width:0.5;" width="138.7109" x="140.7227" y="334.375"/><text fill="#000000" font-family="sans-serif" font-size="12" lengthAdjust="spacing" textLength="118.7109" x="150.7227" y="356.832">Check directory status</text><rect fill="#F1F1F1" height="35.0938" rx="12.5" ry="12.5" style="stroke:#181818;stroke-width:0.5;" width="123.3945" x="148.3809" y="389.4688"/><text fill="#000000" font-family="sans-serif" font-size="12" lengthAdjust="spacing" textLength="103.3945" x="158.3809" y="411.9258">Validate initial state</text><ellipse cx="210.0781" cy="455.5625" fill="none" rx="11" ry="11" style="stroke:#222222;stroke-width:1;"/><ellipse cx="210.0781" cy="455.5625" fill="#222222" rx="6" ry="6" style="stroke:#222222;stroke-width:1;"/><line style="stroke:#181818;stroke-width:1;" x1="210.0781" x2="210.0781" y1="30" y2="50"/><polygon fill="#181818" points="206.0781,40,210.0781,50,214.0781,40,210.0781,44" style="stroke:#181818;stroke-width:1;"/><line style="stroke:#181818;stroke-width:1;" x1="110.0361" x2="110.0361" y1="174.1875" y2="194.1875"/><polygon fill="#181818" points="106.0361,184.1875,110.0361,194.1875,114.0361,184.1875,110.0361,188.1875" style="stroke:#181818;stroke-width:1;"/><line style="stroke:#181818;stroke-width:1;" x1="110.0361" x2="110.0361" y1="229.2813" y2="249.2813"/><polygon fill="#181818" points="106.0361,239.2813,110.0361,249.2813,114.0361,239.2813,110.0361,243.2813" style="stroke:#181818;stroke-width:1;"/><line style="stroke:#181818;stroke-width:1;" x1="310.1201" x2="310.1201" y1="174.1875" y2="194.1875"/><polygon fill="#181818" points="306.1201,184.1875,310.1201,194.1875,314.1201,184.1875,310.1201,188.1875" style="stroke:#181818;stroke-width:1;"/><line style="stroke:#181818;stroke-width:1;" x1="142.4363" x2="110.0361" y1="117.0938" y2="117.0938"/><line style="stroke:#181818;stroke-width:1;" x1="110.0361" x2="110.0361" y1="117.0938" y2="139.0938"/><polygon fill="#181818" points="106.0361,129.0938,110.0361,139.0938,114.0361,129.0938,110.0361,133.0938" style="stroke:#181818;stroke-width:1;"/><line style="stroke:#181818;stroke-width:1;" x1="277.72" x2="310.1201" y1="117.0938" y2="117.0938"/><line style="stroke:#181818;stroke-width:1;" x1="310.1201" x2="310.1201" y1="117.0938" y2="139.0938"/><polygon fill="#181818" points="306.1201,129.0938,310.1201,139.0938,314.1201,129.0938,310.1201,133.0938" style="stroke:#181818;stroke-width:1;"/><line style="stroke:#181818;stroke-width:1;" x1="110.0361" x2="110.0361" y1="284.375" y2="302.375"/><line style="stroke:#181818;stroke-width:1;" x1="110.0361" x2="198.0781" y1="302.375" y2="302.375"/><polygon fill="#181818" points="188.0781,298.375,198.0781,302.375,188.0781,306.375,192.0781,302.375" style="stroke:#181818;stroke-width:1;"/><line style="stroke:#181818;stroke-width:1;" x1="310.1201" x2="310.1201" y1="229.2813" y2="302.375"/><line style="stroke:#181818;stroke-width:1;" x1="310.1201" x2="222.0781" y1="302.375" y2="302.375"/><polygon fill="#181818" points="232.0781,298.375,222.0781,302.375,232.0781,306.375,228.0781,302.375" style="stroke:#181818;stroke-width:1;"/><line style="stroke:#181818;stroke-width:1;" x1="210.0781" x2="210.0781" y1="85.0938" y2="105.0938"/><polygon fill="#181818" points="206.0781,95.0938,210.0781,105.0938,214.0781,95.0938,210.0781,99.0938" style="stroke:#181818;stroke-width:1;"/><line style="stroke:#181818;stroke-width:1;" x1="210.0781" x2="210.0781" y1="314.375" y2="334.375"/><polygon fill="#181818" points="206.0781,324.375,210.0781,334.375,214.0781,324.375,210.0781,328.375" style="stroke:#181818;stroke-width:1;"/><line style="stroke:#181818;stroke-width:1;" x1="210.0781" x2="210.0781" y1="369.4688" y2="389.4688"/><polygon fill="#181818" points="206.0781,379.4688,210.0781,389.4688,214.0781,379.4688,210.0781,383.4688" style="stroke:#181818;stroke-width:1;"/><line style="stroke:#181818;stroke-width:1;" x1="210.0781" x2="210.0781" y1="424.5625" y2="444.5625"/><polygon fill="#181818" points="206.0781,434.5625,210.0781,444.5625,214.0781,434.5625,210.0781,438.5625" style="stroke:#181818;stroke-width:1;"/><!--SRC=[NOwnRiCm34HtVGL7UyWFs4E7D4E039swCnPT4o54WQ9I-E_BUcep7OWxlhlcQ9wcTsvLS8Us656P4wymd6zNq2UPSIQefi_G_3Q2RrHWsAcD2M3wC3gjB0APZHPNsw6YRp1y6UwKGRkFysymAl0kz9hZKhl_2znDlrj8TzUOGXB7KFHekobcoBHY5tyX7OnBEH0OUnOjRYej22NpcgRpHilZprDpz1xsz8d26PrY2pkZ70xDgRdM7m00]--></g></svg>