<svg xmlns="http://www.w3.org/2000/svg" xmlns:xlink="http://www.w3.org/1999/xlink" contentStyleType="text/css" data-diagram-type="STATE" height="736px" preserveAspectRatio="none" style="width:800px;height:736px;background:#FFFFFF;" version="1.1" viewBox="0 0 800 736" width="800px" zoomAndPan="magnify"><defs/><g><path d="M458,87 L581.4199,87 A12.5,12.5 0 0 1 593.9199,99.5 L593.9199,114.6094 L445.5,114.6094 L445.5,99.5 A12.5,12.5 0 0 1 458,87" fill="#F1F1F1" style="stroke:#F1F1F1;stroke-width:1;"/><rect fill="none" height="154.6094" rx="12.5" ry="12.5" style="stroke:#181818;stroke-width:0.5;" width="148.4199" x="445.5" y="87"/><line style="stroke:#181818;stroke-width:0.5;" x1="445.5" x2="593.9199" y1="114.6094" y2="114.6094"/><text fill="#000000" font-family="sans-serif" font-size="14" lengthAdjust="spacing" textLength="62.2686" x="488.5757" y="106.5332">InputValid</text><ellipse cx="521" cy="135.6094" fill="#222222" rx="10" ry="10" style="stroke:#222222;stroke-width:1;"/><g id="InputValid.ContinueEnabled"><rect fill="#F1F1F1" height="50" rx="12.5" ry="12.5" style="stroke:#181818;stroke-width:0.5;" width="127.4199" x="457.5" y="181.6094"/><line style="stroke:#181818;stroke-width:0.5;" x1="457.5" x2="584.9199" y1="209.2188" y2="209.2188"/><text fill="#000000" font-family="sans-serif" font-size="14" lengthAdjust="spacing" textLength="107.4199" x="467.5" y="201.1426">ContinueEnabled</text></g><!--link *start*InputValid to ContinueEnabled--><g class="link" data-entity-1="*start*InputValid" data-entity-2="ContinueEnabled" data-source-line="16" data-uid="lnk25" id="link_*start*InputValid_ContinueEnabled"><path d="M521,145.6294 C521,154.6894 521,163.0494 521,175.4394" fill="none" id="*start*InputValid-to-ContinueEnabled" style="stroke:#181818;stroke-width:1;"/><polygon fill="#181818" points="521,181.4394,525,172.4394,521,176.4394,517,172.4394,521,181.4394" style="stroke:#181818;stroke-width:1;"/></g><path d="M372.5,576 L630.0859,576 A12.5,12.5 0 0 1 642.5859,588.5 L642.5859,603.6094 L360,603.6094 L360,588.5 A12.5,12.5 0 0 1 372.5,576" fill="#F1F1F1" style="stroke:#F1F1F1;stroke-width:1;"/><rect fill="none" height="154.6094" rx="12.5" ry="12.5" style="stroke:#181818;stroke-width:0.5;" width="282.5859" x="360" y="576"/><line style="stroke:#181818;stroke-width:0.5;" x1="360" x2="642.5859" y1="603.6094" y2="603.6094"/><text fill="#000000" font-family="sans-serif" font-size="14" lengthAdjust="spacing" textLength="71.6064" x="465.4897" y="595.5332">InputInvalid</text><ellipse cx="507.5" cy="624.6094" fill="#222222" rx="10" ry="10" style="stroke:#222222;stroke-width:1;"/><g id="InputInvalid.ContinueDisabled"><rect fill="#F1F1F1" height="50" rx="12.5" ry="12.5" style="stroke:#181818;stroke-width:0.5;" width="130.5166" x="372" y="670.6094"/><line style="stroke:#181818;stroke-width:0.5;" x1="372" x2="502.5166" y1="698.2188" y2="698.2188"/><text fill="#000000" font-family="sans-serif" font-size="14" lengthAdjust="spacing" textLength="110.5166" x="382" y="690.1426">ContinueDisabled</text></g><g id="InputInvalid.ErrorDisplayed"><rect fill="#F1F1F1" height="50" rx="12.5" ry="12.5" style="stroke:#181818;stroke-width:0.5;" width="112.5859" x="521" y="670.6094"/><line style="stroke:#181818;stroke-width:0.5;" x1="521" x2="633.5859" y1="698.2188" y2="698.2188"/><text fill="#000000" font-family="sans-serif" font-size="14" lengthAdjust="spacing" textLength="92.5859" x="531" y="690.1426">ErrorDisplayed</text></g><!--link *start*InputInvalid to ContinueDisabled--><g class="link" data-entity-1="*start*InputInvalid" data-entity-2="ContinueDisabled" data-source-line="20" data-uid="lnk28" id="link_*start*InputInvalid_ContinueDisabled"><path d="M500.79,632.2294 C491.89,640.9994 479.9836,652.7379 466.2136,666.3079" fill="none" id="*start*InputInvalid-to-ContinueDisabled" style="stroke:#181818;stroke-width:1;"/><polygon fill="#181818" points="461.94,670.5194,471.158,667.0512,465.5013,667.0098,465.5427,661.3531,461.94,670.5194" style="stroke:#181818;stroke-width:1;"/></g><!--link *start*InputInvalid to ErrorDisplayed--><g class="link" data-entity-1="*start*InputInvalid" data-entity-2="ErrorDisplayed" data-source-line="21" data-uid="lnk30" id="link_*start*InputInvalid_ErrorDisplayed"><path d="M514.21,632.2294 C523.11,640.9994 535.0164,652.7379 548.7864,666.3079" fill="none" id="*start*InputInvalid-to-ErrorDisplayed" style="stroke:#181818;stroke-width:1;"/><polygon fill="#181818" points="553.06,670.5194,549.4573,661.3531,549.4987,667.0098,543.842,667.0512,553.06,670.5194" style="stroke:#181818;stroke-width:1;"/></g><ellipse cx="169.5" cy="16" fill="#222222" rx="10" ry="10" style="stroke:#222222;stroke-width:1;"/><g id="ScreenLoading"><rect fill="#F1F1F1" height="50" rx="12.5" ry="12.5" style="stroke:#181818;stroke-width:0.5;" width="114.1855" x="112.5" y="139.5"/><line style="stroke:#181818;stroke-width:0.5;" x1="112.5" x2="226.6855" y1="167.1094" y2="167.1094"/><text fill="#000000" font-family="sans-serif" font-size="14" lengthAdjust="spacing" textLength="94.1855" x="122.5" y="159.0332">ScreenLoading</text></g><g id="InputReady"><rect fill="#F1F1F1" height="50" rx="12.5" ry="12.5" style="stroke:#181818;stroke-width:0.5;" width="91.6064" x="455.5" y="320"/><line style="stroke:#181818;stroke-width:0.5;" x1="455.5" x2="547.1064" y1="347.6094" y2="347.6094"/><text fill="#000000" font-family="sans-serif" font-size="14" lengthAdjust="spacing" textLength="71.6064" x="465.5" y="339.5332">InputReady</text></g><g id="ValidatingInput"><rect fill="#F1F1F1" height="50" rx="12.5" ry="12.5" style="stroke:#181818;stroke-width:0.5;" width="112.627" x="633" y="448"/><line style="stroke:#181818;stroke-width:0.5;" x1="633" x2="745.627" y1="475.6094" y2="475.6094"/><text fill="#000000" font-family="sans-serif" font-size="14" lengthAdjust="spacing" textLength="92.627" x="643" y="467.5332">ValidatingInput</text></g><g id="DirectoryCreating"><rect fill="#F1F1F1" height="50" rx="12.5" ry="12.5" style="stroke:#181818;stroke-width:0.5;" width="128.9238" x="128" y="320"/><line style="stroke:#181818;stroke-width:0.5;" x1="128" x2="256.9238" y1="347.6094" y2="347.6094"/><text fill="#000000" font-family="sans-serif" font-size="14" lengthAdjust="spacing" textLength="108.9238" x="138" y="339.5332">DirectoryCreating</text></g><g id="NavigatingNext"><rect fill="#F1F1F1" height="50" rx="12.5" ry="12.5" style="stroke:#181818;stroke-width:0.5;" width="114.9375" x="7" y="448"/><line style="stroke:#181818;stroke-width:0.5;" x1="7" x2="121.9375" y1="475.6094" y2="475.6094"/><text fill="#000000" font-family="sans-serif" font-size="14" lengthAdjust="spacing" textLength="94.9375" x="17" y="467.5332">NavigatingNext</text></g><ellipse cx="193.5" cy="653.5" fill="none" rx="11" ry="11" style="stroke:#222222;stroke-width:1;"/><ellipse cx="193.5" cy="653.5" fill="#222222" rx="6" ry="6" style="stroke:#222222;stroke-width:1;"/><g id="NavigatingBack"><rect fill="#F1F1F1" height="50" rx="12.5" ry="12.5" style="stroke:#181818;stroke-width:0.5;" width="117.2754" x="314" y="448"/><line style="stroke:#181818;stroke-width:0.5;" x1="314" x2="431.2754" y1="475.6094" y2="475.6094"/><text fill="#000000" font-family="sans-serif" font-size="14" lengthAdjust="spacing" textLength="97.2754" x="324" y="467.5332">NavigatingBack</text></g><!--link *start* to ScreenLoading--><g class="link" data-entity-1="*start*" data-entity-2="ScreenLoading" data-source-line="1" data-uid="lnk4" id="link_*start*_ScreenLoading"><path d="M169.5,26.16 C169.5,48.46 169.5,100.15 169.5,133.23" fill="none" id="*start*-to-ScreenLoading" style="stroke:#181818;stroke-width:1;"/><polygon fill="#181818" points="169.5,139.23,173.5,130.23,169.5,134.23,165.5,130.23,169.5,139.23" style="stroke:#181818;stroke-width:1;"/></g><!--link ScreenLoading to InputReady--><g class="link" data-entity-1="ScreenLoading" data-entity-2="InputReady" data-source-line="2" data-uid="lnk6" id="link_ScreenLoading_InputReady"><path d="M159.22,189.71 C149.28,217.36 138.89,262.33 162.5,290 C181.31,312.04 361.2457,331.2048 449.4857,339.4048" fill="none" id="ScreenLoading-to-InputReady" style="stroke:#181818;stroke-width:1;"/><polygon fill="#181818" points="455.46,339.96,446.8687,335.1444,450.4815,339.4974,446.1285,343.1101,455.46,339.96" style="stroke:#181818;stroke-width:1;"/><text fill="#000000" font-family="sans-serif" font-size="13" lengthAdjust="spacing" textLength="127.1816" x="163.5" y="286.4951">initialization_complete</text></g><!--link InputReady to ValidatingInput--><g class="link" data-entity-1="InputReady" data-entity-2="ValidatingInput" data-source-line="3" data-uid="lnk8" id="link_InputReady_ValidatingInput"><path d="M515.22,370.07 C525.04,385.51 539.5,405.02 556.5,418 C579.08,435.24 602.26,445.8676 627.31,454.5376" fill="none" id="InputReady-to-ValidatingInput" style="stroke:#181818;stroke-width:1;"/><polygon fill="#181818" points="632.98,456.5,625.7833,449.7764,628.255,454.8646,623.1667,457.3364,632.98,456.5" style="stroke:#181818;stroke-width:1;"/><text fill="#000000" font-family="sans-serif" font-size="13" lengthAdjust="spacing" textLength="110.5889" x="557.5" y="414.4951">user_input_change</text></g><!--link ValidatingInput to InputValid--><g class="link" data-entity-1="ValidatingInput" data-entity-2="InputValid" data-source-line="4" data-uid="lnk9" id="link_ValidatingInput_InputValid"><path d="M689.94,447.97 C689.6,408.44 684.35,328.42 650.5,272 C636.4,248.5 619.864,231.6464 598.534,215.0364" fill="none" id="ValidatingInput-to-InputValid" style="stroke:#181818;stroke-width:1;"/><polygon fill="#181818" points="593.8,211.35,598.4433,220.0356,597.745,214.422,603.3585,213.7236,593.8,211.35" style="stroke:#181818;stroke-width:1;"/><text fill="#000000" font-family="sans-serif" font-size="13" lengthAdjust="spacing" textLength="109.1162" x="683.5" y="350.4951">validation_success</text></g><!--link ValidatingInput to InputInvalid--><g class="link" data-entity-1="ValidatingInput" data-entity-2="InputInvalid" data-source-line="5" data-uid="lnk10" id="link_ValidatingInput_InputInvalid"><path d="M664.15,498.07 C643,518.15 616.011,543.7785 586.471,571.8285" fill="none" id="ValidatingInput-to-InputInvalid" style="stroke:#181818;stroke-width:1;"/><polygon fill="#181818" points="582.12,575.96,591.4008,572.6634,585.7458,572.5171,585.8921,566.8621,582.12,575.96" style="stroke:#181818;stroke-width:1;"/><text fill="#000000" font-family="sans-serif" font-size="13" lengthAdjust="spacing" textLength="89.6035" x="629.5" y="542.4951">validation_error</text></g><!--link InputValid to InputReady--><g class="link" data-entity-1="InputValid" data-entity-2="InputReady" data-source-line="6" data-uid="lnk11" id="link_InputValid_InputReady"><path d="M511.76,242.24 C508.94,270.21 506.552,293.8803 504.532,313.9103" fill="none" id="InputValid-to-InputReady" style="stroke:#181818;stroke-width:1;"/><polygon fill="#181818" points="503.93,319.88,508.8129,311.3268,504.4317,314.9052,500.8532,310.5241,503.93,319.88" style="stroke:#181818;stroke-width:1;"/><text fill="#000000" font-family="sans-serif" font-size="13" lengthAdjust="spacing" textLength="133.707" x="508.5" y="286.4951">user_continues_editing</text></g><!--link InputInvalid to InputReady--><g class="link" data-entity-1="InputInvalid" data-entity-2="InputReady" data-source-line="7" data-uid="lnk12" id="link_InputInvalid_InputReady"><path d="M501.5,575.73 C501.5,508.11 501.5,419.8 501.5,376.05" fill="none" id="InputInvalid-to-InputReady" style="stroke:#181818;stroke-width:1;"/><polygon fill="#181818" points="501.5,370.05,497.5,379.05,501.5,375.05,505.5,379.05,501.5,370.05" style="stroke:#181818;stroke-width:1;"/><text fill="#000000" font-family="sans-serif" font-size="13" lengthAdjust="spacing" textLength="94.6689" x="502.5" y="478.4951">user_fixes_input</text></g><!--link InputValid to DirectoryCreating--><g class="link" data-entity-1="InputValid" data-entity-2="DirectoryCreating" data-source-line="8" data-uid="lnk14" id="link_InputValid_DirectoryCreating"><path d="M445.4,208.6 C402.96,232.99 348.55,263.76 299.5,290 C280.69,300.06 265.1542,308.032 246.8542,317.202" fill="none" id="InputValid-to-DirectoryCreating" style="stroke:#181818;stroke-width:1;"/><polygon fill="#181818" points="241.49,319.89,251.3283,319.4342,245.9602,317.65,247.7443,312.2819,241.49,319.89" style="stroke:#181818;stroke-width:1;"/><text fill="#000000" font-family="sans-serif" font-size="13" lengthAdjust="spacing" textLength="139.4897" x="330.5" y="286.4951">continue_button_clicked</text></g><!--link DirectoryCreating to NavigatingNext--><g class="link" data-entity-1="DirectoryCreating" data-entity-2="NavigatingNext" data-source-line="9" data-uid="lnk16" id="link_DirectoryCreating_NavigatingNext"><path d="M127.73,357.62 C103.7,365.41 78.83,378.4 64.5,400 C55.31,413.85 54.6958,426.8296 57.1558,441.7796" fill="none" id="DirectoryCreating-to-NavigatingNext" style="stroke:#181818;stroke-width:1;"/><polygon fill="#181818" points="58.13,447.7,60.6156,438.17,57.3182,442.7663,52.7218,439.4689,58.13,447.7" style="stroke:#181818;stroke-width:1;"/><text fill="#000000" font-family="sans-serif" font-size="13" lengthAdjust="spacing" textLength="100.439" x="65.5" y="414.4951">directory_created</text></g><!--link DirectoryCreating to InputInvalid--><g class="link" data-entity-1="DirectoryCreating" data-entity-2="InputInvalid" data-source-line="10" data-uid="lnk17" id="link_DirectoryCreating_InputInvalid"><path d="M189.05,370.12 C185.79,402.15 184.66,459.18 210.5,498 C245.44,550.5 298.7469,584.0623 354.3969,607.9623" fill="none" id="DirectoryCreating-to-InputInvalid" style="stroke:#181818;stroke-width:1;"/><polygon fill="#181818" points="359.91,610.33,353.2189,603.1031,355.3158,608.3569,350.0619,610.4538,359.91,610.33" style="stroke:#181818;stroke-width:1;"/><text fill="#000000" font-family="sans-serif" font-size="13" lengthAdjust="spacing" textLength="84.5571" x="211.5" y="478.4951">creation_failed</text></g><!--link NavigatingNext to *end*--><g class="link" data-entity-1="NavigatingNext" data-entity-2="*end*" data-source-line="11" data-uid="lnk19" id="link_NavigatingNext_*end*"><path d="M62.07,498.26 C61.66,512.84 63.06,531.35 70.5,546 C96.73,597.62 154.5306,632.0464 178.6206,644.8364" fill="none" id="NavigatingNext-to-*end*" style="stroke:#181818;stroke-width:1;"/><polygon fill="#181818" points="183.92,647.65,177.8466,639.8967,179.5038,645.3053,174.0952,646.9626,183.92,647.65" style="stroke:#181818;stroke-width:1;"/><text fill="#000000" font-family="sans-serif" font-size="13" lengthAdjust="spacing" textLength="94.6816" x="71.5" y="542.4951">navigate_to_sc2</text></g><!--link InputReady to NavigatingBack--><g class="link" data-entity-1="InputReady" data-entity-2="NavigatingBack" data-source-line="12" data-uid="lnk21" id="link_InputReady_NavigatingBack"><path d="M455.2,349.72 C421.69,355.12 378.57,368.23 356.5,400 C346.78,413.99 349.0038,427.4048 355.7638,442.3248" fill="none" id="InputReady-to-NavigatingBack" style="stroke:#181818;stroke-width:1;"/><polygon fill="#181818" points="358.24,447.79,358.1692,437.9414,356.1765,443.2357,350.8822,441.243,358.24,447.79" style="stroke:#181818;stroke-width:1;"/><text fill="#000000" font-family="sans-serif" font-size="13" lengthAdjust="spacing" textLength="117.7998" x="357.5" y="414.4951">back_button_clicked</text></g><!--link NavigatingBack to *end*--><g class="link" data-entity-1="NavigatingBack" data-entity-2="*end*" data-source-line="13" data-uid="lnk22" id="link_NavigatingBack_*end*"><path d="M348.36,498.07 C307.33,538.99 230.2386,615.8633 205.2386,640.7933" fill="none" id="NavigatingBack-to-*end*" style="stroke:#181818;stroke-width:1;"/><polygon fill="#181818" points="200.99,645.03,210.1873,641.5074,204.5305,641.4994,204.5384,635.8426,200.99,645.03" style="stroke:#181818;stroke-width:1;"/><text fill="#000000" font-family="sans-serif" font-size="13" lengthAdjust="spacing" textLength="94.6816" x="315.5" y="542.4951">navigate_to_sc0</text></g><!--SRC=[TP8zQyCm48Pt_GhFXK3fcA53amo1ag65Bg48MRwuHnp9IBA9M_hVUwV4ZIt7apZT-xpt8UqVFhF5uZbxrmx0l5fLe2d5A8hvhQcRy0QgwB9bXWO3gWg_LK1hfBQdke80OY1YveCa1KbC6HC4DXwSH0wa_bAc195g_cl5127jLK1rVACrU3_FR4qxfS0vwyJ0Sp9Ex4fRGuuDU0a5ihSOMTw73dWc80wKLbYZ0nsiwrOEOg_4z3LateJ0YwjG7w4GKoqxx5IBPGntSERj5RrCQjRDWiakefWtSL1O4PJuCh6dNx3Cp2K1CbZfzLFwd3VkHUaZwNCwqb4IqPpven0-K3Hywn-HHIqpg-kcDaRbtFFlID_FTezOexyWjzI6Vm3TrvNgsEiF]--></g></svg>