<svg xmlns="http://www.w3.org/2000/svg" xmlns:xlink="http://www.w3.org/1999/xlink" contentStyleType="text/css" data-diagram-type="DESCRIPTION" height="182px" preserveAspectRatio="none" style="width:1035px;height:182px;background:#FFFFFF;" version="1.1" viewBox="0 0 1035 182" width="1035px" zoomAndPan="magnify"><defs/><g><!--cluster Project Directory Selection Screen--><g class="cluster" data-entity="Project Directory Selection Screen" data-source-line="5" data-uid="ent0004" id="cluster_Project Directory Selection Screen"><rect fill="none" height="169" rx="2.5" ry="2.5" style="stroke:#181818;stroke-width:1;" width="825" x="83" y="7"/><text fill="#000000" font-family="sans-serif" font-size="14" font-weight="bold" lengthAdjust="spacing" textLength="229.5371" x="380.7314" y="23.5332">Project Directory Selection Screen</text></g><g class="entity" data-entity="UC1" data-source-line="6" data-uid="ent0005" id="entity_UC1"><ellipse cx="192.5555" cy="64.1111" fill="#F1F1F1" rx="93.5555" ry="21.1111" style="stroke:#181818;stroke-width:0.5;"/><text fill="#000000" font-family="sans-serif" font-size="14" lengthAdjust="spacing" textLength="146.2686" x="119.4212" y="67.8396">Select Project Directory</text></g><g class="entity" data-entity="UC2" data-source-line="7" data-uid="ent0006" id="entity_UC2"><ellipse cx="192.6881" cy="139.9376" fill="#F1F1F1" rx="85.1881" ry="19.4376" style="stroke:#181818;stroke-width:0.5;"/><text fill="#000000" font-family="sans-serif" font-size="14" lengthAdjust="spacing" textLength="126.8066" x="129.2848" y="143.6661">Browse for Directory</text></g><g class="entity" data-entity="UC3" data-source-line="8" data-uid="ent0007" id="entity_UC3"><ellipse cx="495.2086" cy="64.8417" fill="#F1F1F1" rx="92.2086" ry="20.8417" style="stroke:#181818;stroke-width:0.5;"/><text fill="#000000" font-family="sans-serif" font-size="14" lengthAdjust="spacing" textLength="143.1787" x="423.6192" y="68.5702">Validate Directory Path</text></g><g class="entity" data-entity="UC4" data-source-line="9" data-uid="ent0008" id="entity_UC4"><ellipse cx="796.9176" cy="64.8835" fill="#F1F1F1" rx="94.9176" ry="21.3835" style="stroke:#181818;stroke-width:0.5;"/><text fill="#000000" font-family="sans-serif" font-size="14" lengthAdjust="spacing" textLength="149.3789" x="722.2282" y="68.612">Create Project Directory</text></g><!--entity user--><g class="entity" data-entity="user" data-source-line="2" data-uid="ent0002" id="entity_user"><ellipse cx="20.7793" cy="72.5" fill="#F1F1F1" rx="8" ry="8" style="stroke:#181818;stroke-width:0.5;"/><path d="M20.7793,80.5 L20.7793,107.5 M7.7793,88.5 L33.7793,88.5 M20.7793,107.5 L7.7793,122.5 M20.7793,107.5 L33.7793,122.5" fill="none" style="stroke:#181818;stroke-width:0.5;"/><text fill="#000000" font-family="sans-serif" font-size="14" lengthAdjust="spacing" textLength="29.5586" x="6" y="138.5332">User</text></g><!--entity fs--><g class="entity" data-entity="fs" data-source-line="3" data-uid="ent0003" id="entity_fs"><ellipse cx="991.562" cy="89.5" fill="#F1F1F1" rx="8" ry="8" style="stroke:#181818;stroke-width:0.5;"/><path d="M991.562,97.5 L991.562,124.5 M978.562,105.5 L1004.562,105.5 M991.562,124.5 L978.562,139.5 M991.562,124.5 L1004.562,139.5" fill="none" style="stroke:#181818;stroke-width:0.5;"/><text fill="#000000" font-family="sans-serif" font-size="14" lengthAdjust="spacing" textLength="73.124" x="955" y="155.5332">File System</text></g><!--link user to UC1--><g class="link" data-entity-1="user" data-entity-2="UC1" data-source-line="12" data-uid="lnk9" id="link_user_UC1"><path d="M36.16,99.74 C55.97,95.18 87.4027,87.9552 120.4827,80.3452" fill="none" id="user-to-UC1" style="stroke:#181818;stroke-width:1;"/><polygon fill="#181818" points="126.33,79,116.6623,77.1196,121.4573,80.121,118.4559,84.9159,126.33,79" style="stroke:#181818;stroke-width:1;"/></g><!--link user to UC2--><g class="link" data-entity-1="user" data-entity-2="UC2" data-source-line="13" data-uid="lnk10" id="link_user_UC2"><path d="M36.16,106.09 C56.77,110.59 90.4183,117.9294 124.4283,125.3594" fill="none" id="user-to-UC2" style="stroke:#181818;stroke-width:1;"/><polygon fill="#181818" points="130.29,126.64,122.3511,120.8113,125.4052,125.5728,120.6437,128.627,130.29,126.64" style="stroke:#181818;stroke-width:1;"/></g><!--link UC1 to UC3--><g class="link" data-entity-1="UC1" data-entity-2="UC3" data-source-line="14" data-uid="lnk11" id="link_UC1_UC3"><path d="M286.11,64.31 C323.27,64.43 359.98,64.5489 396.98,64.6789" fill="none" id="UC1-to-UC3" style="stroke:#181818;stroke-width:1;"/><polygon fill="#181818" points="402.98,64.7,393.9941,60.6684,397.98,64.6824,393.966,68.6684,402.98,64.7" style="stroke:#181818;stroke-width:1;"/><text fill="#000000" font-family="sans-serif" font-size="13" lengthAdjust="spacing" textLength="55.6563" x="317" y="61.4951">&#171;include&#187;</text></g><!--link UC3 to UC4--><g class="link" data-entity-1="UC3" data-entity-2="UC4" data-source-line="15" data-uid="lnk12" id="link_UC3_UC4"><path d="M587.23,65 C623.52,65 659.26,65 695.83,65" fill="none" id="UC3-to-UC4" style="stroke:#181818;stroke-width:1;"/><polygon fill="#181818" points="701.83,65,692.83,61,696.83,65,692.83,69,701.83,65" style="stroke:#181818;stroke-width:1;"/><text fill="#000000" font-family="sans-serif" font-size="13" lengthAdjust="spacing" textLength="53.4917" x="618" y="61.4951">&#171;extend&#187;</text></g><!--link UC3 to fs--><g class="link" data-entity-1="UC3" data-entity-2="fs" data-source-line="16" data-uid="lnk13" id="link_UC3_fs"><path d="M561.52,79.69 C601.83,88.16 654.67,98.23 702,104 C792.63,115.04 894.2111,118.3536 948.8411,119.4136" fill="none" id="UC3-to-fs" style="stroke:#181818;stroke-width:1;"/><polygon fill="#181818" points="954.84,119.53,945.9193,115.3562,949.8409,119.433,945.7641,123.3547,954.84,119.53" style="stroke:#181818;stroke-width:1;"/></g><!--link UC4 to fs--><g class="link" data-entity-1="UC4" data-entity-2="fs" data-source-line="17" data-uid="lnk14" id="link_UC4_fs"><path d="M856.8,81.8 C888.87,90.96 921.7308,100.352 949.2108,108.202" fill="none" id="UC4-to-fs" style="stroke:#181818;stroke-width:1;"/><polygon fill="#181818" points="954.98,109.85,947.4249,103.5318,950.1723,108.4766,945.2275,111.2241,954.98,109.85" style="stroke:#181818;stroke-width:1;"/></g><!--SRC=[TP0_2m8n3CNtV8fm-mt-cKHkK74M3jrBBwULsa8QqKFyxhOzXQ8uDNc_bzUqbdf1ySZcU1Bi39CMunqeBPwnsWVY2bN0Qom-ujPOmdO8GfVC-W2GvfGxHb3js9zZXviSvdd0bkmOYwrc8bVX0p15QXNYm8ZnPow7xzUJqhjYVujd7_VuzarBtq5PqocXOekTajFREYkjQwPa_7Vz79u0wVbOrqrUfsYc48LtFSC5BfV6QNljg6aWAIEPPq9t8TSL8FvROcFv0W00]--></g></svg>