<svg xmlns="http://www.w3.org/2000/svg" xmlns:xlink="http://www.w3.org/1999/xlink" contentStyleType="text/css" data-diagram-type="ACTIVITY" height="922px" preserveAspectRatio="none" style="width:532px;height:922px;background:#FFFFFF;" version="1.1" viewBox="0 0 532 922" width="532px" zoomAndPan="magnify"><defs/><g><ellipse cx="269.5664" cy="20" fill="#222222" rx="10" ry="10" style="stroke:#222222;stroke-width:1;"/><rect fill="#F1F1F1" height="35.0938" rx="12.5" ry="12.5" style="stroke:#181818;stroke-width:0.5;" width="158.0586" x="190.5371" y="94"/><text fill="#000000" font-family="sans-serif" font-size="12" lengthAdjust="spacing" textLength="138.0586" x="200.5371" y="116.457">User enters directory path</text><rect fill="#555555" height="6" rx="2.5" ry="2.5" style="stroke:#555555;stroke-width:1;" width="366.1113" x="86.5107" y="149.0938"/><rect fill="#F1F1F1" height="35.0938" rx="12.5" ry="12.5" style="stroke:#181818;stroke-width:0.5;" width="127.3965" x="106.5107" y="175.0938"/><text fill="#000000" font-family="sans-serif" font-size="12" lengthAdjust="spacing" textLength="107.3965" x="116.5107" y="197.5508">Validate path format</text><rect fill="#F1F1F1" height="35.0938" rx="12.5" ry="12.5" style="stroke:#181818;stroke-width:0.5;" width="121.3672" x="109.5254" y="230.1875"/><text fill="#000000" font-family="sans-serif" font-size="12" lengthAdjust="spacing" textLength="101.3672" x="119.5254" y="252.6445">Check permissions</text><rect fill="#F1F1F1" height="35.0938" rx="12.5" ry="12.5" style="stroke:#181818;stroke-width:0.5;" width="139.3965" x="100.5107" y="285.2813"/><text fill="#000000" font-family="sans-serif" font-size="12" lengthAdjust="spacing" textLength="119.3965" x="110.5107" y="307.7383">Show existence status</text><rect fill="#F1F1F1" height="35.0938" rx="12.5" ry="12.5" style="stroke:#181818;stroke-width:0.5;" width="170.7148" x="267.9072" y="230.1875"/><text fill="#000000" font-family="sans-serif" font-size="12" lengthAdjust="spacing" textLength="150.7148" x="277.9072" y="252.6445">Check directory accessibility</text><rect fill="#555555" height="6" rx="2.5" ry="2.5" style="stroke:#555555;stroke-width:1;" width="366.1113" x="86.5107" y="340.375"/><polygon fill="#F1F1F1" points="223.3965,366.375,315.7363,366.375,327.7363,378.375,315.7363,390.375,223.3965,390.375,211.3965,378.375,223.3965,366.375" style="stroke:#181818;stroke-width:0.5;"/><text fill="#000000" font-family="sans-serif" font-size="11" lengthAdjust="spacing" textLength="92.3398" x="223.3965" y="382.876">Validation passes?</text><text fill="#000000" font-family="sans-serif" font-size="11" lengthAdjust="spacing" textLength="17.1177" x="194.2788" y="375.958">yes</text><text fill="#000000" font-family="sans-serif" font-size="11" lengthAdjust="spacing" textLength="12.2354" x="327.7363" y="375.958">no</text><rect fill="#F1F1F1" height="35.0938" rx="12.5" ry="12.5" style="stroke:#181818;stroke-width:0.5;" width="145.4316" x="113.4712" y="400.375"/><text fill="#000000" font-family="sans-serif" font-size="12" lengthAdjust="spacing" textLength="125.4316" x="123.4712" y="422.832">Enable Continue button</text><rect fill="#F1F1F1" height="35.0938" rx="12.5" ry="12.5" style="stroke:#181818;stroke-width:0.5;" width="148.0859" x="278.9028" y="400.375"/><text fill="#000000" font-family="sans-serif" font-size="12" lengthAdjust="spacing" textLength="128.0859" x="288.9028" y="422.832">Disable Continue button</text><rect fill="#F1F1F1" height="35.0938" rx="12.5" ry="12.5" style="stroke:#181818;stroke-width:0.5;" width="136.7129" x="284.5894" y="455.4688"/><text fill="#000000" font-family="sans-serif" font-size="12" lengthAdjust="spacing" textLength="116.7129" x="294.5894" y="477.9258">Show error messages</text><polygon fill="#F1F1F1" points="269.5664,496.5625,281.5664,508.5625,269.5664,520.5625,257.5664,508.5625,269.5664,496.5625" style="stroke:#181818;stroke-width:0.5;"/><rect fill="#F1F1F1" height="35.0938" rx="12.5" ry="12.5" style="stroke:#181818;stroke-width:0.5;" width="123.3711" x="207.8809" y="547.3867"/><text fill="#000000" font-family="sans-serif" font-size="12" lengthAdjust="spacing" textLength="103.3711" x="217.8809" y="569.8438">Wait for user action</text><polygon fill="#F1F1F1" points="32,602.4805,131.0215,602.4805,143.0215,614.4805,131.0215,626.4805,32,626.4805,20,614.4805,32,602.4805" style="stroke:#181818;stroke-width:0.5;"/><text fill="#000000" font-family="sans-serif" font-size="11" lengthAdjust="spacing" textLength="17.1177" x="85.5107" y="637.8994">yes</text><text fill="#000000" font-family="sans-serif" font-size="11" lengthAdjust="spacing" textLength="99.0215" x="32" y="618.9814">User clicks Browse?</text><rect fill="#F1F1F1" height="35.0938" rx="12.5" ry="12.5" style="stroke:#181818;stroke-width:0.5;" width="134.0645" x="14.4785" y="659.3994"/><text fill="#000000" font-family="sans-serif" font-size="12" lengthAdjust="spacing" textLength="114.0645" x="24.4785" y="681.8564">Open directory dialog</text><rect fill="#F1F1F1" height="35.0938" rx="12.5" ry="12.5" style="stroke:#181818;stroke-width:0.5;" width="110.7324" x="26.1445" y="714.4932"/><text fill="#000000" font-family="sans-serif" font-size="12" lengthAdjust="spacing" textLength="90.7324" x="36.1445" y="736.9502">Update path field</text><polygon fill="#F1F1F1" points="180.833,602.4805,267.6299,602.4805,279.6299,614.4805,267.6299,626.4805,180.833,626.4805,168.833,614.4805,180.833,602.4805" style="stroke:#181818;stroke-width:0.5;"/><text fill="#000000" font-family="sans-serif" font-size="11" lengthAdjust="spacing" textLength="17.1177" x="228.2314" y="637.8994">yes</text><text fill="#000000" font-family="sans-serif" font-size="11" lengthAdjust="spacing" textLength="86.7969" x="180.833" y="618.9814">User clicks Back?</text><rect fill="#F1F1F1" height="35.0938" rx="12.5" ry="12.5" style="stroke:#181818;stroke-width:0.5;" width="111.377" x="168.543" y="659.3994"/><text fill="#000000" font-family="sans-serif" font-size="12" lengthAdjust="spacing" textLength="91.377" x="178.543" y="681.8564">Navigate to SC-0</text><ellipse cx="224.2314" cy="725.4932" fill="none" rx="11" ry="11" style="stroke:#222222;stroke-width:1;"/><ellipse cx="224.2314" cy="725.4932" fill="#222222" rx="6" ry="6" style="stroke:#222222;stroke-width:1;"/><polygon fill="#F1F1F1" points="334.0999,602.4805,440.4744,602.4805,452.4744,614.4805,440.4744,626.4805,334.0999,626.4805,322.0999,614.4805,334.0999,602.4805" style="stroke:#181818;stroke-width:0.5;"/><text fill="#000000" font-family="sans-serif" font-size="11" lengthAdjust="spacing" textLength="17.1177" x="391.2871" y="637.8994">yes</text><text fill="#000000" font-family="sans-serif" font-size="11" lengthAdjust="spacing" textLength="106.3745" x="334.0999" y="618.9814">User clicks Continue?</text><rect fill="#F1F1F1" height="35.0938" rx="12.5" ry="12.5" style="stroke:#181818;stroke-width:0.5;" width="174.7344" x="299.9199" y="659.3994"/><text fill="#000000" font-family="sans-serif" font-size="12" lengthAdjust="spacing" textLength="154.7344" x="309.9199" y="681.8564">Execute pei-docker-cli create</text><rect fill="#F1F1F1" height="35.0938" rx="12.5" ry="12.5" style="stroke:#181818;stroke-width:0.5;" width="165.4063" x="304.584" y="714.4932"/><text fill="#000000" font-family="sans-serif" font-size="12" lengthAdjust="spacing" textLength="145.4063" x="314.584" y="736.9502">Save state for next screens</text><rect fill="#F1F1F1" height="35.0938" rx="12.5" ry="12.5" style="stroke:#181818;stroke-width:0.5;" width="111.377" x="331.5986" y="769.5869"/><text fill="#000000" font-family="sans-serif" font-size="12" lengthAdjust="spacing" textLength="91.377" x="341.5986" y="792.0439">Navigate to SC-2</text><ellipse cx="387.2871" cy="835.6807" fill="none" rx="11" ry="11" style="stroke:#222222;stroke-width:1;"/><ellipse cx="387.2871" cy="835.6807" fill="#222222" rx="6" ry="6" style="stroke:#222222;stroke-width:1;"/><polygon fill="#F1F1F1" points="269.5664,50,281.5664,62,269.5664,74,257.5664,62,269.5664,50" style="stroke:#181818;stroke-width:0.5;"/><polygon fill="#F1F1F1" points="226.7561,886.6807,312.3767,886.6807,324.3767,898.6807,312.3767,910.6807,226.7561,910.6807,214.7561,898.6807,226.7561,886.6807" style="stroke:#181818;stroke-width:0.5;"/><text fill="#000000" font-family="sans-serif" font-size="11" lengthAdjust="spacing" textLength="85.6206" x="226.7561" y="903.1816">Continue editing?</text><text fill="#000000" font-family="sans-serif" font-size="11" lengthAdjust="spacing" textLength="17.1177" x="324.3767" y="896.2637">yes</text><line style="stroke:#181818;stroke-width:1;" x1="170.209" x2="170.209" y1="210.1875" y2="230.1875"/><polygon fill="#181818" points="166.209,220.1875,170.209,230.1875,174.209,220.1875,170.209,224.1875" style="stroke:#181818;stroke-width:1;"/><line style="stroke:#181818;stroke-width:1;" x1="170.209" x2="170.209" y1="265.2813" y2="285.2813"/><polygon fill="#181818" points="166.209,275.2813,170.209,285.2813,174.209,275.2813,170.209,279.2813" style="stroke:#181818;stroke-width:1;"/><line style="stroke:#181818;stroke-width:1;" x1="170.209" x2="170.209" y1="155.0938" y2="175.0938"/><polygon fill="#181818" points="166.209,165.0938,170.209,175.0938,174.209,165.0938,170.209,169.0938" style="stroke:#181818;stroke-width:1;"/><line style="stroke:#181818;stroke-width:1;" x1="353.2646" x2="353.2646" y1="155.0938" y2="230.1875"/><polygon fill="#181818" points="349.2646,220.1875,353.2646,230.1875,357.2646,220.1875,353.2646,224.1875" style="stroke:#181818;stroke-width:1;"/><line style="stroke:#181818;stroke-width:1;" x1="170.209" x2="170.209" y1="320.375" y2="340.375"/><polygon fill="#181818" points="166.209,330.375,170.209,340.375,174.209,330.375,170.209,334.375" style="stroke:#181818;stroke-width:1;"/><line style="stroke:#181818;stroke-width:1;" x1="353.2646" x2="353.2646" y1="265.2813" y2="340.375"/><polygon fill="#181818" points="349.2646,330.375,353.2646,340.375,357.2646,330.375,353.2646,334.375" style="stroke:#181818;stroke-width:1;"/><line style="stroke:#181818;stroke-width:1;" x1="269.5664" x2="269.5664" y1="129.0938" y2="149.0938"/><polygon fill="#181818" points="265.5664,139.0938,269.5664,149.0938,273.5664,139.0938,269.5664,143.0938" style="stroke:#181818;stroke-width:1;"/><line style="stroke:#181818;stroke-width:1;" x1="352.9458" x2="352.9458" y1="435.4688" y2="455.4688"/><polygon fill="#181818" points="348.9458,445.4688,352.9458,455.4688,356.9458,445.4688,352.9458,449.4688" style="stroke:#181818;stroke-width:1;"/><line style="stroke:#181818;stroke-width:1;" x1="211.3965" x2="186.187" y1="378.375" y2="378.375"/><line style="stroke:#181818;stroke-width:1;" x1="186.187" x2="186.187" y1="378.375" y2="400.375"/><polygon fill="#181818" points="182.187,390.375,186.187,400.375,190.187,390.375,186.187,394.375" style="stroke:#181818;stroke-width:1;"/><line style="stroke:#181818;stroke-width:1;" x1="327.7363" x2="352.9458" y1="378.375" y2="378.375"/><line style="stroke:#181818;stroke-width:1;" x1="352.9458" x2="352.9458" y1="378.375" y2="400.375"/><polygon fill="#181818" points="348.9458,390.375,352.9458,400.375,356.9458,390.375,352.9458,394.375" style="stroke:#181818;stroke-width:1;"/><line style="stroke:#181818;stroke-width:1;" x1="186.187" x2="186.187" y1="435.4688" y2="508.5625"/><line style="stroke:#181818;stroke-width:1;" x1="186.187" x2="257.5664" y1="508.5625" y2="508.5625"/><polygon fill="#181818" points="247.5664,504.5625,257.5664,508.5625,247.5664,512.5625,251.5664,508.5625" style="stroke:#181818;stroke-width:1;"/><line style="stroke:#181818;stroke-width:1;" x1="352.9458" x2="352.9458" y1="490.5625" y2="508.5625"/><line style="stroke:#181818;stroke-width:1;" x1="352.9458" x2="281.5664" y1="508.5625" y2="508.5625"/><polygon fill="#181818" points="291.5664,504.5625,281.5664,508.5625,291.5664,512.5625,287.5664,508.5625" style="stroke:#181818;stroke-width:1;"/><line style="stroke:#181818;stroke-width:1;" x1="269.5664" x2="269.5664" y1="346.375" y2="366.375"/><polygon fill="#181818" points="265.5664,356.375,269.5664,366.375,273.5664,356.375,269.5664,360.375" style="stroke:#181818;stroke-width:1;"/><line style="stroke:#181818;stroke-width:1;" x1="269.5664" x2="269.5664" y1="520.5625" y2="547.3867"/><polygon fill="#181818" points="265.5664,537.3867,269.5664,547.3867,273.5664,537.3867,269.5664,541.3867" style="stroke:#181818;stroke-width:1;"/><line style="stroke:#181818;stroke-width:1;" x1="81.5107" x2="81.5107" y1="694.4932" y2="714.4932"/><polygon fill="#181818" points="77.5107,704.4932,81.5107,714.4932,85.5107,704.4932,81.5107,708.4932" style="stroke:#181818;stroke-width:1;"/><line style="stroke:#181818;stroke-width:1;" x1="224.2314" x2="224.2314" y1="694.4932" y2="714.4932"/><polygon fill="#181818" points="220.2314,704.4932,224.2314,714.4932,228.2314,704.4932,224.2314,708.4932" style="stroke:#181818;stroke-width:1;"/><line style="stroke:#181818;stroke-width:1;" x1="387.2871" x2="387.2871" y1="694.4932" y2="714.4932"/><polygon fill="#181818" points="383.2871,704.4932,387.2871,714.4932,391.2871,704.4932,387.2871,708.4932" style="stroke:#181818;stroke-width:1;"/><line style="stroke:#181818;stroke-width:1;" x1="387.2871" x2="387.2871" y1="749.5869" y2="769.5869"/><polygon fill="#181818" points="383.2871,759.5869,387.2871,769.5869,391.2871,759.5869,387.2871,763.5869" style="stroke:#181818;stroke-width:1;"/><line style="stroke:#181818;stroke-width:1;" x1="387.2871" x2="387.2871" y1="804.6807" y2="824.6807"/><polygon fill="#181818" points="383.2871,814.6807,387.2871,824.6807,391.2871,814.6807,387.2871,818.6807" style="stroke:#181818;stroke-width:1;"/><line style="stroke:#181818;stroke-width:1;" x1="81.5107" x2="81.5107" y1="626.4805" y2="659.3994"/><polygon fill="#181818" points="77.5107,649.3994,81.5107,659.3994,85.5107,649.3994,81.5107,653.3994" style="stroke:#181818;stroke-width:1;"/><line style="stroke:#181818;stroke-width:1;" x1="81.5107" x2="81.5107" y1="749.5869" y2="866.6807"/><polygon fill="#181818" points="77.5107,856.6807,81.5107,866.6807,85.5107,856.6807,81.5107,860.6807" style="stroke:#181818;stroke-width:1;"/><line style="stroke:#181818;stroke-width:1;" x1="224.2314" x2="224.2314" y1="626.4805" y2="659.3994"/><polygon fill="#181818" points="220.2314,649.3994,224.2314,659.3994,228.2314,649.3994,224.2314,653.3994" style="stroke:#181818;stroke-width:1;"/><line style="stroke:#181818;stroke-width:1;" x1="387.2871" x2="387.2871" y1="626.4805" y2="659.3994"/><polygon fill="#181818" points="383.2871,649.3994,387.2871,659.3994,391.2871,649.3994,387.2871,653.3994" style="stroke:#181818;stroke-width:1;"/><line style="stroke:#181818;stroke-width:1;" x1="143.0215" x2="168.833" y1="614.4805" y2="614.4805"/><polygon fill="#181818" points="158.833,610.4805,168.833,614.4805,158.833,618.4805,162.833,614.4805" style="stroke:#181818;stroke-width:1;"/><line style="stroke:#181818;stroke-width:1;" x1="279.6299" x2="322.0999" y1="614.4805" y2="614.4805"/><polygon fill="#181818" points="312.0999,610.4805,322.0999,614.4805,312.0999,618.4805,316.0999,614.4805" style="stroke:#181818;stroke-width:1;"/><line style="stroke:#181818;stroke-width:1;" x1="269.5664" x2="269.5664" y1="582.4805" y2="587.4805"/><line style="stroke:#181818;stroke-width:1;" x1="269.5664" x2="81.5107" y1="587.4805" y2="587.4805"/><line style="stroke:#181818;stroke-width:1;" x1="81.5107" x2="81.5107" y1="587.4805" y2="602.4805"/><polygon fill="#181818" points="77.5107,592.4805,81.5107,602.4805,85.5107,592.4805,81.5107,596.4805" style="stroke:#181818;stroke-width:1;"/><line style="stroke:#181818;stroke-width:1;" x1="452.4744" x2="488.6543" y1="614.4805" y2="614.4805"/><line style="stroke:#181818;stroke-width:1;" x1="488.6543" x2="488.6543" y1="614.4805" y2="866.6807"/><polygon fill="#181818" points="484.6543,856.6807,488.6543,866.6807,492.6543,856.6807,488.6543,860.6807" style="stroke:#181818;stroke-width:1;"/><line style="stroke:#181818;stroke-width:1;" x1="81.5107" x2="488.6543" y1="866.6807" y2="866.6807"/><line style="stroke:#181818;stroke-width:1;" x1="269.5664" x2="269.5664" y1="74" y2="94"/><polygon fill="#181818" points="265.5664,84,269.5664,94,273.5664,84,269.5664,88" style="stroke:#181818;stroke-width:1;"/><line style="stroke:#181818;stroke-width:1;" x1="324.3767" x2="506.6543" y1="898.6807" y2="898.6807"/><polygon fill="#181818" points="502.6543,527.3867,506.6543,517.3867,510.6543,527.3867,506.6543,523.3867" style="stroke:#181818;stroke-width:1;"/><line style="stroke:#181818;stroke-width:1;" x1="506.6543" x2="506.6543" y1="62" y2="898.6807"/><line style="stroke:#181818;stroke-width:1;" x1="506.6543" x2="281.5664" y1="62" y2="62"/><polygon fill="#181818" points="291.5664,58,281.5664,62,291.5664,66,287.5664,62" style="stroke:#181818;stroke-width:1;"/><line style="stroke:#181818;stroke-width:1;" x1="269.5664" x2="269.5664" y1="866.6807" y2="886.6807"/><polygon fill="#181818" points="265.5664,876.6807,269.5664,886.6807,273.5664,876.6807,269.5664,880.6807" style="stroke:#181818;stroke-width:1;"/><line style="stroke:#181818;stroke-width:1;" x1="269.5664" x2="269.5664" y1="30" y2="50"/><polygon fill="#181818" points="265.5664,40,269.5664,50,273.5664,40,269.5664,44" style="stroke:#181818;stroke-width:1;"/><!--SRC=[TPAxRiCm34NtV0N7P0XGT6o60asxjaEGTcRa6vkm8naYdSVVLtucRTD9jaXT7bvIZQFD8cgmpOYUjef8y8Qeb4c4in0lLBCLgnJUXrYc8-LzSYKP6xfGUtzWM_MXTG5NKeru45K9NeVxJH5EXBEemJkG6bkZeofnpk9l1QxLsJaafPrKOfVs0NmseiYUvWDBAfLeLA7F2x82dkONwABNVFEygq3hu4ry0zerPi5tOfM2vZuCYQ-Y_sLEFSGO8XqI4-VG0KZswMmT_6AnbewQrafsBTTg8EtSTPMuKkabXfFY3kf7dVwltMV2LSY7-jlwndH1bKqT_95dLzuHV-UZvAs41Tgibm-zhbge_nCQZRXdwXckQN4Wooou4d6P7f6BQPamEiR7VjReJF4u6sdAmBGNlv0UVo9rplRxIQT2qcJcqsYGIVh84vbep_KD]--></g></svg>