<svg xmlns="http://www.w3.org/2000/svg" xmlns:xlink="http://www.w3.org/1999/xlink" contentStyleType="text/css" data-diagram-type="ACTIVITY" height="747px" preserveAspectRatio="none" style="width:602px;height:747px;background:#FFFFFF;" version="1.1" viewBox="0 0 602 747" width="602px" zoomAndPan="magnify"><defs/><g><ellipse cx="306.4395" cy="20" fill="#222222" rx="10" ry="10" style="stroke:#222222;stroke-width:1;"/><rect fill="#F1F1F1" height="35.0938" rx="12.5" ry="12.5" style="stroke:#181818;stroke-width:0.5;" width="196.0977" x="208.3906" y="50"/><text fill="#000000" font-family="sans-serif" font-size="12" lengthAdjust="spacing" textLength="176.0977" x="218.3906" y="72.457">User enters/changes base image</text><rect fill="#F1F1F1" height="35.0938" rx="12.5" ry="12.5" style="stroke:#181818;stroke-width:0.5;" width="170.7559" x="221.0615" y="105.0938"/><text fill="#000000" font-family="sans-serif" font-size="12" lengthAdjust="spacing" textLength="150.7559" x="231.0615" y="127.5508">Start non-blocking validation</text><rect fill="#F1F1F1" height="35.0938" rx="12.5" ry="12.5" style="stroke:#181818;stroke-width:0.5;" width="140.7441" x="236.0674" y="160.1875"/><text fill="#000000" font-family="sans-serif" font-size="12" lengthAdjust="spacing" textLength="120.7441" x="246.0674" y="182.6445">Show loading indicator</text><rect fill="#555555" height="6" rx="2.5" ry="2.5" style="stroke:#555555;stroke-width:1;" width="580.8789" x="11" y="215.2813"/><rect fill="#F1F1F1" height="35.0938" rx="12.5" ry="12.5" style="stroke:#181818;stroke-width:0.5;" width="178.7422" x="23" y="377.293"/><text fill="#000000" font-family="sans-serif" font-size="12" lengthAdjust="spacing" textLength="158.7422" x="33" y="399.75">Continue with form interaction</text><rect fill="#F1F1F1" height="35.0938" rx="12.5" ry="12.5" style="stroke:#181818;stroke-width:0.5;" width="142.0449" x="331.4492" y="241.2813"/><text fill="#000000" font-family="sans-serif" font-size="12" lengthAdjust="spacing" textLength="122.0449" x="341.4492" y="263.7383">Query Docker Hub API</text><polygon fill="#F1F1F1" points="368.5398,296.375,436.4036,296.375,448.4036,308.375,436.4036,320.375,368.5398,320.375,356.5398,308.375,368.5398,296.375" style="stroke:#181818;stroke-width:0.5;"/><text fill="#000000" font-family="sans-serif" font-size="11" lengthAdjust="spacing" textLength="67.8638" x="368.5398" y="312.876">Image exists?</text><text fill="#000000" font-family="sans-serif" font-size="11" lengthAdjust="spacing" textLength="17.1177" x="339.4221" y="305.958">yes</text><text fill="#000000" font-family="sans-serif" font-size="11" lengthAdjust="spacing" textLength="12.2354" x="448.4036" y="305.958">no</text><rect fill="#F1F1F1" height="35.0938" rx="12.5" ry="12.5" style="stroke:#181818;stroke-width:0.5;" width="145.3906" x="239.7422" y="330.375"/><text fill="#000000" font-family="sans-serif" font-size="12" lengthAdjust="spacing" textLength="125.3906" x="249.7422" y="352.832">Show success indicator</text><rect fill="#F1F1F1" height="35.0938" rx="12.5" ry="12.5" style="stroke:#181818;stroke-width:0.5;" width="174.7461" x="405.1328" y="330.375"/><text fill="#000000" font-family="sans-serif" font-size="12" lengthAdjust="spacing" textLength="154.7461" x="415.1328" y="352.832">Show warning (non-blocking)</text><polygon fill="#F1F1F1" points="402.4717,371.4688,414.4717,383.4688,402.4717,395.4688,390.4717,383.4688,402.4717,371.4688" style="stroke:#181818;stroke-width:0.5;"/><rect fill="#F1F1F1" height="35.0938" rx="12.5" ry="12.5" style="stroke:#181818;stroke-width:0.5;" width="144.7285" x="330.1074" y="479.3867"/><text fill="#000000" font-family="sans-serif" font-size="12" lengthAdjust="spacing" textLength="124.7285" x="340.1074" y="501.8438">Show timeout message</text><polygon fill="#F1F1F1" points="359.3633,430.4688,445.5801,430.4688,457.5801,442.4688,445.5801,454.4688,359.3633,454.4688,347.3633,442.4688,359.3633,430.4688" style="stroke:#181818;stroke-width:0.5;"/><text fill="#000000" font-family="sans-serif" font-size="11" lengthAdjust="spacing" textLength="17.1177" x="406.4717" y="465.8877">yes</text><text fill="#000000" font-family="sans-serif" font-size="11" lengthAdjust="spacing" textLength="86.2168" x="359.3633" y="446.9697">Request timeout?</text><polygon fill="#F1F1F1" points="402.4717,534.4805,414.4717,546.4805,402.4717,558.4805,390.4717,546.4805,402.4717,534.4805" style="stroke:#181818;stroke-width:0.5;"/><rect fill="#555555" height="6" rx="2.5" ry="2.5" style="stroke:#555555;stroke-width:1;" width="580.8789" x="11" y="578.4805"/><rect fill="#F1F1F1" height="35.0938" rx="12.5" ry="12.5" style="stroke:#181818;stroke-width:0.5;" width="148.0801" x="232.3994" y="604.4805"/><text fill="#000000" font-family="sans-serif" font-size="12" lengthAdjust="spacing" textLength="128.0801" x="242.3994" y="626.9375">Update validation status</text><rect fill="#F1F1F1" height="35.0938" rx="12.5" ry="12.5" style="stroke:#181818;stroke-width:0.5;" width="155.4102" x="228.7344" y="659.5742"/><text fill="#000000" font-family="sans-serif" font-size="12" lengthAdjust="spacing" textLength="135.4102" x="238.7344" y="682.0313">Remove loading indicator</text><ellipse cx="306.4395" cy="725.668" fill="none" rx="11" ry="11" style="stroke:#222222;stroke-width:1;"/><ellipse cx="306.4395" cy="725.668" fill="#222222" rx="6" ry="6" style="stroke:#222222;stroke-width:1;"/><line style="stroke:#181818;stroke-width:1;" x1="306.4395" x2="306.4395" y1="30" y2="50"/><polygon fill="#181818" points="302.4395,40,306.4395,50,310.4395,40,306.4395,44" style="stroke:#181818;stroke-width:1;"/><line style="stroke:#181818;stroke-width:1;" x1="306.4395" x2="306.4395" y1="85.0938" y2="105.0938"/><polygon fill="#181818" points="302.4395,95.0938,306.4395,105.0938,310.4395,95.0938,306.4395,99.0938" style="stroke:#181818;stroke-width:1;"/><line style="stroke:#181818;stroke-width:1;" x1="306.4395" x2="306.4395" y1="140.1875" y2="160.1875"/><polygon fill="#181818" points="302.4395,150.1875,306.4395,160.1875,310.4395,150.1875,306.4395,154.1875" style="stroke:#181818;stroke-width:1;"/><line style="stroke:#181818;stroke-width:1;" x1="356.5398" x2="312.4375" y1="308.375" y2="308.375"/><line style="stroke:#181818;stroke-width:1;" x1="312.4375" x2="312.4375" y1="308.375" y2="330.375"/><polygon fill="#181818" points="308.4375,320.375,312.4375,330.375,316.4375,320.375,312.4375,324.375" style="stroke:#181818;stroke-width:1;"/><line style="stroke:#181818;stroke-width:1;" x1="448.4036" x2="492.5059" y1="308.375" y2="308.375"/><line style="stroke:#181818;stroke-width:1;" x1="492.5059" x2="492.5059" y1="308.375" y2="330.375"/><polygon fill="#181818" points="488.5059,320.375,492.5059,330.375,496.5059,320.375,492.5059,324.375" style="stroke:#181818;stroke-width:1;"/><line style="stroke:#181818;stroke-width:1;" x1="312.4375" x2="312.4375" y1="365.4688" y2="383.4688"/><line style="stroke:#181818;stroke-width:1;" x1="312.4375" x2="390.4717" y1="383.4688" y2="383.4688"/><polygon fill="#181818" points="380.4717,379.4688,390.4717,383.4688,380.4717,387.4688,384.4717,383.4688" style="stroke:#181818;stroke-width:1;"/><line style="stroke:#181818;stroke-width:1;" x1="492.5059" x2="492.5059" y1="365.4688" y2="383.4688"/><line style="stroke:#181818;stroke-width:1;" x1="492.5059" x2="414.4717" y1="383.4688" y2="383.4688"/><polygon fill="#181818" points="424.4717,379.4688,414.4717,383.4688,424.4717,387.4688,420.4717,383.4688" style="stroke:#181818;stroke-width:1;"/><line style="stroke:#181818;stroke-width:1;" x1="402.4717" x2="402.4717" y1="276.375" y2="296.375"/><polygon fill="#181818" points="398.4717,286.375,402.4717,296.375,406.4717,286.375,402.4717,290.375" style="stroke:#181818;stroke-width:1;"/><line style="stroke:#181818;stroke-width:1;" x1="402.4717" x2="402.4717" y1="454.4688" y2="479.3867"/><polygon fill="#181818" points="398.4717,469.3867,402.4717,479.3867,406.4717,469.3867,402.4717,473.3867" style="stroke:#181818;stroke-width:1;"/><line style="stroke:#181818;stroke-width:1;" x1="457.5801" x2="484.8359" y1="442.4688" y2="442.4688"/><polygon fill="#181818" points="480.8359,486.9336,484.8359,496.9336,488.8359,486.9336,484.8359,490.9336" style="stroke:#181818;stroke-width:1;"/><line style="stroke:#181818;stroke-width:1;" x1="484.8359" x2="484.8359" y1="442.4688" y2="546.4805"/><line style="stroke:#181818;stroke-width:1;" x1="484.8359" x2="414.4717" y1="546.4805" y2="546.4805"/><polygon fill="#181818" points="424.4717,542.4805,414.4717,546.4805,424.4717,550.4805,420.4717,546.4805" style="stroke:#181818;stroke-width:1;"/><line style="stroke:#181818;stroke-width:1;" x1="402.4717" x2="402.4717" y1="514.4805" y2="534.4805"/><polygon fill="#181818" points="398.4717,524.4805,402.4717,534.4805,406.4717,524.4805,402.4717,528.4805" style="stroke:#181818;stroke-width:1;"/><line style="stroke:#181818;stroke-width:1;" x1="402.4717" x2="402.4717" y1="395.4688" y2="430.4688"/><polygon fill="#181818" points="398.4717,420.4688,402.4717,430.4688,406.4717,420.4688,402.4717,424.4688" style="stroke:#181818;stroke-width:1;"/><line style="stroke:#181818;stroke-width:1;" x1="112.3711" x2="112.3711" y1="221.2813" y2="377.293"/><polygon fill="#181818" points="108.3711,367.293,112.3711,377.293,116.3711,367.293,112.3711,371.293" style="stroke:#181818;stroke-width:1;"/><line style="stroke:#181818;stroke-width:1;" x1="402.4717" x2="402.4717" y1="221.2813" y2="241.2813"/><polygon fill="#181818" points="398.4717,231.2813,402.4717,241.2813,406.4717,231.2813,402.4717,235.2813" style="stroke:#181818;stroke-width:1;"/><line style="stroke:#181818;stroke-width:1;" x1="112.3711" x2="112.3711" y1="412.3867" y2="578.4805"/><polygon fill="#181818" points="108.3711,568.4805,112.3711,578.4805,116.3711,568.4805,112.3711,572.4805" style="stroke:#181818;stroke-width:1;"/><line style="stroke:#181818;stroke-width:1;" x1="402.4717" x2="402.4717" y1="558.4805" y2="578.4805"/><polygon fill="#181818" points="398.4717,568.4805,402.4717,578.4805,406.4717,568.4805,402.4717,572.4805" style="stroke:#181818;stroke-width:1;"/><line style="stroke:#181818;stroke-width:1;" x1="306.4395" x2="306.4395" y1="195.2813" y2="215.2813"/><polygon fill="#181818" points="302.4395,205.2813,306.4395,215.2813,310.4395,205.2813,306.4395,209.2813" style="stroke:#181818;stroke-width:1;"/><line style="stroke:#181818;stroke-width:1;" x1="306.4395" x2="306.4395" y1="584.4805" y2="604.4805"/><polygon fill="#181818" points="302.4395,594.4805,306.4395,604.4805,310.4395,594.4805,306.4395,598.4805" style="stroke:#181818;stroke-width:1;"/><line style="stroke:#181818;stroke-width:1;" x1="306.4395" x2="306.4395" y1="639.5742" y2="659.5742"/><polygon fill="#181818" points="302.4395,649.5742,306.4395,659.5742,310.4395,649.5742,306.4395,653.5742" style="stroke:#181818;stroke-width:1;"/><line style="stroke:#181818;stroke-width:1;" x1="306.4395" x2="306.4395" y1="694.668" y2="714.668"/><polygon fill="#181818" points="302.4395,704.668,306.4395,714.668,310.4395,704.668,306.4395,708.668" style="stroke:#181818;stroke-width:1;"/><!--SRC=[TP2nKiD034HxVuLAks3exO9Xe20T2PCFa6t5leajXPCk9d-FpeGP5z1SSVkaNQqQHYlger84OgEeZzs8F912YqeGPXoeAUgFp04BFxIJTEV00rnn2ZrQ4CxwA0jCWdrM0lUXGvFO52U9vmAWVX6sm8bW2JQ2_yvEkHrsFmio1pXWu4pl4yKRlBgHntfBBJo_xneNmWdANKu4z1NKzAa26ucXl95Mhlle6aHJrv7gDWW0JNvFoR855uoS4vVRowgLzj7JtV90dudKmC9Cakm_rxiCirklhVrkyHVM8khZnHkZJNMWXfRK6ppGB5VwgqCrkNm3]--></g></svg>