<svg xmlns="http://www.w3.org/2000/svg" xmlns:xlink="http://www.w3.org/1999/xlink" contentStyleType="text/css" data-diagram-type="DESCRIPTION" height="385px" preserveAspectRatio="none" style="width:1349px;height:385px;background:#FFFFFF;" version="1.1" viewBox="0 0 1349 385" width="1349px" zoomAndPan="magnify"><defs/><g><!--cluster Project Information Screen--><g class="cluster" data-entity="Project Information Screen" data-source-line="6" data-uid="ent0005" id="cluster_Project Information Screen"><rect fill="none" height="279" rx="2.5" ry="2.5" style="stroke:#181818;stroke-width:1;" width="1139" x="83" y="7"/><text fill="#000000" font-family="sans-serif" font-size="14" font-weight="bold" lengthAdjust="spacing" textLength="178.9307" x="563.0347" y="23.5332">Project Information Screen</text></g><g class="entity" data-entity="UC1" data-source-line="7" data-uid="ent0006" id="entity_UC1"><ellipse cx="513.2351" cy="93.047" fill="#F1F1F1" rx="83.2351" ry="19.047" style="stroke:#181818;stroke-width:0.5;"/><text fill="#000000" font-family="sans-serif" font-size="14" lengthAdjust="spacing" textLength="122.1582" x="452.156" y="96.7755">Enter Project Name</text></g><g class="entity" data-entity="UC2" data-source-line="8" data-uid="ent0007" id="entity_UC2"><ellipse cx="512.806" cy="235.1612" fill="#F1F1F1" rx="81.306" ry="18.6612" style="stroke:#181818;stroke-width:0.5;"/><text fill="#000000" font-family="sans-serif" font-size="14" lengthAdjust="spacing" textLength="117.5098" x="453.6266" y="239.0146">Select Base Image</text></g><g class="entity" data-entity="UC3" data-source-line="9" data-uid="ent0008" id="entity_UC3"><ellipse cx="807.0223" cy="69.0045" fill="#F1F1F1" rx="90.5223" ry="20.5045" style="stroke:#181818;stroke-width:0.5;"/><text fill="#000000" font-family="sans-serif" font-size="14" lengthAdjust="spacing" textLength="139.2891" x="737.3778" y="72.733">Validate Project Name</text></g><g class="entity" data-entity="UC4" data-source-line="10" data-uid="ent0009" id="entity_UC4"><ellipse cx="807.1979" cy="235.1396" fill="#F1F1F1" rx="86.1979" ry="19.6396" style="stroke:#181818;stroke-width:0.5;"/><text fill="#000000" font-family="sans-serif" font-size="14" lengthAdjust="spacing" textLength="129.1924" x="742.6017" y="238.8681">Validate Base Image</text></g><g class="entity" data-entity="UC5" data-source-line="11" data-uid="ent0010" id="entity_UC5"><ellipse cx="807.2373" cy="150.2475" fill="#F1F1F1" rx="94.2373" ry="21.2475" style="stroke:#181818;stroke-width:0.5;"/><text fill="#000000" font-family="sans-serif" font-size="14" lengthAdjust="spacing" textLength="147.8271" x="733.3237" y="153.976">Preview Docker Images</text></g><g class="entity" data-entity="UC6" data-source-line="12" data-uid="ent0011" id="entity_UC6"><ellipse cx="1111.9052" cy="235.181" fill="#F1F1F1" rx="93.9052" ry="21.181" style="stroke:#181818;stroke-width:0.5;"/><text fill="#000000" font-family="sans-serif" font-size="14" lengthAdjust="spacing" textLength="147.0684" x="1038.371" y="238.9095">Check Image Existence</text></g><g class="entity" data-entity="UC7" data-source-line="13" data-uid="ent0012" id="entity_UC7"><ellipse cx="207.1426" cy="67.0285" fill="#F1F1F1" rx="108.1426" ry="24.0285" style="stroke:#181818;stroke-width:0.5;"/><text fill="#000000" font-family="sans-serif" font-size="14" lengthAdjust="spacing" textLength="178.9648" x="117.6601" y="70.757">Auto-populate from Directory</text></g><g class="entity" data-entity="UC8" data-source-line="14" data-uid="ent0013" id="entity_UC8"><ellipse cx="207.1847" cy="146.2369" fill="#F1F1F1" rx="89.1847" ry="20.2369" style="stroke:#181818;stroke-width:0.5;"/><text fill="#000000" font-family="sans-serif" font-size="14" lengthAdjust="spacing" textLength="136.1855" x="139.0919" y="149.9655">Navigate to Next Step</text></g><!--entity user--><g class="entity" data-entity="user" data-source-line="2" data-uid="ent0002" id="entity_user"><ellipse cx="20.7793" cy="188.5" fill="#F1F1F1" rx="8" ry="8" style="stroke:#181818;stroke-width:0.5;"/><path d="M20.7793,196.5 L20.7793,223.5 M7.7793,204.5 L33.7793,204.5 M20.7793,223.5 L7.7793,238.5 M20.7793,223.5 L33.7793,238.5" fill="none" style="stroke:#181818;stroke-width:0.5;"/><text fill="#000000" font-family="sans-serif" font-size="14" lengthAdjust="spacing" textLength="29.5586" x="6" y="254.5332">User</text></g><!--entity hub--><g class="entity" data-entity="hub" data-source-line="3" data-uid="ent0003" id="entity_hub"><ellipse cx="1305.9585" cy="204.5" fill="#F1F1F1" rx="8" ry="8" style="stroke:#181818;stroke-width:0.5;"/><path d="M1305.9585,212.5 L1305.9585,239.5 M1292.9585,220.5 L1318.9585,220.5 M1305.9585,239.5 L1292.9585,254.5 M1305.9585,239.5 L1318.9585,254.5" fill="none" style="stroke:#181818;stroke-width:0.5;"/><text fill="#000000" font-family="sans-serif" font-size="14" lengthAdjust="spacing" textLength="73.917" x="1269" y="270.5332">Docker Hub</text></g><!--entity config--><g class="entity" data-entity="config" data-source-line="4" data-uid="ent0004" id="entity_config"><ellipse cx="1111.8135" cy="310.5" fill="#F1F1F1" rx="8" ry="8" style="stroke:#181818;stroke-width:0.5;"/><path d="M1111.8135,318.5 L1111.8135,345.5 M1098.8135,326.5 L1124.8135,326.5 M1111.8135,345.5 L1098.8135,360.5 M1111.8135,345.5 L1124.8135,360.5" fill="none" style="stroke:#181818;stroke-width:0.5;"/><text fill="#000000" font-family="sans-serif" font-size="14" lengthAdjust="spacing" textLength="120.627" x="1051.5" y="376.5332">Configuration Store</text></g><!--link user to UC1--><g class="link" data-entity-1="user" data-entity-2="UC1" data-source-line="17" data-uid="lnk14" id="link_user_UC1"><path d="M36.03,218.79 C78.75,217.82 210.69,212.48 315,183 C376.69,165.57 438.3359,134.3273 476.1459,113.4773" fill="none" id="user-to-UC1" style="stroke:#181818;stroke-width:1;"/><polygon fill="#181818" points="481.4,110.58,471.5873,111.4233,477.0216,112.9944,475.4504,118.4287,481.4,110.58" style="stroke:#181818;stroke-width:1;"/></g><!--link user to UC2--><g class="link" data-entity-1="user" data-entity-2="UC2" data-source-line="18" data-uid="lnk15" id="link_user_UC2"><path d="M36.17,230.02 C44.39,235.71 55.22,242.05 66,245 C209.19,284.14 251.7,251.61 400,245 C412.38,244.45 419.5395,244.0335 432.2795,243.0035" fill="none" id="user-to-UC2" style="stroke:#181818;stroke-width:1;"/><polygon fill="#181818" points="438.26,242.52,428.9669,239.2583,433.2763,242.9229,429.6116,247.2323,438.26,242.52" style="stroke:#181818;stroke-width:1;"/></g><!--link user to UC8--><g class="link" data-entity-1="user" data-entity-2="UC8" data-source-line="19" data-uid="lnk16" id="link_user_UC8"><path d="M36.25,209.54 C44.67,204.22 55.67,197.72 66,193 C93.16,180.58 118.8697,171.5088 145.0597,163.3788" fill="none" id="user-to-UC8" style="stroke:#181818;stroke-width:1;"/><polygon fill="#181818" points="150.79,161.6,141.0087,160.448,146.0148,163.0823,143.3805,168.0884,150.79,161.6" style="stroke:#181818;stroke-width:1;"/></g><!--link UC1 to UC3--><g class="link" data-entity-1="UC1" data-entity-2="UC3" data-source-line="20" data-uid="lnk17" id="link_UC1_UC3"><path d="M591.48,86.63 C631.61,83.33 674.6901,79.7907 715.7601,76.4207" fill="none" id="UC1-to-UC3" style="stroke:#181818;stroke-width:1;"/><polygon fill="#181818" points="721.74,75.93,712.443,72.6794,716.7567,76.3389,713.0973,80.6526,721.74,75.93" style="stroke:#181818;stroke-width:1;"/><text fill="#000000" font-family="sans-serif" font-size="13" lengthAdjust="spacing" textLength="55.6563" x="627" y="76.4951">&#171;include&#187;</text></g><!--link UC2 to UC4--><g class="link" data-entity-1="UC2" data-entity-2="UC4" data-source-line="21" data-uid="lnk18" id="link_UC2_UC4"><path d="M593.84,237.4 C604.65,237.65 615.59,237.86 626,238 C657.1,238.42 685.2112,238.1796 715.3012,237.5796" fill="none" id="UC2-to-UC4" style="stroke:#181818;stroke-width:1;"/><polygon fill="#181818" points="721.3,237.46,712.222,233.6402,716.301,237.5597,712.3815,241.6386,721.3,237.46" style="stroke:#181818;stroke-width:1;"/><text fill="#000000" font-family="sans-serif" font-size="13" lengthAdjust="spacing" textLength="55.6563" x="627" y="234.4951">&#171;include&#187;</text></g><!--link UC1 to UC5--><g class="link" data-entity-1="UC1" data-entity-2="UC5" data-source-line="22" data-uid="lnk19" id="link_UC1_UC5"><path d="M576.64,105.23 C623.4,114.35 681.4111,125.6809 729.8911,135.1409" fill="none" id="UC1-to-UC5" style="stroke:#181818;stroke-width:1;"/><polygon fill="#181818" points="735.78,136.29,727.7127,130.6404,730.8726,135.3324,726.1805,138.4923,735.78,136.29" style="stroke:#181818;stroke-width:1;"/><text fill="#000000" font-family="sans-serif" font-size="13" lengthAdjust="spacing" textLength="55.6563" x="627" y="113.4951">&#171;include&#187;</text></g><!--link UC2 to UC5--><g class="link" data-entity-1="UC2" data-entity-2="UC5" data-source-line="23" data-uid="lnk20" id="link_UC2_UC5"><path d="M563.86,220.48 C615.26,205.52 689.489,183.9167 743.329,168.2467" fill="none" id="UC2-to-UC5" style="stroke:#181818;stroke-width:1;"/><polygon fill="#181818" points="749.09,166.57,739.3308,165.2444,744.2892,167.9673,741.5664,172.9257,749.09,166.57" style="stroke:#181818;stroke-width:1;"/><text fill="#000000" font-family="sans-serif" font-size="13" lengthAdjust="spacing" textLength="55.6563" x="627" y="184.4951">&#171;include&#187;</text></g><!--link UC4 to UC6--><g class="link" data-entity-1="UC4" data-entity-2="UC6" data-source-line="24" data-uid="lnk21" id="link_UC4_UC6"><path d="M893.21,235 C932.07,235 972.17,235 1011.94,235" fill="none" id="UC4-to-UC6" style="stroke:#181818;stroke-width:1;"/><polygon fill="#181818" points="1017.94,235,1008.94,231,1012.94,235,1008.94,239,1017.94,235" style="stroke:#181818;stroke-width:1;"/><text fill="#000000" font-family="sans-serif" font-size="13" lengthAdjust="spacing" textLength="55.6563" x="932" y="231.4951">&#171;include&#187;</text></g><!--link UC3 to config--><g class="link" data-entity-1="UC3" data-entity-2="config" data-source-line="25" data-uid="lnk22" id="link_UC3_config"><path d="M864.78,84.8 C878.33,90.99 891.58,99.48 901,111 C939.07,157.59 894.69,195.03 931,243 C960.85,282.44 1005.7365,305.8214 1045.6665,320.8914" fill="none" id="UC3-to-config" style="stroke:#181818;stroke-width:1;"/><polygon fill="#181818" points="1051.28,323.01,1044.2721,316.0898,1046.6021,321.2445,1041.4473,323.5744,1051.28,323.01" style="stroke:#181818;stroke-width:1;"/></g><!--link UC4 to config--><g class="link" data-entity-1="UC4" data-entity-2="config" data-source-line="26" data-uid="lnk23" id="link_UC4_config"><path d="M829.89,253.84 C853.28,272.84 892.24,301.4 931,316 C969.53,330.51 1009.5658,336.2846 1045.4358,338.8946" fill="none" id="UC4-to-config" style="stroke:#181818;stroke-width:1;"/><polygon fill="#181818" points="1051.42,339.33,1042.734,334.6874,1046.4332,338.9671,1042.1534,342.6663,1051.42,339.33" style="stroke:#181818;stroke-width:1;"/></g><!--link UC6 to hub--><g class="link" data-entity-1="UC6" data-entity-2="hub" data-source-line="27" data-uid="lnk24" id="link_UC6_hub"><path d="M1206.19,235 C1228.35,235 1244.72,235 1262.55,235" fill="none" id="UC6-to-hub" style="stroke:#181818;stroke-width:1;"/><polygon fill="#181818" points="1268.55,235,1259.55,231,1263.55,235,1259.55,239,1268.55,235" style="stroke:#181818;stroke-width:1;"/></g><!--link UC7 to UC1--><g class="link" data-entity-1="UC7" data-entity-2="UC1" data-source-line="28" data-uid="lnk25" id="link_UC7_UC1"><path d="M307.96,75.55 C349.32,79.09 390.5518,82.6086 429.1318,85.9086" fill="none" id="UC7-to-UC1" style="stroke:#181818;stroke-width:1;"/><polygon fill="#181818" points="435.11,86.42,426.4836,81.6675,430.1282,85.9939,425.8018,89.6384,435.11,86.42" style="stroke:#181818;stroke-width:1;"/><text fill="#000000" font-family="sans-serif" font-size="13" lengthAdjust="spacing" textLength="53.4917" x="346" y="76.4951">&#171;extend&#187;</text></g><!--SRC=[TP9FQmCX4CNlVefXxtje_ZMKiD1k0iqb149wD-xincPNWwjfIkbthnejmYOttxoVRt365ciDMeBYpL53nHKopQKWb6cf8Dltg3AWFHXxYCMbP2TKy6uEtZgQGtHAAMhU64LT1kni3Jt2V9qGbqv5qo9aMoK_hOArgANgmWMc44K6FmHSGqPx2ww4jiqYlg7TBN9VFgNK3bjdlpcnxcWJeL4AVT2MLrJZlRJnNN2GDqcnhS8Bnoy80_5S7y1f2fP7PAUR3wihxpKA5XDdAVXgjCpFycnQrxrMieEbtubKtu5_JlaDlV36eNQ56xngEtCy1t1EVWbnUuCyB_oy4Z5AnPnODvp7y0AB1HUiDHKMXNL6mPaCd7Xd-l3Eq9a4PpPmnju9NoM2_tBcfVjhTWJnHJx3FXj5LHH_]--></g></svg>