<?xml version="1.0" encoding="UTF-8" standalone="no"?><svg xmlns="http://www.w3.org/2000/svg" xmlns:xlink="http://www.w3.org/1999/xlink" contentScriptType="application/ecmascript" contentStyleType="text/css" height="459px" preserveAspectRatio="none" style="width:929px;height:459px;" version="1.1" viewBox="0 0 929 459" width="929px" zoomAndPan="magnify"><defs><filter height="300%" id="f14o8jc6aje1e" width="300%" x="-1" y="-1"><feGaussianBlur result="blurOut" stdDeviation="2.0"/><feColorMatrix in="blurOut" result="blurOut2" type="matrix" values="0 0 0 0 0 0 0 0 0 0 0 0 0 0 0 0 0 0 .4 0"/><feOffset dx="4.0" dy="4.0" in="blurOut2" result="blurOut3"/><feBlend in="SourceGraphic" in2="blurOut3" mode="normal"/></filter></defs><g><!--MD5=[4c31f419137f8954b67d95fb6e9ac3ef]
cluster NiceGUI Web Application--><polygon fill="#FFFFFF" filter="url(#f14o8jc6aje1e)" points="22,112,202,112,209,137.0679,544,137.0679,544,447,22,447,22,112" style="stroke: #000000; stroke-width: 1.5;"/><line style="stroke: #000000; stroke-width: 1.5;" x1="22" x2="209" y1="137.0679" y2="137.0679"/><text fill="#000000" font-family="sans-serif" font-size="14" font-weight="bold" lengthAdjust="spacingAndGlyphs" textLength="174" x="26" y="128.9659">NiceGUI Web Application</text><!--MD5=[53ccf4b3ee6cf4337a0ab93ac09644f3]
entity main--><rect fill="#FEFECE" filter="url(#f14o8jc6aje1e)" height="39.0679" style="stroke: #A80036; stroke-width: 1.5;" width="134" x="216" y="150"/><rect fill="#FEFECE" height="5" style="stroke: #A80036; stroke-width: 1.5;" width="10" x="211" y="155"/><rect fill="#FEFECE" height="5" style="stroke: #A80036; stroke-width: 1.5;" width="10" x="211" y="179.0679"/><text fill="#000000" font-family="sans-serif" font-size="14" lengthAdjust="spacingAndGlyphs" textLength="114" x="226" y="174.9659">Main Application</text><!--MD5=[f350ee6f6cc17b9109e91461bf56a5ea]
entity state--><rect fill="#FEFECE" filter="url(#f14o8jc6aje1e)" height="39.0679" style="stroke: #A80036; stroke-width: 1.5;" width="151" x="130.5" y="271"/><rect fill="#FEFECE" height="5" style="stroke: #A80036; stroke-width: 1.5;" width="10" x="125.5" y="276"/><rect fill="#FEFECE" height="5" style="stroke: #A80036; stroke-width: 1.5;" width="10" x="125.5" y="300.0679"/><text fill="#000000" font-family="sans-serif" font-size="14" lengthAdjust="spacingAndGlyphs" textLength="131" x="140.5" y="295.9659">Configuration State</text><!--MD5=[326d3cf9f7bb2b0d71185ebbd415523d]
entity tabs--><rect fill="#FEFECE" filter="url(#f14o8jc6aje1e)" height="39.0679" style="stroke: #A80036; stroke-width: 1.5;" width="116" x="317" y="271"/><rect fill="#FEFECE" height="5" style="stroke: #A80036; stroke-width: 1.5;" width="10" x="312" y="276"/><rect fill="#FEFECE" height="5" style="stroke: #A80036; stroke-width: 1.5;" width="10" x="312" y="300.0679"/><text fill="#000000" font-family="sans-serif" font-size="14" lengthAdjust="spacingAndGlyphs" textLength="96" x="327" y="295.9659">Tab Controller</text><!--MD5=[bf1b4add2ee2e1b53e65912b20fb7ef4]
entity ui--><rect fill="#FEFECE" filter="url(#f14o8jc6aje1e)" height="39.0679" style="stroke: #A80036; stroke-width: 1.5;" width="134" x="62" y="392"/><rect fill="#FEFECE" height="5" style="stroke: #A80036; stroke-width: 1.5;" width="10" x="57" y="397"/><rect fill="#FEFECE" height="5" style="stroke: #A80036; stroke-width: 1.5;" width="10" x="57" y="421.0679"/><text fill="#000000" font-family="sans-serif" font-size="14" lengthAdjust="spacingAndGlyphs" textLength="114" x="72" y="416.9659">Tab Components</text><!--MD5=[82f23cda116f7491e2ad662b9686858a]
entity files--><rect fill="#FEFECE" filter="url(#f14o8jc6aje1e)" height="39.0679" style="stroke: #A80036; stroke-width: 1.5;" width="122" x="254" y="392"/><rect fill="#FEFECE" height="5" style="stroke: #A80036; stroke-width: 1.5;" width="10" x="249" y="397"/><rect fill="#FEFECE" height="5" style="stroke: #A80036; stroke-width: 1.5;" width="10" x="249" y="421.0679"/><text fill="#000000" font-family="sans-serif" font-size="14" lengthAdjust="spacingAndGlyphs" textLength="102" x="264" y="416.9659">File Operations</text><!--MD5=[7c0f197cad09c4d86c8b8989e1030b9e]
entity docker--><rect fill="#FEFECE" filter="url(#f14o8jc6aje1e)" height="39.0679" style="stroke: #A80036; stroke-width: 1.5;" width="100" x="417" y="392"/><rect fill="#FEFECE" height="5" style="stroke: #A80036; stroke-width: 1.5;" width="10" x="412" y="397"/><rect fill="#FEFECE" height="5" style="stroke: #A80036; stroke-width: 1.5;" width="10" x="412" y="421.0679"/><text fill="#000000" font-family="sans-serif" font-size="14" lengthAdjust="spacingAndGlyphs" textLength="80" x="427" y="416.9659">Docker Utils</text><!--MD5=[e9dede37b31fdda9664526f66258b036]
entity Browser--><rect fill="#FEFECE" filter="url(#f14o8jc6aje1e)" height="39.0679" style="stroke: #A80036; stroke-width: 1.5;" width="75" x="245.5" y="8"/><rect fill="#FEFECE" height="5" style="stroke: #A80036; stroke-width: 1.5;" width="10" x="240.5" y="13"/><rect fill="#FEFECE" height="5" style="stroke: #A80036; stroke-width: 1.5;" width="10" x="240.5" y="37.0679"/><text fill="#000000" font-family="sans-serif" font-size="14" lengthAdjust="spacingAndGlyphs" textLength="55" x="255.5" y="32.9659">Browser</text><path d="M560,268 L560,313.412 L732,313.412 L732,278 L722,268 L560,268 " fill="#FBFB77" filter="url(#f14o8jc6aje1e)" style="stroke: #A80036; stroke-width: 1.0;"/><path d="M722,268 L722,278 L732,278 L722,268 " fill="#FBFB77" style="stroke: #A80036; stroke-width: 1.0;"/><text fill="#000000" font-family="sans-serif" font-size="13" lengthAdjust="spacingAndGlyphs" textLength="151" x="566" y="286.897">In-memory configuration</text><text fill="#000000" font-family="sans-serif" font-size="13" lengthAdjust="spacingAndGlyphs" textLength="102" x="566" y="304.603">until explicit save</text><path d="M767,268 L767,313.412 L917,313.412 L917,278 L907,268 L767,268 " fill="#FBFB77" filter="url(#f14o8jc6aje1e)" style="stroke: #A80036; stroke-width: 1.0;"/><path d="M907,268 L907,278 L917,278 L907,268 " fill="#FBFB77" style="stroke: #A80036; stroke-width: 1.0;"/><text fill="#000000" font-family="sans-serif" font-size="13" lengthAdjust="spacingAndGlyphs" textLength="129" x="773" y="286.897">Tab-based navigation</text><text fill="#000000" font-family="sans-serif" font-size="13" lengthAdjust="spacingAndGlyphs" textLength="98" x="773" y="304.603">with 7 main tabs</text><!--MD5=[c54677df3a6fd59e4f6cdc340aa82279]
link Browser to main--><path d="M283,47.09 C283,72.19 283,116.96 283,144.55 " fill="none" id="Browser-&gt;main" style="stroke: #A80036; stroke-width: 1.0;"/><polygon fill="#A80036" points="283,149.83,287,140.83,283,144.83,279,140.83,283,149.83" style="stroke: #A80036; stroke-width: 1.0;"/><text fill="#000000" font-family="sans-serif" font-size="13" lengthAdjust="spacingAndGlyphs" textLength="104" x="284" y="91.897">HTTP/WebSocket</text><!--MD5=[ded5bfd1cf3ef12eeec5fe03f75fe49e]
link main to state--><path d="M253.13,189.18 C242.52,197.18 231.4,207.36 224,219 C215.07,233.05 210.56,251.32 208.29,265.74 " fill="none" id="main-&gt;state" style="stroke: #A80036; stroke-width: 1.0;"/><polygon fill="#A80036" points="207.55,270.87,212.7927,262.5325,208.2631,265.9211,204.8745,261.3915,207.55,270.87" style="stroke: #A80036; stroke-width: 1.0;"/><text fill="#000000" font-family="sans-serif" font-size="13" lengthAdjust="spacingAndGlyphs" textLength="99" x="225" y="233.897">reactive updates</text><!--MD5=[2e4c695a9cf1d4d226bc08099c6f6e0d]
link main to tabs--><path d="M302.19,189.13 C310.78,197.86 320.8,208.62 329,219 C340.88,234.04 352.66,252.18 361.33,266.29 " fill="none" id="main-&gt;tabs" style="stroke: #A80036; stroke-width: 1.0;"/><polygon fill="#A80036" points="364.15,270.91,362.8873,261.1424,361.5503,266.639,356.0537,265.302,364.15,270.91" style="stroke: #A80036; stroke-width: 1.0;"/><text fill="#000000" font-family="sans-serif" font-size="13" lengthAdjust="spacingAndGlyphs" textLength="104" x="343" y="233.897">tab management</text><!--MD5=[4970914a8a3337a65e0b5b866901cad5]
link tabs to ui--><path d="M316.92,307.86 C278.87,319.01 232.97,333.45 215,343 C191.98,355.23 168.9,373.77 152.46,388.33 " fill="none" id="tabs-&gt;ui" style="stroke: #A80036; stroke-width: 1.0;"/><polygon fill="#A80036" points="148.42,391.94,157.7913,388.9104,152.1428,388.6023,152.4509,382.9538,148.42,391.94" style="stroke: #A80036; stroke-width: 1.0;"/><text fill="#000000" font-family="sans-serif" font-size="13" lengthAdjust="spacingAndGlyphs" textLength="82" x="216" y="357.897">tab rendering</text><!--MD5=[d742d0f9fb74e3c7d0bb93d8f3e45da7]
link tabs to files--><path d="M341.73,310.13 C330.1,318.52 318.35,329.6 312,343 C305.61,356.47 306.31,373.21 308.63,386.65 " fill="none" id="tabs-&gt;files" style="stroke: #A80036; stroke-width: 1.0;"/><polygon fill="#A80036" points="309.62,391.81,311.8474,382.2163,308.6752,386.9001,303.9915,383.7279,309.62,391.81" style="stroke: #A80036; stroke-width: 1.0;"/><text fill="#000000" font-family="sans-serif" font-size="13" lengthAdjust="spacingAndGlyphs" textLength="110" x="313" y="357.897">project operations</text><!--MD5=[a61ae87de6d5ddb3468f7293a0700cd0]
link tabs to docker--><path d="M396.75,310.09 C406.91,319.38 418.77,331.16 428,343 C438.76,356.81 448.61,373.9 455.71,387.43 " fill="none" id="tabs-&gt;docker" style="stroke: #A80036; stroke-width: 1.0;"/><polygon fill="#A80036" points="458.01,391.87,457.4246,382.0386,455.7113,387.4297,450.3202,385.7164,458.01,391.87" style="stroke: #A80036; stroke-width: 1.0;"/><text fill="#000000" font-family="sans-serif" font-size="13" lengthAdjust="spacingAndGlyphs" textLength="59" x="441" y="357.897">validation</text><!--MD5=[bed16e791b2bcc4a0403ac899085e098]
link state to ui--><path d="M130.24,302.99 C107.05,310.45 83.99,322.74 70,343 C58.75,359.29 73.25,376.06 90.69,388.81 " fill="none" id="state-&gt;ui" style="stroke: #A80036; stroke-width: 1.0;"/><polygon fill="#A80036" points="95.17,391.96,90.1124,383.5089,91.0812,389.0822,85.5079,390.051,95.17,391.96" style="stroke: #A80036; stroke-width: 1.0;"/><text fill="#000000" font-family="sans-serif" font-size="13" lengthAdjust="spacingAndGlyphs" textLength="76" x="71" y="357.897">data binding</text><!--MD5=[b020bd4f31d2be5b79dd67da73cd88d1]
link state to GMN18--><path d="M232.29,270.8 C253.9,255.9 285.98,236.67 317.5,228.5 C407.41,205.18 436.26,206.48 526.5,228.5 C557.84,236.14 590.11,253.56 613.21,268 " fill="none" id="state-GMN18" style="stroke: #A80036; stroke-width: 1.0; stroke-dasharray: 7.0,7.0;"/><!--MD5=[26f1f34c88f180df5cb61013949bfe49]
link tabs to GMN21--><path d="M418.72,270.97 C486.61,243.31 621.18,199.17 732.5,228.5 C761.44,236.12 790.77,253.35 811.78,267.71 " fill="none" id="tabs-GMN21" style="stroke: #A80036; stroke-width: 1.0; stroke-dasharray: 7.0,7.0;"/><!--MD5=[575f05d569e3c65ec393e4d80c4dbf1f]
@startuml
package "NiceGUI Web Application" {
  [Main Application] as main
  [Configuration State] as state
  [Tab Controller] as tabs
  [Tab Components] as ui
  [File Operations] as files
  [Docker Utils] as docker
}

[Browser] - -> main : HTTP/WebSocket
main - -> state : reactive updates
main - -> tabs : tab management
tabs - -> ui : tab rendering
tabs - -> files : project operations
tabs - -> docker : validation
state - -> ui : data binding

note right of state : In-memory configuration\nuntil explicit save
note right of tabs : Tab-based navigation\nwith 7 main tabs
@enduml

PlantUML version 1.2020.02(Sun Mar 01 18:22:07 CST 2020)
(GPL source distribution)
Java Runtime: OpenJDK Runtime Environment
JVM: OpenJDK 64-Bit Server VM
Java Version: 21.0.7+6-Ubuntu-0ubuntu124.04
Operating System: Linux
Default Encoding: UTF-8
Language: en
Country: US
--></g></svg>