<?xml version="1.0" encoding="UTF-8" standalone="no"?><svg xmlns="http://www.w3.org/2000/svg" xmlns:xlink="http://www.w3.org/1999/xlink" contentScriptType="application/ecmascript" contentStyleType="text/css" height="966px" preserveAspectRatio="none" style="width:795px;height:966px;" version="1.1" viewBox="0 0 795 966" width="795px" zoomAndPan="magnify"><defs><filter height="300%" id="frh72568xbn1s" width="300%" x="-1" y="-1"><feGaussianBlur result="blurOut" stdDeviation="2.0"/><feColorMatrix in="blurOut" result="blurOut2" type="matrix" values="0 0 0 0 0 0 0 0 0 0 0 0 0 0 0 0 0 0 .4 0"/><feOffset dx="4.0" dy="4.0" in="blurOut2" result="blurOut3"/><feBlend in="SourceGraphic" in2="blurOut3" mode="normal"/></filter></defs><g><ellipse cx="452.25" cy="20" fill="#000000" filter="url(#frh72568xbn1s)" rx="10" ry="10" style="stroke: none; stroke-width: 1.0;"/><rect fill="#FEFECE" filter="url(#frh72568xbn1s)" height="36.3441" rx="12.5" ry="12.5" style="stroke: #A80036; stroke-width: 1.5;" width="175" x="364.75" y="50"/><text fill="#000000" font-family="sans-serif" font-size="12" lengthAdjust="spacingAndGlyphs" textLength="155" x="374.75" y="72.8281">User modifies configuration</text><rect fill="#FEFECE" filter="url(#frh72568xbn1s)" height="36.3441" rx="12.5" ry="12.5" style="stroke: #A80036; stroke-width: 1.5;" width="163" x="370.75" y="106.3441"/><text fill="#000000" font-family="sans-serif" font-size="12" lengthAdjust="spacingAndGlyphs" textLength="143" x="380.75" y="129.1722">Store changes in memory</text><rect fill="#FEFECE" filter="url(#frh72568xbn1s)" height="36.3441" rx="12.5" ry="12.5" style="stroke: #A80036; stroke-width: 1.5;" width="134" x="385.25" y="162.6882"/><text fill="#000000" font-family="sans-serif" font-size="12" lengthAdjust="spacingAndGlyphs" textLength="114" x="395.25" y="185.5163">Update UI reactively</text><rect fill="#FEFECE" filter="url(#frh72568xbn1s)" height="36.3441" rx="12.5" ry="12.5" style="stroke: #A80036; stroke-width: 1.5;" width="170" x="367.25" y="219.0323"/><text fill="#000000" font-family="sans-serif" font-size="12" lengthAdjust="spacingAndGlyphs" textLength="150" x="377.25" y="241.8604">Mark configuration as dirty</text><rect fill="#FEFECE" filter="url(#frh72568xbn1s)" height="36.3441" rx="12.5" ry="12.5" style="stroke: #A80036; stroke-width: 1.5;" width="134" x="385.25" y="332.6354"/><text fill="#000000" font-family="sans-serif" font-size="12" lengthAdjust="spacingAndGlyphs" textLength="114" x="395.25" y="355.4635">Switch between tabs</text><rect fill="#FEFECE" filter="url(#frh72568xbn1s)" height="36.3441" rx="12.5" ry="12.5" style="stroke: #A80036; stroke-width: 1.5;" width="158" x="373.25" y="388.9795"/><text fill="#000000" font-family="sans-serif" font-size="12" lengthAdjust="spacingAndGlyphs" textLength="138" x="383.25" y="411.8076">Modify different sections</text><rect fill="#FEFECE" filter="url(#frh72568xbn1s)" height="36.3441" rx="12.5" ry="12.5" style="stroke: #A80036; stroke-width: 1.5;" width="186" x="359.25" y="445.3236"/><text fill="#000000" font-family="sans-serif" font-size="12" lengthAdjust="spacingAndGlyphs" textLength="166" x="369.25" y="468.1517">All changes stored in memory</text><polygon fill="#FEFECE" filter="url(#frh72568xbn1s)" points="390.75,275.3765,513.75,275.3765,525.75,287.3765,513.75,299.3765,390.75,299.3765,378.75,287.3765,390.75,275.3765" style="stroke: #A80036; stroke-width: 1.5;"/><text fill="#000000" font-family="sans-serif" font-size="11" lengthAdjust="spacingAndGlyphs" textLength="17" x="456.25" y="311.1354">yes</text><text fill="#000000" font-family="sans-serif" font-size="11" lengthAdjust="spacingAndGlyphs" textLength="123" x="390.75" y="291.6444">User continues editing?</text><text fill="#000000" font-family="sans-serif" font-size="11" lengthAdjust="spacingAndGlyphs" textLength="14" x="364.75" y="284.1535">no</text><polygon fill="#FEFECE" filter="url(#frh72568xbn1s)" points="409.25,523.6677,495.25,523.6677,507.25,535.6677,495.25,547.6677,409.25,547.6677,397.25,535.6677,409.25,523.6677" style="stroke: #A80036; stroke-width: 1.5;"/><text fill="#000000" font-family="sans-serif" font-size="11" lengthAdjust="spacingAndGlyphs" textLength="86" x="409.25" y="539.9357">User clicks Save?</text><text fill="#000000" font-family="sans-serif" font-size="11" lengthAdjust="spacingAndGlyphs" textLength="17" x="380.25" y="532.4447">yes</text><text fill="#000000" font-family="sans-serif" font-size="11" lengthAdjust="spacingAndGlyphs" textLength="14" x="507.25" y="532.4447">no</text><rect fill="#FEFECE" filter="url(#frh72568xbn1s)" height="36.3441" rx="12.5" ry="12.5" style="stroke: #A80036; stroke-width: 1.5;" width="158" x="185.5" y="557.6677"/><text fill="#000000" font-family="sans-serif" font-size="12" lengthAdjust="spacingAndGlyphs" textLength="138" x="195.5" y="580.4958">Validate all configuration</text><polygon fill="#FEFECE" filter="url(#frh72568xbn1s)" points="217,614.0118,312,614.0118,324,626.0118,312,638.0118,217,638.0118,205,626.0118,217,614.0118" style="stroke: #A80036; stroke-width: 1.5;"/><text fill="#000000" font-family="sans-serif" font-size="11" lengthAdjust="spacingAndGlyphs" textLength="95" x="217" y="630.2798">Validation passes?</text><text fill="#000000" font-family="sans-serif" font-size="11" lengthAdjust="spacingAndGlyphs" textLength="17" x="188" y="622.7889">yes</text><text fill="#000000" font-family="sans-serif" font-size="11" lengthAdjust="spacingAndGlyphs" textLength="14" x="324" y="622.7889">no</text><rect fill="#FEFECE" filter="url(#frh72568xbn1s)" height="36.3441" rx="12.5" ry="12.5" style="stroke: #A80036; stroke-width: 1.5;" width="249" x="21" y="648.0118"/><text fill="#000000" font-family="sans-serif" font-size="12" lengthAdjust="spacingAndGlyphs" textLength="229" x="31" y="670.8399">Write user_config.yml to project directory</text><rect fill="#FEFECE" filter="url(#frh72568xbn1s)" height="36.3441" rx="12.5" ry="12.5" style="stroke: #A80036; stroke-width: 1.5;" width="271" x="10" y="704.3559"/><text fill="#000000" font-family="sans-serif" font-size="12" lengthAdjust="spacingAndGlyphs" textLength="251" x="20" y="727.184">Create/update script files in stage directories</text><rect fill="#FEFECE" filter="url(#frh72568xbn1s)" height="36.3441" rx="12.5" ry="12.5" style="stroke: #A80036; stroke-width: 1.5;" width="178" x="56.5" y="760.7001"/><text fill="#000000" font-family="sans-serif" font-size="12" lengthAdjust="spacingAndGlyphs" textLength="158" x="66.5" y="783.5281">Mark configuration as saved</text><rect fill="#FEFECE" filter="url(#frh72568xbn1s)" height="36.3441" rx="12.5" ry="12.5" style="stroke: #A80036; stroke-width: 1.5;" width="173" x="59" y="817.0442"/><text fill="#000000" font-family="sans-serif" font-size="12" lengthAdjust="spacingAndGlyphs" textLength="153" x="69" y="839.8723">Display success notification</text><rect fill="#FEFECE" filter="url(#frh72568xbn1s)" height="36.3441" rx="12.5" ry="12.5" style="stroke: #A80036; stroke-width: 1.5;" width="165" x="301" y="648.0118"/><text fill="#000000" font-family="sans-serif" font-size="12" lengthAdjust="spacingAndGlyphs" textLength="145" x="311" y="670.8399">Highlight validation errors</text><rect fill="#FEFECE" filter="url(#frh72568xbn1s)" height="36.3441" rx="12.5" ry="12.5" style="stroke: #A80036; stroke-width: 1.5;" width="161" x="303" y="704.3559"/><text fill="#000000" font-family="sans-serif" font-size="12" lengthAdjust="spacingAndGlyphs" textLength="141" x="313" y="727.184">Keep changes in memory</text><polygon fill="#FEFECE" filter="url(#frh72568xbn1s)" points="264.5,859.3883,276.5,871.3883,264.5,883.3883,252.5,871.3883,264.5,859.3883" style="stroke: #A80036; stroke-width: 1.5;"/><rect fill="#FEFECE" filter="url(#frh72568xbn1s)" height="36.3441" rx="12.5" ry="12.5" style="stroke: #A80036; stroke-width: 1.5;" width="161" x="559.5" y="557.6677"/><text fill="#000000" font-family="sans-serif" font-size="12" lengthAdjust="spacingAndGlyphs" textLength="141" x="569.5" y="580.4958">Keep changes in memory</text><rect fill="#FEFECE" filter="url(#frh72568xbn1s)" height="36.3441" rx="12.5" ry="12.5" style="stroke: #A80036; stroke-width: 1.5;" width="288" x="496" y="614.0118"/><text fill="#000000" font-family="sans-serif" font-size="12" lengthAdjust="spacingAndGlyphs" textLength="268" x="506" y="636.8399">Warn about unsaved changes if navigating away</text><polygon fill="#FEFECE" filter="url(#frh72568xbn1s)" points="452.25,889.3883,464.25,901.3883,452.25,913.3883,440.25,901.3883,452.25,889.3883" style="stroke: #A80036; stroke-width: 1.5;"/><ellipse cx="452.25" cy="944.3883" fill="#FFFFFF" filter="url(#frh72568xbn1s)" rx="11" ry="11" style="stroke: #000000; stroke-width: 1.0;"/><ellipse cx="452.25" cy="944.3883" fill="#000000" rx="6" ry="6" style="stroke: #7F7F7F; stroke-width: 1.0;"/><line style="stroke: #A80036; stroke-width: 1.5;" x1="452.25" x2="452.25" y1="30" y2="50"/><polygon fill="#A80036" points="448.25,40,452.25,50,456.25,40,452.25,44" style="stroke: #A80036; stroke-width: 1.0;"/><line style="stroke: #A80036; stroke-width: 1.5;" x1="452.25" x2="452.25" y1="86.3441" y2="106.3441"/><polygon fill="#A80036" points="448.25,96.3441,452.25,106.3441,456.25,96.3441,452.25,100.3441" style="stroke: #A80036; stroke-width: 1.0;"/><line style="stroke: #A80036; stroke-width: 1.5;" x1="452.25" x2="452.25" y1="142.6882" y2="162.6882"/><polygon fill="#A80036" points="448.25,152.6882,452.25,162.6882,456.25,152.6882,452.25,156.6882" style="stroke: #A80036; stroke-width: 1.0;"/><line style="stroke: #A80036; stroke-width: 1.5;" x1="452.25" x2="452.25" y1="199.0323" y2="219.0323"/><polygon fill="#A80036" points="448.25,209.0323,452.25,219.0323,456.25,209.0323,452.25,213.0323" style="stroke: #A80036; stroke-width: 1.0;"/><line style="stroke: #A80036; stroke-width: 1.5;" x1="452.25" x2="452.25" y1="368.9795" y2="388.9795"/><polygon fill="#A80036" points="448.25,378.9795,452.25,388.9795,456.25,378.9795,452.25,382.9795" style="stroke: #A80036; stroke-width: 1.0;"/><line style="stroke: #A80036; stroke-width: 1.5;" x1="452.25" x2="452.25" y1="425.3236" y2="445.3236"/><polygon fill="#A80036" points="448.25,435.3236,452.25,445.3236,456.25,435.3236,452.25,439.3236" style="stroke: #A80036; stroke-width: 1.0;"/><line style="stroke: #A80036; stroke-width: 1.5;" x1="452.25" x2="452.25" y1="299.3765" y2="332.6354"/><polygon fill="#A80036" points="448.25,322.6354,452.25,332.6354,456.25,322.6354,452.25,326.6354" style="stroke: #A80036; stroke-width: 1.0;"/><line style="stroke: #A80036; stroke-width: 1.5;" x1="452.25" x2="452.25" y1="481.6677" y2="491.6677"/><line style="stroke: #A80036; stroke-width: 1.5;" x1="452.25" x2="557.25" y1="491.6677" y2="491.6677"/><polygon fill="#A80036" points="553.25,397.6606,557.25,387.6606,561.25,397.6606,557.25,393.6606" style="stroke: #A80036; stroke-width: 1.5;"/><line style="stroke: #A80036; stroke-width: 1.5;" x1="557.25" x2="557.25" y1="287.3765" y2="491.6677"/><line style="stroke: #A80036; stroke-width: 1.5;" x1="557.25" x2="525.75" y1="287.3765" y2="287.3765"/><polygon fill="#A80036" points="535.75,283.3765,525.75,287.3765,535.75,291.3765,531.75,287.3765" style="stroke: #A80036; stroke-width: 1.0;"/><line style="stroke: #A80036; stroke-width: 1.5;" x1="378.75" x2="347.25" y1="287.3765" y2="287.3765"/><polygon fill="#A80036" points="343.25,383.6606,347.25,393.6606,351.25,383.6606,347.25,387.6606" style="stroke: #A80036; stroke-width: 1.5;"/><line style="stroke: #A80036; stroke-width: 1.5;" x1="347.25" x2="347.25" y1="287.3765" y2="503.6677"/><line style="stroke: #A80036; stroke-width: 1.5;" x1="347.25" x2="452.25" y1="503.6677" y2="503.6677"/><line style="stroke: #A80036; stroke-width: 1.5;" x1="452.25" x2="452.25" y1="503.6677" y2="523.6677"/><polygon fill="#A80036" points="448.25,513.6677,452.25,523.6677,456.25,513.6677,452.25,517.6677" style="stroke: #A80036; stroke-width: 1.0;"/><line style="stroke: #A80036; stroke-width: 1.5;" x1="452.25" x2="452.25" y1="255.3765" y2="275.3765"/><polygon fill="#A80036" points="448.25,265.3765,452.25,275.3765,456.25,265.3765,452.25,269.3765" style="stroke: #A80036; stroke-width: 1.0;"/><line style="stroke: #A80036; stroke-width: 1.5;" x1="145.5" x2="145.5" y1="684.3559" y2="704.3559"/><polygon fill="#A80036" points="141.5,694.3559,145.5,704.3559,149.5,694.3559,145.5,698.3559" style="stroke: #A80036; stroke-width: 1.0;"/><line style="stroke: #A80036; stroke-width: 1.5;" x1="145.5" x2="145.5" y1="740.7001" y2="760.7001"/><polygon fill="#A80036" points="141.5,750.7001,145.5,760.7001,149.5,750.7001,145.5,754.7001" style="stroke: #A80036; stroke-width: 1.0;"/><line style="stroke: #A80036; stroke-width: 1.5;" x1="145.5" x2="145.5" y1="797.0442" y2="817.0442"/><polygon fill="#A80036" points="141.5,807.0442,145.5,817.0442,149.5,807.0442,145.5,811.0442" style="stroke: #A80036; stroke-width: 1.0;"/><line style="stroke: #A80036; stroke-width: 1.5;" x1="383.5" x2="383.5" y1="684.3559" y2="704.3559"/><polygon fill="#A80036" points="379.5,694.3559,383.5,704.3559,387.5,694.3559,383.5,698.3559" style="stroke: #A80036; stroke-width: 1.0;"/><line style="stroke: #A80036; stroke-width: 1.5;" x1="205" x2="145.5" y1="626.0118" y2="626.0118"/><line style="stroke: #A80036; stroke-width: 1.5;" x1="145.5" x2="145.5" y1="626.0118" y2="648.0118"/><polygon fill="#A80036" points="141.5,638.0118,145.5,648.0118,149.5,638.0118,145.5,642.0118" style="stroke: #A80036; stroke-width: 1.0;"/><line style="stroke: #A80036; stroke-width: 1.5;" x1="324" x2="383.5" y1="626.0118" y2="626.0118"/><line style="stroke: #A80036; stroke-width: 1.5;" x1="383.5" x2="383.5" y1="626.0118" y2="648.0118"/><polygon fill="#A80036" points="379.5,638.0118,383.5,648.0118,387.5,638.0118,383.5,642.0118" style="stroke: #A80036; stroke-width: 1.0;"/><line style="stroke: #A80036; stroke-width: 1.5;" x1="145.5" x2="145.5" y1="853.3883" y2="871.3883"/><line style="stroke: #A80036; stroke-width: 1.5;" x1="145.5" x2="252.5" y1="871.3883" y2="871.3883"/><polygon fill="#A80036" points="242.5,867.3883,252.5,871.3883,242.5,875.3883,246.5,871.3883" style="stroke: #A80036; stroke-width: 1.0;"/><line style="stroke: #A80036; stroke-width: 1.5;" x1="383.5" x2="383.5" y1="740.7001" y2="871.3883"/><line style="stroke: #A80036; stroke-width: 1.5;" x1="383.5" x2="276.5" y1="871.3883" y2="871.3883"/><polygon fill="#A80036" points="286.5,867.3883,276.5,871.3883,286.5,875.3883,282.5,871.3883" style="stroke: #A80036; stroke-width: 1.0;"/><line style="stroke: #A80036; stroke-width: 1.5;" x1="264.5" x2="264.5" y1="594.0118" y2="614.0118"/><polygon fill="#A80036" points="260.5,604.0118,264.5,614.0118,268.5,604.0118,264.5,608.0118" style="stroke: #A80036; stroke-width: 1.0;"/><line style="stroke: #A80036; stroke-width: 1.5;" x1="640" x2="640" y1="594.0118" y2="614.0118"/><polygon fill="#A80036" points="636,604.0118,640,614.0118,644,604.0118,640,608.0118" style="stroke: #A80036; stroke-width: 1.0;"/><line style="stroke: #A80036; stroke-width: 1.5;" x1="397.25" x2="264.5" y1="535.6677" y2="535.6677"/><line style="stroke: #A80036; stroke-width: 1.5;" x1="264.5" x2="264.5" y1="535.6677" y2="557.6677"/><polygon fill="#A80036" points="260.5,547.6677,264.5,557.6677,268.5,547.6677,264.5,551.6677" style="stroke: #A80036; stroke-width: 1.0;"/><line style="stroke: #A80036; stroke-width: 1.5;" x1="507.25" x2="640" y1="535.6677" y2="535.6677"/><line style="stroke: #A80036; stroke-width: 1.5;" x1="640" x2="640" y1="535.6677" y2="557.6677"/><polygon fill="#A80036" points="636,547.6677,640,557.6677,644,547.6677,640,551.6677" style="stroke: #A80036; stroke-width: 1.0;"/><line style="stroke: #A80036; stroke-width: 1.5;" x1="264.5" x2="264.5" y1="883.3883" y2="901.3883"/><line style="stroke: #A80036; stroke-width: 1.5;" x1="264.5" x2="440.25" y1="901.3883" y2="901.3883"/><polygon fill="#A80036" points="430.25,897.3883,440.25,901.3883,430.25,905.3883,434.25,901.3883" style="stroke: #A80036; stroke-width: 1.0;"/><line style="stroke: #A80036; stroke-width: 1.5;" x1="640" x2="640" y1="650.3559" y2="901.3883"/><line style="stroke: #A80036; stroke-width: 1.5;" x1="640" x2="464.25" y1="901.3883" y2="901.3883"/><polygon fill="#A80036" points="474.25,897.3883,464.25,901.3883,474.25,905.3883,470.25,901.3883" style="stroke: #A80036; stroke-width: 1.0;"/><line style="stroke: #A80036; stroke-width: 1.5;" x1="452.25" x2="452.25" y1="913.3883" y2="933.3883"/><polygon fill="#A80036" points="448.25,923.3883,452.25,933.3883,456.25,923.3883,452.25,927.3883" style="stroke: #A80036; stroke-width: 1.0;"/><!--MD5=[f8f16127bafd295ebf83146d8e72b4b1]
@startuml
start
:User modifies configuration;
:Store changes in memory;
:Update UI reactively;
:Mark configuration as dirty;

while (User continues editing?) is (yes)
  :Switch between tabs;
  :Modify different sections;
  :All changes stored in memory;
endwhile (no)

if (User clicks Save?) then (yes)
  :Validate all configuration;
  if (Validation passes?) then (yes)
    :Write user_config.yml to project directory;
    :Create/update script files in stage directories;
    :Mark configuration as saved;
    :Display success notification;
  else (no)
    :Highlight validation errors;
    :Keep changes in memory;
  endif
else (no)
  :Keep changes in memory;
  :Warn about unsaved changes if navigating away;
endif
stop
@enduml

PlantUML version 1.2020.02(Sun Mar 01 18:22:07 CST 2020)
(GPL source distribution)
Java Runtime: OpenJDK Runtime Environment
JVM: OpenJDK 64-Bit Server VM
Java Version: 21.0.7+6-Ubuntu-0ubuntu124.04
Operating System: Linux
Default Encoding: UTF-8
Language: en
Country: US
--></g></svg>