<?xml version="1.0" encoding="UTF-8" standalone="no"?><svg xmlns="http://www.w3.org/2000/svg" xmlns:xlink="http://www.w3.org/1999/xlink" contentScriptType="application/ecmascript" contentStyleType="text/css" height="725px" preserveAspectRatio="none" style="width:578px;height:725px;" version="1.1" viewBox="0 0 578 725" width="578px" zoomAndPan="magnify"><defs><filter height="300%" id="f1t3ra4vzgrnxs" width="300%" x="-1" y="-1"><feGaussianBlur result="blurOut" stdDeviation="2.0"/><feColorMatrix in="blurOut" result="blurOut2" type="matrix" values="0 0 0 0 0 0 0 0 0 0 0 0 0 0 0 0 0 0 .4 0"/><feOffset dx="4.0" dy="4.0" in="blurOut2" result="blurOut3"/><feBlend in="SourceGraphic" in2="blurOut3" mode="normal"/></filter></defs><g><ellipse cx="241.25" cy="20" fill="#000000" filter="url(#f1t3ra4vzgrnxs)" rx="10" ry="10" style="stroke: none; stroke-width: 1.0;"/><rect fill="#FEFECE" filter="url(#f1t3ra4vzgrnxs)" height="36.3441" rx="12.5" ry="12.5" style="stroke: #A80036; stroke-width: 1.5;" width="209" x="136.75" y="50"/><text fill="#000000" font-family="sans-serif" font-size="12" lengthAdjust="spacingAndGlyphs" textLength="189" x="146.75" y="72.8281">User enters project directory path</text><rect fill="#FEFECE" filter="url(#f1t3ra4vzgrnxs)" height="36.3441" rx="12.5" ry="12.5" style="stroke: #A80036; stroke-width: 1.5;" width="216" x="133.25" y="155.8351"/><text fill="#000000" font-family="sans-serif" font-size="12" lengthAdjust="spacingAndGlyphs" textLength="196" x="143.25" y="178.6631">Generate temporary directory path</text><rect fill="#FEFECE" filter="url(#f1t3ra4vzgrnxs)" height="36.3441" rx="12.5" ry="12.5" style="stroke: #A80036; stroke-width: 1.5;" width="221" x="130.75" y="227.1792"/><text fill="#000000" font-family="sans-serif" font-size="12" lengthAdjust="spacingAndGlyphs" textLength="201" x="140.75" y="250.0073">Display generated path in input field</text><polygon fill="#FEFECE" filter="url(#f1t3ra4vzgrnxs)" points="176.25,106.3441,306.25,106.3441,318.25,118.3441,306.25,130.3441,176.25,130.3441,164.25,118.3441,176.25,106.3441" style="stroke: #A80036; stroke-width: 1.5;"/><text fill="#000000" font-family="sans-serif" font-size="11" lengthAdjust="spacingAndGlyphs" textLength="14" x="245.25" y="142.103">no</text><text fill="#000000" font-family="sans-serif" font-size="11" lengthAdjust="spacingAndGlyphs" textLength="130" x="176.25" y="122.6121">Directory path specified?</text><polygon fill="#FEFECE" filter="url(#f1t3ra4vzgrnxs)" points="241.25,283.5233,253.25,295.5233,241.25,307.5233,229.25,295.5233,241.25,283.5233" style="stroke: #A80036; stroke-width: 1.5;"/><polygon fill="#FEFECE" filter="url(#f1t3ra4vzgrnxs)" points="158.25,327.5233,324.25,327.5233,336.25,339.5233,324.25,351.5233,158.25,351.5233,146.25,339.5233,158.25,327.5233" style="stroke: #A80036; stroke-width: 1.5;"/><text fill="#000000" font-family="sans-serif" font-size="11" lengthAdjust="spacingAndGlyphs" textLength="166" x="158.25" y="343.7913">Directory exists and not empty?</text><text fill="#000000" font-family="sans-serif" font-size="11" lengthAdjust="spacingAndGlyphs" textLength="17" x="129.25" y="336.3003">yes</text><text fill="#000000" font-family="sans-serif" font-size="11" lengthAdjust="spacingAndGlyphs" textLength="65" x="336.25" y="336.3003">no or empty</text><rect fill="#FEFECE" filter="url(#f1t3ra4vzgrnxs)" height="36.3441" rx="12.5" ry="12.5" style="stroke: #A80036; stroke-width: 1.5;" width="147" x="21" y="361.5233"/><text fill="#000000" font-family="sans-serif" font-size="12" lengthAdjust="spacingAndGlyphs" textLength="127" x="31" y="384.3514">Display error message</text><rect fill="#FEFECE" filter="url(#f1t3ra4vzgrnxs)" height="36.3441" rx="12.5" ry="12.5" style="stroke: #A80036; stroke-width: 1.5;" width="169" x="10" y="417.8674"/><text fill="#000000" font-family="sans-serif" font-size="12" lengthAdjust="spacingAndGlyphs" textLength="149" x="20" y="440.6955">Request different directory</text><ellipse cx="94.5" cy="500.2115" fill="#FFFFFF" filter="url(#f1t3ra4vzgrnxs)" rx="11" ry="11" style="stroke: #000000; stroke-width: 1.0;"/><ellipse cx="94.5" cy="500.2115" fill="#000000" rx="6" ry="6" style="stroke: #7F7F7F; stroke-width: 1.0;"/><rect fill="#FEFECE" filter="url(#f1t3ra4vzgrnxs)" height="36.3441" rx="12.5" ry="12.5" style="stroke: #A80036; stroke-width: 1.5;" width="217" x="279.5" y="361.5233"/><text fill="#000000" font-family="sans-serif" font-size="12" lengthAdjust="spacingAndGlyphs" textLength="197" x="289.5" y="384.3514">Run pei-docker-cli create command</text><polygon fill="#FEFECE" filter="url(#f1t3ra4vzgrnxs)" points="314,417.8674,462,417.8674,474,429.8674,462,441.8674,314,441.8674,302,429.8674,314,417.8674" style="stroke: #A80036; stroke-width: 1.5;"/><text fill="#000000" font-family="sans-serif" font-size="11" lengthAdjust="spacingAndGlyphs" textLength="148" x="314" y="434.1354">Project created successfully?</text><text fill="#000000" font-family="sans-serif" font-size="11" lengthAdjust="spacingAndGlyphs" textLength="17" x="285" y="426.6444">yes</text><text fill="#000000" font-family="sans-serif" font-size="11" lengthAdjust="spacingAndGlyphs" textLength="14" x="474" y="426.6444">no</text><rect fill="#FEFECE" filter="url(#f1t3ra4vzgrnxs)" height="36.3441" rx="12.5" ry="12.5" style="stroke: #A80036; stroke-width: 1.5;" width="123" x="230.5" y="451.8674"/><text fill="#000000" font-family="sans-serif" font-size="12" lengthAdjust="spacingAndGlyphs" textLength="103" x="240.5" y="474.6955">Initialize GUI state</text><rect fill="#FEFECE" filter="url(#f1t3ra4vzgrnxs)" height="36.3441" rx="12.5" ry="12.5" style="stroke: #A80036; stroke-width: 1.5;" width="166" x="209" y="523.2115"/><text fill="#000000" font-family="sans-serif" font-size="12" lengthAdjust="spacingAndGlyphs" textLength="146" x="219" y="546.0396">Load default configuration</text><rect fill="#FEFECE" filter="url(#f1t3ra4vzgrnxs)" height="36.3441" rx="12.5" ry="12.5" style="stroke: #A80036; stroke-width: 1.5;" width="162" x="211" y="579.5556"/><text fill="#000000" font-family="sans-serif" font-size="12" lengthAdjust="spacingAndGlyphs" textLength="142" x="221" y="602.3837">Enable configuration tabs</text><rect fill="#FEFECE" filter="url(#f1t3ra4vzgrnxs)" height="36.3441" rx="12.5" ry="12.5" style="stroke: #A80036; stroke-width: 1.5;" width="124" x="230" y="635.8997"/><text fill="#000000" font-family="sans-serif" font-size="12" lengthAdjust="spacingAndGlyphs" textLength="104" x="240" y="658.7278">Display Project tab</text><rect fill="#FEFECE" filter="url(#f1t3ra4vzgrnxs)" height="36.3441" rx="12.5" ry="12.5" style="stroke: #A80036; stroke-width: 1.5;" width="142" x="413" y="451.8674"/><text fill="#000000" font-family="sans-serif" font-size="12" lengthAdjust="spacingAndGlyphs" textLength="122" x="423" y="474.6955">Display creation error</text><rect fill="#FEFECE" filter="url(#f1t3ra4vzgrnxs)" height="36.3441" rx="12.5" ry="12.5" style="stroke: #A80036; stroke-width: 1.5;" width="166" x="401" y="523.2115"/><text fill="#000000" font-family="sans-serif" font-size="12" lengthAdjust="spacingAndGlyphs" textLength="146" x="411" y="546.0396">Return to project selection</text><ellipse cx="484" cy="590.5556" fill="#FFFFFF" filter="url(#f1t3ra4vzgrnxs)" rx="11" ry="11" style="stroke: #000000; stroke-width: 1.0;"/><ellipse cx="484" cy="590.5556" fill="#000000" rx="6" ry="6" style="stroke: #7F7F7F; stroke-width: 1.0;"/><ellipse cx="241.25" cy="703.2439" fill="#FFFFFF" filter="url(#f1t3ra4vzgrnxs)" rx="11" ry="11" style="stroke: #000000; stroke-width: 1.0;"/><ellipse cx="241.25" cy="703.2439" fill="#000000" rx="6" ry="6" style="stroke: #7F7F7F; stroke-width: 1.0;"/><line style="stroke: #A80036; stroke-width: 1.5;" x1="241.25" x2="241.25" y1="30" y2="50"/><polygon fill="#A80036" points="237.25,40,241.25,50,245.25,40,241.25,44" style="stroke: #A80036; stroke-width: 1.0;"/><line style="stroke: #A80036; stroke-width: 1.5;" x1="241.25" x2="241.25" y1="192.1792" y2="227.1792"/><polygon fill="#A80036" points="237.25,217.1792,241.25,227.1792,245.25,217.1792,241.25,221.1792" style="stroke: #A80036; stroke-width: 1.0;"/><line style="stroke: #A80036; stroke-width: 1.5;" x1="241.25" x2="241.25" y1="130.3441" y2="155.8351"/><polygon fill="#A80036" points="237.25,145.8351,241.25,155.8351,245.25,145.8351,241.25,149.8351" style="stroke: #A80036; stroke-width: 1.0;"/><line style="stroke: #A80036; stroke-width: 1.5;" x1="318.25" x2="361.75" y1="118.3441" y2="118.3441"/><polygon fill="#A80036" points="357.75,199.6792,361.75,209.6792,365.75,199.6792,361.75,203.6792" style="stroke: #A80036; stroke-width: 1.5;"/><line style="stroke: #A80036; stroke-width: 1.5;" x1="361.75" x2="361.75" y1="118.3441" y2="295.5233"/><line style="stroke: #A80036; stroke-width: 1.5;" x1="361.75" x2="253.25" y1="295.5233" y2="295.5233"/><polygon fill="#A80036" points="263.25,291.5233,253.25,295.5233,263.25,299.5233,259.25,295.5233" style="stroke: #A80036; stroke-width: 1.0;"/><line style="stroke: #A80036; stroke-width: 1.5;" x1="241.25" x2="241.25" y1="263.5233" y2="283.5233"/><polygon fill="#A80036" points="237.25,273.5233,241.25,283.5233,245.25,273.5233,241.25,277.5233" style="stroke: #A80036; stroke-width: 1.0;"/><line style="stroke: #A80036; stroke-width: 1.5;" x1="241.25" x2="241.25" y1="86.3441" y2="106.3441"/><polygon fill="#A80036" points="237.25,96.3441,241.25,106.3441,245.25,96.3441,241.25,100.3441" style="stroke: #A80036; stroke-width: 1.0;"/><line style="stroke: #A80036; stroke-width: 1.5;" x1="94.5" x2="94.5" y1="397.8674" y2="417.8674"/><polygon fill="#A80036" points="90.5,407.8674,94.5,417.8674,98.5,407.8674,94.5,411.8674" style="stroke: #A80036; stroke-width: 1.0;"/><line style="stroke: #A80036; stroke-width: 1.5;" x1="94.5" x2="94.5" y1="454.2115" y2="489.2115"/><polygon fill="#A80036" points="90.5,479.2115,94.5,489.2115,98.5,479.2115,94.5,483.2115" style="stroke: #A80036; stroke-width: 1.0;"/><line style="stroke: #A80036; stroke-width: 1.5;" x1="292" x2="292" y1="488.2115" y2="523.2115"/><polygon fill="#A80036" points="288,513.2115,292,523.2115,296,513.2115,292,517.2115" style="stroke: #A80036; stroke-width: 1.0;"/><line style="stroke: #A80036; stroke-width: 1.5;" x1="292" x2="292" y1="559.5556" y2="579.5556"/><polygon fill="#A80036" points="288,569.5556,292,579.5556,296,569.5556,292,573.5556" style="stroke: #A80036; stroke-width: 1.0;"/><line style="stroke: #A80036; stroke-width: 1.5;" x1="292" x2="292" y1="615.8997" y2="635.8997"/><polygon fill="#A80036" points="288,625.8997,292,635.8997,296,625.8997,292,629.8997" style="stroke: #A80036; stroke-width: 1.0;"/><line style="stroke: #A80036; stroke-width: 1.5;" x1="484" x2="484" y1="488.2115" y2="523.2115"/><polygon fill="#A80036" points="480,513.2115,484,523.2115,488,513.2115,484,517.2115" style="stroke: #A80036; stroke-width: 1.0;"/><line style="stroke: #A80036; stroke-width: 1.5;" x1="484" x2="484" y1="559.5556" y2="579.5556"/><polygon fill="#A80036" points="480,569.5556,484,579.5556,488,569.5556,484,573.5556" style="stroke: #A80036; stroke-width: 1.0;"/><line style="stroke: #A80036; stroke-width: 1.5;" x1="302" x2="292" y1="429.8674" y2="429.8674"/><line style="stroke: #A80036; stroke-width: 1.5;" x1="292" x2="292" y1="429.8674" y2="451.8674"/><polygon fill="#A80036" points="288,441.8674,292,451.8674,296,441.8674,292,445.8674" style="stroke: #A80036; stroke-width: 1.0;"/><line style="stroke: #A80036; stroke-width: 1.5;" x1="474" x2="484" y1="429.8674" y2="429.8674"/><line style="stroke: #A80036; stroke-width: 1.5;" x1="484" x2="484" y1="429.8674" y2="451.8674"/><polygon fill="#A80036" points="480,441.8674,484,451.8674,488,441.8674,484,445.8674" style="stroke: #A80036; stroke-width: 1.0;"/><line style="stroke: #A80036; stroke-width: 1.5;" x1="292" x2="292" y1="672.2439" y2="677.2439"/><line style="stroke: #A80036; stroke-width: 1.5;" x1="292" x2="241.25" y1="677.2439" y2="677.2439"/><line style="stroke: #A80036; stroke-width: 1.5;" x1="241.25" x2="241.25" y1="677.2439" y2="692.2439"/><polygon fill="#A80036" points="237.25,682.2439,241.25,692.2439,245.25,682.2439,241.25,686.2439" style="stroke: #A80036; stroke-width: 1.0;"/><line style="stroke: #A80036; stroke-width: 1.5;" x1="388" x2="388" y1="397.8674" y2="417.8674"/><polygon fill="#A80036" points="384,407.8674,388,417.8674,392,407.8674,388,411.8674" style="stroke: #A80036; stroke-width: 1.0;"/><line style="stroke: #A80036; stroke-width: 1.5;" x1="146.25" x2="94.5" y1="339.5233" y2="339.5233"/><line style="stroke: #A80036; stroke-width: 1.5;" x1="94.5" x2="94.5" y1="339.5233" y2="361.5233"/><polygon fill="#A80036" points="90.5,351.5233,94.5,361.5233,98.5,351.5233,94.5,355.5233" style="stroke: #A80036; stroke-width: 1.0;"/><line style="stroke: #A80036; stroke-width: 1.5;" x1="336.25" x2="388" y1="339.5233" y2="339.5233"/><line style="stroke: #A80036; stroke-width: 1.5;" x1="388" x2="388" y1="339.5233" y2="361.5233"/><polygon fill="#A80036" points="384,351.5233,388,361.5233,392,351.5233,388,355.5233" style="stroke: #A80036; stroke-width: 1.0;"/><line style="stroke: #A80036; stroke-width: 1.5;" x1="241.25" x2="241.25" y1="307.5233" y2="327.5233"/><polygon fill="#A80036" points="237.25,317.5233,241.25,327.5233,245.25,317.5233,241.25,321.5233" style="stroke: #A80036; stroke-width: 1.0;"/><!--MD5=[40d3f6e2d43d4f0c584dfa927360e8db]
@startuml
start
:User enters project directory path;
if (Directory path specified?) then (no)
  :Generate temporary directory path;
  :Display generated path in input field;
endif

if (Directory exists and not empty?) then (yes)
  :Display error message;
  :Request different directory;
  stop
else (no or empty)
  :Run pei-docker-cli create command;
  if (Project created successfully?) then (yes)
    :Initialize GUI state;
    :Load default configuration;
    :Enable configuration tabs;
    :Display Project tab;
  else (no)
    :Display creation error;
    :Return to project selection;
    stop
  endif
endif
stop
@enduml

PlantUML version 1.2020.02(Sun Mar 01 18:22:07 CST 2020)
(GPL source distribution)
Java Runtime: OpenJDK Runtime Environment
JVM: OpenJDK 64-Bit Server VM
Java Version: 21.0.7+6-Ubuntu-0ubuntu124.04
Operating System: Linux
Default Encoding: UTF-8
Language: en
Country: US
--></g></svg>