<?xml version="1.0" encoding="UTF-8" standalone="no"?><svg xmlns="http://www.w3.org/2000/svg" xmlns:xlink="http://www.w3.org/1999/xlink" contentScriptType="application/ecmascript" contentStyleType="text/css" height="1183px" preserveAspectRatio="none" style="width:429px;height:1183px;" version="1.1" viewBox="0 0 429 1183" width="429px" zoomAndPan="magnify"><defs><filter height="300%" id="f14uqxzmb35kx2" width="300%" x="-1" y="-1"><feGaussianBlur result="blurOut" stdDeviation="2.0"/><feColorMatrix in="blurOut" result="blurOut2" type="matrix" values="0 0 0 0 0 0 0 0 0 0 0 0 0 0 0 0 0 0 .4 0"/><feOffset dx="4.0" dy="4.0" in="blurOut2" result="blurOut3"/><feBlend in="SourceGraphic" in2="blurOut3" mode="normal"/></filter></defs><g><ellipse cx="197.5" cy="20" fill="#000000" filter="url(#f14uqxzmb35kx2)" rx="10" ry="10" style="stroke: none; stroke-width: 1.0;"/><rect fill="#FEFECE" filter="url(#f14uqxzmb35kx2)" height="36.3441" rx="12.5" ry="12.5" style="stroke: #A80036; stroke-width: 1.5;" width="132" x="131.5" y="50"/><text fill="#000000" font-family="sans-serif" font-size="12" lengthAdjust="spacingAndGlyphs" textLength="112" x="141.5" y="72.8281">Initialize Application</text><rect fill="#FEFECE" filter="url(#f14uqxzmb35kx2)" height="36.3441" rx="12.5" ry="12.5" style="stroke: #A80036; stroke-width: 1.5;" width="144" x="125.5" y="106.3441"/><text fill="#000000" font-family="sans-serif" font-size="12" lengthAdjust="spacingAndGlyphs" textLength="124" x="135.5" y="129.1722">Load Project Directory</text><rect fill="#FEFECE" filter="url(#f14uqxzmb35kx2)" height="36.3441" rx="12.5" ry="12.5" style="stroke: #A80036; stroke-width: 1.5;" width="177" x="109" y="162.6882"/><text fill="#000000" font-family="sans-serif" font-size="12" lengthAdjust="spacingAndGlyphs" textLength="157" x="119" y="185.5163">Display Project Tab (default)</text><rect fill="#FEFECE" filter="url(#f14uqxzmb35kx2)" height="36.3441" rx="12.5" ry="12.5" style="stroke: #A80036; stroke-width: 1.5;" width="78" x="158.5" y="276.2913"/><text fill="#000000" font-family="sans-serif" font-size="12" lengthAdjust="spacingAndGlyphs" textLength="58" x="168.5" y="299.1193">Select Tab</text><rect fill="#FEFECE" filter="url(#f14uqxzmb35kx2)" height="36.3441" rx="12.5" ry="12.5" style="stroke: #A80036; stroke-width: 1.5;" width="132" x="131.5" y="332.6354"/><text fill="#000000" font-family="sans-serif" font-size="12" lengthAdjust="spacingAndGlyphs" textLength="112" x="141.5" y="355.4635">Display Tab Content</text><rect fill="#FEFECE" filter="url(#f14uqxzmb35kx2)" height="36.3441" rx="12.5" ry="12.5" style="stroke: #A80036; stroke-width: 1.5;" width="175" x="110" y="388.9795"/><text fill="#000000" font-family="sans-serif" font-size="12" lengthAdjust="spacingAndGlyphs" textLength="155" x="120" y="411.8076">User modifies configuration</text><rect fill="#FEFECE" filter="url(#f14uqxzmb35kx2)" height="36.3441" rx="12.5" ry="12.5" style="stroke: #A80036; stroke-width: 1.5;" width="163" x="116" y="445.3236"/><text fill="#000000" font-family="sans-serif" font-size="12" lengthAdjust="spacingAndGlyphs" textLength="143" x="126" y="468.1517">Validate input in real-time</text><polygon fill="#FEFECE" filter="url(#f14uqxzmb35kx2)" points="150.5,551.1587,244.5,551.1587,256.5,563.1587,244.5,575.1587,150.5,575.1587,138.5,563.1587,150.5,551.1587" style="stroke: #A80036; stroke-width: 1.5;"/><text fill="#000000" font-family="sans-serif" font-size="11" lengthAdjust="spacingAndGlyphs" textLength="94" x="150.5" y="567.4266">Current tab valid?</text><text fill="#000000" font-family="sans-serif" font-size="11" lengthAdjust="spacingAndGlyphs" textLength="17" x="121.5" y="559.9357">yes</text><text fill="#000000" font-family="sans-serif" font-size="11" lengthAdjust="spacingAndGlyphs" textLength="14" x="256.5" y="559.9357">no</text><rect fill="#FEFECE" filter="url(#f14uqxzmb35kx2)" height="36.3441" rx="12.5" ry="12.5" style="stroke: #A80036; stroke-width: 1.5;" width="151" x="38" y="585.1587"/><text fill="#000000" font-family="sans-serif" font-size="12" lengthAdjust="spacingAndGlyphs" textLength="131" x="48" y="607.9867">Switch to requested tab</text><rect fill="#FEFECE" filter="url(#f14uqxzmb35kx2)" height="36.3441" rx="12.5" ry="12.5" style="stroke: #A80036; stroke-width: 1.5;" width="145" x="209" y="585.1587"/><text fill="#000000" font-family="sans-serif" font-size="12" lengthAdjust="spacingAndGlyphs" textLength="125" x="219" y="607.9867">Show validation errors</text><rect fill="#FEFECE" filter="url(#f14uqxzmb35kx2)" height="36.3441" rx="12.5" ry="12.5" style="stroke: #A80036; stroke-width: 1.5;" width="126" x="218.5" y="656.5028"/><text fill="#000000" font-family="sans-serif" font-size="12" lengthAdjust="spacingAndGlyphs" textLength="106" x="228.5" y="679.3309">Stay on current tab</text><polygon fill="#FEFECE" filter="url(#f14uqxzmb35kx2)" points="197.5,698.8469,209.5,710.8469,197.5,722.8469,185.5,710.8469,197.5,698.8469" style="stroke: #A80036; stroke-width: 1.5;"/><polygon fill="#FEFECE" filter="url(#f14uqxzmb35kx2)" points="139.5,501.6677,255.5,501.6677,267.5,513.6677,255.5,525.6677,139.5,525.6677,127.5,513.6677,139.5,501.6677" style="stroke: #A80036; stroke-width: 1.5;"/><text fill="#000000" font-family="sans-serif" font-size="11" lengthAdjust="spacingAndGlyphs" textLength="17" x="201.5" y="537.4266">yes</text><text fill="#000000" font-family="sans-serif" font-size="11" lengthAdjust="spacingAndGlyphs" textLength="116" x="139.5" y="517.9357">Tab switch requested?</text><polygon fill="#FEFECE" filter="url(#f14uqxzmb35kx2)" points="197.5,742.8469,209.5,754.8469,197.5,766.8469,185.5,754.8469,197.5,742.8469" style="stroke: #A80036; stroke-width: 1.5;"/><polygon fill="#FEFECE" filter="url(#f14uqxzmb35kx2)" points="162,836.3378,233,836.3378,245,848.3378,233,860.3378,162,860.3378,150,848.3378,162,836.3378" style="stroke: #A80036; stroke-width: 1.5;"/><text fill="#000000" font-family="sans-serif" font-size="11" lengthAdjust="spacingAndGlyphs" textLength="71" x="162" y="852.6058">All tabs valid?</text><text fill="#000000" font-family="sans-serif" font-size="11" lengthAdjust="spacingAndGlyphs" textLength="17" x="133" y="845.1149">yes</text><text fill="#000000" font-family="sans-serif" font-size="11" lengthAdjust="spacingAndGlyphs" textLength="14" x="245" y="845.1149">no</text><rect fill="#FEFECE" filter="url(#f14uqxzmb35kx2)" height="36.3441" rx="12.5" ry="12.5" style="stroke: #A80036; stroke-width: 1.5;" width="129" x="49" y="870.3378"/><text fill="#000000" font-family="sans-serif" font-size="12" lengthAdjust="spacingAndGlyphs" textLength="109" x="59" y="893.1659">Write Configuration</text><rect fill="#FEFECE" filter="url(#f14uqxzmb35kx2)" height="36.3441" rx="12.5" ry="12.5" style="stroke: #A80036; stroke-width: 1.5;" width="120" x="53.5" y="941.6819"/><text fill="#000000" font-family="sans-serif" font-size="12" lengthAdjust="spacingAndGlyphs" textLength="100" x="63.5" y="964.51">Update status bar</text><rect fill="#FEFECE" filter="url(#f14uqxzmb35kx2)" height="36.3441" rx="12.5" ry="12.5" style="stroke: #A80036; stroke-width: 1.5;" width="163" x="200" y="870.3378"/><text fill="#000000" font-family="sans-serif" font-size="12" lengthAdjust="spacingAndGlyphs" textLength="143" x="210" y="893.1659">Show validation summary</text><rect fill="#FEFECE" filter="url(#f14uqxzmb35kx2)" height="36.3441" rx="12.5" ry="12.5" style="stroke: #A80036; stroke-width: 1.5;" width="167" x="198" y="941.6819"/><text fill="#000000" font-family="sans-serif" font-size="12" lengthAdjust="spacingAndGlyphs" textLength="147" x="208" y="964.51">Highlight problematic tabs</text><polygon fill="#FEFECE" filter="url(#f14uqxzmb35kx2)" points="197.5,984.0261,209.5,996.0261,197.5,1008.0261,185.5,996.0261,197.5,984.0261" style="stroke: #A80036; stroke-width: 1.5;"/><polygon fill="#FEFECE" filter="url(#f14uqxzmb35kx2)" points="155,786.8469,240,786.8469,252,798.8469,240,810.8469,155,810.8469,143,798.8469,155,786.8469" style="stroke: #A80036; stroke-width: 1.5;"/><text fill="#000000" font-family="sans-serif" font-size="11" lengthAdjust="spacingAndGlyphs" textLength="17" x="201.5" y="822.6058">yes</text><text fill="#000000" font-family="sans-serif" font-size="11" lengthAdjust="spacingAndGlyphs" textLength="85" x="155" y="803.1149">Save requested?</text><polygon fill="#FEFECE" filter="url(#f14uqxzmb35kx2)" points="197.5,1028.0261,209.5,1040.0261,197.5,1052.0261,185.5,1040.0261,197.5,1028.0261" style="stroke: #A80036; stroke-width: 1.5;"/><polygon fill="#FEFECE" filter="url(#f14uqxzmb35kx2)" points="159.5,219.0323,235.5,219.0323,247.5,231.0323,235.5,243.0323,159.5,243.0323,147.5,231.0323,159.5,219.0323" style="stroke: #A80036; stroke-width: 1.5;"/><text fill="#000000" font-family="sans-serif" font-size="11" lengthAdjust="spacingAndGlyphs" textLength="17" x="201.5" y="254.7913">yes</text><text fill="#000000" font-family="sans-serif" font-size="11" lengthAdjust="spacingAndGlyphs" textLength="76" x="159.5" y="235.3003">User working?</text><text fill="#000000" font-family="sans-serif" font-size="11" lengthAdjust="spacingAndGlyphs" textLength="14" x="133.5" y="227.8094">no</text><rect fill="#FEFECE" filter="url(#f14uqxzmb35kx2)" height="36.3441" rx="12.5" ry="12.5" style="stroke: #A80036; stroke-width: 1.5;" width="153" x="121" y="1094.0261"/><text fill="#000000" font-family="sans-serif" font-size="12" lengthAdjust="spacingAndGlyphs" textLength="133" x="131" y="1116.8541">Configuration Complete</text><ellipse cx="197.5" cy="1161.3702" fill="#FFFFFF" filter="url(#f14uqxzmb35kx2)" rx="11" ry="11" style="stroke: #000000; stroke-width: 1.0;"/><ellipse cx="197.5" cy="1161.3702" fill="#000000" rx="6" ry="6" style="stroke: #7F7F7F; stroke-width: 1.0;"/><line style="stroke: #A80036; stroke-width: 1.5;" x1="197.5" x2="197.5" y1="30" y2="50"/><polygon fill="#A80036" points="193.5,40,197.5,50,201.5,40,197.5,44" style="stroke: #A80036; stroke-width: 1.0;"/><line style="stroke: #A80036; stroke-width: 1.5;" x1="197.5" x2="197.5" y1="86.3441" y2="106.3441"/><polygon fill="#A80036" points="193.5,96.3441,197.5,106.3441,201.5,96.3441,197.5,100.3441" style="stroke: #A80036; stroke-width: 1.0;"/><line style="stroke: #A80036; stroke-width: 1.5;" x1="197.5" x2="197.5" y1="142.6882" y2="162.6882"/><polygon fill="#A80036" points="193.5,152.6882,197.5,162.6882,201.5,152.6882,197.5,156.6882" style="stroke: #A80036; stroke-width: 1.0;"/><line style="stroke: #A80036; stroke-width: 1.5;" x1="197.5" x2="197.5" y1="312.6354" y2="332.6354"/><polygon fill="#A80036" points="193.5,322.6354,197.5,332.6354,201.5,322.6354,197.5,326.6354" style="stroke: #A80036; stroke-width: 1.0;"/><line style="stroke: #A80036; stroke-width: 1.5;" x1="197.5" x2="197.5" y1="368.9795" y2="388.9795"/><polygon fill="#A80036" points="193.5,378.9795,197.5,388.9795,201.5,378.9795,197.5,382.9795" style="stroke: #A80036; stroke-width: 1.0;"/><line style="stroke: #A80036; stroke-width: 1.5;" x1="197.5" x2="197.5" y1="425.3236" y2="445.3236"/><polygon fill="#A80036" points="193.5,435.3236,197.5,445.3236,201.5,435.3236,197.5,439.3236" style="stroke: #A80036; stroke-width: 1.0;"/><line style="stroke: #A80036; stroke-width: 1.5;" x1="281.5" x2="281.5" y1="621.5028" y2="656.5028"/><polygon fill="#A80036" points="277.5,646.5028,281.5,656.5028,285.5,646.5028,281.5,650.5028" style="stroke: #A80036; stroke-width: 1.0;"/><line style="stroke: #A80036; stroke-width: 1.5;" x1="138.5" x2="113.5" y1="563.1587" y2="563.1587"/><line style="stroke: #A80036; stroke-width: 1.5;" x1="113.5" x2="113.5" y1="563.1587" y2="585.1587"/><polygon fill="#A80036" points="109.5,575.1587,113.5,585.1587,117.5,575.1587,113.5,579.1587" style="stroke: #A80036; stroke-width: 1.0;"/><line style="stroke: #A80036; stroke-width: 1.5;" x1="256.5" x2="281.5" y1="563.1587" y2="563.1587"/><line style="stroke: #A80036; stroke-width: 1.5;" x1="281.5" x2="281.5" y1="563.1587" y2="585.1587"/><polygon fill="#A80036" points="277.5,575.1587,281.5,585.1587,285.5,575.1587,281.5,579.1587" style="stroke: #A80036; stroke-width: 1.0;"/><line style="stroke: #A80036; stroke-width: 1.5;" x1="113.5" x2="113.5" y1="621.5028" y2="710.8469"/><line style="stroke: #A80036; stroke-width: 1.5;" x1="113.5" x2="185.5" y1="710.8469" y2="710.8469"/><polygon fill="#A80036" points="175.5,706.8469,185.5,710.8469,175.5,714.8469,179.5,710.8469" style="stroke: #A80036; stroke-width: 1.0;"/><line style="stroke: #A80036; stroke-width: 1.5;" x1="281.5" x2="281.5" y1="692.8469" y2="710.8469"/><line style="stroke: #A80036; stroke-width: 1.5;" x1="281.5" x2="209.5" y1="710.8469" y2="710.8469"/><polygon fill="#A80036" points="219.5,706.8469,209.5,710.8469,219.5,714.8469,215.5,710.8469" style="stroke: #A80036; stroke-width: 1.0;"/><line style="stroke: #A80036; stroke-width: 1.5;" x1="197.5" x2="197.5" y1="525.6677" y2="551.1587"/><polygon fill="#A80036" points="193.5,541.1587,197.5,551.1587,201.5,541.1587,197.5,545.1587" style="stroke: #A80036; stroke-width: 1.0;"/><line style="stroke: #A80036; stroke-width: 1.5;" x1="267.5" x2="374" y1="513.6677" y2="513.6677"/><polygon fill="#A80036" points="370,627.0028,374,637.0028,378,627.0028,374,631.0028" style="stroke: #A80036; stroke-width: 1.5;"/><line style="stroke: #A80036; stroke-width: 1.5;" x1="374" x2="374" y1="513.6677" y2="754.8469"/><line style="stroke: #A80036; stroke-width: 1.5;" x1="374" x2="209.5" y1="754.8469" y2="754.8469"/><polygon fill="#A80036" points="219.5,750.8469,209.5,754.8469,219.5,758.8469,215.5,754.8469" style="stroke: #A80036; stroke-width: 1.0;"/><line style="stroke: #A80036; stroke-width: 1.5;" x1="197.5" x2="197.5" y1="722.8469" y2="742.8469"/><polygon fill="#A80036" points="193.5,732.8469,197.5,742.8469,201.5,732.8469,197.5,736.8469" style="stroke: #A80036; stroke-width: 1.0;"/><line style="stroke: #A80036; stroke-width: 1.5;" x1="197.5" x2="197.5" y1="481.6677" y2="501.6677"/><polygon fill="#A80036" points="193.5,491.6677,197.5,501.6677,201.5,491.6677,197.5,495.6677" style="stroke: #A80036; stroke-width: 1.0;"/><line style="stroke: #A80036; stroke-width: 1.5;" x1="113.5" x2="113.5" y1="906.6819" y2="941.6819"/><polygon fill="#A80036" points="109.5,931.6819,113.5,941.6819,117.5,931.6819,113.5,935.6819" style="stroke: #A80036; stroke-width: 1.0;"/><line style="stroke: #A80036; stroke-width: 1.5;" x1="281.5" x2="281.5" y1="906.6819" y2="941.6819"/><polygon fill="#A80036" points="277.5,931.6819,281.5,941.6819,285.5,931.6819,281.5,935.6819" style="stroke: #A80036; stroke-width: 1.0;"/><line style="stroke: #A80036; stroke-width: 1.5;" x1="150" x2="113.5" y1="848.3378" y2="848.3378"/><line style="stroke: #A80036; stroke-width: 1.5;" x1="113.5" x2="113.5" y1="848.3378" y2="870.3378"/><polygon fill="#A80036" points="109.5,860.3378,113.5,870.3378,117.5,860.3378,113.5,864.3378" style="stroke: #A80036; stroke-width: 1.0;"/><line style="stroke: #A80036; stroke-width: 1.5;" x1="245" x2="281.5" y1="848.3378" y2="848.3378"/><line style="stroke: #A80036; stroke-width: 1.5;" x1="281.5" x2="281.5" y1="848.3378" y2="870.3378"/><polygon fill="#A80036" points="277.5,860.3378,281.5,870.3378,285.5,860.3378,281.5,864.3378" style="stroke: #A80036; stroke-width: 1.0;"/><line style="stroke: #A80036; stroke-width: 1.5;" x1="113.5" x2="113.5" y1="978.0261" y2="996.0261"/><line style="stroke: #A80036; stroke-width: 1.5;" x1="113.5" x2="185.5" y1="996.0261" y2="996.0261"/><polygon fill="#A80036" points="175.5,992.0261,185.5,996.0261,175.5,1000.0261,179.5,996.0261" style="stroke: #A80036; stroke-width: 1.0;"/><line style="stroke: #A80036; stroke-width: 1.5;" x1="281.5" x2="281.5" y1="978.0261" y2="996.0261"/><line style="stroke: #A80036; stroke-width: 1.5;" x1="281.5" x2="209.5" y1="996.0261" y2="996.0261"/><polygon fill="#A80036" points="219.5,992.0261,209.5,996.0261,219.5,1000.0261,215.5,996.0261" style="stroke: #A80036; stroke-width: 1.0;"/><line style="stroke: #A80036; stroke-width: 1.5;" x1="197.5" x2="197.5" y1="810.8469" y2="836.3378"/><polygon fill="#A80036" points="193.5,826.3378,197.5,836.3378,201.5,826.3378,197.5,830.3378" style="stroke: #A80036; stroke-width: 1.0;"/><line style="stroke: #A80036; stroke-width: 1.5;" x1="252" x2="385" y1="798.8469" y2="798.8469"/><polygon fill="#A80036" points="381,912.1819,385,922.1819,389,912.1819,385,916.1819" style="stroke: #A80036; stroke-width: 1.5;"/><line style="stroke: #A80036; stroke-width: 1.5;" x1="385" x2="385" y1="798.8469" y2="1040.0261"/><line style="stroke: #A80036; stroke-width: 1.5;" x1="385" x2="209.5" y1="1040.0261" y2="1040.0261"/><polygon fill="#A80036" points="219.5,1036.0261,209.5,1040.0261,219.5,1044.0261,215.5,1040.0261" style="stroke: #A80036; stroke-width: 1.0;"/><line style="stroke: #A80036; stroke-width: 1.5;" x1="197.5" x2="197.5" y1="1008.0261" y2="1028.0261"/><polygon fill="#A80036" points="193.5,1018.0261,197.5,1028.0261,201.5,1018.0261,197.5,1022.0261" style="stroke: #A80036; stroke-width: 1.0;"/><line style="stroke: #A80036; stroke-width: 1.5;" x1="197.5" x2="197.5" y1="766.8469" y2="786.8469"/><polygon fill="#A80036" points="193.5,776.8469,197.5,786.8469,201.5,776.8469,197.5,780.8469" style="stroke: #A80036; stroke-width: 1.0;"/><line style="stroke: #A80036; stroke-width: 1.5;" x1="197.5" x2="197.5" y1="243.0323" y2="276.2913"/><polygon fill="#A80036" points="193.5,266.2913,197.5,276.2913,201.5,266.2913,197.5,270.2913" style="stroke: #A80036; stroke-width: 1.0;"/><line style="stroke: #A80036; stroke-width: 1.5;" x1="197.5" x2="197.5" y1="1052.0261" y2="1062.0261"/><line style="stroke: #A80036; stroke-width: 1.5;" x1="197.5" x2="403" y1="1062.0261" y2="1062.0261"/><polygon fill="#A80036" points="399,637.6587,403,627.6587,407,637.6587,403,633.6587" style="stroke: #A80036; stroke-width: 1.5;"/><line style="stroke: #A80036; stroke-width: 1.5;" x1="403" x2="403" y1="231.0323" y2="1062.0261"/><line style="stroke: #A80036; stroke-width: 1.5;" x1="403" x2="247.5" y1="231.0323" y2="231.0323"/><polygon fill="#A80036" points="257.5,227.0323,247.5,231.0323,257.5,235.0323,253.5,231.0323" style="stroke: #A80036; stroke-width: 1.0;"/><line style="stroke: #A80036; stroke-width: 1.5;" x1="147.5" x2="24" y1="231.0323" y2="231.0323"/><polygon fill="#A80036" points="20,623.6587,24,633.6587,28,623.6587,24,627.6587" style="stroke: #A80036; stroke-width: 1.5;"/><line style="stroke: #A80036; stroke-width: 1.5;" x1="24" x2="24" y1="231.0323" y2="1074.0261"/><line style="stroke: #A80036; stroke-width: 1.5;" x1="24" x2="197.5" y1="1074.0261" y2="1074.0261"/><line style="stroke: #A80036; stroke-width: 1.5;" x1="197.5" x2="197.5" y1="1074.0261" y2="1094.0261"/><polygon fill="#A80036" points="193.5,1084.0261,197.5,1094.0261,201.5,1084.0261,197.5,1088.0261" style="stroke: #A80036; stroke-width: 1.0;"/><line style="stroke: #A80036; stroke-width: 1.5;" x1="197.5" x2="197.5" y1="199.0323" y2="219.0323"/><polygon fill="#A80036" points="193.5,209.0323,197.5,219.0323,201.5,209.0323,197.5,213.0323" style="stroke: #A80036; stroke-width: 1.0;"/><line style="stroke: #A80036; stroke-width: 1.5;" x1="197.5" x2="197.5" y1="1130.3702" y2="1150.3702"/><polygon fill="#A80036" points="193.5,1140.3702,197.5,1150.3702,201.5,1140.3702,197.5,1144.3702" style="stroke: #A80036; stroke-width: 1.0;"/><!--MD5=[fa8afce47a549481864d07a45054523f]
@startuml
start
:Initialize Application;
:Load Project Directory;
:Display Project Tab (default);

while (User working?) is (yes)
  :Select Tab;
  :Display Tab Content;
  :User modifies configuration;
  :Validate input in real-time;
  
  if (Tab switch requested?) then (yes)
    if (Current tab valid?) then (yes)
      :Switch to requested tab;
    else (no)
      :Show validation errors;
      :Stay on current tab;
    endif
  endif
  
  if (Save requested?) then (yes)
    if (All tabs valid?) then (yes)
      :Write Configuration;
      :Update status bar;
    else (no)
      :Show validation summary;
      :Highlight problematic tabs;
    endif
  endif
endwhile (no)

:Configuration Complete;
stop
@enduml

PlantUML version 1.2020.02(Sun Mar 01 18:22:07 CST 2020)
(GPL source distribution)
Java Runtime: OpenJDK Runtime Environment
JVM: OpenJDK 64-Bit Server VM
Java Version: 21.0.7+6-Ubuntu-0ubuntu124.04
Operating System: Linux
Default Encoding: UTF-8
Language: en
Country: US
--></g></svg>