<svg xmlns="http://www.w3.org/2000/svg" xmlns:xlink="http://www.w3.org/1999/xlink" contentStyleType="text/css" data-diagram-type="ACTIVITY" height="697px" preserveAspectRatio="none" style="width:371px;height:697px;background:#FFFFFF;" version="1.1" viewBox="0 0 371 697" width="371px" zoomAndPan="magnify"><defs/><g><ellipse cx="192.4744" cy="20" fill="#222222" rx="10" ry="10" style="stroke:#222222;stroke-width:1;"/><rect fill="#F1F1F1" height="35.0938" rx="12.5" ry="12.5" style="stroke:#181818;stroke-width:0.5;" width="213.4004" x="85.7742" y="50"/><text fill="#000000" font-family="sans-serif" font-size="12" lengthAdjust="spacing" textLength="193.4004" x="95.7742" y="72.457">Receive control from SC-2 controller</text><rect fill="#F1F1F1" height="35.0938" rx="12.5" ry="12.5" style="stroke:#181818;stroke-width:0.5;" width="222.752" x="81.0984" y="105.0938"/><text fill="#000000" font-family="sans-serif" font-size="12" lengthAdjust="spacing" textLength="202.752" x="91.0984" y="127.5508">Load project directory from SC-1 state</text><rect fill="#F1F1F1" height="35.0938" rx="12.5" ry="12.5" style="stroke:#181818;stroke-width:0.5;" width="243.4473" x="70.7507" y="160.1875"/><text fill="#000000" font-family="sans-serif" font-size="12" lengthAdjust="spacing" textLength="223.4473" x="80.7507" y="182.6445">Extract directory name for auto-population</text><rect fill="#F1F1F1" height="35.0938" rx="12.5" ry="12.5" style="stroke:#181818;stroke-width:0.5;" width="192.0723" x="96.4382" y="215.2813"/><text fill="#000000" font-family="sans-serif" font-size="12" lengthAdjust="spacing" textLength="172.0723" x="106.4382" y="237.7383">Initialize form fields with defaults</text><polygon fill="#F1F1F1" points="109.0264,270.375,275.9224,270.375,287.9224,282.375,275.9224,294.375,109.0264,294.375,97.0264,282.375,109.0264,270.375" style="stroke:#181818;stroke-width:0.5;"/><text fill="#000000" font-family="sans-serif" font-size="11" lengthAdjust="spacing" textLength="166.896" x="109.0264" y="286.876">Project name from directory valid?</text><text fill="#000000" font-family="sans-serif" font-size="11" lengthAdjust="spacing" textLength="17.1177" x="79.9087" y="279.958">yes</text><text fill="#000000" font-family="sans-serif" font-size="11" lengthAdjust="spacing" textLength="12.2354" x="287.9224" y="279.958">no</text><rect fill="#F1F1F1" height="35.0938" rx="12.5" ry="12.5" style="stroke:#181818;stroke-width:0.5;" width="152.0527" x="11" y="304.375"/><text fill="#000000" font-family="sans-serif" font-size="12" lengthAdjust="spacing" textLength="132.0527" x="21" y="326.832">Pre-fill project name field</text><rect fill="#F1F1F1" height="35.0938" rx="12.5" ry="12.5" style="stroke:#181818;stroke-width:0.5;" width="126.0664" x="234.8892" y="304.375"/><text fill="#000000" font-family="sans-serif" font-size="12" lengthAdjust="spacing" textLength="106.0664" x="244.8892" y="326.832">Set placeholder text</text><polygon fill="#F1F1F1" points="192.4744,345.4688,204.4744,357.4688,192.4744,369.4688,180.4744,357.4688,192.4744,345.4688" style="stroke:#181818;stroke-width:0.5;"/><rect fill="#F1F1F1" height="35.0938" rx="12.5" ry="12.5" style="stroke:#181818;stroke-width:0.5;" width="224.1406" x="80.4041" y="389.4688"/><text fill="#000000" font-family="sans-serif" font-size="12" lengthAdjust="spacing" textLength="204.1406" x="90.4041" y="411.9258">Set default base image (ubuntu:24.04)</text><rect fill="#F1F1F1" height="35.0938" rx="12.5" ry="12.5" style="stroke:#181818;stroke-width:0.5;" width="184.748" x="100.1003" y="444.5625"/><text fill="#000000" font-family="sans-serif" font-size="12" lengthAdjust="spacing" textLength="164.748" x="110.1003" y="467.0195">Initialize image suggestions list</text><rect fill="#F1F1F1" height="35.0938" rx="12.5" ry="12.5" style="stroke:#181818;stroke-width:0.5;" width="158.7383" x="113.1052" y="499.6563"/><text fill="#000000" font-family="sans-serif" font-size="12" lengthAdjust="spacing" textLength="138.7383" x="123.1052" y="522.1133">Set up real-time validation</text><rect fill="#F1F1F1" height="35.0938" rx="12.5" ry="12.5" style="stroke:#181818;stroke-width:0.5;" width="149.3984" x="117.7751" y="554.75"/><text fill="#000000" font-family="sans-serif" font-size="12" lengthAdjust="spacing" textLength="129.3984" x="127.7751" y="577.207">Enable form interactions</text><rect fill="#F1F1F1" height="35.0938" rx="12.5" ry="12.5" style="stroke:#181818;stroke-width:0.5;" width="162.7402" x="111.1042" y="609.8438"/><text fill="#000000" font-family="sans-serif" font-size="12" lengthAdjust="spacing" textLength="142.7402" x="121.1042" y="632.3008">Focus on first editable field</text><ellipse cx="192.4744" cy="675.9375" fill="none" rx="11" ry="11" style="stroke:#222222;stroke-width:1;"/><ellipse cx="192.4744" cy="675.9375" fill="#222222" rx="6" ry="6" style="stroke:#222222;stroke-width:1;"/><line style="stroke:#181818;stroke-width:1;" x1="192.4744" x2="192.4744" y1="30" y2="50"/><polygon fill="#181818" points="188.4744,40,192.4744,50,196.4744,40,192.4744,44" style="stroke:#181818;stroke-width:1;"/><line style="stroke:#181818;stroke-width:1;" x1="192.4744" x2="192.4744" y1="85.0938" y2="105.0938"/><polygon fill="#181818" points="188.4744,95.0938,192.4744,105.0938,196.4744,95.0938,192.4744,99.0938" style="stroke:#181818;stroke-width:1;"/><line style="stroke:#181818;stroke-width:1;" x1="192.4744" x2="192.4744" y1="140.1875" y2="160.1875"/><polygon fill="#181818" points="188.4744,150.1875,192.4744,160.1875,196.4744,150.1875,192.4744,154.1875" style="stroke:#181818;stroke-width:1;"/><line style="stroke:#181818;stroke-width:1;" x1="192.4744" x2="192.4744" y1="195.2813" y2="215.2813"/><polygon fill="#181818" points="188.4744,205.2813,192.4744,215.2813,196.4744,205.2813,192.4744,209.2813" style="stroke:#181818;stroke-width:1;"/><line style="stroke:#181818;stroke-width:1;" x1="97.0264" x2="87.0264" y1="282.375" y2="282.375"/><line style="stroke:#181818;stroke-width:1;" x1="87.0264" x2="87.0264" y1="282.375" y2="304.375"/><polygon fill="#181818" points="83.0264,294.375,87.0264,304.375,91.0264,294.375,87.0264,298.375" style="stroke:#181818;stroke-width:1;"/><line style="stroke:#181818;stroke-width:1;" x1="287.9224" x2="297.9224" y1="282.375" y2="282.375"/><line style="stroke:#181818;stroke-width:1;" x1="297.9224" x2="297.9224" y1="282.375" y2="304.375"/><polygon fill="#181818" points="293.9224,294.375,297.9224,304.375,301.9224,294.375,297.9224,298.375" style="stroke:#181818;stroke-width:1;"/><line style="stroke:#181818;stroke-width:1;" x1="87.0264" x2="87.0264" y1="339.4688" y2="357.4688"/><line style="stroke:#181818;stroke-width:1;" x1="87.0264" x2="180.4744" y1="357.4688" y2="357.4688"/><polygon fill="#181818" points="170.4744,353.4688,180.4744,357.4688,170.4744,361.4688,174.4744,357.4688" style="stroke:#181818;stroke-width:1;"/><line style="stroke:#181818;stroke-width:1;" x1="297.9224" x2="297.9224" y1="339.4688" y2="357.4688"/><line style="stroke:#181818;stroke-width:1;" x1="297.9224" x2="204.4744" y1="357.4688" y2="357.4688"/><polygon fill="#181818" points="214.4744,353.4688,204.4744,357.4688,214.4744,361.4688,210.4744,357.4688" style="stroke:#181818;stroke-width:1;"/><line style="stroke:#181818;stroke-width:1;" x1="192.4744" x2="192.4744" y1="250.375" y2="270.375"/><polygon fill="#181818" points="188.4744,260.375,192.4744,270.375,196.4744,260.375,192.4744,264.375" style="stroke:#181818;stroke-width:1;"/><line style="stroke:#181818;stroke-width:1;" x1="192.4744" x2="192.4744" y1="369.4688" y2="389.4688"/><polygon fill="#181818" points="188.4744,379.4688,192.4744,389.4688,196.4744,379.4688,192.4744,383.4688" style="stroke:#181818;stroke-width:1;"/><line style="stroke:#181818;stroke-width:1;" x1="192.4744" x2="192.4744" y1="424.5625" y2="444.5625"/><polygon fill="#181818" points="188.4744,434.5625,192.4744,444.5625,196.4744,434.5625,192.4744,438.5625" style="stroke:#181818;stroke-width:1;"/><line style="stroke:#181818;stroke-width:1;" x1="192.4744" x2="192.4744" y1="479.6563" y2="499.6563"/><polygon fill="#181818" points="188.4744,489.6563,192.4744,499.6563,196.4744,489.6563,192.4744,493.6563" style="stroke:#181818;stroke-width:1;"/><line style="stroke:#181818;stroke-width:1;" x1="192.4744" x2="192.4744" y1="534.75" y2="554.75"/><polygon fill="#181818" points="188.4744,544.75,192.4744,554.75,196.4744,544.75,192.4744,548.75" style="stroke:#181818;stroke-width:1;"/><line style="stroke:#181818;stroke-width:1;" x1="192.4744" x2="192.4744" y1="589.8438" y2="609.8438"/><polygon fill="#181818" points="188.4744,599.8438,192.4744,609.8438,196.4744,599.8438,192.4744,603.8438" style="stroke:#181818;stroke-width:1;"/><line style="stroke:#181818;stroke-width:1;" x1="192.4744" x2="192.4744" y1="644.9375" y2="664.9375"/><polygon fill="#181818" points="188.4744,654.9375,192.4744,664.9375,196.4744,654.9375,192.4744,658.9375" style="stroke:#181818;stroke-width:1;"/><!--SRC=[LP3DRi8m3CVlVGeVwQ7JXZYLmmuJaoRjWCOJcCO1JsvS9Gw3FVtI5fWuHOf__myx6KQhsY_gY4y4dGQBAk2Zzh1xQvQt7w6uhjfFHGT3r6_g31p7ycYytEaNI8P61ToSBU834x0dy1e1isapw905ZJKK-2EmCGh_Ja0FdabSWX-s8pZocCNIkc8FY-qrUZORK_y3JiN1lTPWHmgmk52gAu1s6wdnB79lFKl7X7L5aWWMGIToHmQ3O4T75KSHZCvMaE3OLzFmMWNsM5JSuw5eypu7o-rozVIygXzNcOcK3mTAuw89X5DndBpo095G6kFIPcf-EyOcu5wkX-1WD9vnL9VHktOvWOPIFoO3ScmpEs-JJ8S_]--></g></svg>