<svg xmlns="http://www.w3.org/2000/svg" xmlns:xlink="http://www.w3.org/1999/xlink" contentStyleType="text/css" data-diagram-type="ACTIVITY" height="477px" preserveAspectRatio="none" style="width:358px;height:477px;background:#FFFFFF;" version="1.1" viewBox="0 0 358 477" width="358px" zoomAndPan="magnify"><defs/><g><ellipse cx="191.583" cy="20" fill="#222222" rx="10" ry="10" style="stroke:#222222;stroke-width:1;"/><rect fill="#F1F1F1" height="35.0938" rx="12.5" ry="12.5" style="stroke:#181818;stroke-width:0.5;" width="166.0566" x="108.5547" y="50"/><text fill="#000000" font-family="sans-serif" font-size="12" lengthAdjust="spacing" textLength="146.0566" x="118.5547" y="72.457">User modifies project name</text><rect fill="#F1F1F1" height="35.0938" rx="12.5" ry="12.5" style="stroke:#181818;stroke-width:0.5;" width="134.0586" x="124.5537" y="105.0938"/><text fill="#000000" font-family="sans-serif" font-size="12" lengthAdjust="spacing" textLength="114.0586" x="134.5537" y="127.5508">Validate name format</text><polygon fill="#F1F1F1" points="161.0134,160.1875,222.1526,160.1875,234.1526,172.1875,222.1526,184.1875,161.0134,184.1875,149.0134,172.1875,161.0134,160.1875" style="stroke:#181818;stroke-width:0.5;"/><text fill="#000000" font-family="sans-serif" font-size="11" lengthAdjust="spacing" textLength="61.1392" x="161.0134" y="176.6885">Name valid?</text><text fill="#000000" font-family="sans-serif" font-size="11" lengthAdjust="spacing" textLength="17.1177" x="131.8958" y="169.7705">yes</text><text fill="#000000" font-family="sans-serif" font-size="11" lengthAdjust="spacing" textLength="12.2354" x="234.1526" y="169.7705">no</text><rect fill="#F1F1F1" height="35.0938" rx="12.5" ry="12.5" style="stroke:#181818;stroke-width:0.5;" width="182.7617" x="11" y="194.1875"/><text fill="#000000" font-family="sans-serif" font-size="12" lengthAdjust="spacing" textLength="162.7617" x="21" y="216.6445">Generate stage-1 image name</text><rect fill="#F1F1F1" height="35.0938" rx="12.5" ry="12.5" style="stroke:#181818;stroke-width:0.5;" width="182.7617" x="11" y="249.2813"/><text fill="#000000" font-family="sans-serif" font-size="12" lengthAdjust="spacing" textLength="162.7617" x="21" y="271.7383">Generate stage-2 image name</text><rect fill="#F1F1F1" height="35.0938" rx="12.5" ry="12.5" style="stroke:#181818;stroke-width:0.5;" width="144.0664" x="30.3477" y="304.375"/><text fill="#000000" font-family="sans-serif" font-size="12" lengthAdjust="spacing" textLength="124.0664" x="40.3477" y="326.832">Update preview display</text><rect fill="#F1F1F1" height="35.0938" rx="12.5" ry="12.5" style="stroke:#181818;stroke-width:0.5;" width="135.377" x="34.6924" y="359.4688"/><text fill="#000000" font-family="sans-serif" font-size="12" lengthAdjust="spacing" textLength="115.377" x="44.6924" y="381.9258">Update memory store</text><rect fill="#F1F1F1" height="35.0938" rx="12.5" ry="12.5" style="stroke:#181818;stroke-width:0.5;" width="134.0469" x="213.7617" y="194.1875"/><text fill="#000000" font-family="sans-serif" font-size="12" lengthAdjust="spacing" textLength="114.0469" x="223.7617" y="216.6445">Clear preview display</text><rect fill="#F1F1F1" height="35.0938" rx="12.5" ry="12.5" style="stroke:#181818;stroke-width:0.5;" width="132.7227" x="214.4238" y="249.2813"/><text fill="#000000" font-family="sans-serif" font-size="12" lengthAdjust="spacing" textLength="112.7227" x="224.4238" y="271.7383">Show validation error</text><polygon fill="#F1F1F1" points="191.583,400.5625,203.583,412.5625,191.583,424.5625,179.583,412.5625,191.583,400.5625" style="stroke:#181818;stroke-width:0.5;"/><ellipse cx="191.583" cy="455.5625" fill="none" rx="11" ry="11" style="stroke:#222222;stroke-width:1;"/><ellipse cx="191.583" cy="455.5625" fill="#222222" rx="6" ry="6" style="stroke:#222222;stroke-width:1;"/><line style="stroke:#181818;stroke-width:1;" x1="191.583" x2="191.583" y1="30" y2="50"/><polygon fill="#181818" points="187.583,40,191.583,50,195.583,40,191.583,44" style="stroke:#181818;stroke-width:1;"/><line style="stroke:#181818;stroke-width:1;" x1="191.583" x2="191.583" y1="85.0938" y2="105.0938"/><polygon fill="#181818" points="187.583,95.0938,191.583,105.0938,195.583,95.0938,191.583,99.0938" style="stroke:#181818;stroke-width:1;"/><line style="stroke:#181818;stroke-width:1;" x1="102.3809" x2="102.3809" y1="229.2813" y2="249.2813"/><polygon fill="#181818" points="98.3809,239.2813,102.3809,249.2813,106.3809,239.2813,102.3809,243.2813" style="stroke:#181818;stroke-width:1;"/><line style="stroke:#181818;stroke-width:1;" x1="102.3809" x2="102.3809" y1="284.375" y2="304.375"/><polygon fill="#181818" points="98.3809,294.375,102.3809,304.375,106.3809,294.375,102.3809,298.375" style="stroke:#181818;stroke-width:1;"/><line style="stroke:#181818;stroke-width:1;" x1="102.3809" x2="102.3809" y1="339.4688" y2="359.4688"/><polygon fill="#181818" points="98.3809,349.4688,102.3809,359.4688,106.3809,349.4688,102.3809,353.4688" style="stroke:#181818;stroke-width:1;"/><line style="stroke:#181818;stroke-width:1;" x1="280.7852" x2="280.7852" y1="229.2813" y2="249.2813"/><polygon fill="#181818" points="276.7852,239.2813,280.7852,249.2813,284.7852,239.2813,280.7852,243.2813" style="stroke:#181818;stroke-width:1;"/><line style="stroke:#181818;stroke-width:1;" x1="149.0134" x2="102.3809" y1="172.1875" y2="172.1875"/><line style="stroke:#181818;stroke-width:1;" x1="102.3809" x2="102.3809" y1="172.1875" y2="194.1875"/><polygon fill="#181818" points="98.3809,184.1875,102.3809,194.1875,106.3809,184.1875,102.3809,188.1875" style="stroke:#181818;stroke-width:1;"/><line style="stroke:#181818;stroke-width:1;" x1="234.1526" x2="280.7852" y1="172.1875" y2="172.1875"/><line style="stroke:#181818;stroke-width:1;" x1="280.7852" x2="280.7852" y1="172.1875" y2="194.1875"/><polygon fill="#181818" points="276.7852,184.1875,280.7852,194.1875,284.7852,184.1875,280.7852,188.1875" style="stroke:#181818;stroke-width:1;"/><line style="stroke:#181818;stroke-width:1;" x1="102.3809" x2="102.3809" y1="394.5625" y2="412.5625"/><line style="stroke:#181818;stroke-width:1;" x1="102.3809" x2="179.583" y1="412.5625" y2="412.5625"/><polygon fill="#181818" points="169.583,408.5625,179.583,412.5625,169.583,416.5625,173.583,412.5625" style="stroke:#181818;stroke-width:1;"/><line style="stroke:#181818;stroke-width:1;" x1="280.7852" x2="280.7852" y1="284.375" y2="412.5625"/><line style="stroke:#181818;stroke-width:1;" x1="280.7852" x2="203.583" y1="412.5625" y2="412.5625"/><polygon fill="#181818" points="213.583,408.5625,203.583,412.5625,213.583,416.5625,209.583,412.5625" style="stroke:#181818;stroke-width:1;"/><line style="stroke:#181818;stroke-width:1;" x1="191.583" x2="191.583" y1="140.1875" y2="160.1875"/><polygon fill="#181818" points="187.583,150.1875,191.583,160.1875,195.583,150.1875,191.583,154.1875" style="stroke:#181818;stroke-width:1;"/><line style="stroke:#181818;stroke-width:1;" x1="191.583" x2="191.583" y1="424.5625" y2="444.5625"/><polygon fill="#181818" points="187.583,434.5625,191.583,444.5625,195.583,434.5625,191.583,438.5625" style="stroke:#181818;stroke-width:1;"/><!--SRC=[ROyn3i8m34NtdC9ZEp30s0uC36mi27QB_jAW98wSg5LlJreO431PzjFxjbDcpQQv92XvwMnlaIYgF73B5DYZDSsLdUquO-sf5_MSMsDxgaxBO5pmlgOy850r8zM6g3aYG1SfPRvZioNhItr7_lBTDx_4TMLKZ1OJTJP5n_Cdyl2YS_55YmANG5MGTVd1WVMlUnvaUbtCsKeWg8eMEvJNJOcAJm00]--></g></svg>