<svg xmlns="http://www.w3.org/2000/svg" xmlns:xlink="http://www.w3.org/1999/xlink" contentStyleType="text/css" data-diagram-type="DESCRIPTION" height="292px" preserveAspectRatio="none" style="width:1091px;height:292px;background:#FFFFFF;" version="1.1" viewBox="0 0 1091 292" width="1091px" zoomAndPan="magnify"><defs/><g><!--cluster Project Information Screen--><g class="cluster" data-entity="Project Information Screen" data-source-line="5" data-uid="ent0004" id="cluster_Project Information Screen"><rect fill="none" height="279" rx="2.5" ry="2.5" style="stroke:#181818;stroke-width:1;" width="834" x="83" y="7"/><text fill="#000000" font-family="sans-serif" font-size="14" font-weight="bold" lengthAdjust="spacing" textLength="178.9307" x="410.5347" y="23.5332">Project Information Screen</text></g><g class="entity" data-entity="UC1" data-source-line="6" data-uid="ent0005" id="entity_UC1"><ellipse cx="513.2351" cy="93.047" fill="#F1F1F1" rx="83.2351" ry="19.047" style="stroke:#181818;stroke-width:0.5;"/><text fill="#000000" font-family="sans-serif" font-size="14" lengthAdjust="spacing" textLength="122.1582" x="452.156" y="96.7755">Enter Project Name</text></g><g class="entity" data-entity="UC2" data-source-line="7" data-uid="ent0006" id="entity_UC2"><ellipse cx="513.103" cy="235.2206" fill="#F1F1F1" rx="79.103" ry="18.2206" style="stroke:#181818;stroke-width:0.5;"/><text fill="#000000" font-family="sans-serif" font-size="14" lengthAdjust="spacing" textLength="112.0615" x="455.6801" y="239.3414">Enter Base Image</text></g><g class="entity" data-entity="UC3" data-source-line="8" data-uid="ent0007" id="entity_UC3"><ellipse cx="807.0223" cy="67.0045" fill="#F1F1F1" rx="90.5223" ry="20.5045" style="stroke:#181818;stroke-width:0.5;"/><text fill="#000000" font-family="sans-serif" font-size="14" lengthAdjust="spacing" textLength="139.2891" x="737.3778" y="70.733">Validate Project Name</text></g><g class="entity" data-entity="UC4" data-source-line="9" data-uid="ent0008" id="entity_UC4"><ellipse cx="807.1979" cy="233.1396" fill="#F1F1F1" rx="86.1979" ry="19.6396" style="stroke:#181818;stroke-width:0.5;"/><text fill="#000000" font-family="sans-serif" font-size="14" lengthAdjust="spacing" textLength="129.1924" x="742.6017" y="236.8681">Validate Base Image</text></g><g class="entity" data-entity="UC5" data-source-line="10" data-uid="ent0009" id="entity_UC5"><ellipse cx="807.2373" cy="148.2475" fill="#F1F1F1" rx="94.2373" ry="21.2475" style="stroke:#181818;stroke-width:0.5;"/><text fill="#000000" font-family="sans-serif" font-size="14" lengthAdjust="spacing" textLength="147.8271" x="733.3237" y="151.976">Preview Docker Images</text></g><g class="entity" data-entity="UC7" data-source-line="11" data-uid="ent0010" id="entity_UC7"><ellipse cx="207.1426" cy="67.0285" fill="#F1F1F1" rx="108.1426" ry="24.0285" style="stroke:#181818;stroke-width:0.5;"/><text fill="#000000" font-family="sans-serif" font-size="14" lengthAdjust="spacing" textLength="178.9648" x="117.6601" y="70.757">Auto-populate from Directory</text></g><g class="entity" data-entity="UC8" data-source-line="12" data-uid="ent0011" id="entity_UC8"><ellipse cx="207.1847" cy="146.2369" fill="#F1F1F1" rx="89.1847" ry="20.2369" style="stroke:#181818;stroke-width:0.5;"/><text fill="#000000" font-family="sans-serif" font-size="14" lengthAdjust="spacing" textLength="136.1855" x="139.0919" y="149.9655">Navigate to Next Step</text></g><!--entity user--><g class="entity" data-entity="user" data-source-line="2" data-uid="ent0002" id="entity_user"><ellipse cx="20.7793" cy="188.5" fill="#F1F1F1" rx="8" ry="8" style="stroke:#181818;stroke-width:0.5;"/><path d="M20.7793,196.5 L20.7793,223.5 M7.7793,204.5 L33.7793,204.5 M20.7793,223.5 L7.7793,238.5 M20.7793,223.5 L33.7793,238.5" fill="none" style="stroke:#181818;stroke-width:0.5;"/><text fill="#000000" font-family="sans-serif" font-size="14" lengthAdjust="spacing" textLength="29.5586" x="6" y="254.5332">User</text></g><!--entity config--><g class="entity" data-entity="config" data-source-line="3" data-uid="ent0003" id="entity_config"><ellipse cx="1024.3135" cy="104.5" fill="#F1F1F1" rx="8" ry="8" style="stroke:#181818;stroke-width:0.5;"/><path d="M1024.3135,112.5 L1024.3135,139.5 M1011.3135,120.5 L1037.3135,120.5 M1024.3135,139.5 L1011.3135,154.5 M1024.3135,139.5 L1037.3135,154.5" fill="none" style="stroke:#181818;stroke-width:0.5;"/><text fill="#000000" font-family="sans-serif" font-size="14" lengthAdjust="spacing" textLength="120.627" x="964" y="170.5332">Configuration Store</text></g><!--link user to UC1--><g class="link" data-entity-1="user" data-entity-2="UC1" data-source-line="15" data-uid="lnk12" id="link_user_UC1"><path d="M36.03,218.79 C78.75,217.82 210.69,212.48 315,183 C376.69,165.57 438.3359,134.3273 476.1459,113.4773" fill="none" id="user-to-UC1" style="stroke:#181818;stroke-width:1;"/><polygon fill="#181818" points="481.4,110.58,471.5873,111.4233,477.0216,112.9944,475.4504,118.4287,481.4,110.58" style="stroke:#181818;stroke-width:1;"/></g><!--link user to UC2--><g class="link" data-entity-1="user" data-entity-2="UC2" data-source-line="16" data-uid="lnk13" id="link_user_UC2"><path d="M36.17,230.02 C44.39,235.71 55.22,242.05 66,245 C209.19,284.14 251.7,251.61 400,245 C413.16,244.41 421.1902,243.9317 434.6902,242.8217" fill="none" id="user-to-UC2" style="stroke:#181818;stroke-width:1;"/><polygon fill="#181818" points="440.67,242.33,431.3725,239.081,435.6868,242.7397,432.0281,247.0541,440.67,242.33" style="stroke:#181818;stroke-width:1;"/></g><!--link user to UC8--><g class="link" data-entity-1="user" data-entity-2="UC8" data-source-line="17" data-uid="lnk14" id="link_user_UC8"><path d="M36.25,209.54 C44.67,204.22 55.67,197.72 66,193 C93.16,180.58 118.8697,171.5088 145.0597,163.3788" fill="none" id="user-to-UC8" style="stroke:#181818;stroke-width:1;"/><polygon fill="#181818" points="150.79,161.6,141.0087,160.448,146.0148,163.0823,143.3805,168.0884,150.79,161.6" style="stroke:#181818;stroke-width:1;"/></g><!--link UC1 to UC3--><g class="link" data-entity-1="UC1" data-entity-2="UC3" data-source-line="18" data-uid="lnk15" id="link_UC1_UC3"><path d="M590.72,86.17 C631.27,82.56 675.1337,78.6527 716.6437,74.9527" fill="none" id="UC1-to-UC3" style="stroke:#181818;stroke-width:1;"/><polygon fill="#181818" points="722.62,74.42,713.3004,71.2348,717.6397,74.8639,714.0107,79.2033,722.62,74.42" style="stroke:#181818;stroke-width:1;"/><text fill="#000000" font-family="sans-serif" font-size="13" lengthAdjust="spacing" textLength="55.6563" x="627" y="75.4951">&#171;include&#187;</text></g><!--link UC2 to UC4--><g class="link" data-entity-1="UC2" data-entity-2="UC4" data-source-line="19" data-uid="lnk16" id="link_UC2_UC4"><path d="M591.42,237.34 C603.01,237.62 614.82,237.85 626,238 C651.33,238.34 657.67,238.51 683,238 C695.82,237.74 703.3939,237.5471 716.6539,237.0671" fill="none" id="UC2-to-UC4" style="stroke:#181818;stroke-width:1;"/><polygon fill="#181818" points="722.65,236.85,713.5112,233.1782,717.6533,237.0309,713.8006,241.173,722.65,236.85" style="stroke:#181818;stroke-width:1;"/><text fill="#000000" font-family="sans-serif" font-size="13" lengthAdjust="spacing" textLength="55.6563" x="627" y="234.4951">&#171;include&#187;</text></g><!--link UC1 to UC5--><g class="link" data-entity-1="UC1" data-entity-2="UC5" data-source-line="20" data-uid="lnk17" id="link_UC1_UC5"><path d="M577.72,105 C623.95,113.71 680.6236,124.3896 728.5736,133.4196" fill="none" id="UC1-to-UC5" style="stroke:#181818;stroke-width:1;"/><polygon fill="#181818" points="734.47,134.53,726.3657,128.9335,729.5564,133.6047,724.8852,136.7953,734.47,134.53" style="stroke:#181818;stroke-width:1;"/><text fill="#000000" font-family="sans-serif" font-size="13" lengthAdjust="spacing" textLength="55.6563" x="627" y="112.4951">&#171;include&#187;</text></g><!--link UC2 to UC5--><g class="link" data-entity-1="UC2" data-entity-2="UC5" data-source-line="21" data-uid="lnk18" id="link_UC2_UC5"><path d="M561.89,220.73 C613.42,205.38 689.5599,182.6935 744.0899,166.4435" fill="none" id="UC2-to-UC5" style="stroke:#181818;stroke-width:1;"/><polygon fill="#181818" points="749.84,164.73,740.0725,163.4669,745.0482,166.1579,742.3572,171.1337,749.84,164.73" style="stroke:#181818;stroke-width:1;"/><text fill="#000000" font-family="sans-serif" font-size="13" lengthAdjust="spacing" textLength="55.6563" x="627" y="183.4951">&#171;include&#187;</text></g><!--link UC3 to config--><g class="link" data-entity-1="UC3" data-entity-2="config" data-source-line="22" data-uid="lnk19" id="link_UC3_config"><path d="M860.44,83.55 C891.71,93.42 925.7881,104.1644 958.2381,114.4044" fill="none" id="UC3-to-config" style="stroke:#181818;stroke-width:1;"/><polygon fill="#181818" points="963.96,116.21,956.5809,109.687,959.1918,114.7053,954.1735,117.3162,963.96,116.21" style="stroke:#181818;stroke-width:1;"/></g><!--link UC4 to config--><g class="link" data-entity-1="UC4" data-entity-2="config" data-source-line="23" data-uid="lnk20" id="link_UC4_config"><path d="M852.32,216.35 C874.37,207.78 901.32,196.86 925,186 C937.69,180.18 945.7472,176.3003 958.4472,169.8103" fill="none" id="UC4-to-config" style="stroke:#181818;stroke-width:1;"/><polygon fill="#181818" points="963.79,167.08,953.9556,167.6136,959.3377,169.3552,957.596,174.7373,963.79,167.08" style="stroke:#181818;stroke-width:1;"/></g><!--link UC7 to UC1--><g class="link" data-entity-1="UC7" data-entity-2="UC1" data-source-line="24" data-uid="lnk21" id="link_UC7_UC1"><path d="M307.96,75.55 C349.32,79.09 390.5518,82.6086 429.1318,85.9086" fill="none" id="UC7-to-UC1" style="stroke:#181818;stroke-width:1;"/><polygon fill="#181818" points="435.11,86.42,426.4836,81.6675,430.1282,85.9939,425.8018,89.6384,435.11,86.42" style="stroke:#181818;stroke-width:1;"/><text fill="#000000" font-family="sans-serif" font-size="13" lengthAdjust="spacing" textLength="53.4917" x="346" y="76.4951">&#171;extend&#187;</text></g><!--SRC=[TP4nJyCm48Lt_ufJzWmahLgXAXAq35sYIgZibdD93OaTNUm2GlntRED8HYdRtRtldktd7bi3HWF9xcAWaOJ2IAqO5qOJPES9AGC-WNN5FDnhrShE4lSaFBiP1aQ4EMFUWwkkHyXEf5zT1qVLQXhYWY14bS4N0syh-EJ09sMGOCPhFlnQdlTtI-hHryU1TpDJfCmBxsN33TuoAs-22xzLYfq8hnBVuQ35cpiyS5C4roduO8tEHptQtfksf0SuX3mrVKP-a_8rlyhEeox-6Z-CInB726xPDsC-SyZpAgIGD4NQR9bJOrt2FUnsKedUDbXLJYcYibeeyyxwtvsbKWObVhCt_TDkvhk6FVSWL4rL_G00]--></g></svg>